<svg fill="none" height="92" viewBox="0 0 92 92" width="92" xmlns="http://www.w3.org/2000/svg" xmlns:xlink="http://www.w3.org/1999/xlink"><clipPath id="a"><path d="m0 0h92v92h-92z"/></clipPath><g clip-path="url(#a)" fill="#9fa6ad"><path d="m91.831 21.8163c-.3166-1.1775-1.0891-2.1814-2.1461-2.79-1.0578-.6115-2.3154-.777-3.4951-.4603-1.1782.3174-2.1821 1.0891-2.7907 2.1461l-.7665 1.334c-.7284-.4185-1.6588-.1722-2.0848.5524l-3.894 6.6376-1.334-.7665c-.3533-.2044-.774-.2598-1.1678-.1535-.3945.1071-.7298.3661-.9327.7209-.4154.7328-.1624 1.664.5674 2.0847l1.334.7666-13.0311 22.5821-3.2196 8.6011-1.5331 2.8663c-.8975 1.5615-.8017 3.5025.2455 4.9675l-3.4494 4.2309-.9656-2.4216c-.4357-1.0795-1.444-1.8191-2.6036-1.9096-1.1602-.0914-2.2719.482-2.87 1.4799l-.5517.9349-.521-6.1322c-.1198-1.4508-1.2434-2.617-2.6881-2.7922-1.4455-.1744-2.8139.6917-3.2757 2.072l-3.7713 11.3139c-.2635.8002.1676 1.6626.9656 1.9321.1497.0696.3107.1115.4754.122.6587.0022 1.2456-.4177 1.4567-1.042l3.7556-11.3139.5367 6.2236c.1108 1.328 1.0652 2.4321 2.3632 2.733 1.298.301 2.641-.2709 3.3244-1.414l.5674-.9357.9507 2.4074c.4035 1.0143 1.316 1.7382 2.3962 1.8991s2.1641-.265 2.8468-1.1176l3.5722-4.5221c.3952.1033.8024.1549 1.2112.1534 1.6431.0128 3.1687-.8526 4.0011-2.2696l1.5331-2.5601 5.841-7.098 13.1689-22.8583 1.3339.7665c.3556.2036.6146.5397.7202.9357.1063.393.0509.8122-.1527 1.1648l-6.1323 10.6245c-.2313.3488-.3099.777-.2171 1.1857.0928.408.3481.7605.7074.9754.3533.2051.774.2605 1.1678.1542.3945-.1071.7298-.3661.9327-.7209l6.1323-10.6245c.6115-1.0577.777-2.3153.4596-3.495-.3174-1.1783-1.0892-2.1821-2.1462-2.7907l-1.3339-.7665 3.8327-6.6384c.4184-.7283.1721-1.658-.5517-2.0847l.7665-1.334c.6281-1.0742.7942-2.3572.4596-3.5564zm-5.7797.4289c.2029-.3548.5397-.6146.9357-.7201.3938-.0973.81-.0427 1.1648.1534.3556.2029.6146.5398.7209.935.0973.3937.0426.8099-.1535 1.1648l-.7665 1.3339-2.6679-1.533zm-20.8956 42.804-.7665-.4447-2.2689-1.3189 2.1768-5.8254 4.829 2.7899zm-4.5992 4.43c-.6475-.4513-.8466-1.3197-.4596-2.0084l.7665-1.3332 2.6672 1.5331-.7666 1.3182c-.2148.3728-.5756.6378-.9956.7314-.4199.0928-.8593.006-1.2119-.2411zm10.3176-11.7428-5.3044-3.0661 12.2646-21.2489 5.3043 3.0661zm13.7976-23.9011-5.3044-3.0661 3.0662-5.3044 5.3043 3.0661z"/><path d="m24.1916 68.7124-5.4264 5.4121-3.2503-3.2503c-.5981-.5943-1.5637-.5943-2.1619 0-.2904.2882-.4536.6797-.4536 1.0885 0 .4087.1632.8009.4536 1.0884l3.2503 3.2503c.5749.5704 1.352.89 2.1619.8893.8145.0044 1.5982-.3152 2.1769-.8893l5.4114-5.4272c.521-.6086.4858-1.5151-.0801-2.081-.5667-.5667-1.4732-.6018-2.0818-.0808z"/><path d="m6.13281 72.8364c0 7.1975 5.83439 13.0311 13.03109 13.0311 7.1968 0 13.0311-5.8336 13.0311-13.0311 0-.8467-.6864-1.5331-1.533-1.5331-.8467 0-1.5331.6864-1.5331 1.5331 0 5.5034-4.4615 9.9649-9.965 9.9649s-9.96494-4.4615-9.96494-9.9649c0-5.5035 4.46144-9.965 9.96494-9.965 2.1574-.006 4.2571.6939 5.9789 1.9934.6774.5083 1.6386.3706 2.1461-.3069.5083-.6774.3713-1.6379-.3062-2.1461-3.9487-2.9614-9.2321-3.4375-13.6464-1.2307-4.41506 2.2076-7.20349 6.7199-7.20349 11.6553z"/><path d="m55.1908 12.28c.8466 0 1.5331-.6857 1.5331-1.5331 0-.84659-.6865-1.53303-1.5331-1.53303h-39.8599c-.8466 0-1.533.68644-1.533 1.53303v6.1323c0 .8474.6864 1.5331 1.533 1.5331h39.8599c.8466 0 1.5331-.6857 1.5331-1.5331 0-.8466-.6865-1.533-1.5331-1.533h-38.3268v-3.0662z"/><path d="m19.9305 21.478c-.8466 0-1.533.6865-1.533 1.5331 0 .8474.6864 1.5331 1.533 1.5331h30.6615c.8466 0 1.533-.6857 1.533-1.5331 0-.8466-.6864-1.5331-1.533-1.5331z"/><path d="m59.79 32.21h-33.7276c-.8467 0-1.5331.6864-1.5331 1.533 0 .8474.6864 1.5331 1.5331 1.5331h33.7276c.8466 0 1.533-.6857 1.533-1.5331 0-.8466-.6864-1.533-1.533-1.533z"/><path d="m44.459 42.9413c0-.8467-.6864-1.5331-1.533-1.5331h-30.6615c-.8466 0-1.5331.6864-1.5331 1.5331 0 .8474.6865 1.533 1.5331 1.533h30.6615c.8466 0 1.533-.6856 1.533-1.533z"/><path d="m59.79 41.4082h-10.7315c-.8467 0-1.5331.6864-1.5331 1.5331 0 .8474.6864 1.533 1.5331 1.533h10.7315c.8466 0 1.533-.6856 1.533-1.533 0-.8467-.6864-1.5331-1.533-1.5331z"/><path d="m27.5952 52.1399c.8467 0 1.5331-.6857 1.5331-1.5331 0-.8466-.6864-1.5331-1.5331-1.5331h-15.3307c-.8466 0-1.5331.6865-1.5331 1.5331 0 .8474.6865 1.5331 1.5331 1.5331z"/><path d="m33.7274 52.1399h10.7315c.8466 0 1.5331-.6857 1.5331-1.5331 0-.8466-.6865-1.5331-1.5331-1.5331h-10.7315c-.8466 0-1.5331.6865-1.5331 1.5331 0 .8474.6865 1.5331 1.5331 1.5331z"/><path d="m68.9883 70.5379c-.8467 0-1.5331.6865-1.5331 1.5331v15.3307c0 .8474-.6865 1.5331-1.5331 1.5331h-61.32288c-.84664 0-1.53308-.6857-1.53308-1.5331v-82.78588c0-.84663.68644-1.53307 1.53308-1.53307h61.32288c.8466 0 1.5331.68644 1.5331 1.53307v28.79148c0 .8467.6864 1.5331 1.5331 1.5331.8466 0 1.533-.6864 1.533-1.5331v-28.79148c0-2.5399-2.0593-4.5992184-4.5992-4.5992184h-61.32288c-2.5399 0-4.59922 2.0593184-4.59922 4.5992184v82.78588c0 2.5407 2.05932 4.5992 4.59922 4.5992h61.32288c2.5399 0 4.5992-2.0585 4.5992-4.5992v-15.3307c0-.8466-.6864-1.5331-1.533-1.5331z"/></g></svg>