<svg fill="none" height="92" viewBox="0 0 92 92" width="92" xmlns="http://www.w3.org/2000/svg"><g fill="#fff"><path d="m83.375 76.1875v-54.625c0-3.9694-3.2181-7.1875-7.1875-7.1875h-4.3125v-5.75c0-.79399-.6435-1.4375-1.4375-1.4375s-1.4375.64351-1.4375 1.4375v11.5c0 1.588-1.287 2.875-2.875 2.875s-2.875-1.287-2.875-2.875v-11.5c0-1.58799 1.287-2.875 2.875-2.875.794 0 1.4375-.64351 1.4375-1.4375s-.6435-1.4375-1.4375-1.4375c-3.1754 0-5.75 2.57458-5.75 5.75v5.75h-7.1875v-5.75c0-.79399-.6435-1.4375-1.4375-1.4375s-1.4375.64351-1.4375 1.4375v11.5c0 1.588-1.287 2.875-2.875 2.875s-2.875-1.287-2.875-2.875v-11.5c0-1.58799 1.287-2.875 2.875-2.875.794 0 1.4375-.64351 1.4375-1.4375s-.6435-1.4375-1.4375-1.4375c-3.1754 0-5.75 2.57458-5.75 5.75v5.75h-7.1875v-5.75c0-.79399-.6435-1.4375-1.4375-1.4375s-1.4375.64351-1.4375 1.4375v11.5c0 1.588-1.287 2.875-2.875 2.875s-2.875-1.287-2.875-2.875v-11.5c0-1.58799 1.287-2.875 2.875-2.875.794 0 1.4375-.64351 1.4375-1.4375s-.6435-1.4375-1.4375-1.4375c-3.1754 0-5.75 2.57458-5.75 5.75v5.75h-4.3125c-3.9694 0-7.1875 3.2181-7.1875 7.1875v44.5625h-7.1875c-.79399 0-1.4375.6435-1.4375 1.4375v8.625c0 3.9694 3.21809 7.1875 7.1875 7.1875h66.125c3.9694 0 7.1875-3.2181 7.1875-7.1875zm-73.3125 4.3125c-2.38142 0-4.3125-1.9311-4.3125-4.3125v-7.1875h63.25v7.1875c0 1.5554.5048 3.0682 1.4375 4.3125zm21.5625-14.375h-8.625v-2.875h8.625zm20.125 0h-8.625v-2.875h8.625zm20.125 10.0625v-8.625c0-.794-.6435-1.4375-1.4375-1.4375h-15.8125v-2.875c0-1.588-1.287-2.875-2.875-2.875h-8.625c-1.588 0-2.875 1.287-2.875 2.875v2.875h-5.75v-2.875c0-1.588-1.287-2.875-2.875-2.875h-8.625c-1.588 0-2.875 1.287-2.875 2.875v2.875h-5.75v-31.625h37.375c.794 0 1.4375-.6435 1.4375-1.4375s-.6435-1.4375-1.4375-1.4375h-37.375v-10.0625c0-2.3814 1.9311-4.3125 4.3125-4.3125h4.3125v2.875c0 3.1754 2.5746 5.75 5.75 5.75s5.75-2.5746 5.75-5.75v-2.875h7.1875v2.875c0 3.1754 2.5746 5.75 5.75 5.75s5.75-2.5746 5.75-5.75v-2.875h7.1875v2.875c0 3.1754 2.5746 5.75 5.75 5.75s5.75-2.5746 5.75-5.75v-2.875h4.3125c2.3814 0 4.3125 1.9311 4.3125 4.3125v10.0625h-18.6875c-.794 0-1.4375.6435-1.4375 1.4375s.6435 1.4375 1.4375 1.4375h18.6875v41.6875c0 2.3814-1.9311 4.3125-4.3125 4.3125s-4.3125-1.9311-4.3125-4.3125z"/><path d="m51.75 40.25h-8.625c-1.588 0-2.875 1.287-2.875 2.875v8.625c0 1.588 1.287 2.875 2.875 2.875h8.625c1.588 0 2.875-1.287 2.875-2.875v-8.625c0-1.588-1.287-2.875-2.875-2.875zm-8.625 11.5v-8.625h8.625v8.625z"/><path d="m31.625 40.25h-8.625c-1.588 0-2.875 1.287-2.875 2.875v8.625c0 1.588 1.287 2.875 2.875 2.875h8.625c1.588 0 2.875-1.287 2.875-2.875v-8.625c0-1.588-1.287-2.875-2.875-2.875zm-8.625 11.5v-8.625h8.625v8.625z"/><path d="m71.875 43.125c.794 0 1.4375-.6435 1.4375-1.4375s-.6435-1.4375-1.4375-1.4375h-8.625c-1.588 0-2.875 1.287-2.875 2.875v8.625c0 1.588 1.287 2.875 2.875 2.875h8.625c.794 0 1.4375-.6435 1.4375-1.4375s-.6435-1.4375-1.4375-1.4375h-8.625v-8.625z"/><path d="m87.6875 20.125c-.794 0-1.4375.6435-1.4375 1.4375v63.25c0 .794-.6435 1.4375-1.4375 1.4375h-63.25c-.794 0-1.4375.6435-1.4375 1.4375s.6435 1.4375 1.4375 1.4375h63.25c2.3814 0 4.3125-1.9311 4.3125-4.3125v-63.25c0-.794-.6435-1.4375-1.4375-1.4375z"/></g></svg>