<svg fill="none" height="92" viewBox="0 0 92 92" width="92" xmlns="http://www.w3.org/2000/svg" xmlns:xlink="http://www.w3.org/1999/xlink"><clipPath id="a"><path d="m0 0h92v92h-92z"/></clipPath><g clip-path="url(#a)" fill="#fff"><path d="m50.594 12.2772c.8466 0 1.5331-.6865 1.5331-1.5331 0-.8467-.6865-1.53316-1.5331-1.53316h-33.7288c-.8467 0-1.5332.68646-1.5332 1.53316v6.1325c0 .8466.6865 1.5331 1.5332 1.5331h33.7288c.8466 0 1.5331-.6865 1.5331-1.5331 0-.8467-.6865-1.5332-1.5331-1.5332h-32.1957v-3.0662z"/><path d="m56.7248 21.4761h-35.262c-.8466 0-1.5331.6864-1.5331 1.5331s.6865 1.5331 1.5331 1.5331h35.262c.8466 0 1.5331-.6864 1.5331-1.5331s-.6865-1.5331-1.5331-1.5331z"/><path d="m56.7262 29.1416h-45.9939c-.84662 0-1.53308.6865-1.53308 1.5331 0 .8467.68646 1.5332 1.53308 1.5332h45.9939c.8466 0 1.5331-.6865 1.5331-1.5332 0-.8466-.6865-1.5331-1.5331-1.5331z"/><path d="m10.7323 39.8734h22.997c.8466 0 1.5331-.6865 1.5331-1.5331 0-.8467-.6865-1.5332-1.5331-1.5332h-22.997c-.84662 0-1.53308.6865-1.53308 1.5332 0 .8466.68646 1.5331 1.53308 1.5331z"/><path d="m41.3945 36.8071c-.8467 0-1.5332.6865-1.5332 1.5332 0 .8466.6865 1.5331 1.5332 1.5331h3.0662c.8467 0 1.5331-.6865 1.5331-1.5331 0-.8467-.6864-1.5332-1.5331-1.5332z"/><path d="m56.7263 36.8071h-4.5994c-.8467 0-1.5331.6865-1.5331 1.5332 0 .8466.6864 1.5331 1.5331 1.5331h4.5994c.8466 0 1.5331-.6865 1.5331-1.5331 0-.8467-.6865-1.5332-1.5331-1.5332z"/><path d="m36.7955 46.0063c0-.8467-.6865-1.5332-1.5331-1.5332h-24.5301c-.84662 0-1.53308.6865-1.53308 1.5332 0 .8466.68646 1.5331 1.53308 1.5331h24.5301c.8466 0 1.5331-.6865 1.5331-1.5331z"/><path d="m15.3317 52.1387h-4.5994c-.84662 0-1.53308.6864-1.53308 1.5331s.68646 1.5331 1.53308 1.5331h4.5994c.8467 0 1.5332-.6864 1.5332-1.5331s-.6865-1.5331-1.5332-1.5331z"/><path d="m15.3317 59.8042h-4.5994c-.84662 0-1.53308.6865-1.53308 1.5331 0 .8467.68646 1.5331 1.53308 1.5331h4.5994c.8467 0 1.5332-.6864 1.5332-1.5331 0-.8466-.6865-1.5331-1.5332-1.5331z"/><path d="m70.5234 24.5421c0 .8467.6865 1.5331 1.5332 1.5331h1.5331c.8467 0 1.5331-.6864 1.5331-1.5331v-6.1325c0-.8467-.6864-1.5331-1.5331-1.5331h-1.5331c-.8467 0-1.5332.6864-1.5332 1.5331s.6865 1.5331 1.5332 1.5331v3.0663c-.8467 0-1.5332.6864-1.5332 1.5331z"/><path d="m70.9685 33.2961c.149.1355.3204.2448.5061.3219.3705.1647.7943.1647 1.1648 0 .3855-.1392.6887-.4424.828-.8279.1639-.3706.1639-.7936 0-1.1649-.0727-.1879-.1819-.36-.3219-.506-.2875-.2905-.6798-.4537-1.0885-.4537s-.801.1632-1.0885.4537c-.1399.146-.2492.3181-.3219.506-.0786.1842-.1205.3826-.1227.5824-.0053.2014.0367.4005.1227.5825.0779.1864.1864.357.3219.506z"/><path d="m70.9685 40.9616c.149.1355.3204.2448.5061.3219.5704.2403 1.2299.113 1.6708-.3219.1355-.149.2441-.3196.3219-.506.0786-.1842.1206-.3818.1228-.5825.0022-.4072-.158-.7987-.4447-1.0884l-.2298-.1842c-.0853-.0576-.1781-.104-.2762-.1377-.0913-.0464-.1894-.0779-.2912-.0921-.5001-.1003-1.0173.0554-1.3797.414-.2799.2942-.4386.6827-.4446 1.0884-.0053.2014.0367.4005.1227.5825.0779.1864.1864.357.3219.506z"/><path d="m72.0566 12.2772h6.1325c.8466 0 1.5331.6865 1.5331 1.5331v33.8209c0 .8467.6865 1.5331 1.5331 1.5331.8467 0 1.5332-.6864 1.5332-1.5331v-33.8209c0-2.54-2.0594-4.59936-4.5994-4.59936h-6.1325c-.8467 0-1.5332.68646-1.5332 1.53316 0 .8466.6865 1.5331 1.5332 1.5331z"/><path d="m22.9969 76.6695h-18.39752c-.84666 0-1.53313-.6864-1.53313-1.5331v-70.52383c0-.84667.68647-1.53313 1.53313-1.53313h58.25882c.8467 0 1.5331.68646 1.5331 1.53313v40.41373c0 .8467.6865 1.5332 1.5332 1.5332.8466 0 1.5331-.6865 1.5331-1.5332v-40.41373c0-2.54-2.0594-4.5993864-4.5994-4.5993864h-58.25882c-2.53999 0-4.59938 2.0593864-4.59938 4.5993864v70.52383c0 2.54 2.05939 4.5994 4.59938 4.5994h18.39752c.8467 0 1.5331-.6865 1.5331-1.5331 0-.8467-.6864-1.5332-1.5331-1.5332z"/><path d="m76.6556 75.1352c0-3.3866-2.7458-6.1325-6.1325-6.1325-1.6933 0-3.0662-1.3729-3.0662-3.0662 0-1.6934 1.3729-3.0663 3.0662-3.0663s3.0663 1.3729 3.0663 3.0663c0 .8466.6864 1.5331 1.5331 1.5331s1.5331-.6865 1.5331-1.5331c-.0022-2.7945-1.8932-5.2342-4.5994-5.9334v-3.2654c0-.8466-.6864-1.5331-1.5331-1.5331-.8466 0-1.5331.6865-1.5331 1.5331v3.2654c-2.9809.7793-4.9213 3.6502-4.5327 6.7067.3885 3.0565 2.9846 5.3509 6.0658 5.3592 1.6933 0 3.0663 1.3729 3.0663 3.0662 0 1.6934-1.373 3.0663-3.0663 3.0663s-3.0662-1.3729-3.0662-3.0663c0-.8466-.6865-1.5331-1.5332-1.5331-.8466 0-1.5331.6865-1.5331 1.5331.0023 2.7953 1.8932 5.235 4.5994 5.9334v3.2654c0 .8467.6865 1.5331 1.5331 1.5331.8467 0 1.5331-.6864 1.5331-1.5331v-3.2654c2.7062-.6984 4.5972-3.1381 4.5994-5.9334z"/><path d="m70.5229 49.0723c-7.0181.0045-13.59 3.4398-17.6003 9.1987h-6.9297v-3.0662h4.5993c.8467 0 1.5332-.6865 1.5332-1.5331 0-.8467-.6865-1.5332-1.5332-1.5332h-29.1294c-.8466 0-1.5331.6865-1.5331 1.5332v18.3975c0 .8466.6865 1.5331 1.5331 1.5331h6.1325v16.8644c0 .8467.6865 1.5331 1.5332 1.5331h26.0631c.8467 0 1.5332-.6864 1.5332-1.5331s-.6865-1.5331-1.5332-1.5331h-1.5331v-5.1361c6.1999 7.8909 17.0396 10.4317 26.1006 6.1197 9.061-4.3126 13.9247-14.3274 11.7111-24.1153-2.2129-9.7871-10.9124-16.7349-20.9473-16.7296zm-24.53 18.3975h3.2811c-.1423 1.0158-.2134 2.0407-.2149 3.0663h-3.0662zm5.1361-6.1325c-.4664.9926-.8609 2.0175-1.1806 3.0662h-3.9555v-3.0662zm-8.2024-6.1325v15.3313h-6.1325v-15.3313zm-12.265 24.53h10.7319v3.0663h-10.7319zm-7.6657-18.3975h10.7319v3.0662h-10.7319zm10.7319-6.1325v3.0662h-10.7319v-3.0662zm-10.7319 12.265h10.7319v3.0663h-10.7319zm18.3976 6.1325v3.0663h-10.7319v-3.0663zm-10.7319 12.265h10.7319v3.0663h-10.7319zm19.9306 3.0663h-6.1325v-15.3313h4.8143c.2418 1.6821.6842 3.3298 1.3182 4.9063zm19.9307 0c-9.5529.0382-17.5456-7.242-18.3975-16.7566v-.1078c.0082-.1123.0082-.2246 0-.3369 0-.399 0-.7972 0-1.1962-.0008-1.3565.1482-2.7085.4446-4.032.0592-.1362.0951-.2815.1071-.4289.4686-1.8835 1.2344-3.6794 2.269-5.3203.0651-.0809.1213-.1685.1692-.2605 4.806-7.3775 14.1649-10.3157 22.3254-7.0084 8.1597 3.3073 12.8324 11.9319 11.1466 20.5737-1.6866 8.6418-9.2594 14.8776-18.0644 14.8739z"/><path d="m77.3475 56.8146c-.3661-.1856-.7906-.2171-1.1791-.0876-.3893.1295-.7097.4095-.8908.7771-.3766.7583-.0674 1.6776.6894 2.0549 4.163 2.0743 6.7943 6.3256 6.7943 10.9767 0 4.6518-2.6313 8.9023-6.7943 10.9774-.6288.3219-.9559 1.0323-.792 1.7195.1632.6872.7756 1.1738 1.4822 1.1783.2388.003.4754-.0494.6903-.1534 5.2035-2.5939 8.492-7.9075 8.492-13.7218 0-5.8136-3.2885-11.1279-8.492-13.7211z"/><path d="m65.0815 81.5134c-4.163-2.0751-6.7943-6.3257-6.7943-10.9774 0-4.6511 2.6313-8.9024 6.7943-10.9767.7576-.3811 1.063-1.3048.682-2.0624-.3811-.7576-1.3041-1.063-2.0624-.682-5.2035 2.5932-8.4921 7.9074-8.4921 13.7211 0 5.8143 3.2886 11.1279 8.4921 13.7217.2148.1041.4514.1565.6902.1535.7067-.0045 1.319-.4911 1.4822-1.1783.164-.6872-.1632-1.3976-.792-1.7195z"/></g></svg>