<svg fill="none" height="92" viewBox="0 0 92 92" width="92" xmlns="http://www.w3.org/2000/svg" xmlns:xlink="http://www.w3.org/1999/xlink"><clipPath id="a"><path d="m0 0h92v92h-92z"/></clipPath><g clip-path="url(#a)" fill="#fff"><path d="m88.924 65.5686v-4.2319h1.5332c.4229.003.8279-.1692 1.1191-.4754.2605-.2912.408-.667.414-1.0578l-2.7444-52.12722c-.2613-4.21918-3.7603-7.507823-7.9877-7.507823s-7.7264 3.288643-7.9876 7.507823l-2.7445 52.12722c-.0127.4178.1355.8235.414 1.1349.304.2778.7075.4215 1.1192.3983h1.5332v4.2319l-2.8979 5.8107c-.2186.4335-.2186.9455 0 1.3797l9.1989 18.3979c.0749.1692.1849.3204.3219.4446.1789.1655.3945.2868.6288.3526h.843c.235-.0658.4506-.1871.6288-.3526.1378-.1242.2471-.2754.3219-.4446l9.1989-18.3979c.2186-.4342.2186-.9462 0-1.3797zm-15.2552-7.2982.6446-12.2652h13.8897l.7209 12.2652zm2.6681-50.51702c0-2.7182 2.2031-4.92211 4.9213-4.92211s4.9214 2.20391 4.9214 4.92211l1.855 35.26252h-13.5528l.1684-3.0663h8.5394c.8475 0 1.5332-.6864 1.5332-1.5331 0-.8474-.6857-1.5332-1.5332-1.5332h-8.3859zm9.5208 53.58332v3.0663h-9.1989v-3.0663zm-3.0663 22.6298v-10.3646h1.5331c.8467 0 1.5332-.6864 1.5332-1.5331s-.6865-1.5332-1.5332-1.5332h-6.1326c-.8467 0-1.5331.6865-1.5331 1.5332s.6864 1.5331 1.5331 1.5331h1.5332v10.3646l-5.9485-11.8977 2.2997-4.5995h10.3638l2.2997 4.5995z"/><path d="m52.1276 19.9418c.8467 0 1.5332-.6865 1.5332-1.5332 0-.8466-.6865-1.5331-1.5332-1.5331h-39.862c-.8467 0-1.5332.6865-1.5332 1.5331v6.1327c0 .8466.6865 1.5331 1.5332 1.5331h39.862c.8467 0 1.5332-.6865 1.5332-1.5331 0-.8467-.6865-1.5332-1.5332-1.5332h-38.3289v-3.0663z"/><path d="m53.661 33.7402c0-.8467-.6865-1.5332-1.5332-1.5332h-33.7294c-.8467 0-1.5332.6865-1.5332 1.5332s.6865 1.5331 1.5332 1.5331h33.7294c.8467 0 1.5332-.6864 1.5332-1.5331z"/><path d="m9.19922 41.4057c0 .8467.68647 1.5332 1.53318 1.5332h24.5305c.8466 0 1.5331-.6865 1.5331-1.5332s-.6865-1.5331-1.5331-1.5331h-24.5305c-.84671 0-1.53318.6864-1.53318 1.5331z"/><path d="m44.4609 39.8726c-.8467 0-1.5332.6864-1.5332 1.5331s.6865 1.5332 1.5332 1.5332h6.1326c.8467 0 1.5331-.6865 1.5331-1.5332s-.6864-1.5331-1.5331-1.5331z"/><path d="m30.6634 49.0717c0-.8466-.6865-1.5331-1.5332-1.5331h-18.3978c-.84671 0-1.53318.6865-1.53318 1.5331 0 .8467.68647 1.5332 1.53318 1.5332h18.3978c.8467 0 1.5332-.6865 1.5332-1.5332z"/><path d="m29.1302 56.7373c0-.8467-.6864-1.5332-1.5331-1.5332h-16.8647c-.84671 0-1.53318.6865-1.53318 1.5332 0 .8466.68647 1.5331 1.53318 1.5331h16.8647c.8467 0 1.5331-.6865 1.5331-1.5331z"/><path d="m10.7324 62.8696c-.84671 0-1.53318.6865-1.53318 1.5332s.68647 1.5331 1.53318 1.5331h10.7321c.8466 0 1.5331-.6864 1.5331-1.5331s-.6865-1.5332-1.5331-1.5332z"/><path d="m59.7931.0107422h-55.19363c-2.54004 0-4.59947 2.0594278-4.59947 4.5994678v70.52509c0 2.5401 2.05943 4.5995 4.59947 4.5995h26.06363c.8467 0 1.5332-.6865 1.5332-1.5331 0-.8467-.6865-1.5332-1.5332-1.5332h-26.06363c-.84668 0-1.53316-.6865-1.53316-1.5332v-61.3262h58.25989v61.3262c0 .8467-.6865 1.5332-1.5331 1.5332h-4.5995c-.8467 0-1.5332.6865-1.5332 1.5332 0 .8466.6865 1.5331 1.5332 1.5331h4.5995c2.54 0 4.5994-2.0594 4.5994-4.5995v-70.52509c0-2.54004-2.0594-4.5994678-4.5994-4.5994678zm-56.72679 10.7320578v-6.13259c0-.84668.68648-1.53316 1.53316-1.53316h55.19363c.8466 0 1.5331.68648 1.5331 1.53316v6.13259z"/><path d="m42.9276 56.7373c-2.54 0-4.5995 2.0594-4.5995 4.5995 0 2.54 2.0595 4.5994 4.5995 4.5994s4.5995-2.0594 4.5995-4.5994c0-2.5401-2.0595-4.5995-4.5995-4.5995zm0 6.1326c-.8467 0-1.5332-.6864-1.5332-1.5331s.6865-1.5332 1.5332-1.5332 1.5331.6865 1.5331 1.5332-.6864 1.5331-1.5331 1.5331z"/><path d="m55.1946 61.3371c-.0023-1.7039-.9455-3.2677-2.4532-4.0628.5016-1.6289.0614-3.4009-1.1431-4.6062-1.2053-1.2045-2.9773-1.6447-4.6062-1.1431-.7981-1.5032-2.3604-2.4435-4.0628-2.4435-1.7023 0-3.2647.9403-4.0627 2.4435-1.629-.5016-3.4009-.0614-4.6062 1.1431-1.2045 1.2053-1.6447 2.9773-1.1431 4.6062-1.504.7981-2.4435 2.3604-2.4435 4.0628 0 1.7023.9395 3.2654 2.4435 4.0627-.5016 1.6252-.0651 3.3942 1.1341 4.5994.2995.2987.6401.5518 1.0122.7516v19.7162c.003.6191.378 1.1753.9507 1.4104.5704.2403 1.23.113 1.6709-.3219l5.0441-5.0591 5.0442 5.0591c.2889.2875.6812.4469 1.0885.4447.2013.0052.4005-.0367.5824-.1228.5727-.2351.9477-.7913.9507-1.4104v-19.7012c.3721-.1999.7127-.4529 1.0121-.7508 1.1993-1.2061 1.6358-2.9743 1.1342-4.5995 1.5122-.798 2.4569-2.3686 2.4532-4.0784zm-11.1768 21.9088c-.2874-.2905-.6797-.4536-1.0885-.4536-.4087 0-.801.1631-1.0884.4536l-3.511 3.526v-15.4843l.5367-.1385c.798 1.504 2.3604 2.4435 4.0627 2.4435 1.7024 0 3.2647-.9395 4.0628-2.4435l.5367.1385v15.4843zm6.5773-20.3757h-.2605c-.6243-.003-1.1888.3728-1.4261.9507-.2358.5742-.1026 1.2338.3376 1.6709l.1842.1842c.5944.5981.5944 1.5639 0 2.162-.1692.1774-.3803.3092-.6139.3833h-.2298c-.4829.0748-.9725-.0846-1.3183-.4297l-.1842-.1842c-.4387-.4417-1.1012-.5749-1.6761-.3361-.5757.2388-.9492.8025-.9455 1.4254v.3061c0 .8467-.6865 1.5332-1.5332 1.5332-.8466 0-1.5331-.6865-1.5331-1.5332v-.2605c.003-.6243-.3728-1.1888-.9508-1.4261-.1849-.0734-.3832-.1093-.5824-.107-.4072-.0023-.7995.1579-1.0885.4446l-.1841.1842c-.3459.3451-.8355.5046-1.3183.429h-.2298c-.2336-.0734-.4447-.2052-.6139-.3833-.5944-.5982-.5944-1.5639 0-2.162l.1999-.1834c.4402-.438.5734-1.0975.3369-1.6717-.2374-.5772-.8011-.9537-1.4254-.95h-.2762c-.8467 0-1.5332-.6865-1.5332-1.5331 0-.8475.6865-1.5332 1.5332-1.5332h.2605c.6243.003 1.1888-.3735 1.4261-.9507.2358-.5742.1025-1.2337-.3376-1.6717l-.1842-.1834c-.6011-.5974-.6041-1.5683-.0075-2.1695.5974-.6011 1.5684-.6048 2.1695-.0074l.1841.1991c.4372.4402 1.0975.5734 1.6709.3369.578-.2373.9538-.801.9508-1.4254v-.3069c0-.8467.6865-1.5332 1.5331-1.5332.8467 0 1.5332.6865 1.5332 1.5332v.2605c-.003.6251.3728 1.1888.9507 1.4261.5735.2358 1.2337.1033 1.6709-.3376l.1842-.1834c.5966-.6012 1.5683-.6049 2.1695-.0083.6011.5974.6041 1.5684.0074 2.1695l-.1991.1842c-.4402.4372-.5734 1.0974-.3376 1.6709.2373.5779.8018.9537 1.4261.9507h.2605c.8467 0 1.5332.6865 1.5332 1.5332 0 .8466-.6865 1.5331-1.5332 1.5331z"/></g></svg>