<svg fill="none" height="17" viewBox="0 0 16 17" width="16" xmlns="http://www.w3.org/2000/svg"><path d="m15.6889 13.5767-1.7738-1.185-1.5768-1.0532c-.3043-.2029-.7133-.1364-.9379.1526l-.9757 1.2569c-.2096.2727-.58666.3511-.88722.1844-.66205-.3691-1.44495-.7165-3.17237-2.4497-1.72742-1.73316-2.07639-2.51544-2.44467-3.17884-.1664-.30118-.08818-.67897.184-.88896l1.25433-.97771c.28834-.22508.35475-.63488.15228-.93984l-1.01874-1.53139-1.21489-1.82608c-.20678-.310815-.62071-.404129-.9404-.212021l-1.401107.842271c-.378653.22355-.656994.58453-.777367 1.00811-.383153 1.39981-.460402 4.48773 4.478294 9.43656 4.9387 4.9487 8.02006 4.8711 9.41696 4.4871.4228-.1206.783-.3995 1.0061-.7789l.8405-1.404c.1918-.3203.0987-.7351-.2115-.9423z" fill="#fff"/></svg>