<svg width="22" height="22" viewBox="0 0 22 22" xmlns="http://www.w3.org/2000/svg">
<path d="M21.4227 16.9723L16.9698 14.0025C16.4047 13.6286 15.6473 13.7516 15.2295 14.2851L13.9324 15.953C13.7657 16.1728 13.4627 16.2366 13.2216 16.1026L12.9748 15.9666C12.1569 15.5207 11.1392 14.9656 9.08877 12.9143C7.0383 10.863 6.48215 9.84441 6.03633 9.02794L5.90104 8.78119C5.76524 8.54007 5.82779 8.23575 6.04767 8.06771L7.71427 6.77093C8.24752 6.35309 8.37069 5.59578 7.99731 5.03048L5.02775 0.577286C4.64508 0.00163523 3.87734 -0.171172 3.28493 0.184969L1.4229 1.30357C0.837839 1.64755 0.408602 2.20464 0.225195 2.85811C-0.445319 5.30138 0.0591021 9.51809 6.27026 15.7304C11.2111 20.6712 14.8893 21.9999 17.4175 21.9999C17.9993 22.0024 18.5789 21.9267 19.1406 21.7748C19.7941 21.5916 20.3513 21.1623 20.695 20.5771L21.8147 18.716C22.1713 18.1234 21.9986 17.3552 21.4227 16.9723ZM21.1829 18.3398L20.0659 20.202C19.8191 20.6244 19.4183 20.935 18.9477 21.0687C16.6923 21.688 12.752 21.175 6.78899 15.2117C0.826024 9.24827 0.313182 5.308 0.932399 3.05209C1.06627 2.58085 1.37723 2.1796 1.80015 1.93237L3.66219 0.815229C3.91923 0.660553 4.25245 0.735528 4.4185 0.985329L6.03161 3.40733L7.38552 5.43814C7.54766 5.68334 7.49439 6.01198 7.26308 6.19343L5.5961 7.49021C5.0888 7.87814 4.94393 8.58007 5.25626 9.13716L5.38863 9.37768C5.85718 10.2371 6.43971 11.3062 8.56643 13.4327C10.6932 15.5592 11.7618 16.1418 12.6208 16.6104L12.8616 16.7431C13.4186 17.0554 14.1206 16.9106 14.5085 16.4032L15.8052 14.7361C15.9866 14.5049 16.3151 14.4517 16.5604 14.6137L21.0129 17.5834C21.2628 17.7494 21.3378 18.0828 21.1829 18.3398Z" fill="currentColor"/>
<path d="M12.35 3.69998C15.6346 3.70363 18.2963 6.36543 18.3 9.65001C18.3 9.84332 18.4567 10 18.65 10C18.8433 10 19 9.84332 19 9.65001C18.9959 5.97898 16.021 3.00402 12.35 3C12.1567 3 12 3.15668 12 3.34999C12 3.5433 12.1567 3.69998 12.35 3.69998Z" fill="currentColor"/>
<path d="M12.3571 5.71426C14.5258 5.71681 16.2832 7.47422 16.2857 9.64287C16.2857 9.84012 16.4457 10 16.6429 10C16.8401 10 17 9.84012 17 9.64287C16.997 7.07988 14.9201 5.00293 12.3571 5C12.1599 5 12 5.15988 12 5.35713C12 5.55438 12.1599 5.71426 12.3571 5.71426Z" fill="currentColor"/>
<path d="M12.375 7.74998C13.41 7.75121 14.2487 8.58996 14.25 9.62501C14.25 9.83213 14.4179 10 14.625 10C14.8321 10 15 9.83213 15 9.62501C14.9983 8.17594 13.8241 7.00163 12.375 7C12.1679 7 12 7.16787 12 7.37499C12 7.58211 12.1679 7.74998 12.375 7.74998Z" fill="currentColor"/>
</svg>
