<svg fill="none" height="64" viewBox="0 0 64 64" width="64" xmlns="http://www.w3.org/2000/svg" xmlns:xlink="http://www.w3.org/1999/xlink"><clipPath id="a"><path d="m0 0h64v64h-64z"/></clipPath><g clip-path="url(#a)" fill="#9fa6ad"><path d="m60.7695 2.375h-46.8247c-1.7812 0-3.23 1.44922-3.23 3.23047v4.90383h-7.48433c-1.78125 0-3.23047 1.4492-3.23047 3.2304v41.5674c0 3.4546 2.79932 6.2681 6.24951 6.293h.0127c.01123.0005.02148.0015.03271.0015h33.16358c.5176 0 .9375-.4195.9375-.9375 0-.5176-.4199-.9375-.9375-.9375h-28.6856c1.1226-1.1372 1.8169-2.6988 1.8169-4.4195v-21.9233c0-.5176-.4199-.9375-.9375-.9375-.518 0-.9375.4199-.9375.9375v21.9233c0 2.4287-1.96968 4.4058-4.39595 4.419-.00781 0-.01563-.001-.02393-.001-2.43701-.0005-4.41992-1.9824-4.41992-4.418v-41.5674c0-.747.60791-1.3554 1.35547-1.3554h7.48433v17.4995c0 .5181.4195.9375.9375.9375.5176 0 .9375-.4194.9375-.9375v-24.27833c0-.74756.608-1.35547 1.355-1.35547h46.8247c.7476 0 1.3555.60791 1.3555 1.35547v49.70163c0 2.437-1.9829 4.4195-4.4199 4.4195h-14.7466c-.5181 0-.9375.4199-.9375.9375 0 .518.4194.9375.9375.9375h14.7466c3.4712 0 6.2949-2.8238 6.2949-6.2945v-49.70163c0-1.78125-1.4492-3.23047-3.2305-3.23047z"/><path d="m20.5386 28.4248h12.8579c1.2231 0 2.2182-.9951 2.2182-2.2183v-12.8579c0-1.2231-.9951-2.2182-2.2182-2.2182h-12.8579c-1.2232 0-2.2183.9951-2.2183 2.2182v12.8579c0 1.2232.9951 2.2183 2.2183 2.2183zm-.3433-15.0762c0-.1894.1538-.3432.3433-.3432h12.8579c.189 0 .3432.1538.3432.3432v12.8579c0 .189-.1542.3433-.3432.3433h-12.8579c-.1895 0-.3433-.1543-.3433-.3433z"/><path d="m39.0234 13.0054h17.3999c.5176 0 .9375-.4195.9375-.9375 0-.5181-.4199-.9375-.9375-.9375h-17.3999c-.5175 0-.9375.4194-.9375.9375 0 .518.42.9375.9375.9375z"/><path d="m39.0234 20.7153h17.3999c.5176 0 .9375-.4199.9375-.9375 0-.518-.4199-.9375-.9375-.9375h-17.3999c-.5175 0-.9375.4195-.9375.9375 0 .5176.42.9375.9375.9375z"/><path d="m39.0234 28.4248h17.3999c.5176 0 .9375-.4199.9375-.9375 0-.5181-.4199-.9375-.9375-.9375h-17.3999c-.5175 0-.9375.4194-.9375.9375 0 .5176.42.9375.9375.9375z"/><path d="m19.2578 44.0137h37.1646c.5175 0 .9375-.4195.9375-.9375 0-.5176-.42-.9375-.9375-.9375h-37.1646c-.5176 0-.9375.4199-.9375.9375 0 .518.4199.9375.9375.9375z"/><path d="m19.2578 35.9619h37.1646c.5175 0 .9375-.4194.9375-.9375 0-.5176-.42-.9375-.9375-.9375h-37.1646c-.5176 0-.9375.4199-.9375.9375 0 .5181.4199.9375.9375.9375z"/><path d="m19.2578 51.7236h37.1646c.5175 0 .9375-.4194.9375-.9375 0-.518-.42-.9375-.9375-.9375h-37.1646c-.5176 0-.9375.4195-.9375.9375 0 .5181.4199.9375.9375.9375z"/></g></svg>