<svg fill="none" height="48" viewBox="0 0 35 48" width="35" xmlns="http://www.w3.org/2000/svg"><path d="m34.6875 13.5211v32.5473c0 1.0672-.8624 1.9316-1.9271 1.9316h-30.83328c-1.064714 0-1.92712-.8644-1.92712-1.9316v-44.13677c0-1.067255.862406-1.93163 1.92712-1.93163h19.27088z" fill="#ffcd15"/><path d="m34.6869 13.5211h-11.5625c-1.0644 0-1.9271-.8649-1.9271-1.9316v-11.5895z" fill="#ffe174"/><g fill="#fafafa"><path d="m26.7603 23.4204h-18.83307c-.80006 0-1.44871-.6486-1.44871-1.4487s.64856-1.4488 1.44871-1.4488h18.83297c.8001 0 1.4487.6486 1.4487 1.4488 0 .8-.6485 1.4487-1.4486 1.4487z"/><path d="m26.7603 29.2153h-18.83307c-.80006 0-1.44871-.6486-1.44871-1.4487s.64856-1.4487 1.44871-1.4487h18.83297c.8001 0 1.4487.6485 1.4487 1.4487 0 .8001-.6485 1.4487-1.4486 1.4487z"/><path d="m26.7603 35.0097h-18.83307c-.80006 0-1.44871-.6485-1.44871-1.4487 0-.8.64856-1.4487 1.44871-1.4487h18.83297c.8001 0 1.4487.6486 1.4487 1.4487s-.6485 1.4487-1.4486 1.4487z"/><path d="m18.6476 40.8047h-10.72036c-.80007 0-1.44872-.6486-1.44872-1.4488 0-.8.64856-1.4487 1.44872-1.4487h10.72036c.8 0 1.4487.6486 1.4487 1.4487 0 .8002-.6486 1.4488-1.4487 1.4488z"/></g></svg>