<svg fill="none" height="92" viewBox="0 0 92 92" width="92" xmlns="http://www.w3.org/2000/svg" xmlns:xlink="http://www.w3.org/1999/xlink"><clipPath id="a"><path d="m0 0h92v92h-92z"/></clipPath><g clip-path="url(#a)" fill="#9fa6ad"><path d="m81.249 13.7994c0-.8468-.6865-1.5333-1.5333-1.5333h-42.9315c-.8467 0-1.5332.6865-1.5332 1.5333v6.1331c0 .8467.6865 1.5332 1.5332 1.5332.8468 0 1.5333-.6865 1.5333-1.5332v-4.5999h39.865v9.1997h-33.7319c-.8468 0-1.5333.6865-1.5333 1.5332 0 .8468.6865 1.5333 1.5333 1.5333h35.2651c.8468 0 1.5333-.6865 1.5333-1.5333z"/><path d="m62.8491 36.7985c.8467 0 1.5332-.6866 1.5332-1.5333s-.6865-1.5333-1.5332-1.5333h-9.1996c-.8468 0-1.5333.6866-1.5333 1.5333v9.1996c0 .8467.6865 1.5333 1.5333 1.5333h9.1996c.8467 0 1.5332-.6866 1.5332-1.5333s-.6865-1.5333-1.5332-1.5333h-7.6664v-6.133z"/><path d="m81.2486 35.2652c0-.8467-.6866-1.5333-1.5333-1.5333h-9.1996c-.8468 0-1.5333.6866-1.5333 1.5333v9.1996c0 .8467.6865 1.5333 1.5333 1.5333h9.1996c.8467 0 1.5333-.6866 1.5333-1.5333zm-3.0666 7.6663h-6.133v-6.133h6.133z"/><path d="m64.3823 52.1309c0-.8467-.6865-1.5332-1.5332-1.5332h-9.1996c-.8468 0-1.5333.6865-1.5333 1.5332v9.1996c0 .8468.6865 1.5333 1.5333 1.5333h9.1996c.8467 0 1.5332-.6865 1.5332-1.5333zm-3.0665 7.6664h-6.1331v-6.1331h6.1331z"/><path d="m62.8491 67.4639h-9.1996c-.8468 0-1.5333.6865-1.5333 1.5332v9.1996c0 .8468.6865 1.5333 1.5333 1.5333h9.1996c.8467 0 1.5332-.6865 1.5332-1.5333v-9.1996c0-.8467-.6865-1.5332-1.5332-1.5332zm-1.5333 9.1996h-6.1331v-6.1331h6.1331z"/><path d="m79.7153 50.5977h-9.1996c-.8468 0-1.5333.6865-1.5333 1.5332v26.0656c0 .8467.6865 1.5332 1.5333 1.5332h9.1996c.8467 0 1.5333-.6865 1.5333-1.5332v-26.0656c0-.8467-.6866-1.5332-1.5333-1.5332zm-1.5333 26.0655h-6.133v-22.999h6.133z"/><path d="m73.5824 21.4655c.8467 0 1.5332-.6866 1.5332-1.5333s-.6865-1.5333-1.5332-1.5333h-6.1331c-.8468 0-1.5333.6866-1.5333 1.5333s.6865 1.5333 1.5333 1.5333z"/><path d="m61.3167 21.4655c.8468 0 1.5333-.6866 1.5333-1.5333s-.6865-1.5333-1.5333-1.5333h-6.133c-.8468 0-1.5333.6866-1.5333 1.5333s.6865 1.5333 1.5333 1.5333z"/><path d="m84.315 0h-52.1311c-4.2344 0-7.6663 3.43263-7.6663 7.66634v12.26616c0 .8467.6865 1.5332 1.5332 1.5332.8468 0 1.5333-.6865 1.5333-1.5332v-12.26616c0-2.54023 2.0596-4.59981 4.5998-4.59981h52.1311c2.5402 0 4.5998 2.05958 4.5998 4.59981v76.66336c0 2.5402-2.0596 4.5998-4.5998 4.5998h-41.3982c-.8468 0-1.5333.6865-1.5333 1.5333 0 .8467.6865 1.5332 1.5333 1.5332h41.3982c4.2337 0 7.6663-3.4326 7.6663-7.6663v-76.66336c0-4.23371-3.4326-7.66634-7.6663-7.66634z"/><path d="m44.4502 35.2652v9.1996c0 .8467.6865 1.5333 1.5333 1.5333.8467 0 1.5332-.6866 1.5332-1.5333v-9.1996c0-.8467-.6865-1.5333-1.5332-1.5333-.8468 0-1.5333.6866-1.5333 1.5333z"/><path d="m24.5178 59.7972c1.6935 0 3.0666 1.3731 3.0666 3.0665 0 .8468.6865 1.5333 1.5332 1.5333.8468 0 1.5333-.6865 1.5333-1.5333-.0022-2.7947-1.8934-5.2346-4.5998-5.9339v-3.2657c0-.8467-.6865-1.5332-1.5333-1.5332-.8467 0-1.5332.6865-1.5332 1.5332v3.2657c-2.982.7794-4.9218 3.6498-4.5332 6.7073.3878 3.0568 2.9849 5.3507 6.0664 5.3597 1.6935 0 3.0666 1.3731 3.0666 3.0665 0 1.6935-1.3731 3.0666-3.0666 3.0666-1.6934 0-3.0665-1.3731-3.0665-3.0666 0-.8467-.6865-1.5332-1.5333-1.5332-.8467 0-1.5332.6865-1.5332 1.5332.0022 2.7948 1.8933 5.2347 4.5998 5.934v3.2656c0 .8468.6865 1.5333 1.5332 1.5333.8468 0 1.5333-.6865 1.5333-1.5333v-3.2656c2.9812-.7794 4.9217-3.6498 4.5332-6.7073-.3886-3.0568-2.985-5.3507-6.0665-5.3597-1.6934 0-3.0665-1.3731-3.0665-3.0666 0-1.6934 1.3731-3.0665 3.0665-3.0665z"/><path d="m45.7844 79.73c.423-.7366.1692-1.677-.5675-2.1007-.7366-.423-1.677-.1692-2.1007.5675-4.4838 7.7876-13.345 11.9577-22.2039 10.4506-8.859-1.5078-15.84105-8.3746-17.4971-17.2073-1.6553-8.8328 2.36653-17.7621 10.0785-22.3754h22.0482c6.4708 3.8729 10.4349 10.8579 10.4417 18.3992 0 .8468.6865 1.5333 1.5332 1.5333.8468 0 1.5333-.6865 1.5333-1.5333-.006-7.566-3.5022-14.706-9.4758-19.35 1.3595-1.0459 2.0243-2.7611 1.7249-4.4493-.3002-1.689-1.5146-3.071-3.1504-3.5846 1.1005-1.3633 1.701-3.0628 1.7017-4.8147v-4.5998c-.0037-2.5492-1.5834-4.8304-3.9687-5.7295-2.3852-.8999-5.0782-.2299-6.7642 1.6815-1.1641-1.3199-2.8396-2.0761-4.5998-2.0761-1.7601 0-3.4356.7562-4.5998 2.0761-1.686-1.9114-4.3789-2.5814-6.7642-1.6815-2.3852.8991-3.96489 3.1803-3.96863 5.7295v4.5998c.00075 1.7519.60118 3.4514 1.70173 4.8147-1.63585.5136-2.85093 1.8956-3.1504 3.5846-.29947 1.6882.36535 3.4034 1.72493 4.4493-7.81158 6.0844-11.19929 16.2685-8.590194 25.8192 2.609844 9.5515 10.705164 16.5979 20.524664 17.8654 9.8203 1.2675 19.4391-3.4925 24.3885-12.0685zm-33.5327-49.0645c0-1.6935 1.3731-3.0665 3.0665-3.0665 1.6935 0 3.0666 1.373 3.0666 3.0665 0 .8468.6865 1.5333 1.5332 1.5333.8468 0 1.5333-.6865 1.5333-1.5333 0-1.6935 1.3731-3.0665 3.0665-3.0665 1.6935 0 3.0666 1.373 3.0666 3.0665 0 .8468.6865 1.5333 1.5332 1.5333.8468 0 1.5333-.6865 1.5333-1.5333 0-1.6935 1.3731-3.0665 3.0665-3.0665 1.6935 0 3.0666 1.373 3.0666 3.0665v4.5998c0 2.5402-2.0596 4.5998-4.5998 4.5998h-15.3327c-2.5402 0-4.5998-2.0596-4.5998-4.5998zm0 12.2662h24.5323c.8467 0 1.5332.6865 1.5332 1.5332 0 .8468-.6865 1.5333-1.5332 1.5333h-24.5323c-.8467 0-1.5333-.6865-1.5333-1.5333 0-.8467.6866-1.5332 1.5333-1.5332z"/></g></svg>