<svg fill="none" height="92" viewBox="0 0 92 92" width="92" xmlns="http://www.w3.org/2000/svg"><g fill="#9fa6ad"><path d="m55.1997 56.7332h-1.7018c2.0657-2.0163 3.2314-4.7797 3.2352-7.6667v-.5211c4.2316-1.4891 6.7727-5.8129 6.0143-10.2339-.7585-4.4218-4.5948-7.6517-9.081-7.645h-21.4667c-1.6935 0-3.0666 1.3731-3.0666 3.0667v6.1333c-.0023 3.9007 2.4557 7.3784 6.1333 8.6789v.5211c.0037 2.887 1.1695 5.6504 3.2351 7.6667h-1.7018c-5.9282 0-10.7333 4.8051-10.7333 10.7333v23c0 .8468.6866 1.5333 1.5333 1.5333.8468 0 1.5334-.6865 1.5334-1.5333v-23c0-4.2339 3.4328-7.6667 7.6666-7.6667h18.4c4.2339 0 7.6667 3.4328 7.6667 7.6667v23c0 .8468.6866 1.5333 1.5333 1.5333.8468 0 1.5334-.6865 1.5334-1.5333v-23c0-5.9282-4.8052-10.7333-10.7334-10.7333zm-23-16.8667v-6.1333h21.4667c2.7717.0052 5.1952 1.868 5.9132 4.5453.718 2.6766-.4492 5.503-2.8465 6.8933v-5.3053c0-.8468-.6866-1.5333-1.5334-1.5333h-18.4c-.8467 0-1.5333.6865-1.5333 1.5333v5.3053c-1.8957-1.0946-3.0644-3.1161-3.0667-5.3053zm6.1334 9.2v-7.6667h15.3333v7.6667c0 4.2339-3.4328 7.6667-7.6667 7.6667-4.2338 0-7.6666-3.4328-7.6666-7.6667z"/><path d="m35.2667 67.4668c-.8467 0-1.5333.6866-1.5333 1.5333v21.4667c0 .8468.6866 1.5333 1.5333 1.5333.8468 0 1.5334-.6865 1.5334-1.5333v-21.4667c0-.8467-.6866-1.5333-1.5334-1.5333z"/><path d="m56.7335 67.4668c-.8467 0-1.5333.6866-1.5333 1.5333v21.4667c0 .8468.6866 1.5333 1.5333 1.5333.8468 0 1.5334-.6865 1.5334-1.5333v-21.4667c0-.8467-.6866-1.5333-1.5334-1.5333z"/><path d="m49.3128 70.6402c.8213-.8528 1.2832-1.9893 1.2877-3.1738 0-.8467-.6865-1.5333-1.5333-1.5333s-1.5333.6866-1.5333 1.5333c-.0008.5017-.2471.9711-.6596 1.2571-.5114.3369-1.1748.3369-1.6861 0-.4358-.2718-.7068-.7435-.721-1.2571 0-.8467-.6866-1.5333-1.5333-1.5333-.8468 0-1.5334.6866-1.5334 1.5333.0045 1.1845.4665 2.321 1.2878 3.1738l-1.2878 8.878c-.0501.3714.0375.7472.2456 1.0579l3.0667 4.6c.2845.4246.7614.6784 1.2728.6784.5106 0 .9875-.2538 1.272-.6784l3.0667-4.6c.2081-.3107.2957-.6865.2455-1.0579zm-3.3123 10.9332-1.5333-2.2087 1.1193-7.2983h.8281l1.1193 7.2983z"/><path d="m33.7335 12.2666c-.8467 0-1.5333.6866-1.5333 1.5334 0 .8467.6866 1.5333 1.5333 1.5333h24.5334c.8467 0 1.5333-.6866 1.5333-1.5333v-6.13337c0-.84677-.6866-1.53333-1.5333-1.53333h-24.5334c-.8467 0-1.5333.68656-1.5333 1.53333 0 .84678.6866 1.53334 1.5333 1.53334h23v3.06663z"/><path d="m61.3337 21.4666c.8467 0 1.5333-.6866 1.5333-1.5334 0-.8467-.6866-1.5333-1.5333-1.5333h-6.1334c-.8468 0-1.5333.6866-1.5333 1.5333v6.1334c0 .8467.6865 1.5333 1.5333 1.5333h6.1334c.8467 0 1.5333-.6866 1.5333-1.5333 0-.8468-.6866-1.5334-1.5333-1.5334h-4.6v-3.0666z"/><path d="m42.9337 18.3999c-.8468 0-1.5333.6866-1.5333 1.5333v6.1334c0 .8467.6865 1.5333 1.5333 1.5333h6.1334c.8467 0 1.5333-.6866 1.5333-1.5333v-6.1334c0-.8467-.6866-1.5333-1.5333-1.5333zm4.6 6.1333h-3.0666v-3.0666h3.0666z"/><path d="m29.1338 19.9332v6.1334c0 .8467.6865 1.5333 1.5333 1.5333h6.1334c.8467 0 1.5333-.6866 1.5333-1.5333v-6.1334c0-.8467-.6866-1.5333-1.5333-1.5333h-6.1334c-.8468 0-1.5333.6866-1.5333 1.5333zm3.0667 1.5334h3.0666v3.0666h-3.0666z"/><path d="m87.4 18.4h-16.8667v-13.8c0-2.54033-2.0596-4.6-4.6-4.6h-39.8666c-2.5404 0-4.6 2.05967-4.6 4.6v13.8h-16.8667c-2.54033 0-4.6 2.0597-4.6 4.6v39.8667c0 .8467.686556 1.5333 1.53333 1.5333.84678 0 1.53334-.6866 1.53334-1.5333v-39.8667c0-.8468.68655-1.5333 1.53333-1.5333h16.8667v32.2c0 .8467.6865 1.5333 1.5333 1.5333s1.5333-.6866 1.5333-1.5333v-49.0667c0-.84678.6866-1.53333 1.5334-1.53333h39.8666c.8468 0 1.5334.68655 1.5334 1.53333v49.0667c0 .8467.6865 1.5333 1.5333 1.5333s1.5333-.6866 1.5333-1.5333v-32.2h16.8667c.8468 0 1.5333.6865 1.5333 1.5333v41.4c0 .8468.6866 1.5333 1.5334 1.5333.8467 0 1.5333-.6865 1.5333-1.5333v-41.4c0-2.5403-2.0597-4.6-4.6-4.6z"/><path d="m84.3329 27.5999c.8468 0 1.5334-.6866 1.5334-1.5334 0-.8467-.6866-1.5333-1.5334-1.5333h-9.2c-.8467 0-1.5333.6866-1.5333 1.5333v6.1334c0 .8467.6866 1.5333 1.5333 1.5333h9.2c.8468 0 1.5334-.6866 1.5334-1.5333 0-.8468-.6866-1.5334-1.5334-1.5334h-7.6666v-3.0666z"/><path d="m73.5996 44.4665c0 .8467.6866 1.5333 1.5333 1.5333h9.2c.8468 0 1.5334-.6866 1.5334-1.5333v-6.1334c0-.8467-.6866-1.5333-1.5334-1.5333h-9.2c-.8467 0-1.5333.6866-1.5333 1.5333zm3.0667-4.6h6.1333v3.0666h-6.1333z"/><path d="m75.1329 52.1336h9.2c.8468 0 1.5334-.6866 1.5334-1.5334 0-.8467-.6866-1.5333-1.5334-1.5333h-9.2c-.8467 0-1.5333.6866-1.5333 1.5333 0 .8468.6866 1.5334 1.5333 1.5334z"/><path d="m16.8671 24.5332h-9.19998c-.84678 0-1.53333.6866-1.53333 1.5333v6.1334c0 .8467.68655 1.5333 1.53333 1.5333h9.19998c.8468 0 1.5334-.6866 1.5334-1.5333v-6.1334c0-.8467-.6866-1.5333-1.5334-1.5333zm-1.5333 6.1333h-6.13334v-3.0666h6.13334z"/><path d="m16.8671 39.8665c.8468 0 1.5334-.6866 1.5334-1.5334 0-.8467-.6866-1.5333-1.5334-1.5333h-9.19998c-.84678 0-1.53333.6866-1.53333 1.5333v6.1334c0 .8467.68655 1.5333 1.53333 1.5333h9.19998c.8468 0 1.5334-.6866 1.5334-1.5333 0-.8468-.6866-1.5334-1.5334-1.5334h-7.66664v-3.0666z"/><path d="m16.8671 49.0669h-9.19998c-.84678 0-1.53333.6866-1.53333 1.5333 0 .8468.68655 1.5334 1.53333 1.5334h9.19998c.8468 0 1.5334-.6866 1.5334-1.5334 0-.8467-.6866-1.5333-1.5334-1.5333z"/><path d="m88.9332 73.6001h-1.5333v-1.5333c0-2.5403-2.0597-4.6-4.6-4.6h-3.0667c-2.5403 0-4.6 2.0597-4.6 4.6v1.5333h-1.5333c-1.6936 0-3.0667 1.3731-3.0667 3.0667v12.2667c0 1.6935 1.3731 3.0666 3.0667 3.0666h15.3333c1.6936 0 3.0667-1.3731 3.0667-3.0666v-12.2667c0-1.6936-1.3731-3.0667-3.0667-3.0667zm-10.7333-1.5333c0-.8468.6865-1.5333 1.5333-1.5333h3.0667c.8467 0 1.5333.6865 1.5333 1.5333v1.5333h-6.1333zm10.7333 16.8667h-15.3333v-6.1334h9.2c.8467 0 1.5333-.6865 1.5333-1.5333s-.6866-1.5333-1.5333-1.5333h-9.2v-3.0667h15.3333z"/><path d="m12.2671 65.9333c1.6936 0 3.0667 1.3731 3.0667 3.0666 0 .8468.6865 1.5334 1.5333 1.5334s1.5334-.6866 1.5334-1.5334c-.0023-2.7949-1.8935-5.2349-4.6-5.9341v-3.2659c0-.8467-.6866-1.5333-1.5334-1.5333s-1.5333.6866-1.5333 1.5333v3.2659c-2.98133.7793-4.92195 3.6499-4.53338 6.7075.38858 3.057 2.98506 5.351 6.06668 5.36 1.6936 0 3.0667 1.3731 3.0667 3.0666 0 1.6936-1.3731 3.0667-3.0667 3.0667-1.6935 0-3.06664-1.3731-3.06664-3.0667 0-.8467-.68656-1.5333-1.53334-1.5333s-1.53333.6866-1.53333 1.5333c.00225 2.7949 1.89346 5.2349 4.60001 5.9342v3.2658c0 .8468.6865 1.5334 1.5333 1.5334s1.5334-.6866 1.5334-1.5334v-3.2658c2.9813-.7794 4.9219-3.6499 4.5333-6.7076-.3886-3.0569-2.985-5.3509-6.0667-5.3599-1.6935 0-3.06664-1.3731-3.06664-3.0667 0-1.6935 1.37314-3.0666 3.06664-3.0666z"/></g></svg>