<svg width="19" height="19" viewBox="0 0 19 19" fill="none" xmlns="http://www.w3.org/2000/svg">
<path fill-rule="evenodd" clip-rule="evenodd" d="M0.303176 0.303176C-0.101059 0.707411 -0.101059 1.36281 0.303176 1.76704L7.76873 9.2326L0.5952 16.4061C0.190965 16.8104 0.190964 17.4658 0.595199 17.87C0.999434 18.2742 1.65483 18.2742 2.05906 17.87L9.2326 10.6965L16.4057 17.8696C16.8099 18.2738 17.4653 18.2738 17.8696 17.8696C18.2738 17.4653 18.2738 16.8099 17.8696 16.4057L10.6965 9.2326L18.1616 1.76748C18.5658 1.36325 18.5658 0.707852 18.1616 0.303617C17.7573 -0.100618 17.1019 -0.100618 16.6977 0.303617L9.2326 7.76873L1.76704 0.303176C1.36281 -0.101059 0.707411 -0.101059 0.303176 0.303176Z" fill="#9FA6AD"/>
</svg>
