<svg fill="none" height="92" viewBox="0 0 92 92" width="92" xmlns="http://www.w3.org/2000/svg"><g fill="#9fa6ad"><path d="m10.7335 46.7666c-.84675 0-1.5333.6866-1.5333 1.5333v24.5334c0 .8467.68655 1.5333 1.5333 1.5333.8468 0 1.5334-.6866 1.5334-1.5333v-24.5334c0-.8467-.6866-1.5333-1.5334-1.5333z"/><path d="m22.1412 34.4998c.8468 0 1.5334-.6865 1.5334-1.5333.0007-.1677-.0307-.3347-.0921-.4904-.1827-.5915-.7023-1.0145-1.3185-1.0737-3.7203-.3481-6.6477-3.3272-6.9307-7.0534.0083-.0554.0083-.1123 0-.1685v-.1685c-.0075-.0816-.0075-.1639 0-.2455v-7.6667h6.2868c.8468 0 1.5334-.6866 1.5334-1.5333 0-.8468-.6866-1.5334-1.5334-1.5334h-7.8201c-.8468 0-1.5333.6866-1.5333 1.5334v6.8386c-1.9466-1.7407-3.06146-4.2272-3.0667-6.8386v-9.20003h18.4c3.0075.0015 5.8249 1.47269 7.5439 3.9404.5001.64538 1.4173.78543 2.0874.31969.67-.46569.858-1.37386.4275-2.06715-2.2918-3.29278-6.048-5.25661-10.0588-5.25961h-18.4c-1.69356 0-3.06667 1.37312-3.06667 3.06667v9.20003c-.02096 4.4405 2.36065 8.5464 6.22547 10.7333.3241 2.3247 1.4015 4.4795 3.0666 6.1333h-4.6921c-5.92816 0-10.7333 4.8052-10.7333 10.7334v30.6666c0 .8468.686556 1.5334 1.53333 1.5334.84678 0 1.53334-.6866 1.53334-1.5334v-30.6666c0-4.2339 3.43278-7.6667 7.66663-7.6667z"/><path d="m21.4665 44.8647-1.1043-4.2316h4.999c.8468 0 1.5334-.6866 1.5334-1.5333 0-.8468-.6866-1.5334-1.5334-1.5334h-6.9614c-.4717-.0022-.9186.2127-1.2114.5825-.2905.3736-.3923.8603-.2762 1.3192l1.5333 6.1334c.2036.834 1.0444 1.3454 1.8785 1.1417.834-.2029 1.3454-1.0437 1.1425-1.8785z"/><path d="m81.2667 46.7666c-.8467 0-1.5333.6866-1.5333 1.5333v24.5334c0 .8467.6866 1.5333 1.5333 1.5333.8468 0 1.5334-.6866 1.5334-1.5333v-24.5334c0-.8467-.6866-1.5333-1.5334-1.5333z"/><path d="m85.866 32.4761v-14.843c0-8.46848-6.8648-15.3333-15.3334-15.3333h-3.0666c-4.5207.00824-8.8077 2.01176-11.7149 5.47374-.3991.41328-.5338 1.01448-.3497 1.55804.1842.54355.6567.93882 1.2242 1.02422.5682.0853 1.1357-.1535 1.4719-.61918 2.3262-2.76569 5.7545-4.36491 9.3685-4.37015h3.0666c6.775 0 12.2667 5.49173 12.2667 12.26663v13.9071c-.3474 0-.7-.0307-1.0579-.0921h-5.2132c2.0582-2.0252 3.2127-4.7939 3.2044-7.6816v-9.2c0-.8468-.6865-1.5334-1.5333-1.5334h-11.5307c-.8468 0-1.5333.6866-1.5333 1.5334 0 .8467.6865 1.5333 1.5333 1.5333h9.9974v7.6667c.0179 3.9628-2.9866 7.2863-6.9307 7.6666-.6162.0592-1.1358.4822-1.3185 1.0737-.0614.1557-.0928.3227-.0921.4904 0 .8467.6866 1.5333 1.5334 1.5333h4.2009l-5.8264 10.4728c-.411.7405-.143 1.6748.5982 2.0851.2291.1303.4874.1984.751.1992.5533-.0008 1.0631-.2995 1.3342-.7817l6.6544-12.0061h4.0332c.7585.03 1.5079.1745 2.2229.429h.1228c3.0157 1.1268 5.0065 4.0183 4.9833 7.2377v30.6666c0 .8468.6866 1.5334 1.5334 1.5334.8467 0 1.5333-.6866 1.5333-1.5334v-30.6666c-.003-4.1433-2.3898-7.9153-6.1333-9.6904z"/><path d="m59.8001 46.7665h-5.1368c2.3899-1.9286 4.0684-4.6 4.7685-7.5903 3.9958-2.127 6.4949-6.283 6.5017-10.8097v-3.0666c0-6.775-5.4917-12.2667-12.2667-12.2667h-24.5333c-1.6936 0-3.0667 1.3731-3.0667 3.0667v12.2666c.0067 4.5267 2.5059 8.6827 6.5017 10.8097.7 2.9903 2.3786 5.6617 4.7684 7.5903h-5.1368c-5.9282 0-10.7333 4.8052-10.7333 10.7334v30.6666c0 .8468.6866 1.5334 1.5333 1.5334.8468 0 1.5334-.6866 1.5334-1.5334v-30.6666c0-4.2339 3.4327-7.6667 7.6666-7.6667h27.6c4.2339 0 7.6667 3.4328 7.6667 7.6667v30.6666c0 .8468.6866 1.5334 1.5333 1.5334.8468 0 1.5334-.6866 1.5334-1.5334v-30.6666c0-5.9282-4.8052-10.7334-10.7334-10.7334zm-30.6666-18.4v-12.2666h24.5333c5.0807 0 9.2 4.1193 9.2 9.2v3.0666c-.0052 2.6115-1.1201 5.0979-3.0667 6.8386v-11.4386c0-.8467-.6865-1.5333-1.5333-1.5333h-24.5333c-.8468 0-1.5334.6866-1.5334 1.5333v11.4386c-1.9466-1.7407-3.0614-4.2271-3.0666-6.8386zm6.3175 9.6904c.0082-.0554.0082-.1123 0-.1684-.0959-.5376-.1572-1.0804-.1842-1.6254v-10.9632h21.4667v10.9632c-.0225.545-.0786 1.0878-.1685 1.6254-.009.0561-.009.113 0 .1684-.9523 5.0762-5.3846 8.7546-10.5499 8.7546-5.1645 0-9.5968-3.6784-10.5491-8.7546z"/><path d="m50.9687 52.9001c-.8214-.2029-1.6517.298-1.8561 1.1193l-1.2413 5.014h-3.742l-1.1957-4.9683c-.1138-.5503-.5196-.9943-1.0571-1.1568-.5383-.1632-1.1216-.0187-1.5221.3766-.3998.3946-.5511.9763-.3953 1.5169l1.5333 5.8877-1.6254 17.1886c-.042.4882.1519.9666.5211 1.2878l4.6 4.0175c.5787.5084 1.4457.5084 2.0244 0l4.6-4.0175c.3692-.3212.5631-.7996.5211-1.2878l-1.5333-17.1886 1.5333-5.8877c.1101-.4081.048-.8423-.1729-1.2024-.2201-.3594-.5795-.6125-.992-.6993zm-4.9684 27.0939-3.0667-2.5606 1.3492-15.3333h3.3122l1.472 15.3333z"/><path d="m32.2003 62.1001c-.8468 0-1.5333.6866-1.5333 1.5333v24.5334c0 .8467.6865 1.5333 1.5333 1.5333s1.5334-.6866 1.5334-1.5333v-24.5334c0-.8467-.6866-1.5333-1.5334-1.5333z"/><path d="m59.7999 62.1001c-.8467 0-1.5333.6866-1.5333 1.5333v24.5334c0 .8467.6866 1.5333 1.5333 1.5333.8468 0 1.5334-.6866 1.5334-1.5333v-24.5334c0-.8467-.6866-1.5333-1.5334-1.5333z"/></g></svg>