<svg fill="none" height="92" viewBox="0 0 92 92" width="92" xmlns="http://www.w3.org/2000/svg"><g fill="#fff"><path d="m45.9964 2.88118c-11.8053-.04548-23.1018 4.79958-31.2057 13.38242-.5581.5609-.5581 1.4661 0 2.027.2695.2723.6373.425 1.0202.425.3835 0 .7501-.1527 1.0208-.425 7.5643-8.0394 18.1259-12.57785 29.1647-12.53462 17.5722-.00337 33.1152 11.39482 38.3949 28.15512 5.2802 16.7609-.9242 35.0092-15.3263 45.0778-14.4021 10.0691-33.6717 9.6294-47.5999-1.0843-13.92825-10.7137-19.29549-29.2259-13.25784-45.7285.27064-.7428-.10836-1.5648-.84896-1.8405-.35767-.1348-.7552-.1207-1.10332.0387-.34812.1595-.6182.4503-.75071.8097-6.470555 17.6806-.72151 37.5156 14.20053 48.9969 14.922 11.4807 35.5679 11.9529 50.9997 1.1662 15.4313-10.7861 22.0816-30.3371 16.4263-48.2951-5.6553-17.9585-22.3073-30.17195-41.1344-30.17082z"/><path d="m13.5964 64.6895v.0859l.0859.101c3.2976 5.5992 7.9928 10.2455 13.6267 13.483h.201c11.4874 6.612 25.6256 6.612 37.1136 0h.1292c5.6002-3.2594 10.2606-7.9147 13.5262-13.5116l.0864-.1011s0 0 0-.0864c4.803-8.3443 6.1938-18.2225 3.8805-27.5684-.091-.3728-.3285-.6934-.6575-.8911-.3291-.1971-.7244-.2538-1.0955-.1583-.7704.1909-1.2398.9691-1.0494 1.7389.5676 2.2224.9191 4.4947 1.0494 6.7844h-4.3122c-.794 0-1.4374.6435-1.4374 1.4374 0 .7945.6434 1.4374 1.4374 1.4374h4.3122c-.2044 5.0781-1.5351 10.0472-3.8956 14.5464l-3.6946-2.1409c-.3312-.1926-.7254-.2443-1.0949-.1443-.37.0999-.6844.3425-.8742.6754-.3897.6873-.1527 1.5604.5317 1.9551l3.68 2.1415c-2.7232 4.2825-6.3549 7.9142-10.6368 10.6368l-2.1269-3.694c-.3975-.6906-1.279-.9287-1.9697-.5323-.6906.3976-.9287 1.2791-.5317 1.9697l2.1421 3.7086c-4.5099 2.3818-9.4942 3.7277-14.5897 3.9383v-4.3122c0-.794-.6434-1.4374-1.4374-1.4374-.7939 0-1.4374.6434-1.4374 1.4374v4.3122c-5.0764-.1993-10.0455-1.5245-14.5469-3.881l2.1415-3.7086c.3975-.6906.1594-1.5722-.5312-1.9691-.6906-.3965-1.5727-.1589-1.9697.5317l-2.1269 3.694c-4.283-2.7226-7.9141-6.3538-10.6368-10.6368l3.6794-2.1409c.3454-.1898.5963-.5127.6974-.8928.1005-.3796.041-.7849-.1656-1.1202-.1893-.3329-.5037-.5755-.8737-.6754-.37-.1-.7636-.0483-1.0955.1443l-3.694 2.1409c-2.3756-4.4958-3.7215-9.4649-3.9382-14.5464h4.3122c.7939 0 1.4374-.6429 1.4374-1.4374 0-.7939-.6435-1.4374-1.4374-1.4374h-4.3122c.2038-5.0775 1.5345-10.0466 3.8956-14.5458l3.6934 2.1269c.2179.1291.4655.1988.7187.201.6553.0051 1.2297-.4329 1.3992-1.0657.169-.6328-.1111-1.2987-.6805-1.6216l-3.6794-2.1274c2.7221-4.287 6.3538-7.9232 10.6362-10.6514l2.1275 3.694c.397.6906 1.2785.9293 1.9691.5317.6906-.3964.9287-1.2785.5323-1.9691l-2.1421-3.694c4.5172-2.3521 9.5009-3.6676 14.5902-3.8524v4.3122c0 .794.6435 1.4374 1.4374 1.4374.794 0 1.4374-.6434 1.4374-1.4374v-4.3122c5.0764.2117 10.0433 1.5419 14.5459 3.8951l-2.1415 3.7086c-.397.6906-.1584 1.5721.5323 1.9697.6906.3969 1.5721.1583 1.9685-.5323l2.1275-3.6935c3.027 1.9175 5.7373 4.2937 8.0354 7.0427.2454.292.5974.4739.9776.5071.3795.032.7574-.0876 1.0488-.3341.612-.4986.7081-1.3959.2162-2.0124-2.8293-3.3807-6.2364-6.233-10.0618-8.4234-11.5301-6.62665-25.7133-6.62665-37.2434 0h-.1577c-5.6317 3.2808-10.3173 7.9658-13.5981 13.5975v.1583c-6.66258 11.5021-6.6957 25.6818-.0859 37.2142z"/><path d="m45.9962 24.4422c.7939 0 1.4374-.6429 1.4374-1.4374 0-.794-.6435-1.4374-1.4374-1.4374-2.3824 0-4.3122 1.9309-4.3122 4.3122v17.6806l-10.2921 5.9506c-2.064 1.1904-2.7726 3.8294-1.5811 5.8928 1.1909 2.0646 3.8293 2.7727 5.8934 1.5817l12.4481-7.187c.8899-.5379 1.562-1.3722 1.8972-2.3577h13.1955c.794 0 1.4374-.6429 1.4374-1.4374 0-.7939-.6434-1.4374-1.4374-1.4374h-12.9366v-15.8114c0-.7939-.6435-1.4374-1.4374-1.4374-.794 0-1.4374.6435-1.4374 1.4374v13.1955l-.3167-.1151c-.8433-.2257-1.7355-.1909-2.5581.101v-16.0562c0-.7939.6434-1.4374 1.4374-1.4374zm-11.7294 30.0423c-.4459.283-1.0107.2987-1.4717.0421-.4615-.2577-.744-.7468-.7372-1.2746.0078-.5283.3032-1.0101.7715-1.2543l8.9399-5.1607c.1814.9692.689 1.8468 1.4374 2.4869zm11.0107-9.6739c.3307-.1914.7237-.2425 1.0921-.1437.3706.0988.6861.3425.8765.6749.0505.0825.1139.1544.1875.2162v.4452c0 .7945-.6435 1.4374-1.4374 1.4374-.794 0-1.4374-.6429-1.4374-1.4374v-.8332z"/><path d="m70.8906 31.6295c.2577.447.735.721 1.251.7187.2526-.0022.5008-.0719.7187-.201l4.9731-2.8748c.4677-.2448.7636-.726.7709-1.2538.0067-.5278-.2757-1.018-.7361-1.2746-.4616-.2577-1.0264-.2414-1.4722.0421l-4.9731 2.8748c-.333.1893-.5761.5037-.6761.8737-.0993.37-.0482.7636.1438 1.0949z"/></g></svg>