<?xml version="1.0" standalone="no"?>
<!DOCTYPE svg PUBLIC "-//W3C//DTD SVG 1.1//EN" "http://www.w3.org/Graphics/SVG/1.1/DTD/svg11.dtd" >
<svg xmlns="http://www.w3.org/2000/svg">
<metadata></metadata>
<defs>
<font id="pf_dindisplay_promedium" horiz-adv-x="1110" >
<font-face units-per-em="2048" ascent="1536" descent="-512" />
<missing-glyph horiz-adv-x="530" />
<glyph horiz-adv-x="2048" />
<glyph horiz-adv-x="2048" />
<glyph unicode="&#xd;" horiz-adv-x="2048" />
<glyph unicode=" "  horiz-adv-x="530" />
<glyph unicode="&#x09;" horiz-adv-x="530" />
<glyph unicode="&#xa0;" horiz-adv-x="530" />
<glyph unicode="!" horiz-adv-x="539" d="M123 140q0 55 40 99.5t104 44.5q69 0 110.5 -44.5t41.5 -99.5q0 -62 -39.5 -107.5t-110.5 -45.5q-66 0 -106 44.5t-40 108.5zM154 1496h231l-15 -1070h-200z" />
<glyph unicode="&#x22;" horiz-adv-x="700" d="M117 1067v429h184v-429h-184zM400 1067v429h183v-429h-183z" />
<glyph unicode="#" horiz-adv-x="1158" d="M51 449v171h211l37 264h-190v167h213l63 443h185l-59 -443h211l63 443h187l-63 -443h197v-167h-220l-34 -264h195v-171h-220l-62 -449h-191l62 449h-208l-60 -449h-196l64 449h-185zM452 620h208l39 264h-211z" />
<glyph unicode="$" d="M49 191l129 174q93 -73 188.5 -111.5t197.5 -38.5q135 0 201 58t66 148q0 64 -33 103.5t-82 64t-106.5 37t-106.5 23.5q-71 15 -143 42t-130 73.5t-93.5 117t-35.5 174.5q0 84 29.5 155t80.5 125.5t121 90.5t152 46v187h154q-2 -45 -2 -90v-91q101 -6 196 -37.5 t194 -97.5l-117 -191q-86 58 -168.5 84.5t-168.5 26.5q-47 0 -90 -12.5t-76.5 -40t-53 -66.5t-19.5 -91q0 -51 28.5 -84.5t70.5 -56.5t91 -37t92 -24q72 -17 150 -40.5t143.5 -70t108.5 -123t43 -195.5q0 -90 -31 -164t-87 -127.5t-133.5 -86t-172.5 -41.5q0 -14 2 -25v-194 h-154v219q-121 9 -226.5 53t-208.5 134z" />
<glyph unicode="%" horiz-adv-x="1775" d="M107 833v406q0 60 26.5 106t70.5 78t99.5 49.5t113.5 17.5t113 -17.5t99 -49.5t69.5 -78t25.5 -106v-406q0 -60 -25.5 -107t-68.5 -79t-98.5 -48t-114.5 -16q-60 0 -116 16t-98.5 48t-69 78.5t-26.5 107.5zM288 854q0 -31 12 -52.5t31.5 -34t42 -19t43.5 -6.5t45 6.5 t43.5 19t31 34t11.5 52.5v359q0 32 -11.5 53.5t-31 35.5t-43 20.5t-45.5 6.5q-21 0 -43.5 -6.5t-42 -20.5t-31.5 -35.5t-12 -53.5v-359zM351 -37l913 1570h170l-915 -1570h-168zM1049 240v407q0 60 27.5 106.5t70.5 78.5t98.5 49.5t113.5 17.5q57 0 112.5 -17.5t99.5 -49.5 t69.5 -78t25.5 -107v-407q0 -59 -25.5 -105.5t-68.5 -78.5t-98.5 -48t-114.5 -16q-60 0 -116.5 16t-99 48t-68.5 78.5t-26 105.5zM1230 262q0 -30 12 -51.5t31.5 -34t42 -19.5t43.5 -7t45 7t43.5 19.5t31 34t11.5 51.5v360q0 32 -11.5 53.5t-31 35t-43 20t-45.5 6.5 q-21 0 -43.5 -6.5t-42 -20t-31.5 -35t-12 -53.5v-360z" />
<glyph unicode="&#x26;" horiz-adv-x="1777" d="M109 1079q0 130 52 250t148.5 211.5t234 146.5t308.5 55q191 0 337.5 -64.5t246 -175.5t150.5 -258t51 -315q0 -195 -77.5 -369.5t-209.5 -307.5q76 -69 155 -123.5t170 -91.5l-88 -164q-48 19 -100.5 48.5t-104 63.5t-98.5 71.5t-86 76.5q-82 -66 -198 -108t-232 -42 q-97 0 -183 28t-149.5 82.5t-101 134.5t-37.5 183q0 75 26 140.5t70 121.5t105 104t132 89q-49 72 -73 134.5t-24 130.5q0 69 21.5 128t61.5 103t98 68.5t133 24.5q72 0 130.5 -23.5t103 -63t69 -94.5t24.5 -117t-20.5 -114t-55.5 -95t-83.5 -80t-105.5 -72 q70 -99 149 -205.5t167 -210.5q103 109 164.5 250.5t61.5 296.5q0 129 -38.5 244t-114 202.5t-186 137.5t-252.5 50q-129 0 -233 -37.5t-177.5 -102t-113 -151t-39.5 -180.5q0 -69 19 -140.5t69 -149.5l-157 -94q-64 94 -91.5 188.5t-27.5 184.5zM490 415q0 -129 75 -192 t186 -63q77 0 159.5 25.5t164.5 79.5q-45 49 -92 107t-91.5 117t-83 116.5t-68.5 104.5q-51 -29 -97 -59.5t-79 -67.5t-53.5 -79t-20.5 -89zM733 1139q0 -43 21.5 -85.5t56.5 -94.5q75 41 121.5 85t46.5 113q0 52 -38 86.5t-94 34.5q-59 0 -86.5 -46t-27.5 -93z" />
<glyph unicode="'" horiz-adv-x="556" d="M191 1067v429h183v-429h-183z" />
<glyph unicode="(" horiz-adv-x="681" d="M119 656q0 138 33 266.5t89 245t130 220.5t156 194l127 -78q-142 -187 -220.5 -407.5t-78.5 -429.5q0 -226 82 -447.5t217 -402.5l-121 -90q-84 90 -159 195.5t-132 224t-90 246.5t-33 263z" />
<glyph unicode=")" horiz-adv-x="681" d="M66 -183q136 181 216.5 402.5t80.5 447.5q0 209 -77 429t-220 408l125 78q84 -90 158 -194t130.5 -220.5t89.5 -245t33 -266.5q0 -135 -34.5 -263t-91.5 -246.5t-132 -224t-159 -195.5z" />
<glyph unicode="*" horiz-adv-x="848" d="M78 1178l49 166l238 -101l-23 259h179l-26 -259q18 9 52 22t68 27.5t66.5 29t51.5 22.5l49 -168l-244 -60l168 -193q-11 -8 -30.5 -23.5t-41 -31.5t-42 -30.5t-30.5 -22.5l-132 223l-135 -223q-10 6 -30 21.5t-42.5 31.5t-42.5 31t-30 24l170 193z" />
<glyph unicode="+" d="M56 548v174h408v405h181v-405h409v-174h-409v-408h-181v408h-408z" />
<glyph unicode="," horiz-adv-x="582" d="M131 -205q52 39 85.5 87.5t37.5 107.5q-47 6 -78.5 46t-31.5 95q0 58 43 101t108 43q43 0 74 -16t52.5 -43t31 -62t9.5 -72q0 -62 -19.5 -121.5t-53.5 -111.5t-79 -93.5t-99 -67.5z" />
<glyph unicode="-" horiz-adv-x="876" d="M107 466v203h661v-203h-661z" />
<glyph unicode="." horiz-adv-x="543" d="M129 140q0 55 40 99.5t104 44.5q69 0 109.5 -44.5t40.5 -99.5q0 -62 -39.5 -107.5t-108.5 -45.5q-66 0 -106 44.5t-40 108.5z" />
<glyph unicode="/" horiz-adv-x="718" d="M-13 -90l542 1649h179l-542 -1649h-179z" />
<glyph unicode="0" d="M97 376v728q0 96 42 169t107.5 122.5t147.5 75t162 25.5q82 0 164 -25.5t147.5 -75t106.5 -122.5t41 -169v-728q0 -95 -41 -168t-106.5 -121t-147.5 -72.5t-164 -24.5q-81 0 -163.5 24.5t-148.5 72.5t-106.5 121t-40.5 168zM329 428q0 -62 21.5 -104.5t55 -69t73.5 -38 t77 -11.5q39 0 79 11.5t73.5 38t55 68.5t21.5 105v623q0 62 -21.5 105.5t-55 70.5t-73.5 39t-79 12q-38 0 -77.5 -12t-73 -39t-55 -70t-21.5 -106v-623z" />
<glyph unicode="1" d="M217 1211q27 21 69.5 58.5t88.5 77.5t90 77t71 58h211v-1482h-228v1192l-177 -147z" />
<glyph unicode="2" d="M101 0v191q0 90 29.5 167t77.5 142.5t110 121t131 102.5q60 41 119.5 84.5t105.5 88.5t74 92t28 99q0 47 -21.5 82.5t-55.5 59.5t-79.5 36t-90.5 12q-82 0 -158 -30.5t-137 -79.5l-117 178q77 66 186.5 108t238.5 42q88 0 173 -21.5t150.5 -69.5t106.5 -125t41 -188 q0 -69 -26 -131t-67.5 -117.5t-93.5 -103.5t-104 -88q-51 -41 -114.5 -84t-120.5 -95t-97.5 -117.5t-49.5 -150.5h669v-205h-908z" />
<glyph unicode="3" d="M66 135q9 13 25 37.5t35.5 53t37 53t25.5 37.5q60 -49 142 -81t157 -32q121 0 188.5 58.5t67.5 166.5q0 103 -61 170t-158 67h-172v199h172q39 0 76 14t67.5 42t48.5 70t18 96q0 53 -20 90t-52.5 59.5t-74.5 32.5t-85 10q-76 0 -159.5 -32.5t-140.5 -84.5q-9 13 -26 38.5 t-36.5 54t-37 53t-25.5 37.5q75 66 191 108t250 42q84 0 164 -20.5t144.5 -67.5t103.5 -121t39 -181q0 -110 -52 -197.5t-148 -128.5q100 -43 153 -137.5t53 -199.5q0 -117 -40.5 -203t-106.5 -141.5t-152 -83.5t-176 -28q-133 0 -246 42t-189 108z" />
<glyph unicode="4" d="M64 222v189q28 59 67 145.5t84 185.5t92.5 204t92.5 204.5t83 185.5t65 146h244l-472 -1056h377v434h232v-434h125v-204h-125v-222h-232v222h-633z" />
<glyph unicode="5" d="M117 140l126 184q69 -62 141 -89.5t149 -27.5q33 0 74.5 9.5t80.5 33t65.5 65.5t26.5 104v178q0 93 -45 137t-120 44q-32 0 -71 -11.5t-77.5 -30t-71 -38t-51.5 -33.5l-211 84v733h833v-212h-601v-356q74 47 148 72t132 25q86 0 153.5 -29.5t115 -81t72.5 -122t25 -154.5 v-234q0 -95 -39 -169.5t-104.5 -126t-150.5 -78t-177 -26.5q-136 0 -242.5 40.5t-180.5 109.5z" />
<glyph unicode="6" d="M105 385v709q0 97 38 172.5t102.5 127t148.5 77t176 25.5q136 0 240 -40.5t179 -109.5l-125 -187q-69 62 -139.5 90.5t-148.5 28.5q-36 0 -77 -12t-77.5 -39t-60 -69t-23.5 -102v-202q101 60 176 81.5t135 21.5q86 0 153.5 -29t114.5 -80.5t71.5 -123.5t24.5 -156v-176 q0 -97 -38.5 -172.5t-101 -127t-145.5 -77t-169 -25.5q-93 0 -175.5 25.5t-144 75t-98 123.5t-36.5 171zM338 428q0 -59 20 -101.5t51.5 -69.5t71.5 -38.5t78 -11.5q36 0 76 12.5t72.5 39.5t52.5 69t20 100v120q0 101 -48 144t-115 43q-64 0 -132 -27t-147 -76v-204z" />
<glyph unicode="7" d="M109 1054v428h902v-198l-531 -1284h-248l519 1273h-424v-219h-218z" />
<glyph unicode="8" d="M82 417q0 55 16 108.5t45 98.5t65.5 80.5t79.5 54.5q-82 37 -126.5 118.5t-44.5 191.5q0 107 39 187t103.5 133.5t144.5 79t160 25.5q82 0 162 -25.5t143.5 -79t102.5 -134.5t39 -188q0 -103 -45 -186t-125 -122q99 -43 149.5 -136.5t50.5 -194.5q0 -114 -43.5 -198 t-112 -137.5t-154.5 -79.5t-172 -26q-93 0 -178.5 25t-152 77.5t-106.5 134.5t-40 193zM324 421q0 -103 66 -159.5t172 -56.5q103 0 169.5 56.5t66.5 164.5q0 48 -19.5 87t-51.5 68.5t-75 44t-90 14.5q-48 0 -91 -14.5t-75.5 -44t-52 -68.5t-19.5 -92zM344 1067 q0 -52 18 -91.5t49.5 -66.5t70.5 -41t82 -14q41 0 80.5 15t69.5 42t48 66.5t18 89.5q0 101 -65.5 154.5t-150.5 53.5q-41 0 -81 -14t-70 -40.5t-49.5 -65.5t-19.5 -88z" />
<glyph unicode="9" d="M94 931v157q0 96 38 173t100.5 129.5t144 79t171.5 26.5q92 0 174 -26.5t143.5 -78t98 -128.5t36.5 -173v-700q0 -97 -37.5 -171.5t-101 -126t-147.5 -77t-176 -25.5q-138 0 -242.5 40.5t-178.5 109.5l126 184q131 -116 286 -115q35 0 76.5 11.5t77 38.5t59 69t23.5 102 v210q-100 -55 -173 -77.5t-136 -22.5q-168 0 -265 105.5t-97 285.5zM324 948q0 -101 48.5 -143t117.5 -42q62 0 130 27t145 74v194q0 60 -19 102t-50 69t-70 39t-78 12t-78.5 -13t-72 -40t-53 -69t-20.5 -100v-110z" />
<glyph unicode=":" horiz-adv-x="605" d="M152 140q0 55 40 99.5t105 44.5q69 0 109.5 -44.5t40.5 -99.5q0 -62 -39 -107.5t-109 -45.5q-66 0 -106.5 44.5t-40.5 108.5zM152 770q0 57 40 101.5t105 44.5q69 0 109.5 -44.5t40.5 -101.5q0 -62 -39 -106t-109 -44q-66 0 -106.5 43t-40.5 107z" />
<glyph unicode=";" horiz-adv-x="582" d="M119 -205q51 39 83 87.5t38 107.5q-49 6 -79 46t-30 95q0 58 43 101t107 43q43 0 74.5 -16t52 -43t30 -62t9.5 -72q0 -62 -19.5 -121.5t-52.5 -111.5t-79 -93.5t-99 -67.5zM144 770q0 57 40 101.5t106 44.5q69 0 110 -44.5t41 -101.5q0 -62 -40 -106t-111 -44 q-66 0 -106 43t-40 107z" />
<glyph unicode="&#x3c;" d="M80 552v168l948 450v-196l-718 -338l718 -337v-196z" />
<glyph unicode="=" d="M54 329v174h1000v-174h-1000zM54 768v176h1000v-176h-1000z" />
<glyph unicode="&#x3e;" d="M80 103v196l720 337l-720 338v196l948 -450v-168z" />
<glyph unicode="?" horiz-adv-x="1018" d="M62 1365q97 76 203.5 108.5t224.5 32.5q93 0 171.5 -29.5t136.5 -80t90.5 -120.5t32.5 -151q0 -99 -47 -179t-101.5 -152t-100.5 -142.5t-46 -152.5v-78h-230v74q0 98 41 173.5t89 143.5t89 135.5t41 148.5q0 76 -54 131t-148 55q-76 0 -148 -27.5t-130 -76.5zM368 138 q0 55 39.5 99t103.5 44q70 0 112 -44t42 -99q0 -62 -40 -105t-112 -43q-66 0 -105.5 42t-39.5 106z" />
<glyph unicode="@" horiz-adv-x="1824" d="M103 761q0 172 66.5 319t184 255t276 168t338.5 60q189 0 335 -59t245 -162t150.5 -240t51.5 -291q0 -112 -33 -201t-88 -150.5t-126 -95t-146 -33.5q-67 0 -138.5 24.5t-106.5 87.5q-69 -41 -141 -67.5t-144 -26.5q-129 0 -197 70.5t-68 184.5q0 71 32 119.5t79 79 t100.5 43t96.5 12.5h214v39q0 77 -48.5 109t-126.5 32q-43 0 -96.5 -12.5t-115.5 -61.5q-24 32 -46.5 64t-46.5 66q86 69 163.5 90.5t150.5 21.5q161 0 254.5 -78.5t93.5 -237.5v-311q0 -46 30.5 -64t73.5 -18q33 0 70 18t68 56t51.5 97t20.5 143q0 125 -41 232.5 t-120 187.5t-193 126.5t-258 46.5q-148 0 -275 -49.5t-221 -136.5t-146.5 -204t-52.5 -251q0 -135 47.5 -251t133.5 -202t203 -134.5t259 -48.5q62 0 123.5 10.5t152.5 45.5l53 -153q-92 -38 -182.5 -49t-153.5 -11q-178 0 -326 59t-254.5 164.5t-166 250.5t-59.5 317z M749 611q0 -45 32 -71.5t87 -26.5q62 0 119.5 26.5t98.5 49.5v125h-181q-21 0 -47.5 -2t-52 -13t-41 -31.5t-15.5 -56.5z" />
<glyph unicode="A" horiz-adv-x="1326" d="M21 0l519 1482h250l517 -1482h-266l-101 320h-553l-106 -320h-260zM458 533h410l-88 278l-113 375h-9l-110 -361z" />
<glyph unicode="B" horiz-adv-x="1307" d="M125 0v1482h640q105 0 186 -32t133.5 -87.5t80 -126t27.5 -150.5q0 -86 -43 -170.5t-140 -139.5q107 -54 156.5 -149.5t49.5 -189.5q0 -84 -27 -163t-80.5 -139.5t-133 -97.5t-182.5 -37h-667zM372 219h357q116 0 175.5 59.5t59.5 162.5t-70.5 163.5t-166.5 60.5h-355 v-446zM372 880h348q97 0 159.5 49.5t62.5 139.5q0 99 -61.5 145t-170.5 46h-338v-380z" />
<glyph unicode="C" horiz-adv-x="1169" d="M121 466v549q0 117 46 205.5t122 150t175.5 93.5t204.5 32q123 0 235.5 -34t199.5 -105l-121 -191q-62 53 -146 78.5t-164 25.5q-56 0 -111 -16.5t-98 -53.5t-69.5 -95t-26.5 -139v-449q0 -82 26.5 -140.5t70.5 -95t98 -53.5t108 -17q80 0 161.5 22.5t154.5 80.5 l117 -189q-76 -62 -190 -101t-243 -39q-107 0 -206.5 31t-175.5 92.5t-122 152t-46 205.5z" />
<glyph unicode="D" horiz-adv-x="1313" d="M127 0v1482h559q103 0 196.5 -31t164.5 -92.5t113 -151t42 -205.5v-522q0 -115 -42 -203t-114 -150.5t-165 -94.5t-197 -32h-557zM372 217h266q54 0 110 16.5t101.5 51.5t74 93.5t28.5 142.5v436q0 84 -26.5 142t-72 93t-101 51.5t-114.5 16.5h-266v-1043z" />
<glyph unicode="E" horiz-adv-x="1219" d="M131 0v1482h1004v-222h-759v-406h650v-222h-650v-413h759v-219h-1004z" />
<glyph unicode="F" horiz-adv-x="1160" d="M131 0v1482h1004v-222h-759v-411h650v-221h-650v-628h-245z" />
<glyph unicode="G" horiz-adv-x="1274" d="M121 466v547q0 117 46 205.5t124.5 151t180.5 94.5t214 32q125 0 238.5 -34t197.5 -105l-120 -191q-62 53 -148 78.5t-166 25.5q-60 0 -117.5 -16.5t-102.5 -53.5t-72.5 -95t-27.5 -139v-449q0 -82 25.5 -140.5t69.5 -95t100.5 -53.5t113.5 -17q45 0 106.5 13.5 t125.5 63.5v297h-225v215h471v-613q-97 -111 -227 -156.5t-251 -45.5q-105 0 -205 31t-178.5 92.5t-125.5 152t-47 205.5z" />
<glyph unicode="H" horiz-adv-x="1356" d="M121 0v1482h244v-620h622v620h250v-1482h-250v640h-622v-640h-244z" />
<glyph unicode="I" horiz-adv-x="589" d="M172 0v1482h245v-1482h-245z" />
<glyph unicode="J" horiz-adv-x="1132" d="M21 109l114 194q76 -51 146 -71.5t136 -20.5t122 17t97 53.5t63.5 97t22.5 148.5v955h248v-1011q0 -116 -42 -206.5t-114 -153t-166 -94.5t-196 -32q-56 0 -115.5 7.5t-115 24t-107.5 40t-93 52.5z" />
<glyph unicode="K" horiz-adv-x="1309" d="M123 0v1482h247v-712h8l237 295l346 417h295l-486 -592l527 -890h-288q-101 174 -201 346.5t-201 345.5q-60 -71 -119.5 -140.5t-117.5 -140.5v-411h-247z" />
<glyph unicode="L" horiz-adv-x="1160" d="M138 0v1482h242v-1263h764v-219h-1006z" />
<glyph unicode="M" horiz-adv-x="1640" d="M127 0v1482h230l281 -564l183 -380h14l180 385l275 559h226v-1482h-246v903h-8l-137 -279l-209 -411h-181l-202 387l-153 303h-8v-903h-245z" />
<glyph unicode="N" horiz-adv-x="1418" d="M127 0v1482h228l441 -657l238 -367h13v1024h246v-1482h-230l-448 667l-228 350h-15v-1017h-245z" />
<glyph unicode="O" horiz-adv-x="1344" d="M114 480v526q0 116 44.5 206.5t119.5 154t175.5 96.5t217.5 33q114 0 216 -34t178 -97.5t120.5 -155t44.5 -207.5v-522q0 -117 -43 -209.5t-119.5 -156t-178 -96.5t-218.5 -33q-119 0 -220.5 33t-176 96.5t-117.5 156t-43 209.5zM361 517q0 -82 26 -140.5t69 -95 t99 -53.5t116 -17t117 17t100 53.5t69 95t26 140.5v449q0 80 -26 137.5t-69 95.5t-100 54.5t-117 16.5q-62 0 -118 -16.5t-98 -54.5t-68 -96t-26 -137v-449z" />
<glyph unicode="P" horiz-adv-x="1214" d="M121 0v1482h638q107 0 187 -41t131.5 -106t77 -145t25.5 -160t-29 -160t-83.5 -146t-133 -107t-179.5 -41h-390v-576h-244zM365 800h341q107 0 170.5 63.5t63.5 166.5t-63.5 166.5t-170.5 63.5h-341v-460z" />
<glyph unicode="Q" horiz-adv-x="1365" d="M121 482v516q0 116 44 208.5t119 157t176.5 98.5t216.5 34t216.5 -34t178.5 -98.5t121 -156t44 -207.5v-518q0 -103 -34.5 -187t-94 -146.5t-142 -101.5t-178.5 -51v-35q0 -45 7 -75t26.5 -46t51.5 -22.5t84 -6.5h32v-194q-45 -7 -86 -7q-157 0 -249 73.5t-92 217.5v95 q-97 12 -178 51t-140 101.5t-91 146t-32 187.5zM368 548q0 -73 17 -137q29 -108 111.5 -154t180.5 -46q60 0 117.5 16t100.5 52.5t68.5 95t25.5 138.5v416q0 80 -19 138q-12 53 -41.5 92t-68.5 62.5t-86 35t-97 11.5q-62 0 -118 -16.5t-98 -53.5t-67.5 -95t-25.5 -139v-416z " />
<glyph unicode="R" horiz-adv-x="1252" d="M123 0v1482h638q112 0 191.5 -41t131 -107t76 -146t24.5 -160q0 -60 -16.5 -121.5t-49 -116.5t-79 -99t-106.5 -71l271 -620h-266l-243 576h-325v-576h-247zM370 800h338q109 0 172.5 62.5t63.5 165.5t-63.5 166.5t-172.5 63.5h-338v-458z" />
<glyph unicode="S" horiz-adv-x="1240" d="M62 181l138 178q96 -71 204.5 -110.5t219.5 -39.5q146 0 218 59t72 149q0 62 -29 100.5t-78.5 65t-113 41t-131.5 32.5q-86 19 -167 49t-142.5 79t-98.5 118.5t-37 170.5q0 95 34 174.5t98.5 137.5t155 91.5t202.5 33.5q133 0 263 -27.5t248 -101.5l-109 -203 q-99 60 -197 84t-192 24q-52 0 -98 -13t-82 -38.5t-57.5 -65.5t-21.5 -94q0 -53 28 -90t74 -61.5t105.5 -41t123.5 -28.5q105 -24 193.5 -56.5t152 -82.5t99 -121.5t35.5 -174.5t-41 -184t-113 -135.5t-173 -83.5t-219 -29q-158 0 -296.5 44.5t-267.5 149.5z" />
<glyph unicode="T" horiz-adv-x="1126" d="M30 1258v224h1066v-224h-408v-1258h-247v1258h-411z" />
<glyph unicode="U" horiz-adv-x="1348" d="M119 466v1016h244v-971q0 -82 26 -138.5t70 -93t100 -53.5t116 -17q58 0 115 17t100 53.5t70 93.5t27 138v971h248v-1014q0 -116 -47 -206t-124 -151.5t-178 -93.5t-211 -32q-111 0 -212.5 31t-177.5 92.5t-121 152t-45 205.5z" />
<glyph unicode="V" horiz-adv-x="1255" d="M21 1482h267l190 -616l146 -496h12l152 516l182 596h263l-476 -1482h-258z" />
<glyph unicode="W" horiz-adv-x="1902" d="M21 1482h265l149 -635l107 -473h12l117 478l160 630h240l166 -657l111 -451h11l104 457l152 651h265l-388 -1482h-271l-156 615l-108 439h-13l-109 -443l-156 -611h-273z" />
<glyph unicode="X" horiz-adv-x="1229" d="M17 0l465 759l-437 723h282l288 -518l290 518h279l-433 -723l464 -759h-279l-321 554l-318 -554h-280z" />
<glyph unicode="Y" horiz-adv-x="1194" d="M24 1482h266l162 -347l139 -314h16l142 323l158 338h263l-448 -908v-574h-246v574z" />
<glyph unicode="Z" horiz-adv-x="1141" d="M76 0v213l698 1047h-671v222h968v-207l-710 -1056h708v-219h-993z" />
<glyph unicode="[" horiz-adv-x="597" d="M152 -219v1721h407v-156h-202v-1410h202v-155h-407z" />
<glyph unicode="\" horiz-adv-x="718" d="M-13 1559h181l540 -1649h-179z" />
<glyph unicode="]" horiz-adv-x="597" d="M51 -64h201v1410h-201v156h405v-1721h-405v155z" />
<glyph unicode="^" d="M51 638l429 856h167l428 -854h-195l-316 640l-319 -642h-194z" />
<glyph unicode="_" horiz-adv-x="1075" d="M0 -148h1075v-151h-1075v151z" />
<glyph unicode="`" horiz-adv-x="1072" d="M359 1555l211 68l170 -393l-133 -56z" />
<glyph unicode="a" horiz-adv-x="1096" d="M84 314q0 88 39 148.5t96.5 97.5t125.5 54.5t126 17.5h294v65q0 95 -53.5 135.5t-165.5 40.5q-54 0 -132.5 -16t-157.5 -81l-106 170q107 82 216.5 106.5t201.5 24.5q220 0 322.5 -96.5t102.5 -294.5v-686h-205l-20 92l-7 5q-114 -64 -192.5 -84.5t-145.5 -20.5 q-159 0 -249 86t-90 236zM324 322q0 -60 43.5 -93.5t114.5 -33.5q39 0 77 10t76 24t71.5 31t58.5 33v163h-256q-30 0 -62 -4.5t-59 -18.5t-45.5 -39.5t-18.5 -71.5z" />
<glyph unicode="b" horiz-adv-x="1102" d="M101 0v1539h228v-573q118 66 195.5 88.5t133.5 22.5q179 0 263.5 -102t84.5 -280v-321q0 -189 -100 -286.5t-261 -97.5q-56 0 -133 21.5t-183 82.5l-21 -94h-207zM329 301q28 -19 67 -36t77 -31.5t76 -21.5t66 -7q70 0 115.5 45t45.5 148v267q0 109 -45 151t-116 42 q-60 0 -135.5 -34t-150.5 -82v-441z" />
<glyph unicode="c" horiz-adv-x="948" d="M99 370v316q0 94 36.5 167.5t97 123t137.5 75t159 25.5q47 0 96.5 -5t98 -19.5t94.5 -41t89 -71.5l-133 -170q-74 66 -130.5 81t-99.5 15q-37 0 -75.5 -11.5t-69.5 -37t-51.5 -67.5t-20.5 -103v-228q0 -60 18 -102t48 -67.5t69 -37.5t80 -12q45 0 109.5 20t116.5 70 l139 -157q-86 -88 -182.5 -115.5t-193.5 -27.5q-90 0 -170 25.5t-137.5 75t-91 119t-33.5 160.5z" />
<glyph unicode="d" horiz-adv-x="1102" d="M97 374v321q0 179 102 280.5t269 101.5q56 0 134.5 -11.5t169.5 -48.5v522h228v-1539h-206l-22 105q-109 -66 -186 -90.5t-132 -24.5q-166 0 -261.5 93t-95.5 291zM324 392q0 -107 46.5 -147t117.5 -40q29 0 64 8.5t74 23.5t76.5 34t69.5 41v488q-76 31 -141 46.5 t-126 15.5q-76 0 -128.5 -45t-52.5 -152v-273z" />
<glyph unicode="e" horiz-adv-x="1063" d="M99 378v280q0 97 33.5 174t93.5 131t139.5 83t174.5 29q96 0 178 -27.5t141 -80.5t91.5 -128.5t32.5 -171.5v-209h-656v-54q0 -55 19 -95t50.5 -65t73 -37t86.5 -12q50 0 120.5 17.5t138.5 80.5q34 -41 67.5 -79t65.5 -79q-90 -88 -190 -116.5t-202 -28.5 q-92 0 -174.5 23.5t-146 71.5t-100 121t-36.5 172zM329 622h424v32q0 111 -62.5 161.5t-148.5 50.5t-149.5 -52.5t-63.5 -157.5v-34z" />
<glyph unicode="f" horiz-adv-x="665" d="M51 870v195h127v185q0 73 24 127.5t64 91.5t93.5 53.5t116.5 16.5h189v-195h-158q-62 0 -83.5 -34.5t-21.5 -86.5v-158h263v-195h-263v-870h-224v870h-127z" />
<glyph unicode="g" horiz-adv-x="1098" d="M90 376v314q0 185 98 286t259 101q58 0 135.5 -23.5t182.5 -89.5l23 101h207v-1127q0 -94 -42 -166.5t-109.5 -121t-151 -72t-169.5 -23.5q-97 0 -205.5 33.5t-198.5 123.5l143 157q27 -27 60 -45.5t69.5 -32t71 -18.5t60.5 -5q47 0 91 11.5t77 37t53.5 66.5t20.5 102 v114q-100 -62 -183 -82.5t-139 -20.5q-168 0 -260.5 100.5t-92.5 279.5zM320 406q0 -107 46 -151q43 -42 110 -42h6q60 0 136.5 28t146.5 73v433q-69 49 -147 80t-136 31q-71 0 -116.5 -43t-45.5 -150v-259z" />
<glyph unicode="h" horiz-adv-x="1102" d="M103 0v1539h228v-582q123 79 203.5 99.5t138.5 20.5q176 0 258 -102t82 -280v-695h-231v665q0 53 -12.5 91t-35 60.5t-52.5 32t-65 9.5q-57 0 -130.5 -28t-155.5 -79v-751h-228z" />
<glyph unicode="i" horiz-adv-x="546" d="M142 1370q0 56 37.5 94t91.5 38q56 0 93.5 -38t37.5 -94q0 -55 -37.5 -93t-93.5 -38q-54 0 -91.5 38t-37.5 93zM160 0v1065h227v-1065h-227z" />
<glyph unicode="j" horiz-adv-x="552" d="M-33 -234h78q80 0 106.5 36t26.5 120v1143h228v-1176q0 -168 -88 -247t-236 -79h-115v203zM164 1372q0 54 36 92t93 38q56 0 93 -38t37 -92q0 -55 -37 -93t-93 -38t-92.5 38t-36.5 93z" />
<glyph unicode="k" horiz-adv-x="1072" d="M101 0v1539h230v-815h123q64 0 110.5 26t84.5 104l110 215h256l-129 -269q-30 -62 -64 -105t-100 -67q46 -15 75.5 -39.5t49 -55t32.5 -64.5t24 -69l133 -400h-254l-109 344q-30 95 -75.5 129t-129.5 34h-137v-507h-230z" />
<glyph unicode="l" horiz-adv-x="603" d="M162 275v1264h228v-1227q0 -78 32 -97.5t120 -19.5l4 -197q-33 -6 -62.5 -8.5t-55.5 -2.5q-86 0 -138 20.5t-80.5 58t-38 90.5t-9.5 119z" />
<glyph unicode="m" horiz-adv-x="1664" d="M94 0v1065h209l19 -111q112 80 181 101.5t125 21.5q99 0 166.5 -41t104.5 -113q66 51 117 81t92 46.5t73 21.5t60 5q164 0 246.5 -95.5t82.5 -273.5v-708h-228v675q0 97 -39 139t-113 42q-52 0 -110 -28t-136 -88q2 -24 3 -43.5t1 -42.5v-654h-230v679q0 99 -42 138 t-100 39q-57 0 -113.5 -22.5t-138.5 -78.5v-755h-230z" />
<glyph unicode="n" horiz-adv-x="1102" d="M99 0v1065h207l21 -106q64 39 117 62.5t95 36.5t75 16t61 3q168 0 251 -100.5t83 -279.5v-697h-231v665q0 109 -47 151t-118 42q-58 0 -131.5 -28t-154.5 -79v-751h-228z" />
<glyph unicode="o" horiz-adv-x="1100" d="M97 376v310q0 94 37.5 167.5t100 123t144 75t171.5 25.5q97 0 179 -25.5t143 -76t95.5 -124t34.5 -167.5v-308q0 -95 -37.5 -168t-101 -121t-145.5 -72.5t-170 -24.5q-90 0 -172.5 24.5t-144 72.5t-98 121t-36.5 168zM324 419q0 -121 67 -170t159 -49q39 0 80 12t73 37.5 t52.5 67.5t20.5 102v226q0 60 -20.5 102.5t-52.5 68t-73 37t-80 11.5t-79.5 -11.5t-73 -37t-53 -67.5t-20.5 -103v-226z" />
<glyph unicode="p" horiz-adv-x="1104" d="M107 -426v1491h207l21 -106q109 66 187 91t134 25q166 0 261.5 -93.5t95.5 -291.5v-320q0 -179 -98 -281t-277 -102q-55 0 -132.5 10.5t-170.5 53.5v-477h-228zM335 265q86 -37 147.5 -49.5t119.5 -12.5q36 0 70 8t58.5 31t38 59.5t13.5 90.5v279q0 107 -46 147t-116 40 q-29 0 -64 -8.5t-74 -23.5t-76.5 -34.5t-70.5 -40.5v-486z" />
<glyph unicode="q" horiz-adv-x="1094" d="M92 372v320q0 189 100.5 287t261.5 98q55 0 132 -22.5t186 -86.5l22 97h204v-1493h-228v518q-112 -62 -189.5 -81t-133.5 -19q-168 0 -261.5 101.5t-93.5 280.5zM322 402q0 -107 46 -150q45 -41 112 -41h6q58 0 132 27t152 76v449q-70 41 -150 71t-134 30 q-71 0 -117.5 -45t-46.5 -150v-267z" />
<glyph unicode="r" horiz-adv-x="765" d="M131 0v1067h207l19 -158h2q28 29 72.5 59t97 54.5t109.5 40.5t113 16v-238q-142 -13 -236 -47.5t-156 -73.5v-720h-228z" />
<glyph unicode="s" horiz-adv-x="989" d="M47 135l125 166q80 -66 161.5 -91t171.5 -25q76 0 135 32.5t59 98.5q0 56 -38.5 83t-114.5 40q-78 13 -157 29t-143.5 48t-105.5 87t-41 146q0 77 32.5 138t87 103t125.5 64.5t151 22.5q122 0 220 -24.5t192 -93.5l-111 -169q-78 49 -151 67.5t-148 18.5 q-82 0 -128.5 -37t-46.5 -86t45.5 -72t113 -37t147.5 -29t147.5 -47t112.5 -91.5t45 -160.5q0 -78 -33.5 -138.5t-92 -102.5t-138.5 -65t-170 -23q-117 0 -226 28t-226 120z" />
<glyph unicode="t" horiz-adv-x="794" d="M58 870v195h147l45 255h176v-255h278v-195h-278v-480q0 -101 28 -145.5t120 -44.5q29 0 73.5 5.5t92.5 20.5l45 -200q-64 -24 -136.5 -30t-115.5 -6q-94 0 -157.5 24.5t-102.5 70.5t-56 114t-17 154v517h-142z" />
<glyph unicode="u" horiz-adv-x="1108" d="M94 378v687h230v-667q0 -107 49.5 -150t118.5 -43q119 0 284 115v745h230v-1065h-208l-22 103q-125 -76 -201 -96t-130 -20q-174 0 -262.5 106.5t-88.5 284.5z" />
<glyph unicode="v" horiz-adv-x="1032" d="M17 1065h254l125 -384l121 -382h10q2 9 10.5 37.5t20.5 68.5t25.5 83t26 83t20.5 69t13 37l122 388h250l-381 -1065h-234z" />
<glyph unicode="w" horiz-adv-x="1535" d="M33 1067h238l92 -366l89 -372h8l123 372l86 263h209l96 -293l108 -347h10l88 380l90 363h234l-291 -1067h-226l-105 320l-108 336h-9l-107 -344l-102 -312h-223z" />
<glyph unicode="x" horiz-adv-x="1010" d="M2 0l376 544l-357 523h274l206 -347l211 347h273l-361 -519l376 -548h-276l-223 368l-228 -368h-271z" />
<glyph unicode="y" horiz-adv-x="1029" d="M21 1067h241l114 -437l106 -390h6l136 392l144 435h241l-545 -1497h-236l162 451l-78 63z" />
<glyph unicode="z" horiz-adv-x="993" d="M84 0v183l546 685h-516v197h797v-183l-543 -682h543v-200h-827z" />
<glyph unicode="{" horiz-adv-x="597" d="M30 566v148q84 8 124.5 78t40.5 174v286q0 111 62.5 177.5t155.5 66.5h168v-150h-89q-28 0 -46 -15t-29 -40t-15 -53.5t-4 -57.5v-264q0 -62 -17.5 -109.5t-43 -81t-53.5 -53.5t-50 -29v-5q24 -8 53 -28.5t53.5 -53.5t41 -79.5t16.5 -106.5v-271q0 -29 3 -57.5 t12.5 -53.5t29 -39.5t49.5 -14.5h89v-147h-168q-107 0 -162.5 71t-55.5 220v219q0 121 -37 191.5t-128 77.5z" />
<glyph unicode="|" horiz-adv-x="476" d="M148 -396v1947h181v-1947h-181z" />
<glyph unicode="}" horiz-adv-x="597" d="M24 -66h87q31 0 49 14.5t29 39.5t14.5 54t3.5 57v271q0 59 15.5 106t40.5 80t53 53.5t54 28.5v5q-25 8 -52.5 28.5t-52.5 54t-41.5 81t-16.5 109.5v264q0 29 -2 57.5t-12 53.5t-29.5 40t-52.5 15h-87v144h163q105 0 163 -66.5t58 -171.5v-286q0 -105 41 -174.5t125 -77.5 v-148q-92 -6 -129 -77.5t-37 -191.5v-219q0 -132 -53.5 -211.5t-163.5 -79.5h-167v147z" />
<glyph unicode="~" d="M39 566q55 97 132 146t182 49q49 0 102.5 -21.5t106.5 -46t103.5 -46t95.5 -21.5q43 0 82 26.5t90 104.5l142 -101q-62 -109 -137.5 -163t-176.5 -54q-49 0 -100.5 21.5t-104.5 46t-105.5 46t-101.5 21.5q-54 0 -93 -26.5t-84 -89.5z" />
<glyph unicode="&#xa2;" horiz-adv-x="948" d="M99 370v316q0 86 31.5 155.5t84 119.5t122 79t145.5 35v241h105v-241q82 -4 166 -32t154 -103l-133 -170q-56 51 -103 70.5t-84 23.5v-661q43 6 91.5 27.5t89.5 59.5l139 -157q-75 -75 -156.5 -105t-163.5 -36v-259h-105v259q-82 6 -152 34t-121 76t-80.5 116t-29.5 152z M327 419q0 -97 46 -147t109 -65v651q-60 -17 -107.5 -66.5t-47.5 -144.5v-228z" />
<glyph unicode="&#xa3;" d="M101 607v171h147q-11 41 -26 81t-28 80t-22.5 79.5t-9.5 80.5q0 78 27.5 149.5t81 127.5t134.5 89t186 33q138 0 247.5 -44t199.5 -164l-170 -139q-62 84 -130.5 113t-137.5 29q-31 0 -63 -12.5t-61 -36t-47 -60.5t-18 -90q0 -39 9.5 -76t24.5 -76t29 -79t25 -85h328 v-171h-318q-4 -105 -28.5 -208.5t-86.5 -201.5h642v-197h-931v170q73 97 120.5 202.5t53.5 234.5h-178z" />
<glyph unicode="&#xa5;" d="M35 1482h264l251 -657h16l249 657h264l-301 -684h231v-155h-299l-29 -69v-94h328v-149h-328v-331h-246v331h-328v149h328v94l-33 69h-293v155h226z" />
<glyph unicode="&#xa8;" horiz-adv-x="1053" d="M185 1359q0 51 36.5 88t86.5 37q53 0 90 -37t37 -88q0 -52 -37 -88t-90 -36q-50 0 -86.5 36t-36.5 88zM607 1359q0 51 36 88t88 37q53 0 90 -37t37 -88q0 -52 -36.5 -88t-90.5 -36q-52 0 -88 36t-36 88z" />
<glyph unicode="&#xa9;" horiz-adv-x="1738" d="M121 733q0 164 57.5 303.5t159 241t239 159t296.5 57.5q161 0 298.5 -56.5t239 -158t159.5 -241t58 -305.5q0 -164 -58 -302t-159.5 -239.5t-239 -158.5t-298.5 -57q-162 0 -300 57t-238.5 158.5t-157 240t-56.5 301.5zM273 733q0 -131 46 -243t127 -194.5t191 -128.5 t236 -46q129 0 238.5 46t190.5 128.5t126 194.5t45 243q0 133 -45 246t-126 196t-190.5 129t-238.5 46q-127 0 -236.5 -47t-190.5 -129t-127 -196t-46 -245zM511 570v300q0 78 31.5 139.5t83 103.5t118.5 64.5t138 22.5q84 0 161 -22.5t133 -71.5l-82 -127q-43 36 -98.5 54 t-111.5 18q-37 0 -74.5 -11.5t-66.5 -36t-47.5 -64.5t-18.5 -96v-241q0 -56 18.5 -96t48.5 -64.5t66.5 -36t73.5 -11.5q54 0 109.5 16t105.5 54l79 -124q-51 -43 -128.5 -70t-165.5 -27q-71 0 -139 21.5t-119.5 63.5t-83 103t-31.5 139z" />
<glyph unicode="&#xab;" horiz-adv-x="1081" d="M97 492l286 422h210l-279 -422l279 -418h-210zM505 492l287 422h212l-277 -422l277 -418h-212z" />
<glyph unicode="&#xad;" horiz-adv-x="876" d="M107 466v203h661v-203h-661z" />
<glyph unicode="&#xae;" horiz-adv-x="1180" d="M133 1051q0 99 36 183t98 145.5t145 96t177 34.5q97 0 181 -34.5t145 -96t96.5 -145t35.5 -183.5q0 -97 -35.5 -179t-97.5 -141.5t-145 -94t-180 -34.5t-181 34.5t-144.5 94t-95.5 141.5t-35 179zM230 1051q0 -78 27 -143t75 -113t113.5 -76.5t143.5 -28.5t143.5 28.5 t114 76.5t76 113.5t27.5 142.5q0 80 -27.5 146.5t-76 115t-114 77t-143.5 28.5t-143.5 -28.5t-113.5 -77t-75 -115t-27 -146.5zM419 794v520h213q66 0 113 -40.5t47 -110.5q0 -49 -26 -85.5t-71 -57.5l113 -226h-107l-101 210h-87v-210h-94zM513 1094h107q34 0 55.5 18.5 t21.5 50.5q0 62 -73 62h-111v-131z" />
<glyph unicode="&#xb4;" horiz-adv-x="1072" d="M408 1225l164 398l210 -66l-238 -383z" />
<glyph unicode="&#xb8;" horiz-adv-x="950" d="M288 -408q10 26 20 51.5t21 53.5q49 -19 89 -24.5t72 -5.5q43 0 71 19t28 54q0 28 -21.5 51.5t-70.5 23.5q-9 0 -16 -1t-19 -3l-72 39l74 240q31 0 58.5 -1t58.5 -3l-56 -168q60 -4 101 -22.5t65.5 -45t35 -56.5t10.5 -59q0 -32 -13.5 -64t-41.5 -60t-72 -45.5 t-105 -17.5q-49 0 -107 9.5t-110 34.5z" />
<glyph unicode="&#xbb;" horiz-adv-x="1081" d="M97 74l279 418l-279 422h213l285 -422l-285 -418h-213zM507 74l281 418l-281 422h211l288 -422l-288 -418h-211z" />
<glyph unicode="&#x2c6;" horiz-adv-x="1072" d="M152 1254l322 330h150l312 -326l-99 -92l-293 227q-13 -8 -56 -41.5t-92.5 -72t-92.5 -72t-55 -41.5z" />
<glyph unicode="&#x2da;" horiz-adv-x="1072" d="M327 1385q0 47 19 89t51.5 72t76 48.5t92.5 18.5t92 -18.5t75 -48.5t50.5 -72t18.5 -89q0 -49 -18.5 -91t-50.5 -73t-75 -49.5t-92 -18.5t-92.5 18.5t-76 49.5t-51.5 73t-19 91zM456 1385q0 -45 32.5 -76t77.5 -31t76 31t31 76q0 43 -31 73t-76 30t-77.5 -30t-32.5 -73z " />
<glyph unicode="&#x2dc;" horiz-adv-x="1072" d="M150 1311q50 101 112 154t138 53q41 0 81 -16t77 -35.5t71 -35.5t59 -16q34 0 65.5 23t67.5 76l125 -73q-51 -110 -110.5 -158t-129.5 -48q-41 0 -80 14.5t-76 32t-71 32.5t-64 15q-37 0 -67 -17t-73 -73z" />
<glyph unicode="&#x401;" horiz-adv-x="1219" d="M131 0v1482h1004v-222h-759v-406h650v-222h-650v-413h759v-219h-1004zM312 1744q0 52 36.5 88.5t86.5 36.5q53 0 90 -36.5t37 -88.5q0 -51 -37 -88t-90 -37q-50 0 -86.5 37t-36.5 88zM733 1744q0 52 36.5 88.5t88.5 36.5q53 0 89 -36.5t36 -88.5q0 -51 -36 -88t-89 -37 q-52 0 -88.5 37t-36.5 88z" />
<glyph unicode="&#x402;" horiz-adv-x="1560" d="M21 1258v224h1138v-224h-523v-342q93 51 193 80.5t191 29.5q232 0 341.5 -122t109.5 -330v-271q0 -116 -43 -208.5t-117 -155t-177.5 -95.5t-222.5 -33v219q64 0 121.5 17t99.5 55t65.5 95t23.5 138v194q0 148 -64.5 209.5t-192.5 61.5q-78 0 -167 -33.5t-161 -78.5v-688 h-246v1258h-369z" />
<glyph unicode="&#x403;" horiz-adv-x="1126" d="M135 0v1482h1004v-222h-759v-1260h-245zM458 1693l361 279l129 -176l-408 -218z" />
<glyph unicode="&#x404;" horiz-adv-x="1156" d="M117 466v545q0 117 46 206.5t121 152t173.5 94.5t205.5 32q122 0 234 -34t197 -105l-120 -191q-62 53 -147 78.5t-160 25.5q-56 0 -110 -16.5t-97 -53.5t-70 -95t-27 -139v-102h495v-212h-495v-135q0 -82 27 -140.5t71 -95t98 -53.5t108 -17q80 0 161 22.5t155 80.5 l118 -189q-75 -62 -190 -101t-244 -39q-112 0 -212 31t-175 92.5t-119 152t-44 205.5z" />
<glyph unicode="&#x405;" horiz-adv-x="1240" d="M62 181l138 178q96 -71 204.5 -110.5t219.5 -39.5q146 0 218 59t72 149q0 62 -29 100.5t-78.5 65t-113 41t-131.5 32.5q-86 19 -167 49t-142.5 79t-98.5 118.5t-37 170.5q0 95 34 174.5t98.5 137.5t155 91.5t202.5 33.5q133 0 263 -27.5t248 -101.5l-109 -203 q-99 60 -197 84t-192 24q-52 0 -98 -13t-82 -38.5t-57.5 -65.5t-21.5 -94q0 -53 28 -90t74 -61.5t105.5 -41t123.5 -28.5q105 -24 193.5 -56.5t152 -82.5t99 -121.5t35.5 -174.5t-41 -184t-113 -135.5t-173 -83.5t-219 -29q-158 0 -296.5 44.5t-267.5 149.5z" />
<glyph unicode="&#x406;" horiz-adv-x="589" d="M172 0v1482h245v-1482h-245z" />
<glyph unicode="&#x407;" horiz-adv-x="589" d="M-37 1744q0 52 37 88.5t86 36.5q54 0 90.5 -36.5t36.5 -88.5q0 -51 -36.5 -88t-90.5 -37q-49 0 -86 37t-37 88zM172 0v1482h245v-1482h-245zM385 1744q0 52 36.5 88.5t87.5 36.5q54 0 90.5 -36.5t36.5 -88.5q0 -51 -36 -88t-91 -37q-51 0 -87.5 37t-36.5 88z" />
<glyph unicode="&#x408;" horiz-adv-x="1132" d="M21 109l114 194q76 -51 146 -71.5t136 -20.5t122 17t97 53.5t63.5 97t22.5 148.5v955h248v-1011q0 -116 -42 -206.5t-114 -153t-166 -94.5t-196 -32q-56 0 -115.5 7.5t-115 24t-107.5 40t-93 52.5z" />
<glyph unicode="&#x409;" horiz-adv-x="2003" d="M15 154q88 33 145 82.5t89 129t45.5 192.5t13.5 273v651h833v-590h377q103 0 186 -35.5t141 -96.5t88.5 -141.5t30.5 -171.5q0 -79 -25 -158.5t-79 -144t-135.5 -104.5t-197.5 -40h-632v1258h-349v-431q0 -193 -21.5 -341t-74 -254.5t-140.5 -173t-222 -99.5zM1141 222 h343q107 0 172.5 61t65.5 164q0 105 -67.5 164.5t-175.5 59.5h-338v-449z" />
<glyph unicode="&#x40a;" horiz-adv-x="1995" d="M121 0v1482h244v-600h505v600h248v-598h378q103 0 185 -34.5t140.5 -93.5t88 -138.5t29.5 -168.5q0 -79 -24.5 -159.5t-77 -145t-135.5 -104.5t-196 -40h-636v660h-505v-660h-244zM1118 222h343q107 0 172.5 62t65.5 165t-66.5 158.5t-177.5 55.5h-337v-441z" />
<glyph unicode="&#x40b;" horiz-adv-x="1560" d="M21 1258v224h1138v-224h-523v-337q82 45 183.5 75t191.5 30q129 0 217 -34.5t142 -96.5t77.5 -149.5t23.5 -193.5v-552h-250v499q0 152 -52.5 226.5t-196.5 74.5q-77 0 -170.5 -33.5t-165.5 -78.5v-688h-246v1258h-369z" />
<glyph unicode="&#x40c;" horiz-adv-x="1278" d="M125 0v1482h245v-618h192q39 0 76 8t71.5 29.5t63.5 61t50 104.5l134 415h243l-133 -433q-35 -109 -88.5 -182t-122.5 -97q92 -31 143.5 -107t84.5 -185l141 -478h-261l-125 437q-19 66 -47.5 108t-62.5 65.5t-74 31t-83 7.5h-202v-649h-245zM435 1693l361 279l129 -176 l-408 -218z" />
<glyph unicode="&#x40e;" horiz-adv-x="1169" d="M19 1482h256q6 -19 31 -85t57.5 -155t68.5 -189.5t68.5 -189.5t56.5 -157t32 -89h11q10 35 35 104t56 154.5t65 180.5t65 178.5t54.5 150t33.5 97.5h246l-449 -1187q-37 -94 -76 -154.5t-84 -96.5t-96.5 -48.5t-109.5 -12.5h-162v208h130q53 0 85.5 19.5t60.5 75.5l20 38 q-117 288 -229 578t-226 580zM281 1810h177q2 -21 12 -44.5t28.5 -44t44 -34.5t57.5 -14q36 0 63 14t45.5 34.5t27 44t8.5 44.5h174q-4 -45 -21 -96.5t-53 -96.5t-95 -75t-149 -30q-91 0 -149.5 30t-96.5 75t-54 96.5t-19 96.5z" />
<glyph unicode="&#x40f;" horiz-adv-x="1356" d="M121 0v1482h244v-1260h622v1260h250v-1482h-431v-368h-262v368h-423z" />
<glyph unicode="&#x410;" horiz-adv-x="1326" d="M21 0l519 1482h250l517 -1482h-266l-101 320h-553l-106 -320h-260zM458 533h410l-88 278l-113 375h-9l-110 -361z" />
<glyph unicode="&#x411;" horiz-adv-x="1242" d="M121 0v1482h911v-224h-667v-366h375q107 0 191 -35.5t141 -96.5t87.5 -141.5t30.5 -169.5q0 -79 -26.5 -159.5t-80 -145t-136.5 -104.5t-198 -40h-628zM365 222h341q107 0 174.5 62t67.5 165t-70 162.5t-177 59.5h-336v-449z" />
<glyph unicode="&#x412;" horiz-adv-x="1307" d="M125 0v1482h640q105 0 186 -32t133.5 -87.5t80 -126t27.5 -150.5q0 -86 -43 -170.5t-140 -139.5q107 -54 156.5 -149.5t49.5 -189.5q0 -84 -27 -163t-80.5 -139.5t-133 -97.5t-182.5 -37h-667zM372 219h357q116 0 175.5 59.5t59.5 162.5t-70.5 163.5t-166.5 60.5h-355 v-446zM372 880h348q97 0 159.5 49.5t62.5 139.5q0 99 -61.5 145t-170.5 46h-338v-380z" />
<glyph unicode="&#x413;" horiz-adv-x="1126" d="M135 0v1482h1004v-222h-759v-1260h-245z" />
<glyph unicode="&#x414;" horiz-adv-x="1526" d="M21 222h110q50 36 85.5 87.5t59 129.5t37.5 186t20 257l26 600h968q0 -319 1 -632.5t1 -630.5h124v-543h-230v324h-971v-324h-231v546zM423 217h659v1043h-501l-19 -390q-7 -118 -13.5 -214.5t-22 -176t-39 -144t-64.5 -118.5z" />
<glyph unicode="&#x415;" horiz-adv-x="1219" d="M131 0v1482h1004v-222h-759v-406h650v-222h-650v-413h759v-219h-1004z" />
<glyph unicode="&#x416;" horiz-adv-x="1935" d="M47 0l142 476q33 109 85.5 186.5t144.5 107.5q-71 24 -125 95t-85 180l-135 437h246l132 -415q20 -66 49.5 -106t65 -61.5t74 -28.5t77.5 -7h127v618h245v-618h127q39 0 78 7t74 28.5t64.5 61t50.5 106.5l131 415h248l-136 -437q-32 -109 -86 -180t-125 -95 q93 -31 145.5 -108t84.5 -186l142 -476h-265l-125 437q-19 66 -46.5 108t-62.5 65.5t-73 31t-83 7.5h-143v-649h-245v649h-141q-46 0 -85.5 -7.5t-73.5 -31t-61.5 -65.5t-46.5 -108l-125 -437h-265z" />
<glyph unicode="&#x417;" horiz-adv-x="1149" d="M19 135l127 181q32 -26 75.5 -46t89.5 -35.5t93.5 -23.5t85.5 -8q148 0 231 66t83 178q0 109 -67.5 165.5t-184.5 56.5h-184v199h174q47 0 92 14.5t82 42t59.5 68.5t22.5 97q0 51 -21.5 87t-59.5 59.5t-87 34.5t-105 11q-39 0 -83 -8t-88 -22.5t-84 -35t-70 -46.5 l-124 178q90 70 205 108t269 38q97 0 185 -20.5t157 -67.5t110 -121t41 -181q0 -110 -55 -197.5t-155 -128.5q116 -41 166 -134.5t50 -198.5q0 -121 -45 -208t-120.5 -142.5t-175 -82.5t-209.5 -27q-142 0 -272 42t-208 108z" />
<glyph unicode="&#x418;" horiz-adv-x="1418" d="M127 0v1482h245v-1054h11l677 1054h230v-1482h-245v1058h-13q-43 -71 -87 -141t-89 -139q-15 -24 -54 -84t-89 -138t-107.5 -166.5t-109 -167t-90 -138.5t-53.5 -84h-226z" />
<glyph unicode="&#x419;" horiz-adv-x="1418" d="M127 0v1482h245v-1054h11l677 1054h230v-1482h-245v1058h-13q-43 -71 -87 -141t-89 -139q-15 -24 -54 -84t-89 -138t-107.5 -166.5t-109 -167t-90 -138.5t-53.5 -84h-226zM387 1841h177q2 -21 11.5 -45t28 -44.5t44 -34.5t58.5 -14q36 0 63 14t45.5 34.5t26.5 44.5t8 45 h175q-4 -45 -21.5 -96.5t-53 -97t-94.5 -76t-149 -30.5q-91 0 -150 30.5t-97 76t-53.5 97t-18.5 96.5z" />
<glyph unicode="&#x41a;" horiz-adv-x="1278" d="M125 0v1482h245v-618h192q39 0 76 8t71.5 29.5t63.5 61t50 104.5l134 415h243l-133 -433q-35 -109 -88.5 -182t-122.5 -97q92 -31 143.5 -107t84.5 -185l141 -478h-261l-125 437q-19 66 -47.5 108t-62.5 65.5t-74 31t-83 7.5h-202v-649h-245z" />
<glyph unicode="&#x41b;" horiz-adv-x="1365" d="M-6 162q84 34 140.5 84.5t91 126.5t48.5 187t14 271v651h945v-1482h-252v1260h-450v-433q0 -197 -23.5 -345.5t-78.5 -254.5t-143.5 -171.5t-216.5 -98.5z" />
<glyph unicode="&#x41c;" horiz-adv-x="1640" d="M127 0v1482h230l281 -564l183 -380h14l180 385l275 559h226v-1482h-246v903h-8l-137 -279l-209 -411h-181l-202 387l-153 303h-8v-903h-245z" />
<glyph unicode="&#x41d;" horiz-adv-x="1356" d="M121 0v1482h244v-620h622v620h250v-1482h-250v640h-622v-640h-244z" />
<glyph unicode="&#x41e;" horiz-adv-x="1344" d="M114 480v526q0 116 44.5 206.5t119.5 154t175.5 96.5t217.5 33q114 0 216 -34t178 -97.5t120.5 -155t44.5 -207.5v-522q0 -117 -43 -209.5t-119.5 -156t-178 -96.5t-218.5 -33q-119 0 -220.5 33t-176 96.5t-117.5 156t-43 209.5zM361 517q0 -82 26 -140.5t69 -95 t99 -53.5t116 -17t117 17t100 53.5t69 95t26 140.5v449q0 80 -26 137.5t-69 95.5t-100 54.5t-117 16.5q-62 0 -118 -16.5t-98 -54.5t-68 -96t-26 -137v-449z" />
<glyph unicode="&#x41f;" horiz-adv-x="1356" d="M121 0v1482h1116v-1482h-250v1260h-622v-1260h-244z" />
<glyph unicode="&#x420;" horiz-adv-x="1214" d="M121 0v1482h638q107 0 187 -41t131.5 -106t77 -145t25.5 -160t-29 -160t-83.5 -146t-133 -107t-179.5 -41h-390v-576h-244zM365 800h341q107 0 170.5 63.5t63.5 166.5t-63.5 166.5t-170.5 63.5h-341v-460z" />
<glyph unicode="&#x421;" horiz-adv-x="1169" d="M121 466v549q0 117 46 205.5t122 150t175.5 93.5t204.5 32q123 0 235.5 -34t199.5 -105l-121 -191q-62 53 -146 78.5t-164 25.5q-56 0 -111 -16.5t-98 -53.5t-69.5 -95t-26.5 -139v-449q0 -82 26.5 -140.5t70.5 -95t98 -53.5t108 -17q80 0 161.5 22.5t154.5 80.5 l117 -189q-76 -62 -190 -101t-243 -39q-107 0 -206.5 31t-175.5 92.5t-122 152t-46 205.5z" />
<glyph unicode="&#x422;" horiz-adv-x="1126" d="M30 1258v224h1066v-224h-408v-1258h-247v1258h-411z" />
<glyph unicode="&#x423;" horiz-adv-x="1169" d="M19 1482h256q6 -19 31 -85t57.5 -155t68.5 -189.5t68.5 -189.5t56.5 -157t32 -89h11q10 35 35 104t56 154.5t65 180.5t65 178.5t54.5 150t33.5 97.5h246l-449 -1187q-37 -94 -76 -154.5t-84 -96.5t-96.5 -48.5t-109.5 -12.5h-162v208h130q53 0 85.5 19.5t60.5 75.5l20 38 q-117 288 -229 578t-226 580z" />
<glyph unicode="&#x424;" horiz-adv-x="1681" d="M127 673v209q0 111 44 209.5t122.5 170.5t187 116t237.5 48v70h248v-70q131 -4 240.5 -48t187 -116t120.5 -170.5t43 -209.5v-205q0 -116 -42 -215t-118.5 -173t-186 -118t-244.5 -48v-123h-248v123q-137 6 -247 49t-186 116t-117 170.5t-41 214.5zM370 688 q0 -80 26.5 -142t74.5 -106t111 -69t136 -27v858q-75 -2 -138 -26.5t-111 -70t-73.5 -107.5t-25.5 -140v-170zM966 344q76 2 139 27t110 69t73 106.5t26 141.5v170q0 78 -26 140t-71 107.5t-109.5 70t-141.5 26.5v-858z" />
<glyph unicode="&#x425;" horiz-adv-x="1229" d="M17 0l465 759l-437 723h282l288 -518l290 518h279l-433 -723l464 -759h-279l-321 554l-318 -554h-280z" />
<glyph unicode="&#x426;" horiz-adv-x="1401" d="M121 0v1482h244v-1263h622v1263h250v-1263h126v-546h-232v327h-1010z" />
<glyph unicode="&#x427;" horiz-adv-x="1289" d="M60 1028v456h248v-426q0 -159 78 -230t231 -71q84 0 165.5 31t142.5 70v626h247v-1482h-249v630q-74 -43 -162 -68.5t-180 -25.5q-252 0 -386.5 128t-134.5 362z" />
<glyph unicode="&#x428;" horiz-adv-x="1919" d="M123 0v1482h245v-1263h469v1263h242v-1263h474v1263h247v-1482h-1677z" />
<glyph unicode="&#x429;" horiz-adv-x="1958" d="M123 0v1482h245v-1263h469v1263h242v-1263h472v1263h249v-1263h125v-546h-230v327h-1572z" />
<glyph unicode="&#x42a;" horiz-adv-x="1614" d="M17 1262v220h703v-590h376q103 0 186 -35.5t141.5 -96.5t89.5 -141.5t31 -169.5q0 -79 -26 -159.5t-78.5 -145t-135.5 -104.5t-198 -40h-630v1262h-459zM720 222h343q107 0 173.5 62t66.5 165t-68.5 162.5t-176.5 59.5h-338v-449z" />
<glyph unicode="&#x42b;" horiz-adv-x="1728" d="M129 0v1482h245v-590h377q103 0 186 -35.5t140.5 -96.5t89 -141.5t31.5 -169.5q0 -79 -25.5 -159.5t-78.5 -145t-135.5 -104.5t-199.5 -40h-630zM374 222h342q107 0 174 62t67 165t-69 162.5t-176 59.5h-338v-449zM1352 0v1482h246v-1482h-246z" />
<glyph unicode="&#x42c;" horiz-adv-x="1250" d="M129 0v1482h245v-590h377q103 0 186 -35.5t140.5 -96.5t89 -141.5t31.5 -169.5q0 -79 -25.5 -159.5t-78.5 -145t-135.5 -104.5t-199.5 -40h-630zM374 222h342q107 0 174 62t67 165t-69 162.5t-176 59.5h-338v-449z" />
<glyph unicode="&#x42d;" horiz-adv-x="1156" d="M51 125l119 189q69 -60 153.5 -81.5t164.5 -21.5q60 0 115 17t97 53.5t66 95t24 140.5v150h-528v213h528v84q0 166 -80 236t-211 70q-78 0 -154 -25.5t-138 -74.5l-119 193q177 133 437 133q117 0 209.5 -29t161 -88t104.5 -149.5t36 -214.5v-547q0 -116 -45 -206 t-120 -151.5t-174.5 -93.5t-208.5 -32q-129 0 -245 38.5t-192 101.5z" />
<glyph unicode="&#x42e;" horiz-adv-x="1728" d="M133 0v1482h245v-620h188v144q0 116 37 206.5t107 154t166 96.5t212 33q114 0 209.5 -34t165.5 -97.5t109 -155t39 -207.5v-522q0 -117 -38 -209.5t-108 -156t-165.5 -96.5t-211.5 -33q-121 0 -216.5 33t-164.5 96.5t-105 156t-36 209.5v160h-188v-640h-245zM813 517 q0 -166 77.5 -236t197.5 -70q121 0 198 70t77 236v449q0 162 -76 233t-199 71t-199 -71.5t-76 -232.5v-449z" />
<glyph unicode="&#x42f;" horiz-adv-x="1313" d="M84 0l123 417q28 86 60 148.5t101 99.5q-130 39 -186.5 141.5t-56.5 227.5q0 88 28 169t82.5 143t136.5 99t192 37h632v-1482h-248v613h-234q-41 0 -79 -10t-70 -33.5t-58.5 -64.5t-46.5 -105l-114 -400h-262zM368 1028q0 -107 66.5 -156t178.5 -49h335v437h-335 q-123 0 -184 -61.5t-61 -170.5z" />
<glyph unicode="&#x430;" horiz-adv-x="1096" d="M84 314q0 88 39 148.5t96.5 97.5t125.5 54.5t126 17.5h294v65q0 95 -53.5 135.5t-165.5 40.5q-54 0 -132.5 -16t-157.5 -81l-106 170q107 82 216.5 106.5t201.5 24.5q220 0 322.5 -96.5t102.5 -294.5v-686h-205l-20 92l-7 5q-114 -64 -192.5 -84.5t-145.5 -20.5 q-159 0 -249 86t-90 236zM324 322q0 -60 43.5 -93.5t114.5 -33.5q39 0 77 10t76 24t71.5 31t58.5 33v163h-256q-30 0 -62 -4.5t-59 -18.5t-45.5 -39.5t-18.5 -71.5z" />
<glyph unicode="&#x431;" horiz-adv-x="1102" d="M97 390v281q0 99 6 182t24.5 153.5t49 132t75.5 119.5q35 43 81.5 76.5t100.5 60.5t112 50.5t112 44.5q29 10 52 20t46.5 19.5t50 20.5t57.5 26l78 -187q-52 -24 -87.5 -37.5t-62.5 -24.5t-49.5 -19.5t-50.5 -19.5q-78 -32 -137.5 -62t-104 -68t-71 -89.5t-37.5 -124.5 l7 -8q26 24 58 39.5t65 26.5t65.5 15.5t55.5 4.5q196 0 304.5 -101.5t108.5 -298.5v-232q0 -97 -37.5 -171.5t-100 -125t-145.5 -77t-175 -26.5q-209 0 -330 102.5t-121 297.5zM327 419q0 -60 18 -102t48 -67.5t72 -37.5t87 -12q43 0 84 12t72.5 37.5t50.5 67.5t19 102v170 q0 121 -62 170t-162 49q-38 0 -78.5 -13t-74 -40.5t-54 -71t-20.5 -102.5v-162z" />
<glyph unicode="&#x432;" horiz-adv-x="1067" d="M97 0v1065h535q84 0 146.5 -24t102.5 -63.5t60 -92t20 -111.5q0 -62 -35.5 -124.5t-98.5 -93.5q76 -34 115 -98t39 -138q0 -62 -21.5 -120t-64.5 -102t-108 -71t-151 -27h-539zM327 191h262q82 0 121 37t39 99q0 59 -43 94t-104 35h-275v-265zM327 647h273 q62 0 97.5 29.5t35.5 80.5q0 58 -42 84.5t-98 26.5h-266v-221z" />
<glyph unicode="&#x433;" horiz-adv-x="887" d="M101 0v1067h785v-199h-557v-868h-228z" />
<glyph unicode="&#x434;" horiz-adv-x="1237" d="M26 193h39.5t37.5 2q75 54 107.5 152t43.5 270l27 448h796v-868q24 0 48 -1t47 -1v-470h-208v275h-730v-275h-208v468zM380 197h472v671h-372l-14 -244q-8 -140 -24 -245.5t-62 -181.5z" />
<glyph unicode="&#x435;" horiz-adv-x="1063" d="M99 378v280q0 97 33.5 174t93.5 131t139.5 83t174.5 29q96 0 178 -27.5t141 -80.5t91.5 -128.5t32.5 -171.5v-209h-656v-54q0 -55 19 -95t50.5 -65t73 -37t86.5 -12q50 0 120.5 17.5t138.5 80.5q34 -41 67.5 -79t65.5 -79q-90 -88 -190 -116.5t-202 -28.5 q-92 0 -174.5 23.5t-146 71.5t-100 121t-36.5 172zM329 622h424v32q0 111 -62.5 161.5t-148.5 50.5t-149.5 -52.5t-63.5 -157.5v-34z" />
<glyph unicode="&#x436;" horiz-adv-x="1543" d="M35 0l111 346q26 80 60 135t112 75q-62 22 -98.5 72.5t-61.5 128.5l-104 310h241l92 -279q33 -95 82.5 -121.5t111.5 -26.5h75v427h228v-427h75q64 0 113.5 26t80.5 122l92 279h241l-103 -310q-26 -78 -62.5 -128t-99.5 -73q78 -20 112.5 -75t59.5 -135l113 -346h-250 l-82 288q-15 51 -34.5 81.5t-44 47t-54.5 20.5t-69 4h-88v-441h-228v441h-88q-37 0 -68.5 -4t-56 -20.5t-44 -46.5t-31.5 -82l-84 -288h-249z" />
<glyph unicode="&#x437;" horiz-adv-x="946" d="M37 119l123 156q55 -45 132.5 -68.5t133.5 -23.5q121 0 169 42t48 95q0 66 -48.5 100t-130.5 34h-150v178h150q78 0 122 36t44 91q0 62 -53.5 90.5t-122.5 28.5q-56 0 -125 -18.5t-124 -65.5l-123 156q78 70 184.5 98.5t211.5 28.5q174 0 276 -81.5t102 -219.5 q0 -28 -6.5 -59t-24 -61t-45 -57t-70.5 -47q45 -19 75 -46.5t48.5 -60t25.5 -64.5t7 -61q0 -154 -111.5 -242t-311.5 -88q-105 0 -213.5 29.5t-192.5 99.5z" />
<glyph unicode="&#x438;" horiz-adv-x="1126" d="M107 0v1065h231v-700h8l157 235l310 465h207v-1065h-230v701h-12l-169 -266l-297 -435h-205z" />
<glyph unicode="&#x439;" horiz-adv-x="1126" d="M107 0v1065h231v-700h8l157 235l310 465h207v-1065h-230v701h-12l-169 -266l-297 -435h-205zM230 1516h176q2 -21 12 -45t28 -44.5t44.5 -34t57.5 -13.5q37 0 63.5 13.5t45 34t27 44t8.5 45.5h174q-4 -45 -21.5 -96.5t-52.5 -96.5t-94.5 -75.5t-149.5 -30.5t-149 30.5 t-96.5 75.5t-54 96.5t-18.5 96.5z" />
<glyph unicode="&#x43a;" horiz-adv-x="1083" d="M107 0v1067h228v-427h136q65 0 116 26t86 122l97 279h241l-110 -310q-26 -78 -61.5 -128t-97.5 -73q76 -20 110 -75t59 -135l119 -346h-250l-88 288q-15 49 -35.5 79.5t-46 46.5t-56.5 21.5t-70 5.5h-149v-441h-228z" />
<glyph unicode="&#x43b;" horiz-adv-x="1120" d="M4 152q60 24 103 52t70.5 77.5t39 127t11.5 200.5v456h770v-1065h-228v868h-318v-261q0 -154 -25 -264.5t-73 -184.5t-119 -119t-164 -69z" />
<glyph unicode="&#x43c;" horiz-adv-x="1336" d="M109 0v1065h209l170 -321l170 -331h13l178 336l173 316h203v-1065h-227v583h-11l-247 -445h-155l-119 219l-115 219h-13v-576h-229z" />
<glyph unicode="&#x43d;" horiz-adv-x="1122" d="M109 0v1065h226v-427h450v427h230v-1065h-230v441h-450v-441h-226z" />
<glyph unicode="&#x43e;" horiz-adv-x="1100" d="M97 376v310q0 94 37.5 167.5t100 123t144 75t171.5 25.5q97 0 179 -25.5t143 -76t95.5 -124t34.5 -167.5v-308q0 -95 -37.5 -168t-101 -121t-145.5 -72.5t-170 -24.5q-90 0 -172.5 24.5t-144 72.5t-98 121t-36.5 168zM324 419q0 -121 67 -170t159 -49q39 0 80 12t73 37.5 t52.5 67.5t20.5 102v226q0 60 -20.5 102.5t-52.5 68t-73 37t-80 11.5t-79.5 -11.5t-73 -37t-53 -67.5t-20.5 -103v-226z" />
<glyph unicode="&#x43f;" d="M105 0v1065h906v-1065h-231v864h-447v-864h-228z" />
<glyph unicode="&#x440;" horiz-adv-x="1104" d="M107 -426v1491h207l21 -106q109 66 187 91t134 25q166 0 261.5 -93.5t95.5 -291.5v-320q0 -179 -98 -281t-277 -102q-55 0 -132.5 10.5t-170.5 53.5v-477h-228zM335 265q86 -37 147.5 -49.5t119.5 -12.5q36 0 70 8t58.5 31t38 59.5t13.5 90.5v279q0 107 -46 147t-116 40 q-29 0 -64 -8.5t-74 -23.5t-76.5 -34.5t-70.5 -40.5v-486z" />
<glyph unicode="&#x441;" horiz-adv-x="948" d="M99 370v316q0 94 36.5 167.5t97 123t137.5 75t159 25.5q47 0 96.5 -5t98 -19.5t94.5 -41t89 -71.5l-133 -170q-74 66 -130.5 81t-99.5 15q-37 0 -75.5 -11.5t-69.5 -37t-51.5 -67.5t-20.5 -103v-228q0 -60 18 -102t48 -67.5t69 -37.5t80 -12q45 0 109.5 20t116.5 70 l139 -157q-86 -88 -182.5 -115.5t-193.5 -27.5q-90 0 -170 25.5t-137.5 75t-91 119t-33.5 160.5z" />
<glyph unicode="&#x442;" horiz-adv-x="900" d="M19 868v199h865v-199h-316v-868h-233v868h-316z" />
<glyph unicode="&#x443;" horiz-adv-x="1014" d="M21 1067h241l114 -437l106 -390h6l136 392l144 435h241l-545 -1497h-236l162 451l-78 63z" />
<glyph unicode="&#x444;" horiz-adv-x="1383" d="M94 435v189q0 92 35 173t98 142t152 97.5t200 38.5v404h227v-404q110 -2 199 -38.5t152.5 -97.5t97 -142t33.5 -173v-189q0 -93 -34.5 -173.5t-98 -141t-152.5 -95.5t-197 -35v-418h-227v418q-110 0 -199.5 35t-152.5 95.5t-98 141t-35 173.5zM322 462q0 -109 67 -185.5 t190 -79.5v665q-127 -2 -192 -77t-65 -185v-138zM806 197q123 3 188.5 79.5t65.5 185.5v138q0 109 -63.5 184.5t-190.5 77.5v-665z" />
<glyph unicode="&#x445;" horiz-adv-x="1010" d="M2 0l376 544l-357 523h274l206 -347l211 347h273l-361 -519l376 -548h-276l-223 368l-228 -368h-271z" />
<glyph unicode="&#x446;" horiz-adv-x="1143" d="M119 0v1067h223v-867h434v867h224v-870l94 -2v-470h-208v275h-767z" />
<glyph unicode="&#x447;" horiz-adv-x="1063" d="M58 727v340h228v-312q0 -105 50.5 -148t131.5 -43q58 0 130.5 23.5t141.5 66.5v413h226v-1067h-226v449q-103 -55 -179.5 -72.5t-137.5 -17.5q-170 0 -267.5 92.5t-97.5 275.5z" />
<glyph unicode="&#x448;" horiz-adv-x="1576" d="M114 0v1065h230v-862h327v862h226v-862h330v862h228v-1065h-1341z" />
<glyph unicode="&#x449;" horiz-adv-x="1588" d="M109 0v1065h229v-865h329v865h223v-865h331v865h228v-870h95v-472h-208v277h-1227z" />
<glyph unicode="&#x44a;" horiz-adv-x="1274" d="M17 870v195h580v-400h265q183 0 280 -91.5t97 -238.5q0 -69 -22.5 -130t-69 -106t-117.5 -72t-166 -27h-494v870h-353zM595 193h252q82 0 125 38t43 104q0 51 -38.5 95t-129.5 44h-252v-281z" />
<glyph unicode="&#x44b;" horiz-adv-x="1412" d="M107 0v1067h226v-402h267q182 0 279 -91.5t97 -238.5q0 -69 -22.5 -130t-69.5 -106t-117 -72t-165 -27h-495zM333 193h252q82 0 125 38t43 104q0 51 -39 95t-129 44h-252v-281zM1077 0v1065h224v-1065h-224z" />
<glyph unicode="&#x44c;" horiz-adv-x="1001" d="M109 0v1067h226v-402h265q184 0 281.5 -91.5t97.5 -238.5q0 -69 -24 -130t-70 -106t-117 -72t-166 -27h-493zM333 193h254q82 0 125 38t43 104q0 51 -39 95t-129 44h-254v-281z" />
<glyph unicode="&#x44d;" horiz-adv-x="943" d="M35 127l129 168q37 -35 69 -53t60.5 -27.5t54.5 -12t48 -2.5q41 0 81 12t72 37.5t51.5 65.5t19.5 98v47h-372v176h372v18q-5 117 -59 163.5t-142 46.5q-45 0 -110.5 -16.5t-117.5 -67.5l-129 164q41 39 89.5 64.5t98 41t99 21.5t92.5 6q195 0 300.5 -100.5t105.5 -281.5 v-315q0 -94 -34.5 -166t-93.5 -122.5t-137.5 -76t-168.5 -25.5q-97 0 -195.5 23.5t-182.5 113.5z" />
<glyph unicode="&#x44e;" horiz-adv-x="1424" d="M103 0v1065h226v-431h139v54q0 92 35 164.5t94 122t137.5 76t166.5 26.5q92 0 172 -25.5t137.5 -76t90.5 -123t33 -162.5v-316q0 -93 -34 -163.5t-91.5 -120t-137.5 -75t-170 -25.5q-95 0 -173.5 25.5t-136.5 75t-90.5 121.5t-32.5 164v63h-139v-439h-226zM695 413 q0 -119 59 -168.5t149 -49.5q39 0 75.5 12t65.5 38t46.5 68t17.5 100v221q0 127 -59.5 180.5t-145.5 53.5q-41 0 -78 -12.5t-66.5 -40t-46.5 -72t-17 -109.5v-221z" />
<glyph unicode="&#x44f;" horiz-adv-x="1061" d="M64 0l78 297q17 60 45 107.5t84 66.5q-93 31 -133.5 106t-40.5 156q0 64 22.5 124.5t66.5 107t109.5 73.5t149.5 27h516v-1065h-228v421h-174q-70 0 -119.5 -29t-74.5 -123l-64 -269h-237zM320 733q0 -66 43 -94t115 -28h255v257h-259q-62 0 -108 -33t-46 -102z" />
<glyph unicode="&#x451;" horiz-adv-x="1063" d="M99 378v280q0 97 33.5 174t93.5 131t139.5 83t174.5 29q96 0 178 -27.5t141 -80.5t91.5 -128.5t32.5 -171.5v-209h-656v-54q0 -55 19 -95t50.5 -65t73 -37t86.5 -12q50 0 120.5 17.5t138.5 80.5q34 -41 67.5 -79t65.5 -79q-90 -88 -190 -116.5t-202 -28.5 q-92 0 -174.5 23.5t-146 71.5t-100 121t-36.5 172zM213 1374q0 52 36.5 88t85.5 36q53 0 90 -36t37 -88q0 -51 -36 -87.5t-91 -36.5q-49 0 -85.5 36.5t-36.5 87.5zM329 622h424v32q0 111 -62.5 161.5t-148.5 50.5t-149.5 -52.5t-63.5 -157.5v-34zM634 1374q0 52 37 88t88 36 q54 0 90.5 -36t36.5 -88q0 -51 -36.5 -87.5t-90.5 -36.5q-51 0 -88 36.5t-37 87.5z" />
<glyph unicode="&#x452;" horiz-adv-x="1108" d="M8 1219v166h101v154h231v-154h432v-166h-432v-262q121 79 202.5 99.5t136.5 20.5q177 0 259 -102t82 -280v-478q0 -103 -37 -178.5t-98.5 -123.5t-144 -72t-174.5 -24v205q47 0 88 10.5t71 34t48.5 64.5t18.5 101l-2 431q0 107 -49 150t-117 43q-58 0 -130.5 -28 t-153.5 -79v-751h-231v1219h-101z" />
<glyph unicode="&#x453;" horiz-adv-x="887" d="M101 0v1067h785v-199h-557v-868h-228zM363 1225l164 398l210 -66l-238 -383z" />
<glyph unicode="&#x454;" horiz-adv-x="948" d="M99 370v316q0 94 36.5 167.5t97 123t137.5 75t159 25.5q47 0 96.5 -5t98 -19.5t94.5 -41t89 -71.5l-133 -170q-74 66 -130.5 81t-99.5 15q-37 0 -75.5 -11.5t-69.5 -37t-51.5 -67.5t-20.5 -103v-17h340v-183h-340v-28q0 -60 18 -102t48 -67.5t69 -37.5t80 -12 q45 0 109.5 20t116.5 70l139 -157q-86 -88 -182.5 -115.5t-193.5 -27.5q-90 0 -170 25.5t-137.5 75t-91 119t-33.5 160.5z" />
<glyph unicode="&#x455;" horiz-adv-x="989" d="M47 135l125 166q80 -66 161.5 -91t171.5 -25q76 0 135 32.5t59 98.5q0 56 -38.5 83t-114.5 40q-78 13 -157 29t-143.5 48t-105.5 87t-41 146q0 77 32.5 138t87 103t125.5 64.5t151 22.5q122 0 220 -24.5t192 -93.5l-111 -169q-78 49 -151 67.5t-148 18.5 q-82 0 -128.5 -37t-46.5 -86t45.5 -72t113 -37t147.5 -29t147.5 -47t112.5 -91.5t45 -160.5q0 -78 -33.5 -138.5t-92 -102.5t-138.5 -65t-170 -23q-117 0 -226 28t-226 120z" />
<glyph unicode="&#x456;" horiz-adv-x="546" d="M142 1370q0 56 37.5 94t91.5 38q56 0 93.5 -38t37.5 -94q0 -55 -37.5 -93t-93.5 -38q-54 0 -91.5 38t-37.5 93zM160 0v1065h227v-1065h-227z" />
<glyph unicode="&#x457;" horiz-adv-x="546" d="M-56 1359q0 51 36.5 88t85.5 37q54 0 90.5 -37t36.5 -88q0 -52 -36 -88t-91 -36q-49 0 -85.5 36t-36.5 88zM160 0v1065h227v-1065h-227zM365 1359q0 51 37 88t88 37q54 0 90.5 -37t36.5 -88q0 -52 -36.5 -88t-90.5 -36q-51 0 -88 36t-37 88z" />
<glyph unicode="&#x458;" horiz-adv-x="552" d="M-33 -234h78q80 0 106.5 36t26.5 120v1143h228v-1176q0 -168 -88 -247t-236 -79h-115v203zM164 1372q0 54 36 92t93 38q56 0 93 -38t37 -92q0 -55 -37 -93t-93 -38t-92.5 38t-36.5 93z" />
<glyph unicode="&#x459;" horiz-adv-x="1612" d="M19 150q62 21 106.5 53.5t71.5 84.5t40 125t13 180v474h677v-402h265q185 0 281.5 -91.5t96.5 -238.5q0 -69 -24 -130t-70 -106t-117 -72t-165 -27h-493v868h-235v-266q0 -144 -22.5 -250.5t-69.5 -183t-119 -123.5t-171 -71zM925 193h253q82 0 125 38t43 104 q0 51 -39 95t-129 44h-253v-281z" />
<glyph unicode="&#x45a;" horiz-adv-x="1619" d="M123 0v1067h228v-407h361v407h226v-402h264q185 0 281.5 -91.5t96.5 -238.5q0 -69 -23.5 -130t-69.5 -106t-117 -72t-166 -27h-492v468h-361v-468h-228zM938 193h252q82 0 124.5 38t42.5 104q0 51 -38.5 95t-128.5 44h-252v-281z" />
<glyph unicode="&#x45b;" horiz-adv-x="1108" d="M8 1219v166h101v154h231v-154h432v-166h-432v-262q121 79 202.5 99.5t136.5 20.5q177 0 259 -102t82 -280v-695h-230v665q0 107 -49 150t-117 43q-58 0 -130.5 -28t-153.5 -79v-751h-231v1219h-101z" />
<glyph unicode="&#x45c;" horiz-adv-x="1083" d="M107 0v1067h228v-427h136q65 0 116 26t86 122l97 279h241l-110 -310q-26 -78 -61.5 -128t-97.5 -73q76 -20 110 -75t59 -135l119 -346h-250l-88 288q-15 49 -35.5 79.5t-46 46.5t-56.5 21.5t-70 5.5h-149v-441h-228zM390 1225l162 398l211 -66l-238 -383z" />
<glyph unicode="&#x45e;" horiz-adv-x="1014" d="M21 1067h241l114 -437l106 -390h6l136 392l144 435h241l-545 -1497h-236l162 451l-78 63zM197 1516h177q2 -21 12 -45t28.5 -44.5t44 -34t58.5 -13.5q36 0 63 13.5t45 34t26.5 44t8.5 45.5h175q-4 -45 -21.5 -96.5t-53.5 -96.5t-94.5 -75.5t-148.5 -30.5q-91 0 -150 30.5 t-97 75.5t-54 96.5t-19 96.5z" />
<glyph unicode="&#x45f;" d="M105 0v1065h226v-872h449v872h229v-1065h-340v-316h-224v316h-340z" />
<glyph unicode="&#x490;" horiz-adv-x="1156" d="M135 0v1482h770v266h228v-488h-753v-1260h-245z" />
<glyph unicode="&#x491;" horiz-adv-x="905" d="M101 0v1067h583v232h213v-431h-568v-868h-228z" />
<glyph unicode="&#x4d9;" horiz-adv-x="1075" d="M94 398v209h659v53q0 112 -60.5 160t-156.5 48q-50 0 -124 -17.5t-143 -78.5l-125 159q96 91 197.5 118.5t206.5 27.5q92 0 171 -24.5t137 -73t91.5 -121.5t33.5 -172v-280q0 -96 -33.5 -174t-93.5 -131.5t-141 -81t-175 -27.5q-97 0 -179 27.5t-139.5 79t-91.5 127 t-34 172.5zM324 411q0 -112 62.5 -163t151.5 -51q90 0 151.5 56.5t61.5 169.5v20h-427v-32z" />
<glyph unicode="&#x2000;" horiz-adv-x="986" />
<glyph unicode="&#x2001;" horiz-adv-x="1972" />
<glyph unicode="&#x2002;" horiz-adv-x="986" />
<glyph unicode="&#x2003;" horiz-adv-x="1972" />
<glyph unicode="&#x2004;" horiz-adv-x="657" />
<glyph unicode="&#x2005;" horiz-adv-x="493" />
<glyph unicode="&#x2006;" horiz-adv-x="328" />
<glyph unicode="&#x2007;" horiz-adv-x="328" />
<glyph unicode="&#x2008;" horiz-adv-x="246" />
<glyph unicode="&#x2009;" horiz-adv-x="394" />
<glyph unicode="&#x200a;" horiz-adv-x="109" />
<glyph unicode="&#x2010;" horiz-adv-x="876" d="M107 466v203h661v-203h-661z" />
<glyph unicode="&#x2011;" horiz-adv-x="876" d="M107 466v203h661v-203h-661z" />
<glyph unicode="&#x2012;" horiz-adv-x="876" d="M107 466v203h661v-203h-661z" />
<glyph unicode="&#x2013;" horiz-adv-x="1092" d="M43 486v200h1006v-200h-1006z" />
<glyph unicode="&#x2014;" horiz-adv-x="2186" d="M43 486v200h2101v-200h-2101z" />
<glyph unicode="&#x2018;" horiz-adv-x="640" d="M160 1198q0 62 18.5 121.5t52.5 111t80 92t100 66.5l79 -105q-51 -39 -84.5 -87.5t-37.5 -106.5q47 -6 78.5 -46t31.5 -95q0 -58 -43 -102.5t-108 -44.5q-43 0 -74 16t-53 44t-31 63.5t-9 72.5z" />
<glyph unicode="&#x2019;" horiz-adv-x="640" d="M160 1110q51 39 84 87t37 106q-47 6 -78 46t-31 96q0 58 43 102.5t107 44.5q43 0 74.5 -16.5t53 -44t31 -62.5t9.5 -74q0 -61 -19 -120.5t-53.5 -111t-79.5 -92.5t-100 -67z" />
<glyph unicode="&#x201a;" horiz-adv-x="582" d="M131 -205q52 39 85.5 87.5t37.5 107.5q-53 6 -81.5 42.5t-28.5 98.5q0 58 43 101t108 43q43 0 74 -16t52.5 -43t31 -62t9.5 -72q0 -62 -19.5 -121.5t-53.5 -111.5t-79 -93.5t-99 -67.5z" />
<glyph unicode="&#x201c;" horiz-adv-x="954" d="M129 1198q0 62 19.5 121.5t53.5 111t80.5 92t97.5 66.5l80 -105q-52 -39 -84 -87.5t-38 -106.5q49 -6 79 -46t30 -95q0 -58 -43 -102.5t-107 -44.5q-43 0 -74.5 16t-53 44t-31 63.5t-9.5 72.5zM499 1198q0 62 19.5 121.5t54 111t80.5 92t98 66.5l80 -105 q-52 -39 -84.5 -87.5t-38.5 -106.5q49 -6 79 -46t30 -95q0 -58 -43 -102.5t-107 -44.5q-43 0 -74 16t-52.5 44t-31.5 63.5t-10 72.5z" />
<glyph unicode="&#x201d;" horiz-adv-x="954" d="M131 1110q52 39 85.5 87t37.5 106q-47 6 -78.5 46t-31.5 96q0 58 43 102.5t108 44.5q43 0 74 -16.5t52.5 -44t31 -62.5t9.5 -74q0 -61 -19.5 -120.5t-53.5 -111t-79 -92.5t-99 -67zM501 1110q51 39 85 87t38 106q-48 6 -79.5 46t-31.5 96q0 58 43.5 102.5t108.5 44.5 q43 0 74 -16.5t52.5 -44t31.5 -62.5t10 -74q0 -61 -19.5 -120.5t-54.5 -111t-80 -92.5t-98 -67z" />
<glyph unicode="&#x201e;" horiz-adv-x="1016" d="M131 -205q52 39 85.5 87.5t37.5 107.5q-53 6 -81.5 42.5t-28.5 98.5q0 58 43 101t108 43q43 0 74 -16t52.5 -43t31 -62t9.5 -72q0 -62 -19.5 -121.5t-53.5 -111.5t-79 -93.5t-99 -67.5zM566 -205q51 39 84.5 87.5t37.5 107.5q-54 6 -81.5 42.5t-27.5 98.5q0 58 43 101 t107 43q43 0 74.5 -16t53 -43t31 -62t9.5 -72q0 -62 -19.5 -121.5t-53.5 -111.5t-79.5 -93.5t-99.5 -67.5z" />
<glyph unicode="&#x2022;" horiz-adv-x="926" d="M174 602q0 62 24 117t64.5 96t95.5 64.5t118 23.5q62 0 117.5 -23.5t96.5 -64.5t64.5 -95.5t23.5 -117.5q0 -62 -23.5 -117t-64.5 -95.5t-96.5 -64.5t-117.5 -24t-117.5 24t-96 64.5t-64.5 95.5t-24 117z" />
<glyph unicode="&#x2026;" horiz-adv-x="1803" d="M144 140q0 55 40 99.5t104 44.5q69 0 110 -44.5t41 -99.5q0 -62 -40 -107.5t-109 -45.5q-70 0 -108 44.5t-38 108.5zM755 140q0 55 40 99.5t104 44.5q69 0 110.5 -44.5t41.5 -99.5q0 -62 -39.5 -107.5t-110.5 -45.5q-66 0 -106 44.5t-40 108.5zM1359 140q0 55 39.5 99.5 t105.5 44.5q69 0 110.5 -44.5t41.5 -99.5q0 -62 -39.5 -107.5t-110.5 -45.5q-66 0 -106.5 44.5t-40.5 108.5z" />
<glyph unicode="&#x202f;" horiz-adv-x="394" />
<glyph unicode="&#x2039;" horiz-adv-x="718" d="M99 492l286 422h212l-279 -422l279 -418h-212z" />
<glyph unicode="&#x203a;" horiz-adv-x="718" d="M97 74l279 418l-279 422h213l285 -422l-285 -418h-213z" />
<glyph unicode="&#x205f;" horiz-adv-x="493" />
<glyph unicode="&#x20ac;" d="M71 550v149h852v-149h-508v-74q0 -72 25.5 -122.5t68.5 -82t97 -46t110 -14.5q69 0 142 17t140 60q30 -50 55.5 -97t56.5 -97q-76 -49 -177.5 -79t-216.5 -30q-116 0 -216 32t-174 94.5t-116 153t-42 206.5v79h-97zM71 792v148h97v66q0 116 44 206.5t119 153t174 95.5 t209 33q109 0 207.5 -24.5t179.5 -78.5l-116 -195q-60 37 -130 54.5t-137 17.5q-55 0 -110.5 -14.5t-98.5 -46t-68.5 -82t-25.5 -121.5v-64h508v-148h-852z" />
<glyph unicode="&#x2122;" horiz-adv-x="1898" d="M80 1338v152h681v-152h-260v-738h-159v738h-262zM854 600v892h148l188 -337l117 -232h7l120 234l179 335h148v-892h-159v547h-6l-92 -171l-134 -247h-120l-132 230l-98 188h-7v-547h-159z" />
<glyph unicode="&#x25fc;" horiz-adv-x="1063" d="M0 0v1065h1065v-1065h-1065z" />
</font>
</defs>
</svg>
