<svg width="13" height="21" viewBox="0 0 13 21" fill="none" xmlns="http://www.w3.org/2000/svg">
<path d="M12.4624 0.0043694L9.58165 0C6.34524 0 4.25372 2.02849 4.25372 5.16813V7.55098H1.35727C1.10698 7.55098 0.904297 7.7428 0.904297 7.9794V11.4319C0.904297 11.6685 1.10721 11.8601 1.35727 11.8601H4.25372V20.5718C4.25372 20.8084 4.4564 21 4.70669 21H8.48575C8.73603 21 8.93871 20.8082 8.93871 20.5718V11.8601H12.3253C12.5756 11.8601 12.7783 11.6685 12.7783 11.4319L12.7797 7.9794C12.7797 7.8658 12.7319 7.757 12.647 7.6766C12.5622 7.5962 12.4467 7.55098 12.3265 7.55098H8.93871V5.53101C8.93871 4.56013 9.18346 4.06726 10.5213 4.06726L12.4619 4.0666C12.712 4.0666 12.9147 3.87479 12.9147 3.6384V0.432571C12.9147 0.196405 12.7122 0.00480634 12.4624 0.0043694Z" fill="#FFCD15"/>
</svg>
