<svg fill="none" height="26" viewBox="0 0 16 26" width="16" xmlns="http://www.w3.org/2000/svg"><path d="m14.4991.00540968-3.3716-.00540968c-3.78782 0-6.2357 2.51144-6.2357 6.39857v2.95017h-3.38997c-.29294 0-.53015.23748-.53015.53042v4.27444c0 .2929.23748.5302.53015.5302h3.38997v10.7858c0 .2929.23722.5301.53015.5301h4.42296c.29289 0 .53019-.2375.53019-.5301v-10.7858h3.9636c.293 0 .5302-.2373.5302-.5302l.0016-4.27444c0-.14066-.056-.27536-.1553-.3749-.0992-.09953-.2345-.15552-.3751-.15552h-3.965v-2.5009c0-1.20203.2864-1.81224 1.8522-1.81224l2.2713-.00081c.2926 0 .5299-.23749.5299-.53015v-3.969082c0-.292393-.237-.52960735-.5294-.53014832z" fill="#9fa6ad"/></svg>