<svg fill="none" height="484" viewBox="0 0 300 484" width="300" xmlns="http://www.w3.org/2000/svg"><path d="m96.5488 4.20312v12.79688h-2.6455v-10.66113h-3.4101l-.211 4.51753c-.0879 1.5235-.2812 2.7247-.5801 3.6036-.2988.873-.7353 1.5146-1.3095 1.9248-.5742.4043-1.3594.6093-2.3555.6152h-.6855v-2.1182l.4394-.0439c.6621-.0879 1.1338-.4688 1.4151-1.1426.2871-.6797.4687-1.8867.5449-3.6211l.2197-5.87108zm7.8662 3.28711h2.54v9.50977h-2.54v-5.8711l-3.182 5.8711h-2.5484v-9.50977h2.5484v5.86227zm9.475 2.80367c0-.33394-.112-.59175-.334-.77339-.217-.1875-.528-.28125-.932-.28125-.416 0-.756.08789-1.02.26367-.257.16992-.386.41309-.386.72947h-2.54c0-.86131.357-1.5615 1.072-2.10056.715-.53907 1.629-.8086 2.742-.8086 1.225 0 2.186.24024 2.883.72071.703.48046 1.055 1.16308 1.055 2.04785 0 .4219-.129.8115-.387 1.1689-.252.3516-.609.6329-1.072.8438 1.084.3809 1.626 1.1162 1.626 2.206 0 .8731-.375 1.5704-1.125 2.0918-.744.5157-1.738.7735-2.98.7735-1.154 0-2.103-.2696-2.847-.8086-.745-.5391-1.117-1.2656-1.117-2.1797h2.54c0 .3223.144.583.431.7822s.662.2989 1.125.2989c.451 0 .803-.1055 1.055-.3165.252-.2109.378-.4863.378-.8261 0-.416-.12-.7119-.361-.8877-.24-.1817-.6-.2725-1.081-.2725h-1.38v-1.6523h1.468c.791-.0235 1.187-.3633 1.187-1.0196zm9.984-2.80367h2.54v9.50977h-2.54v-5.8711l-3.182 5.8711h-2.548v-9.50977h2.548v5.86227zm12.727 9.50977h-2.549v-3.6562h-3.156v3.6562h-2.54v-9.50977h2.54v3.81447h3.156v-3.81447h2.549zm8.446-7.45312h-3.938v7.45312h-2.54v-9.50977h6.478zm.492 2.61032c0-.9433.182-1.7842.545-2.52243.363-.73829.885-1.30957 1.564-1.71387.686-.4043 1.48-.60645 2.382-.60645 1.283 0 2.329.39258 3.138 1.17774.814.78515 1.269 1.85161 1.362 3.19921l.018.6504c0 1.459-.407 2.6309-1.222 3.5156-.814.8789-1.907 1.3184-3.278 1.3184s-2.467-.4395-3.287-1.3184c-.815-.8789-1.222-2.0742-1.222-3.5859zm2.54.1846c0 .9023.17 1.5937.51 2.0742.34.4746.826.7119 1.459.7119.615 0 1.096-.2343 1.441-.7031.346-.4746.519-1.2305.519-2.2676 0-.8847-.173-1.5703-.519-2.0566-.345-.48634-.832-.72951-1.459-.72951-.621 0-1.101.24317-1.441.72951-.34.4805-.51 1.2275-.51 2.2412zm7.532 2.6103c.575-.6093.964-1.2128 1.169-1.8105s.32-1.4443.343-2.54l.07-3.11137h6.996v7.46187h1.372v4.9043h-2.54v-2.8564h-5.634v2.8564h-2.593v-4.9043zm2.997 0h3.05v-5.36128h-1.977l-.018 1.14258c-.053 1.7461-.404 3.1523-1.055 4.2187zm13.755 2.0479c-.117-.2285-.202-.5127-.255-.8525-.615.6855-1.415 1.0283-2.399 1.0283-.932 0-1.705-.2696-2.32-.8086-.61-.5391-.914-1.2188-.914-2.0391 0-1.0078.372-1.7812 1.116-2.3203.75-.539 1.831-.8115 3.243-.8174h1.169v-.5449c0-.4394-.114-.79101-.343-1.05468-.222-.26367-.577-.39551-1.063-.39551-.428 0-.765.10254-1.011.30762-.24.20508-.36.48633-.36.84377h-2.54c0-.5508.169-1.06057.509-1.52932s.821-.83496 1.442-1.09863c.621-.26953 1.318-.4043 2.092-.4043 1.171 0 2.1.2959 2.786.8877.691.58594 1.037 1.41211 1.037 2.47855v4.122c.006.9024.132 1.585.378 2.0479v.1494zm-2.1-1.7666c.375 0 .72-.082 1.037-.2461.316-.1699.551-.3955.703-.6768v-1.6347h-.949c-1.272 0-1.949.4394-2.031 1.3183l-.008.1495c0 .3164.111.5771.334.7822.222.2051.527.3076.914.3076zm13.992-5.7041h-3.05v7.4707h-2.549v-7.4707h-2.997v-2.03907h8.596zm5.098 7.6465c-1.395 0-2.532-.4278-3.411-1.2832-.873-.8555-1.309-1.9951-1.309-3.419v-.2461c0-.955.184-1.8076.554-2.55758.369-.75586.89-1.33594 1.564-1.74023.68-.41016 1.453-.61524 2.32-.61524 1.301 0 2.324.41016 3.068 1.23047.75.82031 1.125 1.98338 1.125 3.48928v1.0371h-6.056c.082.6211.328 1.1191.738 1.4941.416.375.941.5625 1.574.5625.978 0 1.743-.3545 2.293-1.0634l1.249 1.3974c-.381.5391-.897.961-1.547 1.2656-.651.2989-1.371.4483-2.162.4483zm-.291-7.80471c-.503 0-.914.16993-1.23.50977-.311.33984-.51.82614-.598 1.45894h3.534v-.2021c-.012-.5625-.164-.9961-.457-1.30079-.293-.31054-.709-.46582-1.249-.46582zm13.922-1.88086v9.50977h-2.54v-7.45312h-2.241l-.158 2.93552c-.1 1.5645-.407 2.7041-.923 3.419-.516.7148-1.283 1.081-2.303 1.0986h-.861l-.026-2.0654.316-.0264c.457-.0352.791-.3047 1.002-.8086s.343-1.3623.396-2.5752l.175-4.03417zm4.676 2.78617h1.819c.821 0 1.542.1377 2.163.4131.621.2753 1.095.6709 1.423 1.1865.334.5097.501 1.1045.501 1.7842 0 1.0019-.372 1.8105-1.116 2.4257-.738.6094-1.746.9141-3.023.9141h-4.316v-9.50977h2.549zm0 2.039v2.6543h1.802c.504 0 .891-.1172 1.16-.3515.27-.2344.404-.5537.404-.958 0-.4102-.131-.7354-.395-.9756-.264-.2461-.653-.3692-1.169-.3692z" fill="#232422"/><path d="m146.741 64.8182c1.55 1.4963 4.007 1.4963 5.557 0l16.511-15.9401c2.588-2.4988.819-6.8778-2.778-6.8778h-33.023c-3.598 0-5.366 4.379-2.778 6.8778z" fill="#ffcd15"/><path d="m146.741 404.818c1.55 1.497 4.007 1.497 5.557 0l16.511-15.94c2.588-2.499.819-6.878-2.778-6.878h-33.023c-3.598 0-5.366 4.379-2.778 6.878z" fill="#ffcd15"/><path d="m47.1572 115.146h-2.4345v-3.146h-7.7168v3.138h-2.4961l-.1407-5.256h.9668c.5215-.434.9229-1.07 1.2041-1.907.2871-.844.4805-1.887.5801-3.129l.3692-5.6429h8.3847v10.6789h1.4942zm-8.7978-5.264h4.8779v-8.543h-3.2432l-.2197 3.366c-.1758 2.256-.6474 3.982-1.415 5.177zm9.8349-2.725c0-.943.1817-1.784.545-2.522.3632-.739.8847-1.31 1.5644-1.714.6856-.404 1.4795-.607 2.3818-.607 1.2833 0 2.3291.393 3.1377 1.178.8145.785 1.2686 1.852 1.3623 3.199l.0176.651c0 1.459-.4072 2.631-1.2217 3.515-.8144.879-1.9072 1.319-3.2783 1.319s-2.4668-.44-3.2871-1.319c-.8144-.878-1.2217-2.074-1.2217-3.586zm2.5401.185c0 .902.1699 1.594.5097 2.074.3399.475.8262.712 1.459.712.6153 0 1.0957-.234 1.4414-.703.3457-.475.5186-1.231.5186-2.268 0-.885-.1729-1.57-.5186-2.056-.3457-.487-.832-.73-1.459-.73-.621 0-1.1015.243-1.4414.73-.3398.48-.5097 1.227-.5097 2.241zm14.5107-2.795h-3.9375v7.453h-2.54v-9.51h6.4775zm.4922 2.61c0-.943.1816-1.784.5449-2.522.3633-.739.8848-1.31 1.5645-1.714.6855-.404 1.4795-.607 2.3818-.607 1.2832 0 2.3291.393 3.1377 1.178.8145.785 1.2686 1.852 1.3623 3.199l.0176.651c0 1.459-.4072 2.631-1.2217 3.515-.8144.879-1.9072 1.319-3.2783 1.319s-2.4668-.44-3.2871-1.319c-.8145-.878-1.2217-2.074-1.2217-3.586zm2.54.185c0 .902.17 1.594.5098 2.074.3399.475.8262.712 1.459.712.6152 0 1.0957-.234 1.4414-.703.3457-.475.5186-1.231.5186-2.268 0-.885-.1729-1.57-.5186-2.056-.3457-.487-.832-.73-1.459-.73-.6211 0-1.1015.243-1.4414.73-.3398.48-.5098 1.227-.5098 2.241zm8.2002 4.658v-9.51h3.9727c1.2949 0 2.2881.229 2.9795.686s1.0371 1.113 1.0371 1.969c0 .439-.1465.834-.4395 1.186-.2871.346-.7089.612-1.2656.8.6797.129 1.2129.384 1.5996.765.3926.375.5889.837.5889 1.388 0 .885-.334 1.559-1.002 2.022-.6621.463-1.6259.694-2.8916.694zm2.5401-3.946v1.916h2.0478c.8965 0 1.3448-.314 1.3448-.941 0-.638-.4278-.964-1.2832-.975zm0-1.705h1.5732c.8906-.012 1.336-.299 1.336-.862 0-.345-.1231-.591-.3692-.738-.2402-.146-.6094-.22-1.1074-.22h-1.4326zm7.0928.808c0-.943.1816-1.784.5449-2.522.3633-.739.8847-1.31 1.5644-1.714.6856-.404 1.4795-.607 2.3819-.607 1.2832 0 2.3291.393 3.1377 1.178.8144.785 1.2685 1.852 1.3623 3.199l.0175.651c0 1.459-.4072 2.631-1.2216 3.515-.8145.879-1.9073 1.319-3.2784 1.319s-2.4668-.44-3.2871-1.319c-.8144-.878-1.2216-2.074-1.2216-3.586zm2.54.185c0 .902.1699 1.594.5098 2.074.3398.475.8261.712 1.4589.712.6153 0 1.0957-.234 1.4414-.703.3457-.475.5186-1.231.5186-2.268 0-.885-.1729-1.57-.5186-2.056-.3457-.487-.832-.73-1.4589-.73-.6211 0-1.1016.243-1.4414.73-.3399.48-.5098 1.227-.5098 2.241zm16.5936-.009c0 1.465-.334 2.64-1.002 3.524-.662.879-1.558 1.319-2.689 1.319-.961 0-1.7376-.334-2.3294-1.002v4.482h-2.54v-13.166h2.3555l.0879.932c.6152-.738 1.418-1.108 2.408-1.108 1.172 0 2.083.434 2.734 1.301.65.867.975 2.063.975 3.586zm-2.54-.185c0-.884-.158-1.567-.475-2.047-.31-.481-.764-.721-1.362-.721-.797 0-1.3445.305-1.6434.914v3.894c.3106.626.8644.94 1.6614.94 1.213 0 1.819-.993 1.819-2.98zm-94.66689 22.345h-1.01953v3.507h-2.54004v-9.51h2.54004v3.577h.90527l2.07422-3.577h3.20803l-3.1113 4.527 3.4013 4.983h-3.3838zm9.96679-.088 1.7578-5.915h2.7246l-3.8232 10.987-.211.501c-.5683 1.242-1.5058 1.863-2.8125 1.863-.3691 0-.7441-.056-1.125-.167v-1.925l.3868.009c.4804 0 .8379-.073 1.0722-.22.2403-.146.4278-.39.5625-.729l.2989-.783-3.3311-9.536h2.7334zm13.7549 3.595h-2.5488v-7.453h-3.1817v7.453h-2.54v-9.51h8.2705zm10.2129-9.51v9.51h-2.5401v-7.453h-2.2412l-.1582 2.935c-.0996 1.565-.4072 2.705-.9228 3.419-.5156.715-1.2832 1.081-2.3028 1.099h-.8613l-.0264-2.065.3165-.027c.457-.035.791-.304 1.0019-.808s.3428-1.363.3955-2.576l.1758-4.034zm7.6904 0h2.54v9.51h-2.54v-5.871l-3.1816 5.871h-2.5489v-9.51h2.5489v5.863zm9.4219 5.054h-4.9483v-2.048h4.9483zm10.3096 4.456h-2.5489v-7.453h-3.1816v7.453h-2.5401v-9.51h8.2706zm10.5029-4.667c0 1.465-.334 2.64-1.002 3.524-.6621.879-1.5586 1.319-2.6894 1.319-.961 0-1.7373-.334-2.3291-1.002v4.482h-2.5401v-13.166h2.3555l.0879.932c.6152-.738 1.418-1.108 2.4082-1.108 1.1719 0 2.083.434 2.7334 1.301s.9756 2.063.9756 3.586zm-2.5401-.185c0-.884-.1582-1.567-.4746-2.047-.3105-.481-.7646-.721-1.3623-.721-.7968 0-1.3447.305-1.6435.914v3.894c.3105.626.8642.94 1.6611.94 1.2129 0 1.8193-.993 1.8193-2.98zm3.7266.009c0-.943.1816-1.784.5449-2.522.3633-.739.8848-1.31 1.5645-1.714.6855-.404 1.4795-.607 2.3818-.607 1.2832 0 2.3291.393 3.1377 1.178.8145.785 1.2686 1.852 1.3623 3.199l.0176.651c0 1.459-.4072 2.631-1.2217 3.515-.8144.879-1.9072 1.319-3.2783 1.319s-2.4668-.44-3.2871-1.319c-.8145-.878-1.2217-2.074-1.2217-3.586zm2.54.185c0 .902.17 1.594.5098 2.074.3399.475.8262.712 1.459.712.6152 0 1.0957-.234 1.4414-.703.3457-.475.5186-1.231.5186-2.268 0-.885-.1729-1.57-.5186-2.056-.3457-.487-.832-.73-1.459-.73-.6211 0-1.1015.243-1.4414.73-.3398.48-.5098 1.227-.5098 2.241zm7.5323 2.61c.5742-.609.9638-1.213 1.1689-1.81.2051-.598.3194-1.445.3428-2.54l.0703-3.112h6.9961v7.462h1.3706v4.904h-2.5395v-2.856h-5.6338v2.856h-2.5928v-4.904zm2.997 0h3.0498v-5.361h-1.9775l-.0176 1.142c-.0527 1.746-.4043 3.153-1.0547 4.219zm13.7547 2.048c-.117-.229-.202-.513-.255-.853-.615.686-1.415 1.029-2.399 1.029-.932 0-1.705-.27-2.32-.809-.61-.539-.914-1.219-.914-2.039 0-1.008.372-1.781 1.116-2.32.75-.539 1.831-.812 3.243-.818h1.169v-.544c0-.44-.114-.792-.343-1.055-.223-.264-.577-.396-1.063-.396-.428 0-.765.103-1.011.308-.24.205-.36.486-.36.844h-2.541c0-.551.17-1.061.51-1.53.34-.468.821-.835 1.442-1.098.621-.27 1.318-.405 2.091-.405 1.172 0 2.101.296 2.787.888.691.586 1.037 1.412 1.037 2.479v4.122c.006.902.132 1.585.378 2.048v.149zm-2.1-1.767c.375 0 .72-.082 1.037-.246.316-.17.551-.395.703-.676v-1.635h-.949c-1.272 0-1.949.439-2.031 1.318l-.008.15c0 .316.111.577.334.782.222.205.527.307.914.307zm15.389-1.757h-1.151v3.524h-2.54v-3.524h-1.134l-1.89 3.524h-3.067l2.997-4.975-2.962-4.535h3.147l1.977 3.551h.932v-3.551h2.54v3.551h.949l1.986-3.551h3.147l-2.944 4.474 3.023 5.036h-3.12zm11.962-5.986h2.54v9.51h-2.54v-5.871l-3.181 5.871h-2.549v-9.51h2.549v5.863z" fill="#232422"/><path d="m67.4357 173.158c1.1625 1.123 3.0049 1.123 4.1673 0l16.5114-15.94c1.9412-1.874.6146-5.158-2.0837-5.158h-33.0227c-2.6982 0-4.0248 3.284-2.0836 5.158z" stroke="#ffcd15" stroke-width="2"/><path d="m207.157 115.146h-2.434v-3.146h-7.717v3.138h-2.496l-.141-5.256h.967c.521-.434.923-1.07 1.204-1.907.287-.844.481-1.887.58-3.129l.369-5.6429h8.385v10.6789h1.494zm-8.798-5.264h4.878v-8.543h-3.243l-.22 3.366c-.175 2.256-.647 3.982-1.415 5.177zm9.835-2.725c0-.943.182-1.784.545-2.522.364-.739.885-1.31 1.565-1.714.685-.404 1.479-.607 2.382-.607 1.283 0 2.329.393 3.137 1.178.815.785 1.269 1.852 1.363 3.199l.017.651c0 1.459-.407 2.631-1.222 3.515-.814.879-1.907 1.319-3.278 1.319s-2.467-.44-3.287-1.319c-.814-.878-1.222-2.074-1.222-3.586zm2.54.185c0 .902.17 1.594.51 2.074.34.475.826.712 1.459.712.615 0 1.096-.234 1.442-.703.345-.475.518-1.231.518-2.268 0-.885-.173-1.57-.518-2.056-.346-.487-.833-.73-1.459-.73-.622 0-1.102.243-1.442.73-.34.48-.51 1.227-.51 2.241zm14.511-2.795h-3.937v7.453h-2.54v-9.51h6.477zm.492 2.61c0-.943.182-1.784.545-2.522.364-.739.885-1.31 1.565-1.714.685-.404 1.479-.607 2.382-.607 1.283 0 2.329.393 3.137 1.178.815.785 1.269 1.852 1.363 3.199l.017.651c0 1.459-.407 2.631-1.222 3.515-.814.879-1.907 1.319-3.278 1.319s-2.467-.44-3.287-1.319c-.814-.878-1.222-2.074-1.222-3.586zm2.54.185c0 .902.17 1.594.51 2.074.34.475.826.712 1.459.712.615 0 1.096-.234 1.442-.703.345-.475.518-1.231.518-2.268 0-.885-.173-1.57-.518-2.056-.346-.487-.833-.73-1.459-.73-.622 0-1.102.243-1.442.73-.34.48-.51 1.227-.51 2.241zm8.201 4.658v-9.51h3.972c1.295 0 2.288.229 2.98.686.691.457 1.037 1.113 1.037 1.969 0 .439-.147.834-.44 1.186-.287.346-.709.612-1.265.8.679.129 1.213.384 1.599.765.393.375.589.837.589 1.388 0 .885-.334 1.559-1.002 2.022-.662.463-1.626.694-2.891.694zm2.54-3.946v1.916h2.047c.897 0 1.345-.314 1.345-.941 0-.638-.428-.964-1.283-.975zm0-1.705h1.573c.89-.012 1.336-.299 1.336-.862 0-.345-.123-.591-.369-.738-.241-.146-.61-.22-1.108-.22h-1.432zm7.092.808c0-.943.182-1.784.545-2.522.364-.739.885-1.31 1.565-1.714.685-.404 1.479-.607 2.382-.607 1.283 0 2.329.393 3.137 1.178.815.785 1.269 1.852 1.363 3.199l.017.651c0 1.459-.407 2.631-1.222 3.515-.814.879-1.907 1.319-3.278 1.319s-2.467-.44-3.287-1.319c-.814-.878-1.222-2.074-1.222-3.586zm2.54.185c0 .902.17 1.594.51 2.074.34.475.826.712 1.459.712.615 0 1.096-.234 1.442-.703.345-.475.518-1.231.518-2.268 0-.885-.173-1.57-.518-2.056-.346-.487-.832-.73-1.459-.73-.622 0-1.102.243-1.442.73-.34.48-.51 1.227-.51 2.241zm16.594-.009c0 1.465-.334 2.64-1.002 3.524-.662.879-1.558 1.319-2.689 1.319-.961 0-1.738-.334-2.329-1.002v4.482h-2.54v-13.166h2.355l.088.932c.615-.738 1.418-1.108 2.408-1.108 1.172 0 2.083.434 2.734 1.301.65.867.975 2.063.975 3.586zm-2.54-.185c0-.884-.158-1.567-.475-2.047-.31-.481-.764-.721-1.362-.721-.797 0-1.345.305-1.643.914v3.894c.31.626.864.94 1.661.94 1.213 0 1.819-.993 1.819-2.98zm-57.111 16.342v9.51h-2.54v-7.453h-2.241l-.159 2.935c-.099 1.565-.407 2.705-.923 3.419-.515.715-1.283 1.081-2.302 1.099h-.862l-.026-2.065.316-.027c.457-.035.791-.304 1.002-.808s.343-1.363.396-2.576l.176-4.034zm7.69 0h2.54v9.51h-2.54v-5.871l-3.181 5.871h-2.549v-9.51h2.549v5.863zm9.475 2.804c0-.334-.112-.592-.334-.773-.217-.188-.528-.282-.932-.282-.416 0-.756.088-1.019.264-.258.17-.387.413-.387.729h-2.54c0-.861.357-1.561 1.072-2.1s1.629-.809 2.742-.809c1.225 0 2.186.24 2.883.721.703.48 1.055 1.163 1.055 2.048 0 .422-.129.811-.387 1.169-.252.351-.609.633-1.072.843 1.084.381 1.626 1.117 1.626 2.207 0 .873-.375 1.57-1.125 2.091-.744.516-1.737.774-2.98.774-1.154 0-2.103-.27-2.847-.809s-1.117-1.265-1.117-2.179h2.541c0 .322.143.583.43.782s.662.299 1.125.299c.451 0 .803-.106 1.055-.317s.378-.486.378-.826c0-.416-.12-.712-.361-.888-.24-.181-.6-.272-1.081-.272h-1.379v-1.653h1.467c.791-.023 1.187-.363 1.187-1.019zm9.984-2.804h2.54v9.51h-2.54v-5.871l-3.181 5.871h-2.549v-9.51h2.549v5.863zm12.727 9.51h-2.549v-3.656h-3.155v3.656h-2.54v-9.51h2.54v3.815h3.155v-3.815h2.549zm8.446-7.453h-3.937v7.453h-2.54v-9.51h6.477zm6.574 7.453c-.117-.229-.202-.513-.255-.853-.615.686-1.415 1.029-2.399 1.029-.932 0-1.705-.27-2.32-.809-.61-.539-.914-1.219-.914-2.039 0-1.008.372-1.781 1.116-2.32.75-.539 1.831-.812 3.243-.818h1.169v-.544c0-.44-.114-.792-.343-1.055-.223-.264-.577-.396-1.063-.396-.428 0-.765.103-1.011.308-.24.205-.36.486-.36.844h-2.54c0-.551.169-1.061.509-1.53.34-.468.821-.835 1.442-1.098.621-.27 1.318-.405 2.091-.405 1.172 0 2.101.296 2.787.888.691.586 1.037 1.412 1.037 2.479v4.122c.006.902.132 1.585.378 2.048v.149zm-2.1-1.767c.375 0 .72-.082 1.037-.246.316-.17.551-.395.703-.676v-1.635h-.949c-1.272 0-1.949.439-2.031 1.318l-.008.15c0 .316.111.577.334.782.222.205.527.307.914.307z" fill="#232422"/><path d="m227.436 173.158c1.162 1.123 3.005 1.123 4.167 0l16.511-15.94c1.942-1.874.615-5.158-2.083-5.158h-33.023c-2.698 0-4.025 3.284-2.084 5.158z" stroke="#ffcd15" stroke-width="2"/><path d="m147.436 296.099c1.162 1.122 3.005 1.122 4.167 0l16.511-15.94c1.942-1.874.615-5.159-2.083-5.159h-33.023c-2.698 0-4.025 3.285-2.084 5.159z" stroke="#ffcd15" stroke-width="2"/><g fill="#232422"><path d="m119.388 228h-2.646v-10.661h-5.124v10.661h-2.637v-12.797h10.407zm10.714-4.667c0 1.465-.334 2.64-1.002 3.524-.662.879-1.559 1.319-2.69 1.319-.961 0-1.737-.334-2.329-1.002v4.482h-2.54v-13.166h2.355l.088.932c.616-.738 1.418-1.108 2.409-1.108 1.171 0 2.083.434 2.733 1.301s.976 2.063.976 3.586zm-2.54-.185c0-.884-.159-1.567-.475-2.047-.311-.481-.765-.721-1.362-.721-.797 0-1.345.305-1.644.914v3.894c.311.626.864.94 1.661.94 1.213 0 1.82-.993 1.82-2.98zm3.726.009c0-.943.182-1.784.545-2.522.363-.739.885-1.31 1.564-1.714.686-.404 1.48-.607 2.382-.607 1.283 0 2.329.393 3.138 1.178.814.785 1.269 1.852 1.362 3.199l.018.651c0 1.459-.407 2.631-1.222 3.515-.814.879-1.907 1.319-3.278 1.319s-2.467-.44-3.287-1.319c-.815-.878-1.222-2.074-1.222-3.586zm2.54.185c0 .902.17 1.594.51 2.074.34.475.826.712 1.459.712.615 0 1.096-.234 1.441-.703.346-.475.519-1.231.519-2.268 0-.885-.173-1.57-.519-2.056-.345-.487-.832-.73-1.459-.73-.621 0-1.101.243-1.441.73-.34.48-.51 1.227-.51 2.241zm7.532 2.61c.575-.609.964-1.213 1.169-1.81.205-.598.32-1.445.343-2.54l.07-3.112h6.996v7.462h1.372v4.904h-2.54v-2.856h-5.634v2.856h-2.593v-4.904zm2.997 0h3.05v-5.361h-1.977l-.018 1.142c-.053 1.746-.404 3.153-1.055 4.219zm13.755 2.048c-.117-.229-.202-.513-.255-.853-.615.686-1.415 1.029-2.399 1.029-.932 0-1.705-.27-2.32-.809-.61-.539-.914-1.219-.914-2.039 0-1.008.372-1.781 1.116-2.32.75-.539 1.831-.812 3.243-.818h1.169v-.544c0-.44-.114-.792-.343-1.055-.222-.264-.577-.396-1.063-.396-.428 0-.765.103-1.011.308-.24.205-.36.486-.36.844h-2.54c0-.551.169-1.061.509-1.53.34-.468.821-.835 1.442-1.098.621-.27 1.318-.405 2.092-.405 1.171 0 2.1.296 2.786.888.691.586 1.037 1.412 1.037 2.479v4.122c.006.902.132 1.585.378 2.048v.149zm-2.1-1.767c.375 0 .72-.082 1.037-.246.316-.17.551-.395.703-.676v-1.635h-.949c-1.272 0-1.949.439-2.031 1.318l-.008.15c0 .316.111.577.334.782.222.205.527.307.914.307zm6.407 1.767v-9.51h3.973c1.295 0 2.288.229 2.979.686s1.037 1.113 1.037 1.969c0 .439-.146.834-.439 1.186-.287.346-.709.612-1.266.8.68.129 1.213.384 1.6.765.392.375.589.837.589 1.388 0 .885-.334 1.559-1.002 2.022-.662.463-1.626.694-2.892.694zm2.54-3.946v1.916h2.048c.896 0 1.345-.314 1.345-.941 0-.638-.428-.964-1.284-.975zm0-1.705h1.573c.891-.012 1.336-.299 1.336-.862 0-.345-.123-.591-.369-.738-.24-.146-.609-.22-1.107-.22h-1.433zm11.865 5.827c-1.394 0-2.531-.428-3.41-1.283-.873-.856-1.31-1.996-1.31-3.419v-.246c0-.956.185-1.808.554-2.558.369-.756.891-1.336 1.565-1.74.679-.41 1.453-.616 2.32-.616 1.301 0 2.323.411 3.067 1.231.75.82 1.125 1.983 1.125 3.489v1.037h-6.055c.082.621.328 1.119.738 1.494.416.375.94.563 1.573.563.979 0 1.743-.355 2.294-1.064l1.248 1.398c-.381.539-.896.961-1.547 1.266-.65.298-1.371.448-2.162.448zm-.29-7.805c-.504 0-.914.17-1.23.51-.311.34-.51.826-.598 1.459h3.533v-.202c-.011-.563-.164-.996-.457-1.301-.293-.311-.709-.466-1.248-.466zm5.652-1.881h2.54v7.462h3.181v-7.462h2.549v7.48h1.424l-.176 4.851h-2.364v-2.821h-7.154zm-85.0434 25.307c0-1.342.1787-2.619.5361-3.832s.8848-2.285 1.582-3.217c.6973-.937 1.4533-1.588 2.2673-1.951l.493 1.371c-.856.633-1.524 1.611-2.004 2.936-.4809 1.324-.7211 2.871-.7211 4.64v.273c0 1.775.2373 3.328.7121 4.658.474 1.33 1.145 2.323 2.013 2.979l-.493 1.345c-.797-.357-1.5407-.99-2.2321-1.898-.6855-.903-1.21-1.946-1.5732-3.129-.3633-1.184-.5567-2.42-.5801-3.709zm14.4844 5.203h-2.549v-7.453h-3.182v7.453h-2.54v-9.51h8.271zm1.547-4.843c0-.943.181-1.784.545-2.522.363-.739.885-1.31 1.564-1.714.686-.404 1.48-.607 2.382-.607 1.283 0 2.329.393 3.138 1.178.814.785 1.268 1.852 1.362 3.199l.018.651c0 1.459-.408 2.631-1.222 3.515-.815.879-1.907 1.319-3.278 1.319s-2.467-.44-3.287-1.319c-.815-.878-1.222-2.074-1.222-3.586zm2.54.185c0 .902.17 1.594.51 2.074.339.475.826.712 1.459.712.615 0 1.095-.234 1.441-.703.346-.475.519-1.231.519-2.268 0-.885-.173-1.57-.519-2.056-.346-.487-.832-.73-1.459-.73-.621 0-1.102.243-1.441.73-.34.48-.51 1.227-.51 2.241zm11.988 2.786c.469 0 .85-.129 1.143-.387s.445-.6.457-1.028h2.382c-.006.644-.182 1.236-.528 1.775-.345.533-.82.95-1.424 1.248-.597.293-1.259.44-1.986.44-1.359 0-2.432-.431-3.217-1.292-.785-.867-1.177-2.063-1.177-3.586v-.167c0-1.465.389-2.634 1.169-3.507.779-.873 1.848-1.31 3.208-1.31 1.189 0 2.141.34 2.856 1.02.721.674 1.087 1.573 1.099 2.698h-2.382c-.012-.492-.164-.89-.457-1.195-.293-.311-.68-.466-1.16-.466-.592 0-1.04.217-1.345.65-.299.428-.448 1.125-.448 2.092v.264c0 .978.149 1.682.448 2.109.299.428.753.642 1.362.642zm13.324-5.599h-3.049v7.471h-2.549v-7.471h-2.997v-2.039h8.595zm6.654 7.471c-.118-.229-.202-.513-.255-.853-.615.686-1.415 1.029-2.4 1.029-.931 0-1.705-.27-2.32-.809-.609-.539-.914-1.219-.914-2.039 0-1.008.372-1.781 1.116-2.32.75-.539 1.831-.812 3.243-.818h1.169v-.544c0-.44-.114-.792-.342-1.055-.223-.264-.578-.396-1.064-.396-.428 0-.765.103-1.011.308-.24.205-.36.486-.36.844h-2.54c0-.551.17-1.061.51-1.53.34-.468.82-.835 1.441-1.098.621-.27 1.318-.405 2.092-.405 1.172 0 2.101.296 2.786.888.691.586 1.037 1.412 1.037 2.479v4.122c.006.902.132 1.585.378 2.048v.149zm-2.101-1.767c.375 0 .721-.082 1.037-.246.317-.17.551-.395.703-.676v-1.635h-.949c-1.271 0-1.948.439-2.03 1.318l-.009.15c0 .316.111.577.334.782s.527.307.914.307zm6.407 1.767v-9.51h3.973c1.295 0 2.288.229 2.979.686.692.457 1.038 1.113 1.038 1.969 0 .439-.147.834-.44 1.186-.287.346-.709.612-1.265.8.679.129 1.212.384 1.599.765.393.375.589.837.589 1.388 0 .885-.334 1.559-1.002 2.022-.662.463-1.626.694-2.892.694zm2.54-3.946v1.916h2.048c.897 0 1.345-.314 1.345-.941 0-.638-.428-.964-1.283-.975zm0-1.705h1.574c.89-.012 1.336-.299 1.336-.862 0-.345-.124-.591-.37-.738-.24-.146-.609-.22-1.107-.22h-1.433zm10.002-3.859v7.462h2.611v-7.462h2.549v7.462h2.601v-7.462h2.549v7.48h1.89l-.176 4.851h-2.364v-2.821h-12.2v-9.51zm19.424 0h2.54v9.51h-2.54v-5.871l-3.181 5.871h-2.549v-9.51h2.549v5.863zm8.209 6.003h-1.019v3.507h-2.54v-9.51h2.54v3.577h.905l2.074-3.577h3.208l-3.111 4.527 3.401 4.983h-3.384zm10.793-1.494c0 1.324-.19 2.599-.571 3.823-.381 1.225-.929 2.306-1.644 3.243-.715.938-1.479 1.582-2.294 1.934l-.492-1.345c.832-.627 1.488-1.593 1.969-2.9.48-1.307.729-2.81.747-4.509v-.466c0-1.752-.24-3.296-.721-4.632-.474-1.335-1.139-2.337-1.995-3.005l.492-1.345c.797.346 1.547.973 2.25 1.881.709.908 1.257 1.966 1.644 3.173.392 1.207.598 2.458.615 3.753z"/><path d="m57.7949 336h-2.6455v-10.661h-5.124v10.661h-2.6367v-12.797h10.4062zm1.7578-4.843c0-.943.1817-1.784.545-2.522.3632-.739.8847-1.31 1.5644-1.714.6856-.404 1.4795-.607 2.3818-.607 1.2832 0 2.3291.393 3.1377 1.178.8145.785 1.2686 1.852 1.3623 3.199l.0176.651c0 1.459-.4072 2.631-1.2217 3.515-.8144.879-1.9072 1.319-3.2783 1.319s-2.4668-.44-3.2871-1.319c-.8144-.878-1.2217-2.074-1.2217-3.586zm2.5401.185c0 .902.1699 1.594.5097 2.074.3399.475.8262.712 1.459.712.6153 0 1.0957-.234 1.4414-.703.3457-.475.5186-1.231.5186-2.268 0-.885-.1729-1.57-.5186-2.056-.3457-.487-.832-.73-1.459-.73-.621 0-1.1015.243-1.4414.73-.3398.48-.5097 1.227-.5097 2.241zm11.9883 2.786c.4687 0 .8496-.129 1.1425-.387.293-.258.4453-.6.4571-1.028h2.3818c-.0059.644-.1816 1.236-.5273 1.775-.3457.533-.8204.95-1.4239 1.248-.5976.293-1.2597.44-1.9863.44-1.3594 0-2.4316-.431-3.2168-1.292-.7852-.867-1.1777-2.063-1.1777-3.586v-.167c0-1.465.3896-2.634 1.1689-3.507s1.8486-1.31 3.208-1.31c1.1895 0 2.1416.34 2.8565 1.02.7207.674 1.0869 1.573 1.0986 2.698h-2.3818c-.0118-.492-.1641-.89-.4571-1.195-.2929-.311-.6797-.466-1.1601-.466-.5918 0-1.0401.217-1.3447.65-.2989.428-.4483 1.125-.4483 2.092v.264c0 .978.1494 1.682.4483 2.109.2988.428.7529.642 1.3623.642zm13.3242-5.599h-3.0498v7.471h-2.5489v-7.471h-2.997v-2.039h8.5957zm6.6533 7.471c-.1172-.229-.2022-.513-.2549-.853-.6152.686-1.415 1.029-2.3994 1.029-.9316 0-1.7051-.27-2.3203-.809-.6094-.539-.9141-1.219-.9141-2.039 0-1.008.3721-1.781 1.1162-2.32.75-.539 1.8311-.812 3.2432-.818h1.1689v-.544c0-.44-.1142-.792-.3427-1.055-.2227-.264-.5772-.396-1.0635-.396-.4277 0-.7647.103-1.0108.308-.2402.205-.3603.486-.3603.844h-2.54c0-.551.1699-1.061.5097-1.53.3399-.468.8203-.835 1.4414-1.098.6211-.27 1.3184-.405 2.0918-.405 1.1719 0 2.1006.296 2.7862.888.6914.586 1.0371 1.412 1.0371 2.479v4.122c.0058.902.1318 1.585.3779 2.048v.149zm-2.1006-1.767c.375 0 .7207-.082 1.0371-.246.3164-.17.5508-.395.7031-.676v-1.635h-.9492c-1.2715 0-1.9482.439-2.0302 1.318l-.0088.15c0 .316.1113.577.3339.782.2227.205.5274.307.9141.307zm6.4072 1.767v-9.51h3.9728c1.295 0 2.288.229 2.979.686.692.457 1.037 1.113 1.037 1.969 0 .439-.146.834-.439 1.186-.287.346-.709.612-1.266.8.68.129 1.213.384 1.6.765.393.375.589.837.589 1.388 0 .885-.334 1.559-1.002 2.022-.662.463-1.626.694-2.892.694zm2.5398-3.946v1.916h2.048c.897 0 1.345-.314 1.345-.941 0-.638-.428-.964-1.283-.975zm0-1.705h1.574c.89-.012 1.335-.299 1.335-.862 0-.345-.123-.591-.369-.738-.24-.146-.609-.22-1.107-.22h-1.433zm11.215 2.144h-1.019v3.507h-2.54v-9.51h2.54v3.577h.905l2.074-3.577h3.208l-3.111 4.527 3.401 4.983h-3.384zm11.927 3.507c-.117-.229-.202-.513-.255-.853-.615.686-1.415 1.029-2.399 1.029-.932 0-1.705-.27-2.321-.809-.609-.539-.914-1.219-.914-2.039 0-1.008.372-1.781 1.116-2.32.75-.539 1.831-.812 3.244-.818h1.169v-.544c0-.44-.115-.792-.343-1.055-.223-.264-.577-.396-1.064-.396-.427 0-.764.103-1.01.308-.241.205-.361.486-.361.844h-2.54c0-.551.17-1.061.51-1.53.34-.468.82-.835 1.441-1.098.621-.27 1.319-.405 2.092-.405 1.172 0 2.101.296 2.786.888.692.586 1.037 1.412 1.037 2.479v4.122c.006.902.132 1.585.378 2.048v.149zm-2.101-1.767c.375 0 .721-.082 1.037-.246.317-.17.551-.395.704-.676v-1.635h-.95c-1.271 0-1.948.439-2.03 1.318l-.009.15c0 .316.112.577.334.782.223.205.528.307.914.307zm10.327-3.076c0-.943.182-1.784.545-2.522.364-.739.885-1.31 1.565-1.714.685-.404 1.479-.607 2.382-.607 1.283 0 2.329.393 3.137 1.178.815.785 1.269 1.852 1.363 3.199l.017.651c0 1.459-.407 2.631-1.221 3.515-.815.879-1.908 1.319-3.279 1.319s-2.467-.44-3.287-1.319c-.814-.878-1.222-2.074-1.222-3.586zm2.54.185c0 .902.17 1.594.51 2.074.34.475.826.712 1.459.712.615 0 1.096-.234 1.442-.703.345-.475.518-1.231.518-2.268 0-.885-.173-1.57-.518-2.056-.346-.487-.832-.73-1.459-.73-.621 0-1.102.243-1.442.73-.34.48-.51 1.227-.51 2.241zm12.753-4.324c1.219 0 2.192.404 2.918 1.212.727.809 1.09 1.908 1.09 3.296v.123c0 1.372-.404 2.47-1.213 3.296-.808.826-1.895 1.24-3.26 1.24-1.372 0-2.464-.446-3.279-1.336-.808-.897-1.213-2.113-1.213-3.648v-.422c.012-2.138.372-3.811 1.081-5.018.715-1.213 1.788-1.978 3.217-2.294.75-.164 1.234-.325 1.45-.484.217-.164.326-.389.326-.676h2.056c0 .92-.249 1.611-.747 2.074-.492.463-1.371.82-2.637 1.072-.75.152-1.341.448-1.775.888-.434.439-.726 1.057-.879 1.854.809-.785 1.764-1.177 2.865-1.177zm-.483 2.056c-.604 0-1.078.202-1.424.607-.34.404-.51 1.06-.51 1.968 0 .809.167 1.427.501 1.855.334.422.818.633 1.451.633.615 0 1.089-.208 1.423-.624s.504-1.029.51-1.837v-.211c0-.779-.173-1.371-.518-1.776-.34-.41-.818-.615-1.433-.615zm5.616 2.083c0-.943.182-1.784.545-2.522.363-.739.885-1.31 1.565-1.714.685-.404 1.479-.607 2.381-.607 1.284 0 2.33.393 3.138 1.178.815.785 1.269 1.852 1.362 3.199l.018.651c0 1.459-.407 2.631-1.222 3.515-.814.879-1.907 1.319-3.278 1.319s-2.467-.44-3.287-1.319c-.815-.878-1.222-2.074-1.222-3.586zm2.54.185c0 .902.17 1.594.51 2.074.34.475.826.712 1.459.712.615 0 1.096-.234 1.441-.703.346-.475.519-1.231.519-2.268 0-.885-.173-1.57-.519-2.056-.345-.487-.832-.73-1.459-.73-.621 0-1.101.243-1.441.73-.34.48-.51 1.227-.51 2.241zm16.594-.009c0 1.465-.334 2.64-1.002 3.524-.662.879-1.559 1.319-2.689 1.319-.961 0-1.738-.334-2.33-1.002v4.482h-2.54v-13.166h2.356l.088.932c.615-.738 1.418-1.108 2.408-1.108 1.172 0 2.083.434 2.733 1.301.651.867.976 2.063.976 3.586zm-2.54-.185c0-.884-.158-1.567-.475-2.047-.31-.481-.764-.721-1.362-.721-.797 0-1.345.305-1.644.914v3.894c.311.626.865.94 1.662.94 1.213 0 1.819-.993 1.819-2.98zm7.567 1.257 1.758-5.915h2.725l-3.823 10.987-.211.501c-.569 1.242-1.506 1.863-2.813 1.863-.369 0-.744-.056-1.125-.167v-1.925l.387.009c.48 0 .838-.073 1.072-.22.24-.146.428-.39.563-.729l.298-.783-3.331-9.536h2.734zm5.124 1.547c.575-.609.964-1.213 1.169-1.81.205-.598.32-1.445.343-2.54l.07-3.112h6.996v7.462h1.372v4.904h-2.54v-2.856h-5.634v2.856h-2.593v-4.904zm2.997 0h3.05v-5.361h-1.977l-.018 1.142c-.053 1.746-.404 3.153-1.055 4.219zm7.849-2.795c0-.943.182-1.784.545-2.522.363-.739.885-1.31 1.564-1.714.686-.404 1.48-.607 2.382-.607 1.283 0 2.329.393 3.138 1.178.814.785 1.269 1.852 1.362 3.199l.018.651c0 1.459-.407 2.631-1.222 3.515-.814.879-1.907 1.319-3.278 1.319s-2.467-.44-3.287-1.319c-.815-.878-1.222-2.074-1.222-3.586zm2.54.185c0 .902.17 1.594.51 2.074.34.475.826.712 1.459.712.615 0 1.096-.234 1.441-.703.346-.475.519-1.231.519-2.268 0-.885-.173-1.57-.519-2.056-.345-.487-.832-.73-1.459-.73-.621 0-1.101.243-1.441.73-.34.48-.51 1.227-.51 2.241zm8.2 4.658v-9.51h3.973c1.295 0 2.288.229 2.979.686.692.457 1.038 1.113 1.038 1.969 0 .439-.147.834-.44 1.186-.287.346-.709.612-1.266.8.68.129 1.213.384 1.6.765.393.375.589.837.589 1.388 0 .885-.334 1.559-1.002 2.022-.662.463-1.626.694-2.892.694zm2.54-3.946v1.916h2.048c.897 0 1.345-.314 1.345-.941 0-.638-.428-.964-1.283-.975zm0-1.705h1.574c.89-.012 1.336-.299 1.336-.862 0-.345-.124-.591-.37-.738-.24-.146-.609-.22-1.107-.22h-1.433zm12.999 5.651c-.117-.229-.202-.513-.255-.853-.615.686-1.415 1.029-2.399 1.029-.932 0-1.705-.27-2.32-.809-.61-.539-.914-1.219-.914-2.039 0-1.008.372-1.781 1.116-2.32.75-.539 1.831-.812 3.243-.818h1.169v-.544c0-.44-.114-.792-.343-1.055-.222-.264-.577-.396-1.063-.396-.428 0-.765.103-1.011.308-.24.205-.36.486-.36.844h-2.54c0-.551.17-1.061.509-1.53.34-.468.821-.835 1.442-1.098.621-.27 1.318-.405 2.092-.405 1.171 0 2.1.296 2.786.888.691.586 1.037 1.412 1.037 2.479v4.122c.006.902.132 1.585.378 2.048v.149zm-2.1-1.767c.375 0 .72-.082 1.037-.246.316-.17.551-.395.703-.676v-1.635h-.949c-1.272 0-1.948.439-2.03 1.318l-.009.15c0 .316.111.577.334.782.222.205.527.307.914.307zm14.484 1.767h-2.549v-3.656h-3.155v3.656h-2.54v-9.51h2.54v3.815h3.155v-3.815h2.549zm7.699-9.51h2.54v9.51h-2.54v-5.871l-3.181 5.871h-2.549v-9.51h2.549v5.863zm12.411 0v9.51h-2.532v-3.287h-1.608l-1.828 3.287h-2.575l2.074-3.718c-.569-.263-1.008-.621-1.319-1.072-.304-.451-.457-.964-.457-1.538 0-.92.355-1.673 1.064-2.259.715-.592 1.67-.899 2.865-.923zm-4.272 4.448h1.74v-2.409h-1.652c-.451 0-.817.12-1.099.361-.281.234-.422.521-.422.861s.135.621.405.844c.269.222.612.337 1.028.343zm-175.8691 20.859c0-1.342.1787-2.619.5361-3.832.3575-1.213.8848-2.285 1.5821-3.217.6972-.937 1.4531-1.588 2.2676-1.951l.4921 1.371c-.8554.633-1.5234 1.611-2.0039 2.936-.4804 1.324-.7207 2.871-.7207 4.64v.273c0 1.775.2373 3.328.7119 4.658.4747 1.33 1.1456 2.323 2.0127 2.979l-.4921 1.345c-.7969-.357-1.5411-.99-2.2325-1.898-.6855-.903-1.2099-1.946-1.5732-3.129-.3633-1.184-.5566-2.42-.5801-3.709zm14.4844 5.203h-2.5488v-7.453h-3.1817v7.453h-2.54v-9.51h8.2705zm10.5029-4.667c0 1.465-.334 2.64-1.0019 3.524-.6621.879-1.5586 1.319-2.6895 1.319-.9609 0-1.7373-.334-2.3291-1.002v4.482h-2.54v-13.166h2.3554l.0879.932c.6153-.738 1.418-1.108 2.4082-1.108 1.1719 0 2.083.434 2.7334 1.301s.9756 2.063.9756 3.586zm-2.54-.185c0-.884-.1582-1.567-.4746-2.047-.3106-.481-.7647-.721-1.3623-.721-.7969 0-1.3448.305-1.6436.914v3.894c.3106.626.8643.94 1.6611.94 1.2129 0 1.8194-.993 1.8194-2.98zm8.4988 5.028c-1.394 0-2.531-.428-3.41-1.283-.873-.856-1.3095-1.996-1.3095-3.419v-.246c0-.956.1845-1.808.5537-2.558.3691-.756.8906-1.336 1.5644-1.74.6794-.41 1.4534-.616 2.3204-.616 1.301 0 2.323.411 3.067 1.231.75.82 1.125 1.983 1.125 3.489v1.037h-6.055c.082.621.328 1.119.738 1.494.416.375.94.563 1.573.563.979 0 1.743-.355 2.294-1.064l1.248 1.398c-.381.539-.896.961-1.547 1.266-.65.298-1.371.448-2.162.448zm-.29-7.805c-.504 0-.914.17-1.23.51-.311.34-.51.826-.598 1.459h3.533v-.202c-.011-.563-.164-.996-.457-1.301-.293-.311-.709-.466-1.248-.466zm5.783 5.581c.575-.609.964-1.213 1.169-1.81.205-.598.32-1.445.343-2.54l.07-3.112h6.996v7.462h1.372v4.904h-2.54v-2.856h-5.634v2.856h-2.593v-4.904zm2.997 0h3.05v-5.361h-1.977l-.018 1.142c-.053 1.746-.404 3.153-1.055 4.219zm13.878-.949 2.488-6.513h3.181v9.51h-2.54v-5.836l-2.276 5.836h-1.705l-2.233-5.739v5.739h-2.54v-9.51h3.156zm12.261 3.173c-1.394 0-2.531-.428-3.41-1.283-.873-.856-1.31-1.996-1.31-3.419v-.246c0-.956.185-1.808.554-2.558.369-.756.891-1.336 1.565-1.74.679-.41 1.453-.616 2.32-.616 1.301 0 2.323.411 3.067 1.231.75.82 1.125 1.983 1.125 3.489v1.037h-6.055c.082.621.328 1.119.738 1.494.416.375.94.563 1.573.563.979 0 1.743-.355 2.294-1.064l1.248 1.398c-.381.539-.896.961-1.547 1.266-.65.298-1.371.448-2.162.448zm-.29-7.805c-.504 0-.914.17-1.23.51-.311.34-.51.826-.598 1.459h3.533v-.202c-.012-.563-.164-.996-.457-1.301-.293-.311-.709-.466-1.248-.466zm13.439.158h-3.05v7.471h-2.549v-7.471h-2.997v-2.039h8.596zm14.036-2.039v9.51h-2.54v-7.453h-2.242l-.158 2.935c-.099 1.565-.407 2.705-.923 3.419-.515.715-1.283 1.081-2.302 1.099h-.862l-.026-2.065.316-.027c.457-.035.791-.304 1.002-.808s.343-1.363.396-2.576l.176-4.034zm7.69 0h2.54v9.51h-2.54v-5.871l-3.182 5.871h-2.548v-9.51h2.548v5.863zm9.475 2.804c0-.334-.112-.592-.334-.773-.217-.188-.528-.282-.932-.282-.416 0-.756.088-1.019.264-.258.17-.387.413-.387.729h-2.54c0-.861.357-1.561 1.072-2.1s1.629-.809 2.742-.809c1.225 0 2.186.24 2.883.721.703.48 1.055 1.163 1.055 2.048 0 .422-.129.811-.387 1.169-.252.351-.609.633-1.072.843 1.084.381 1.626 1.117 1.626 2.207 0 .873-.375 1.57-1.125 2.091-.744.516-1.738.774-2.98.774-1.154 0-2.103-.27-2.847-.809-.745-.539-1.117-1.265-1.117-2.179h2.54c0 .322.144.583.431.782s.662.299 1.125.299c.451 0 .803-.106 1.055-.317s.378-.486.378-.826c0-.416-.12-.712-.361-.888-.24-.181-.6-.272-1.081-.272h-1.38v-1.653h1.468c.791-.023 1.187-.363 1.187-1.019zm9.984-2.804h2.54v9.51h-2.54v-5.871l-3.182 5.871h-2.548v-9.51h2.548v5.863zm12.727 9.51h-2.549v-3.656h-3.155v3.656h-2.54v-9.51h2.54v3.815h3.155v-3.815h2.549zm8.446-7.453h-3.938v7.453h-2.54v-9.51h6.478zm6.574 7.453c-.117-.229-.202-.513-.255-.853-.615.686-1.415 1.029-2.399 1.029-.932 0-1.705-.27-2.32-.809-.61-.539-.915-1.219-.915-2.039 0-1.008.373-1.781 1.117-2.32.75-.539 1.831-.812 3.243-.818h1.169v-.544c0-.44-.114-.792-.343-1.055-.223-.264-.577-.396-1.063-.396-.428 0-.765.103-1.011.308-.24.205-.361.486-.361.844h-2.54c0-.551.17-1.061.51-1.53.34-.468.821-.835 1.442-1.098.621-.27 1.318-.405 2.091-.405 1.172 0 2.101.296 2.787.888.691.586 1.037 1.412 1.037 2.479v4.122c.005.902.131 1.585.378 2.048v.149zm-2.1-1.767c.375 0 .72-.082 1.037-.246.316-.17.55-.395.703-.676v-1.635h-.949c-1.272 0-1.949.439-2.031 1.318l-.008.15c0 .316.111.577.334.782.222.205.527.307.914.307zm10.617-3.234c0 1.324-.191 2.599-.572 3.823-.38 1.225-.928 2.306-1.643 3.243-.715.938-1.48 1.582-2.294 1.934l-.492-1.345c.832-.627 1.488-1.593 1.969-2.9.48-1.307.729-2.81.747-4.509v-.466c0-1.752-.241-3.296-.721-4.632-.475-1.335-1.14-2.337-1.995-3.005l.492-1.345c.797.346 1.547.973 2.25 1.881.709.908 1.257 1.966 1.644 3.173.392 1.207.597 2.458.615 3.753z"/><path d="m124.714 453.771h-1.521v5.229h-2.636v-12.797h2.636v5.124h1.204l3.129-5.124h3.217l-3.946 6.056 4.359 6.741h-3.146zm15.565-4.281v9.51h-2.54v-7.453h-2.241l-.158 2.935c-.1 1.565-.407 2.705-.923 3.419-.516.715-1.283 1.081-2.303 1.099h-.861l-.026-2.065.316-.027c.457-.035.791-.304 1.002-.808s.343-1.363.395-2.576l.176-4.034zm7.691 0h2.54v9.51h-2.54v-5.871l-3.182 5.871h-2.549v-9.51h2.549v5.863zm8.859 9.686c-1.394 0-2.531-.428-3.41-1.283-.873-.856-1.31-1.996-1.31-3.419v-.246c0-.956.185-1.808.554-2.558.369-.756.891-1.336 1.565-1.74.679-.41 1.453-.616 2.32-.616 1.301 0 2.323.411 3.067 1.231.75.82 1.125 1.983 1.125 3.489v1.037h-6.055c.082.621.328 1.119.738 1.494.416.375.94.563 1.573.563.979 0 1.743-.355 2.294-1.064l1.248 1.398c-.381.539-.896.961-1.547 1.266-.65.298-1.371.448-2.162.448zm-.29-7.805c-.504 0-.914.17-1.23.51-.311.34-.51.826-.598 1.459h3.533v-.202c-.012-.563-.164-.996-.457-1.301-.293-.311-.709-.466-1.248-.466zm13.896 7.629h-2.549v-3.656h-3.156v3.656h-2.54v-9.51h2.54v3.815h3.156v-3.815h2.549zm9.861-7.471h-3.05v7.471h-2.549v-7.471h-2.997v-2.039h8.596zm-118.1866 23.268c0-1.342.1787-2.619.5361-3.832s.8848-2.285 1.582-3.217c.6973-.937 1.4532-1.588 2.2676-1.951l.4922 1.371c-.8555.633-1.5234 1.611-2.0039 2.936-.4805 1.324-.7207 2.871-.7207 4.64v.273c0 1.775.2373 3.328.7119 4.658s1.1455 2.323 2.0127 2.979l-.4922 1.345c-.7969-.357-1.541-.99-2.2324-1.898-.6856-.903-1.21-1.946-1.5732-3.129-.3633-1.184-.5567-2.42-.5801-3.709zm14.4844-4.307v9.51h-2.5401v-7.453h-2.2412l-.1582 2.935c-.0996 1.565-.4072 2.705-.9229 3.419-.5156.715-1.2832 1.081-2.3027 1.099h-.8613l-.0264-2.065.3164-.027c.4571-.035.791-.304 1.002-.808.2109-.504.3427-1.363.3955-2.576l.1758-4.034zm7.6904 0h2.54v9.51h-2.54v-5.871l-3.1817 5.871h-2.5488v-9.51h2.5488v5.863zm9.4746 2.804c0-.334-.1113-.592-.334-.773-.2168-.188-.5273-.282-.9316-.282-.4161 0-.7559.088-1.0196.264-.2578.17-.3867.413-.3867.729h-2.54c0-.861.3574-1.561 1.0722-2.1.7149-.539 1.6289-.809 2.7422-.809 1.2246 0 2.1856.24 2.8828.721.7032.48 1.0547 1.163 1.0547 2.048 0 .422-.1289.811-.3867 1.169-.2519.351-.6094.633-1.0723.843 1.084.381 1.626 1.117 1.626 2.207 0 .873-.375 1.57-1.125 2.091-.7441.516-1.7373.774-2.9795.774-1.1543 0-2.1035-.27-2.8476-.809-.7442-.539-1.1162-1.265-1.1162-2.179h2.54c0 .322.1436.583.4307.782s.6621.299 1.125.299c.4511 0 .8027-.106 1.0547-.317.2519-.211.3779-.486.3779-.826 0-.416-.1201-.712-.3604-.888-.2402-.181-.6006-.272-1.081-.272h-1.3799v-1.653h1.4678c.791-.023 1.1865-.363 1.1865-1.019zm9.9842-2.804h2.54v9.51h-2.54v-5.871l-3.181 5.871h-2.5493v-9.51h2.5493v5.863zm12.727 9.51h-2.549v-3.656h-3.155v3.656h-2.54v-9.51h2.54v3.815h3.155v-3.815h2.549zm8.446-7.453h-3.937v7.453h-2.541v-9.51h6.478zm.492 2.61c0-.943.182-1.784.545-2.522.363-.739.885-1.31 1.565-1.714.685-.404 1.479-.607 2.381-.607 1.284 0 2.33.393 3.138 1.178.815.785 1.269 1.852 1.362 3.199l.018.651c0 1.459-.407 2.631-1.222 3.515-.814.879-1.907 1.319-3.278 1.319s-2.467-.44-3.287-1.319c-.815-.878-1.222-2.074-1.222-3.586zm2.54.185c0 .902.17 1.594.51 2.074.34.475.826.712 1.459.712.615 0 1.096-.234 1.441-.703.346-.475.519-1.231.519-2.268 0-.885-.173-1.57-.519-2.056-.345-.487-.832-.73-1.459-.73-.621 0-1.101.243-1.441.73-.34.48-.51 1.227-.51 2.241zm16.304 4.658h-2.549v-7.453h-3.182v7.453h-2.54v-9.51h8.271zm1.547-4.843c0-.943.181-1.784.545-2.522.363-.739.885-1.31 1.564-1.714.686-.404 1.48-.607 2.382-.607 1.283 0 2.329.393 3.138 1.178.814.785 1.268 1.852 1.362 3.199l.018.651c0 1.459-.408 2.631-1.222 3.515-.815.879-1.907 1.319-3.278 1.319s-2.467-.44-3.287-1.319c-.815-.878-1.222-2.074-1.222-3.586zm2.54.185c0 .902.17 1.594.51 2.074.339.475.826.712 1.459.712.615 0 1.095-.234 1.441-.703.346-.475.519-1.231.519-2.268 0-.885-.173-1.57-.519-2.056-.346-.487-.832-.73-1.459-.73-.621 0-1.102.243-1.441.73-.34.48-.51 1.227-.51 2.241zm16.163-4.852v9.51h-2.54v-7.453h-2.241l-.159 2.935c-.099 1.565-.407 2.705-.922 3.419-.516.715-1.284 1.081-2.303 1.099h-.861l-.027-2.065.317-.027c.457-.035.791-.304 1.002-.808s.342-1.363.395-2.576l.176-4.034zm5.511 5.915 1.758-5.915h2.724l-3.823 10.987-.211.501c-.568 1.242-1.506 1.863-2.813 1.863-.369 0-.744-.056-1.125-.167v-1.925l.387.009c.481 0 .838-.073 1.072-.22.241-.146.428-.39.563-.729l.299-.783-3.331-9.536h2.733zm13.5 3.595h-2.54v-2.988c-.475.088-.917.132-1.327.132-1.436 0-2.517-.305-3.244-.915-.726-.609-1.095-1.5-1.107-2.671v-3.068h2.54v3.068c.006.55.141.946.404 1.186.264.235.733.352 1.407.352.421 0 .864-.05 1.327-.15v-4.456h2.54zm7.462 0c-.118-.229-.203-.513-.255-.853-.616.686-1.415 1.029-2.4 1.029-.931 0-1.705-.27-2.32-.809-.609-.539-.914-1.219-.914-2.039 0-1.008.372-1.781 1.116-2.32.75-.539 1.831-.812 3.243-.818h1.169v-.544c0-.44-.114-.792-.343-1.055-.222-.264-.577-.396-1.063-.396-.428 0-.765.103-1.011.308-.24.205-.36.486-.36.844h-2.54c0-.551.17-1.061.51-1.53.339-.468.82-.835 1.441-1.098.621-.27 1.318-.405 2.092-.405 1.172 0 2.1.296 2.786.888.691.586 1.037 1.412 1.037 2.479v4.122c.006.902.132 1.585.378 2.048v.149zm-2.101-1.767c.375 0 .721-.082 1.037-.246.317-.17.551-.395.703-.676v-1.635h-.949c-1.271 0-1.948.439-2.03 1.318l-.009.15c0 .316.111.577.334.782s.527.307.914.307zm13.992-5.704h-3.05v7.471h-2.548v-7.471h-2.997v-2.039h8.595zm5.098 7.647c-1.395 0-2.531-.428-3.41-1.283-.873-.856-1.31-1.996-1.31-3.419v-.246c0-.956.185-1.808.554-2.558.369-.756.89-1.336 1.564-1.74.68-.41 1.453-.616 2.321-.616 1.3 0 2.323.411 3.067 1.231.75.82 1.125 1.983 1.125 3.489v1.037h-6.056c.082.621.328 1.119.739 1.494.416.375.94.563 1.573.563.978 0 1.743-.355 2.294-1.064l1.248 1.398c-.381.539-.897.961-1.547 1.266-.65.298-1.371.448-2.162.448zm-.29-7.805c-.504 0-.914.17-1.231.51-.31.34-.509.826-.597 1.459h3.533v-.202c-.012-.563-.164-.996-.457-1.301-.293-.311-.709-.466-1.248-.466zm13.922-1.881v9.51h-2.54v-7.453h-2.242l-.158 2.935c-.099 1.565-.407 2.705-.923 3.419-.515.715-1.283 1.081-2.302 1.099h-.862l-.026-2.065.316-.027c.457-.035.791-.304 1.002-.808s.343-1.363.396-2.576l.176-4.034zm4.675 2.786h1.82c.82 0 1.541.138 2.162.413.621.276 1.096.671 1.424 1.187.334.51.501 1.104.501 1.784 0 1.002-.372 1.811-1.116 2.426-.739.609-1.747.914-3.024.914h-4.315v-9.51h2.548zm0 2.039v2.655h1.802c.504 0 .891-.117 1.16-.352.27-.234.405-.554.405-.958 0-.41-.132-.735-.396-.975-.263-.247-.653-.37-1.169-.37zm11.716-.316c0 1.324-.19 2.599-.571 3.823-.381 1.225-.929 2.306-1.644 3.243-.714.938-1.479 1.582-2.293 1.934l-.493-1.345c.832-.627 1.489-1.593 1.969-2.9.481-1.307.73-2.81.747-4.509v-.466c0-1.752-.24-3.296-.721-4.632-.474-1.335-1.139-2.337-1.995-3.005l.493-1.345c.796.346 1.546.973 2.25 1.881.709.908 1.256 1.966 1.643 3.173.393 1.207.598 2.458.615 3.753z"/></g></svg>