<svg fill="none" height="334" viewBox="0 0 982 334" width="982" xmlns="http://www.w3.org/2000/svg"><g fill="#232422"><path d="m589.344 149.195h-3.246v-4.195h-10.289v4.184h-3.329l-.187-7.008h1.289c.695-.578 1.23-1.426 1.606-2.543.382-1.125.64-2.516.773-4.172l.492-7.523h11.18v14.238h1.992zm-11.731-7.019h6.504v-11.391h-4.324l-.293 4.488c-.234 3.008-.863 5.309-1.887 6.903zm13.114-3.633c0-1.258.242-2.379.726-3.363.485-.985 1.18-1.746 2.086-2.285.914-.54 1.973-.809 3.176-.809 1.711 0 3.105.523 4.183 1.57 1.086 1.047 1.692 2.469 1.817 4.266l.023.867c0 1.945-.543 3.508-1.629 4.688-1.086 1.171-2.543 1.757-4.371 1.757s-3.289-.586-4.383-1.757c-1.085-1.172-1.628-2.766-1.628-4.782zm3.386.246c0 1.203.227 2.125.68 2.766.453.633 1.102.949 1.945.949.821 0 1.461-.313 1.922-.938.461-.632.692-1.64.692-3.023 0-1.18-.231-2.094-.692-2.742-.461-.649-1.109-.973-1.945-.973-.828 0-1.469.324-1.922.973-.453.64-.68 1.637-.68 2.988zm19.348-3.727h-5.25v9.938h-3.387v-12.68h8.637zm.656 3.481c0-1.258.242-2.379.727-3.363.484-.985 1.179-1.746 2.086-2.285.914-.54 1.972-.809 3.175-.809 1.711 0 3.106.523 4.184 1.57 1.086 1.047 1.691 2.469 1.816 4.266l.024.867c0 1.945-.543 3.508-1.629 4.688-1.086 1.171-2.543 1.757-4.371 1.757s-3.289-.586-4.383-1.757c-1.086-1.172-1.629-2.766-1.629-4.782zm3.387.246c0 1.203.226 2.125.68 2.766.453.633 1.101.949 1.945.949.82 0 1.461-.313 1.922-.938.461-.632.691-1.64.691-3.023 0-1.18-.23-2.094-.691-2.742-.461-.649-1.11-.973-1.946-.973-.828 0-1.468.324-1.921.973-.454.64-.68 1.637-.68 2.988zm10.934 6.211v-12.68h5.296c1.727 0 3.051.305 3.973.914.922.61 1.383 1.485 1.383 2.625 0 .586-.195 1.114-.586 1.582-.383.461-.945.817-1.688 1.067.907.172 1.618.512 2.133 1.019.524.5.785 1.118.785 1.852 0 1.18-.445 2.078-1.336 2.695-.882.617-2.168.926-3.855.926zm3.386-5.262v2.555h2.731c1.195 0 1.793-.418 1.793-1.254 0-.851-.571-1.285-1.711-1.301zm0-2.273h2.098c1.187-.016 1.781-.399 1.781-1.149 0-.461-.164-.789-.492-.984-.32-.195-.813-.293-1.477-.293h-1.91zm9.457 1.078c0-1.258.242-2.379.727-3.363.484-.985 1.18-1.746 2.086-2.285.914-.54 1.972-.809 3.176-.809 1.71 0 3.105.523 4.183 1.57 1.086 1.047 1.692 2.469 1.817 4.266l.023.867c0 1.945-.543 3.508-1.629 4.688-1.086 1.171-2.543 1.757-4.371 1.757s-3.289-.586-4.383-1.757c-1.086-1.172-1.629-2.766-1.629-4.782zm3.387.246c0 1.203.227 2.125.68 2.766.453.633 1.101.949 1.945.949.82 0 1.461-.313 1.922-.938.461-.632.691-1.64.691-3.023 0-1.18-.23-2.094-.691-2.742-.461-.649-1.11-.973-1.945-.973-.829 0-1.469.324-1.922.973-.453.64-.68 1.637-.68 2.988zm22.125-.012c0 1.953-.445 3.52-1.336 4.7-.883 1.171-2.078 1.757-3.586 1.757-1.281 0-2.316-.445-3.105-1.336v5.977h-3.387v-17.555h3.141l.117 1.242c.82-.984 1.89-1.476 3.211-1.476 1.562 0 2.777.578 3.644 1.734.867 1.157 1.301 2.75 1.301 4.782zm-3.387-.246c0-1.179-.211-2.09-.633-2.73-.414-.641-1.019-.961-1.816-.961-1.062 0-1.793.406-2.191 1.219v5.191c.414.836 1.152 1.254 2.214 1.254 1.618 0 2.426-1.324 2.426-3.973zm22.5-6.211v12.68h-3.386v-9.938h-2.989l-.211 3.915c-.132 2.085-.543 3.605-1.23 4.558-.688.953-1.711 1.442-3.07 1.465h-1.149l-.035-2.754.422-.035c.609-.047 1.054-.406 1.336-1.078.281-.672.457-1.817.527-3.434l.234-5.379zm10.254 0h3.387v12.68h-3.387v-7.828l-4.242 7.828h-3.398v-12.68h3.398v7.817zm12.633 3.739c0-.446-.148-.789-.445-1.032-.289-.25-.703-.375-1.243-.375-.554 0-1.007.118-1.359.352-.344.226-.516.551-.516.973h-3.386c0-1.149.476-2.082 1.429-2.801.954-.719 2.172-1.078 3.657-1.078 1.632 0 2.914.32 3.843.961.938.64 1.407 1.55 1.407 2.73 0 .563-.172 1.082-.516 1.559-.336.468-.812.843-1.43 1.125 1.446.507 2.168 1.488 2.168 2.941 0 1.164-.5 2.094-1.5 2.789-.992.688-2.316 1.031-3.972 1.031-1.539 0-2.805-.359-3.797-1.078-.992-.718-1.488-1.687-1.488-2.906h3.386c0 .43.192.777.574 1.043.383.266.883.398 1.5.398.602 0 1.071-.14 1.407-.421.336-.282.504-.649.504-1.102 0-.555-.161-.949-.481-1.184-.32-.242-.801-.363-1.441-.363h-1.84v-2.203h1.957c1.055-.031 1.582-.484 1.582-1.359zm13.312-3.739h3.387v12.68h-3.387v-7.828l-4.242 7.828h-3.398v-12.68h3.398v7.817zm16.969 12.68h-3.398v-4.875h-4.207v4.875h-3.387v-12.68h3.387v5.086h4.207v-5.086h3.398zm11.262-9.938h-5.25v9.938h-3.387v-12.68h8.637zm8.766 9.938c-.157-.305-.27-.684-.34-1.137-.821.914-1.887 1.371-3.2 1.371-1.242 0-2.273-.359-3.093-1.078-.813-.718-1.219-1.625-1.219-2.718 0-1.344.496-2.376 1.488-3.094 1-.719 2.442-1.082 4.324-1.09h1.559v-.727c0-.586-.152-1.054-.457-1.406-.297-.351-.769-.527-1.418-.527-.57 0-1.019.136-1.348.41-.32.273-.48.648-.48 1.125h-3.387c0-.734.227-1.414.68-2.039s1.094-1.113 1.922-1.465c.828-.359 1.758-.539 2.789-.539 1.562 0 2.801.394 3.715 1.184.922.781 1.383 1.882 1.383 3.304v5.496c.007 1.203.175 2.114.503 2.731v.199zm-2.801-2.355c.5 0 .961-.11 1.383-.329.421-.226.734-.527.937-.902v-2.18h-1.266c-1.695 0-2.597.586-2.707 1.758l-.011.199c0 .422.148.77.445 1.043.297.274.703.411 1.219.411z"/><path d="m373.398 4.9375v17.0625h-3.527v-14.21484h-4.547l-.281 6.02344c-.117 2.0312-.375 3.6328-.773 4.8047-.399 1.164-.981 2.0195-1.747 2.5664-.765.5391-1.812.8125-3.14.8203h-.914v-2.8242l.586-.0586c.883-.1172 1.511-.625 1.886-1.5234.383-.9063.625-2.5157.727-4.8282l.293-7.8281zm10.489 4.38281h3.386v12.67969h-3.386v-7.8281l-4.242 7.8281h-3.399v-12.67969h3.399v7.81639zm12.633 3.73829c0-.4453-.149-.7891-.446-1.0313-.289-.25-.703-.375-1.242-.375-.555 0-1.008.1172-1.359.3516-.344.2266-.516.5508-.516.9727h-3.387c0-1.1485.477-2.0821 1.43-2.8008.953-.71877 2.172-1.07814 3.656-1.07814 1.633 0 2.914.32031 3.844.96094.938.6406 1.406 1.5508 1.406 2.7305 0 .5625-.172 1.082-.515 1.5586-.336.4687-.813.8437-1.43 1.125 1.445.5078 2.168 1.4882 2.168 2.9414 0 1.164-.5 2.0937-1.5 2.789-.992.6875-2.317 1.0313-3.973 1.0313-1.539 0-2.804-.3594-3.797-1.0782-.992-.7187-1.488-1.6874-1.488-2.9062h3.387c0 .4297.191.7773.574 1.043.383.2656.883.3984 1.5.3984.602 0 1.07-.1406 1.406-.4219.336-.2812.504-.6484.504-1.1015 0-.5547-.16-.9492-.48-1.1836-.321-.2422-.801-.3633-1.442-.3633h-1.84v-2.2031h1.958c1.054-.0313 1.582-.4844 1.582-1.3594zm13.312-3.73829h3.387v12.67969h-3.387v-7.8281l-4.242 7.8281h-3.399v-12.67969h3.399v7.81639zm16.969 12.67969h-3.399v-4.875h-4.207v4.875h-3.386v-12.67969h3.386v5.08589h4.207v-5.08589h3.399zm11.261-9.9375h-5.25v9.9375h-3.386v-12.67969h8.636zm.657 3.4805c0-1.2578.242-2.3789.726-3.3633.485-.9844 1.18-1.7461 2.086-2.28517.914-.53906 1.973-.80859 3.176-.80859 1.711 0 3.105.52344 4.184 1.57026 1.086 1.0469 1.691 2.4688 1.816 4.2657l.023.8672c0 1.9453-.542 3.5078-1.628 4.6875-1.086 1.1718-2.543 1.7578-4.372 1.7578-1.828 0-3.289-.586-4.382-1.7578-1.086-1.1719-1.629-2.7657-1.629-4.7813zm3.386.2461c0 1.2031.227 2.125.68 2.7656.453.6328 1.102.9492 1.945.9492.821 0 1.461-.3125 1.922-.9375.461-.6328.692-1.6406.692-3.0234 0-1.1797-.231-2.0938-.692-2.7422-.461-.6485-1.109-.9727-1.945-.9727-.828 0-1.469.3242-1.922.9727-.453.6406-.68 1.6367-.68 2.9883zm10.043 3.4804c.766-.8125 1.286-1.6172 1.559-2.414.273-.7969.426-1.9258.457-3.3867l.094-4.14849h9.328v9.94919h1.828v6.5391h-3.387v-3.8086h-7.511v3.8086h-3.457v-6.5391zm3.997 0h4.066v-7.1484h-2.637l-.023 1.5234c-.071 2.3282-.539 4.2032-1.406 5.625zm18.339 2.7305c-.156-.3047-.269-.6836-.339-1.1367-.821.914-1.887 1.3711-3.2 1.3711-1.242 0-2.273-.3594-3.093-1.0782-.813-.7187-1.219-1.625-1.219-2.7187 0-1.3437.496-2.375 1.488-3.0937 1-.7188 2.441-1.0821 4.324-1.0899h1.559v-.7266c0-.5859-.152-1.0546-.457-1.4062-.297-.3516-.77-.5273-1.418-.5273-.57 0-1.02.1367-1.348.4101-.32.2734-.48.6484-.48 1.125h-3.387c0-.7344.227-1.4141.68-2.0391s1.094-1.11324 1.922-1.4648c.828-.35938 1.757-.53906 2.789-.53906 1.562 0 2.8.39453 3.715 1.18356.921.7813 1.382 1.8828 1.382 3.3047v5.4961c.008 1.2031.176 2.1133.504 2.7305v.1992zm-2.8-2.3555c.5 0 .961-.1093 1.382-.3281.422-.2266.735-.5273.938-.9023v-2.1797h-1.266c-1.695 0-2.597.5859-2.707 1.7578l-.011.1992c0 .4219.148.7695.445 1.043.297.2734.703.4101 1.219.4101zm18.656-7.6054h-4.067v9.9609h-3.398v-9.9609h-3.996v-2.71879h11.461zm6.797 10.1953c-1.86 0-3.375-.5703-4.547-1.711-1.164-1.1406-1.746-2.6601-1.746-4.5586v-.3281c0-1.2734.246-2.4101.738-3.4101.492-1.0078 1.188-1.7813 2.086-2.32035.906-.54687 1.937-.82031 3.094-.82031 1.734 0 3.097.54687 4.09 1.64066 1 1.0937 1.5 2.6445 1.5 4.6523v1.3828h-8.075c.11.8281.438 1.4922.985 1.9922.554.5 1.254.75 2.097.75 1.305 0 2.325-.4727 3.059-1.418l1.664 1.8633c-.508.7188-1.195 1.2813-2.062 1.6875-.868.3985-1.829.5977-2.883.5977zm-.387-10.4063c-.672 0-1.219.2266-1.641.6797-.414.4531-.679 1.1016-.797 1.9453h4.711v-.2695c-.015-.75-.218-1.3281-.609-1.7344-.391-.414-.945-.6211-1.664-.6211zm18.562-2.50779v12.67969h-3.386v-9.9375h-2.988l-.211 3.9141c-.133 2.0859-.543 3.6054-1.231 4.5586-.687.9531-1.711 1.4414-3.07 1.4648h-1.149l-.035-2.7539.422-.0352c.609-.0468 1.055-.4062 1.336-1.0781s.457-1.8164.527-3.4336l.235-5.37889zm6.235 3.71489h2.426c1.093 0 2.054.1836 2.882.5507.829.3672 1.461.8946 1.899 1.5821.445.6797.668 1.4726.668 2.3789 0 1.3359-.496 2.414-1.488 3.2343-.985.8126-2.329 1.2188-4.032 1.2188h-5.754v-12.67969h3.399zm0 2.7187v3.5391h2.402c.672 0 1.188-.1563 1.547-.4688s.539-.7383.539-1.2773c0-.5469-.176-.9805-.527-1.3008-.352-.3281-.871-.4922-1.559-.4922z"/><path d="m56.3438 149.195h-3.2461v-4.195h-10.2891v4.184h-3.3281l-.1875-7.008h1.289c.6953-.578 1.2305-1.426 1.6055-2.543.3828-1.125.6406-2.516.7734-4.172l.4922-7.523h11.1797v14.238h1.9922zm-11.7305-7.019h6.5039v-11.391h-4.3242l-.293 4.488c-.2344 3.008-.8633 5.309-1.8867 6.903zm13.1133-3.633c0-1.258.2422-2.379.7265-3.363.4844-.985 1.1797-1.746 2.086-2.285.914-.54 1.9726-.809 3.1757-.809 1.711 0 3.1055.523 4.1836 1.57 1.086 1.047 1.6914 2.469 1.8164 4.266l.0235.867c0 1.945-.543 3.508-1.6289 4.688-1.086 1.171-2.543 1.757-4.3711 1.757s-3.2891-.586-4.3828-1.757c-1.086-1.172-1.6289-2.766-1.6289-4.782zm3.3867.246c0 1.203.2265 2.125.6797 2.766.4531.633 1.1015.949 1.9453.949.8203 0 1.4609-.313 1.9219-.938.4609-.632.6914-1.64.6914-3.023 0-1.18-.2305-2.094-.6914-2.742-.461-.649-1.1094-.973-1.9454-.973-.8281 0-1.4687.324-1.9218.973-.4532.64-.6797 1.637-.6797 2.988zm19.3476-3.727h-5.25v9.938h-3.3867v-12.68h8.6367zm.6563 3.481c0-1.258.2422-2.379.7266-3.363.4843-.985 1.1796-1.746 2.0859-2.285.9141-.54 1.9726-.809 3.1758-.809 1.7109 0 3.1054.523 4.1836 1.57 1.0859 1.047 1.6914 2.469 1.8164 4.266l.0234.867c0 1.945-.543 3.508-1.6289 4.688-1.0859 1.171-2.543 1.757-4.3711 1.757s-3.2891-.586-4.3828-1.757c-1.0859-1.172-1.6289-2.766-1.6289-4.782zm3.3867.246c0 1.203.2266 2.125.6797 2.766.4531.633 1.1016.949 1.9453.949.8203 0 1.4609-.313 1.9219-.938.4609-.632.6914-1.64.6914-3.023 0-1.18-.2305-2.094-.6914-2.742-.461-.649-1.1094-.973-1.9453-.973-.8282 0-1.4688.324-1.9219.973-.4531.64-.6797 1.637-.6797 2.988zm10.9336 6.211v-12.68h5.2965c1.727 0 3.051.305 3.973.914.922.61 1.383 1.485 1.383 2.625 0 .586-.195 1.114-.586 1.582-.383.461-.945.817-1.688 1.067.907.172 1.618.512 2.133 1.019.524.5.785 1.118.785 1.852 0 1.18-.445 2.078-1.336 2.695-.882.617-2.168.926-3.855.926zm3.3867-5.262v2.555h2.7308c1.195 0 1.793-.418 1.793-1.254 0-.851-.571-1.285-1.711-1.301zm0-2.273h2.0978c1.187-.016 1.781-.399 1.781-1.149 0-.461-.164-.789-.492-.984-.32-.195-.813-.293-1.477-.293h-1.9098zm9.4568 1.078c0-1.258.242-2.379.727-3.363.484-.985 1.18-1.746 2.086-2.285.914-.54 1.972-.809 3.176-.809 1.71 0 3.105.523 4.183 1.57 1.086 1.047 1.692 2.469 1.817 4.266l.023.867c0 1.945-.543 3.508-1.629 4.688-1.086 1.171-2.543 1.757-4.371 1.757s-3.289-.586-4.383-1.757c-1.086-1.172-1.629-2.766-1.629-4.782zm3.387.246c0 1.203.227 2.125.68 2.766.453.633 1.101.949 1.945.949.82 0 1.461-.313 1.922-.938.461-.632.691-1.64.691-3.023 0-1.18-.23-2.094-.691-2.742-.461-.649-1.11-.973-1.945-.973-.829 0-1.469.324-1.922.973-.453.64-.68 1.637-.68 2.988zm22.125-.012c0 1.953-.445 3.52-1.336 4.7-.883 1.171-2.078 1.757-3.586 1.757-1.281 0-2.316-.445-3.105-1.336v5.977h-3.387v-17.555h3.141l.117 1.242c.82-.984 1.89-1.476 3.211-1.476 1.562 0 2.777.578 3.644 1.734.867 1.157 1.301 2.75 1.301 4.782zm-3.387-.246c0-1.179-.211-2.09-.633-2.73-.414-.641-1.019-.961-1.816-.961-1.062 0-1.793.406-2.191 1.219v5.191c.414.836 1.152 1.254 2.214 1.254 1.618 0 2.426-1.324 2.426-3.973zm16.442 1.793h-1.36v4.676h-3.386v-12.68h3.386v4.77h1.207l2.766-4.77h4.277l-4.148 6.035 4.535 6.645h-4.512zm13.289-.117 2.343-7.887h3.633l-5.097 14.649-.282.668c-.757 1.656-2.007 2.484-3.75 2.484-.492 0-.992-.074-1.5-.223v-2.566l.516.012c.641 0 1.117-.098 1.43-.293.32-.196.57-.52.75-.973l.398-1.043-4.441-12.715h3.644zm18.34 4.793h-3.399v-9.938h-4.242v9.938h-3.387v-12.68h11.028zm13.617-12.68v12.68h-3.387v-9.938h-2.988l-.211 3.915c-.133 2.085-.543 3.605-1.231 4.558-.687.953-1.711 1.442-3.07 1.465h-1.148l-.036-2.754.422-.035c.61-.047 1.055-.406 1.336-1.078s.457-1.817.528-3.434l.234-5.379zm10.254 0h3.386v12.68h-3.386v-7.828l-4.243 7.828h-3.398v-12.68h3.398v7.817zm12.562 6.739h-6.598v-2.731h6.598zm13.746 5.941h-3.398v-9.938h-4.242v9.938h-3.387v-12.68h11.027zm14.004-6.223c0 1.953-.445 3.52-1.336 4.7-.883 1.171-2.078 1.757-3.586 1.757-1.281 0-2.316-.445-3.105-1.336v5.977h-3.387v-17.555h3.141l.117 1.242c.82-.984 1.891-1.476 3.211-1.476 1.562 0 2.777.578 3.644 1.734.868 1.157 1.301 2.75 1.301 4.782zm-3.387-.246c0-1.179-.211-2.09-.632-2.73-.414-.641-1.02-.961-1.817-.961-1.062 0-1.793.406-2.191 1.219v5.191c.414.836 1.152 1.254 2.215 1.254 1.617 0 2.425-1.324 2.425-3.973zm4.969.012c0-1.258.242-2.379.727-3.363.484-.985 1.179-1.746 2.086-2.285.914-.54 1.972-.809 3.175-.809 1.711 0 3.106.523 4.184 1.57 1.086 1.047 1.691 2.469 1.816 4.266l.024.867c0 1.945-.543 3.508-1.629 4.688-1.086 1.171-2.543 1.757-4.371 1.757s-3.289-.586-4.383-1.757c-1.086-1.172-1.629-2.766-1.629-4.782zm3.387.246c0 1.203.226 2.125.68 2.766.453.633 1.101.949 1.945.949.82 0 1.461-.313 1.922-.938.461-.632.691-1.64.691-3.023 0-1.18-.23-2.094-.691-2.742-.461-.649-1.11-.973-1.946-.973-.828 0-1.468.324-1.921.973-.454.64-.68 1.637-.68 2.988zm10.043 3.481c.766-.813 1.285-1.618 1.558-2.415.274-.796.426-1.925.458-3.386l.093-4.149h9.328v9.95h1.829v6.539h-3.387v-3.809h-7.512v3.809h-3.457v-6.539zm3.996 0h4.066v-7.149h-2.636l-.024 1.524c-.07 2.328-.539 4.203-1.406 5.625zm18.34 2.73c-.156-.305-.27-.684-.34-1.137-.82.914-1.887 1.371-3.199 1.371-1.242 0-2.274-.359-3.094-1.078-.813-.718-1.219-1.625-1.219-2.718 0-1.344.496-2.376 1.489-3.094 1-.719 2.441-1.082 4.324-1.09h1.558v-.727c0-.586-.152-1.054-.457-1.406-.297-.351-.769-.527-1.418-.527-.57 0-1.019.136-1.347.41-.321.273-.481.648-.481 1.125h-3.386c0-.734.226-1.414.679-2.039s1.094-1.113 1.922-1.465c.828-.359 1.758-.539 2.789-.539 1.563 0 2.801.394 3.715 1.184.922.781 1.383 1.882 1.383 3.304v5.496c.008 1.203.176 2.114.504 2.731v.199zm-2.801-2.355c.5 0 .961-.11 1.383-.329.422-.226.734-.527.937-.902v-2.18h-1.265c-1.696 0-2.598.586-2.707 1.758l-.012.199c0 .422.148.77.445 1.043.297.274.703.411 1.219.411zm20.52-2.344h-1.536v4.699h-3.386v-4.699h-1.512l-2.52 4.699h-4.089l3.996-6.633-3.95-6.047h4.196l2.636 4.735h1.243v-4.735h3.386v4.735h1.266l2.648-4.735h4.196l-3.926 5.965 4.031 6.715h-4.16zm15.949-7.981h3.386v12.68h-3.386v-7.828l-4.242 7.828h-3.399v-12.68h3.399v7.817z"/><path d="m31.1836 300h-3.5274v-14.215h-6.832v14.215h-3.5156v-17.062h13.875zm14.2852-6.223c0 1.953-.4454 3.52-1.336 4.7-.8828 1.171-2.0781 1.757-3.5859 1.757-1.2813 0-2.3164-.445-3.1055-1.336v5.977h-3.3867v-17.555h3.1406l.1172 1.242c.8203-.984 1.8906-1.476 3.2109-1.476 1.5625 0 2.7774.578 3.6446 1.734.8672 1.157 1.3008 2.75 1.3008 4.782zm-3.3868-.246c0-1.179-.2109-2.09-.6328-2.73-.414-.641-1.0195-.961-1.8164-.961-1.0625 0-1.793.406-2.1914 1.219v5.191c.4141.836 1.1524 1.254 2.2148 1.254 1.6172 0 2.4258-1.324 2.4258-3.973zm4.9688.012c0-1.258.2422-2.379.7265-3.363.4844-.985 1.1797-1.746 2.086-2.285.914-.54 1.9726-.809 3.1758-.809 1.7109 0 3.1054.523 4.1836 1.57 1.0859 1.047 1.6914 2.469 1.8164 4.266l.0234.867c0 1.945-.543 3.508-1.6289 4.688-1.0859 1.171-2.543 1.757-4.3711 1.757s-3.2891-.586-4.3828-1.757c-1.0859-1.172-1.6289-2.766-1.6289-4.782zm3.3867.246c0 1.203.2266 2.125.6797 2.766.4531.633 1.1016.949 1.9453.949.8203 0 1.4609-.313 1.9219-.938.4609-.632.6914-1.64.6914-3.023 0-1.18-.2305-2.094-.6914-2.742-.461-.649-1.1094-.973-1.9453-.973-.8282 0-1.4688.324-1.9219.973-.4531.64-.6797 1.637-.6797 2.988zm10.043 3.481c.7656-.813 1.2851-1.618 1.5586-2.415.2734-.796.4257-1.925.457-3.386l.0937-4.149h9.3282v9.95h1.8281v6.539h-3.3867v-3.809h-7.5117v3.809h-3.4571v-6.539zm3.9961 0h4.0664v-7.149h-2.6368l-.0234 1.524c-.0703 2.328-.539 4.203-1.4062 5.625zm18.3398 2.73c-.1562-.305-.2695-.684-.3398-1.137-.8204.914-1.8868 1.371-3.1993 1.371-1.2421 0-2.2734-.359-3.0937-1.078-.8125-.718-1.2188-1.625-1.2188-2.718 0-1.344.4961-2.376 1.4883-3.094 1-.719 2.4414-1.082 4.3242-1.09h1.5586v-.727c0-.586-.1523-1.054-.457-1.406-.2969-.351-.7695-.527-1.418-.527-.5703 0-1.0195.136-1.3476.41-.3203.273-.4805.648-.4805 1.125h-3.3867c0-.734.2266-1.414.6797-2.039s1.0937-1.113 1.9219-1.465c.8281-.359 1.7578-.539 2.789-.539 1.5625 0 2.8008.394 3.7149 1.184.9218.781 1.3828 1.882 1.3828 3.304v5.496c.0078 1.203.1758 2.114.5039 2.731v.199zm-2.8008-2.355c.5 0 .961-.11 1.3828-.329.4219-.226.7344-.527.9375-.902v-2.18h-1.2656c-1.6953 0-2.5976.586-2.707 1.758l-.0117.199c0 .422.1484.77.4453 1.043.2969.274.7031.411 1.2187.411zm8.543 2.355v-12.68h5.2969c1.7265 0 3.0507.305 3.9726.914.9219.61 1.3828 1.485 1.3828 2.625 0 .586-.1953 1.114-.5859 1.582-.3828.461-.9453.817-1.6875 1.067.9063.172 1.6172.512 2.1328 1.019.5235.5.7852 1.118.7852 1.852 0 1.18-.4453 2.078-1.336 2.695-.8828.617-2.1679.926-3.8554.926zm3.3867-5.262v2.555h2.7305c1.1953 0 1.793-.418 1.793-1.254 0-.851-.5704-1.285-1.711-1.301zm0-2.273h2.0977c1.1875-.016 1.7812-.399 1.7812-1.149 0-.461-.164-.789-.4922-.984-.3203-.195-.8125-.293-1.4765-.293h-1.9102zm15.8207 7.769c-1.86 0-3.375-.57-4.547-1.711-1.164-1.14-1.746-2.66-1.746-4.558v-.328c0-1.274.246-2.41.738-3.41.492-1.008 1.187-1.782 2.086-2.321.906-.547 1.937-.82 3.094-.82 1.734 0 3.097.547 4.089 1.641 1 1.093 1.5 2.644 1.5 4.652v1.383h-8.074c.11.828.438 1.492.985 1.992.554.5 1.254.75 2.097.75 1.305 0 2.324-.473 3.059-1.418l1.664 1.863c-.508.719-1.195 1.281-2.063 1.688-.867.398-1.828.597-2.882.597zm-.387-10.406c-.672 0-1.219.227-1.641.68-.414.453-.679 1.101-.797 1.945h4.711v-.269c-.015-.75-.218-1.329-.609-1.735-.391-.414-.945-.621-1.664-.621zm7.535-2.508h3.387v9.95h4.242v-9.95h3.398v9.973h1.899l-.235 6.469h-3.152v-3.762h-9.539zm-113.39056 33.742c0-1.789.23828-3.492.71484-5.109s1.17969-3.047 2.10938-4.289c.92968-1.25 1.9375-2.117 3.02343-2.602l.65625 1.829c-1.14062.843-2.03125 2.148-2.67187 3.914-.64063 1.765-.96094 3.828-.96094 6.187v.363c0 2.368.31641 4.438.94922 6.211.63281 1.774 1.52734 3.098 2.68359 3.973l-.65625 1.793c-1.0625-.477-2.05468-1.32-2.97656-2.531-.91406-1.203-1.61328-2.594-2.09765-4.172-.48438-1.578-.74219-3.227-.77344-4.945zm19.31246 6.938h-3.3984v-9.938h-4.2422v9.938h-3.38671v-12.68h11.02731zm2.0625-6.457c0-1.258.2422-2.379.7266-3.363.4844-.985 1.1797-1.746 2.0859-2.285.9141-.54 1.9727-.809 3.1758-.809 1.711 0 3.1055.523 4.1836 1.57 1.0859 1.047 1.6914 2.469 1.8164 4.266l.0235.867c0 1.945-.543 3.508-1.629 4.688-1.0859 1.171-2.5429 1.757-4.371 1.757-1.8282 0-3.2891-.586-4.3829-1.757-1.0859-1.172-1.6289-2.766-1.6289-4.782zm3.3868.246c0 1.203.2265 2.125.6796 2.766.4532.633 1.1016.949 1.9454.949.8203 0 1.4609-.313 1.9218-.938.461-.632.6914-1.64.6914-3.023 0-1.18-.2304-2.094-.6914-2.742-.4609-.649-1.1093-.973-1.9453-.973-.8281 0-1.4687.324-1.9219.973-.4531.64-.6796 1.637-.6796 2.988zm15.9843 3.715c.625 0 1.1328-.172 1.5235-.516.3906-.343.5937-.8.6093-1.371h3.1758c-.0078.86-.2422 1.649-.7031 2.367-.4609.711-1.0938 1.266-1.8984 1.664-.7969.391-1.6797.586-2.6485.586-1.8125 0-3.2422-.574-4.289-1.722-1.0469-1.157-1.5703-2.75-1.5703-4.782v-.222c0-1.953.5195-3.512 1.5585-4.676 1.0391-1.164 2.4649-1.746 4.2774-1.746 1.5859 0 2.8555.453 3.8086 1.359.9609.899 1.4492 2.098 1.4648 3.598h-3.1758c-.0156-.656-.2187-1.188-.6093-1.594-.3907-.414-.9063-.621-1.5469-.621-.7891 0-1.3867.289-1.793.867-.3984.571-.5976 1.5-.5976 2.789v.352c0 1.305.1992 2.242.5976 2.812.3985.571 1.0039.856 1.8164.856zm17.7657-7.465h-4.0664v9.961h-3.3985v-9.961h-3.9961v-2.719h11.461zm8.871 9.961c-.1562-.305-.2695-.684-.3398-1.137-.8203.914-1.8867 1.371-3.1992 1.371-1.2422 0-2.2734-.359-3.0938-1.078-.8125-.718-1.2187-1.625-1.2187-2.718 0-1.344.4961-2.376 1.4883-3.094 1-.719 2.4414-1.082 4.3242-1.09h1.5586v-.727c0-.586-.1524-1.054-.457-1.406-.2969-.351-.7696-.527-1.418-.527-.5703 0-1.0196.136-1.3477.41-.3203.273-.4804.648-.4804 1.125h-3.3868c0-.734.2266-1.414.6797-2.039.4532-.625 1.0938-1.113 1.9219-1.465.8281-.359 1.7578-.539 2.7891-.539 1.5625 0 2.8007.394 3.7148 1.184.9219.781 1.3828 1.882 1.3828 3.304v5.496c.0078 1.203.1758 2.114.5039 2.731v.199zm-2.8007-2.355c.5 0 .9609-.11 1.3828-.329.4219-.226.7344-.527.9375-.902v-2.18h-1.2656c-1.6954 0-2.5977.586-2.7071 1.758l-.0117.199c0 .422.1484.77.4453 1.043.2969.274.7031.411 1.2188.411zm8.5429 2.355v-12.68h5.2969c1.7266 0 3.0508.305 3.9727.914.9218.61 1.3828 1.485 1.3828 2.625 0 .586-.1953 1.114-.586 1.582-.3828.461-.9453.817-1.6875 1.067.9063.172 1.6172.512 2.1329 1.019.5234.5.7851 1.118.7851 1.852 0 1.18-.4453 2.078-1.3359 2.695-.8828.617-2.168.926-3.8555.926zm3.3868-5.262v2.555h2.7304c1.1953 0 1.793-.418 1.793-1.254 0-.851-.5703-1.285-1.7109-1.301zm0-2.273h2.0976c1.1875-.016 1.7813-.399 1.7813-1.149 0-.461-.1641-.789-.4922-.984-.3203-.195-.8125-.293-1.4766-.293h-1.9101zm13.3359-5.145v9.95h3.4805v-9.95h3.3984v9.95h3.469v-9.95h3.398v9.973h2.52l-.235 6.469h-3.152v-3.762h-16.2656v-12.68zm25.8989 0h3.386v12.68h-3.386v-7.828l-4.243 7.828h-3.398v-12.68h3.398v7.817zm10.945 8.004h-1.36v4.676h-3.386v-12.68h3.386v4.77h1.207l2.766-4.77h4.277l-4.148 6.035 4.535 6.645h-4.512zm14.39-1.992c0 1.766-.253 3.465-.761 5.098-.508 1.632-1.239 3.074-2.192 4.324s-1.972 2.109-3.058 2.578l-.656-1.793c1.109-.836 1.984-2.125 2.624-3.867.641-1.742.973-3.746.997-6.012v-.621c0-2.336-.321-4.394-.961-6.176-.633-1.781-1.52-3.117-2.66-4.008l.656-1.793c1.062.461 2.062 1.297 3 2.508.945 1.211 1.676 2.621 2.191 4.231.524 1.609.797 3.277.82 5.004z"/><path d="m321.727 300h-3.528v-14.215h-6.832v14.215h-3.515v-17.062h13.875zm2.343-6.457c0-1.258.242-2.379.727-3.363.484-.985 1.18-1.746 2.086-2.285.914-.54 1.972-.809 3.176-.809 1.711 0 3.105.523 4.183 1.57 1.086 1.047 1.692 2.469 1.817 4.266l.023.867c0 1.945-.543 3.508-1.629 4.688-1.086 1.171-2.543 1.757-4.371 1.757s-3.289-.586-4.383-1.757c-1.086-1.172-1.629-2.766-1.629-4.782zm3.387.246c0 1.203.227 2.125.68 2.766.453.633 1.101.949 1.945.949.82 0 1.461-.313 1.922-.938.461-.632.691-1.64.691-3.023 0-1.18-.23-2.094-.691-2.742-.461-.649-1.109-.973-1.945-.973-.829 0-1.469.324-1.922.973-.453.64-.68 1.637-.68 2.988zm15.984 3.715c.625 0 1.133-.172 1.524-.516.39-.343.594-.8.609-1.371h3.176c-.008.86-.242 1.649-.703 2.367-.461.711-1.094 1.266-1.899 1.664-.796.391-1.679.586-2.648.586-1.812 0-3.242-.574-4.289-1.722-1.047-1.157-1.57-2.75-1.57-4.782v-.222c0-1.953.519-3.512 1.558-4.676s2.465-1.746 4.278-1.746c1.585 0 2.855.453 3.808 1.359.961.899 1.449 2.098 1.465 3.598h-3.176c-.015-.656-.219-1.188-.609-1.594-.391-.414-.906-.621-1.547-.621-.789 0-1.387.289-1.793.867-.398.571-.598 1.5-.598 2.789v.352c0 1.305.2 2.242.598 2.812.398.571 1.004.856 1.816.856zm17.766-7.465h-4.066v9.961h-3.399v-9.961h-3.996v-2.719h11.461zm8.871 9.961c-.156-.305-.269-.684-.34-1.137-.82.914-1.886 1.371-3.199 1.371-1.242 0-2.273-.359-3.094-1.078-.812-.718-1.218-1.625-1.218-2.718 0-1.344.496-2.376 1.488-3.094 1-.719 2.441-1.082 4.324-1.09h1.559v-.727c0-.586-.153-1.054-.457-1.406-.297-.351-.77-.527-1.418-.527-.571 0-1.02.136-1.348.41-.32.273-.48.648-.48 1.125h-3.387c0-.734.226-1.414.68-2.039.453-.625 1.093-1.113 1.921-1.465.829-.359 1.758-.539 2.789-.539 1.563 0 2.801.394 3.715 1.184.922.781 1.383 1.882 1.383 3.304v5.496c.008 1.203.176 2.114.504 2.731v.199zm-2.801-2.355c.5 0 .961-.11 1.383-.329.422-.226.735-.527.938-.902v-2.18h-1.266c-1.695 0-2.598.586-2.707 1.758l-.012.199c0 .422.149.77.446 1.043.296.274.703.411 1.218.411zm8.543 2.355v-12.68h5.297c1.727 0 3.051.305 3.973.914.922.61 1.383 1.485 1.383 2.625 0 .586-.196 1.114-.586 1.582-.383.461-.946.817-1.688 1.067.906.172 1.617.512 2.133 1.019.523.5.785 1.118.785 1.852 0 1.18-.445 2.078-1.336 2.695-.883.617-2.168.926-3.855.926zm3.387-5.262v2.555h2.731c1.195 0 1.792-.418 1.792-1.254 0-.851-.57-1.285-1.71-1.301zm0-2.273h2.098c1.187-.016 1.781-.399 1.781-1.149 0-.461-.164-.789-.492-.984-.321-.195-.813-.293-1.477-.293h-1.91zm14.953 2.859h-1.359v4.676h-3.387v-12.68h3.387v4.77h1.207l2.765-4.77h4.278l-4.149 6.035 4.536 6.645h-4.512zm15.902 4.676c-.156-.305-.269-.684-.339-1.137-.821.914-1.887 1.371-3.2 1.371-1.242 0-2.273-.359-3.093-1.078-.813-.718-1.219-1.625-1.219-2.718 0-1.344.496-2.376 1.488-3.094 1-.719 2.442-1.082 4.324-1.09h1.559v-.727c0-.586-.152-1.054-.457-1.406-.297-.351-.77-.527-1.418-.527-.57 0-1.019.136-1.348.41-.32.273-.48.648-.48 1.125h-3.387c0-.734.227-1.414.68-2.039s1.094-1.113 1.922-1.465c.828-.359 1.758-.539 2.789-.539 1.562 0 2.801.394 3.715 1.184.922.781 1.382 1.882 1.382 3.304v5.496c.008 1.203.176 2.114.504 2.731v.199zm-2.8-2.355c.5 0 .961-.11 1.383-.329.421-.226.734-.527.937-.902v-2.18h-1.266c-1.695 0-2.597.586-2.707 1.758l-.011.199c0 .422.148.77.445 1.043.297.274.703.411 1.219.411zm13.769-4.102c0-1.258.242-2.379.727-3.363.484-.985 1.18-1.746 2.086-2.285.914-.54 1.972-.809 3.176-.809 1.71 0 3.105.523 4.183 1.57 1.086 1.047 1.692 2.469 1.817 4.266l.023.867c0 1.945-.543 3.508-1.629 4.688-1.086 1.171-2.543 1.757-4.371 1.757s-3.289-.586-4.383-1.757c-1.086-1.172-1.629-2.766-1.629-4.782zm3.387.246c0 1.203.227 2.125.68 2.766.453.633 1.101.949 1.945.949.82 0 1.461-.313 1.922-.938.461-.632.691-1.64.691-3.023 0-1.18-.23-2.094-.691-2.742-.461-.649-1.11-.973-1.945-.973-.829 0-1.469.324-1.922.973-.453.64-.68 1.637-.68 2.988zm17.004-5.766c1.625 0 2.922.539 3.89 1.618.969 1.078 1.454 2.543 1.454 4.394v.164c0 1.828-.539 3.293-1.618 4.395-1.078 1.101-2.527 1.652-4.347 1.652-1.828 0-3.285-.594-4.371-1.781-1.078-1.195-1.618-2.817-1.618-4.863v-.563c.016-2.851.497-5.082 1.442-6.691.953-1.618 2.383-2.637 4.289-3.059 1-.219 1.645-.434 1.934-.644.289-.219.433-.52.433-.903h2.742c0 1.227-.332 2.149-.996 2.766-.656.617-1.828 1.094-3.515 1.43-1 .203-1.789.597-2.368 1.183-.578.586-.968 1.41-1.171 2.473 1.078-1.047 2.351-1.571 3.82-1.571zm-.645 2.743c-.804 0-1.437.269-1.898.808-.453.539-.68 1.414-.68 2.625 0 1.078.223 1.903.668 2.473.445.562 1.09.844 1.934.844.82 0 1.453-.278 1.898-.832.446-.555.672-1.372.68-2.45v-.281c0-1.039-.231-1.828-.691-2.367-.454-.547-1.09-.82-1.911-.82zm7.489 2.777c0-1.258.242-2.379.726-3.363.485-.985 1.18-1.746 2.086-2.285.914-.54 1.973-.809 3.176-.809 1.711 0 3.105.523 4.184 1.57 1.085 1.047 1.691 2.469 1.816 4.266l.023.867c0 1.945-.543 3.508-1.629 4.688-1.086 1.171-2.543 1.757-4.371 1.757s-3.289-.586-4.382-1.757c-1.086-1.172-1.629-2.766-1.629-4.782zm3.386.246c0 1.203.227 2.125.68 2.766.453.633 1.102.949 1.945.949.821 0 1.461-.313 1.922-.938.461-.632.692-1.64.692-3.023 0-1.18-.231-2.094-.692-2.742-.461-.649-1.109-.973-1.945-.973-.828 0-1.469.324-1.922.973-.453.64-.68 1.637-.68 2.988zm22.125-.012c0 1.953-.445 3.52-1.336 4.7-.882 1.171-2.078 1.757-3.586 1.757-1.281 0-2.316-.445-3.105-1.336v5.977h-3.387v-17.555h3.141l.117 1.242c.82-.984 1.891-1.476 3.211-1.476 1.563 0 2.777.578 3.645 1.734.867 1.157 1.3 2.75 1.3 4.782zm-3.386-.246c0-1.179-.211-2.09-.633-2.73-.414-.641-1.02-.961-1.817-.961-1.062 0-1.793.406-2.191 1.219v5.191c.414.836 1.152 1.254 2.215 1.254 1.617 0 2.426-1.324 2.426-3.973zm10.089 1.676 2.344-7.887h3.633l-5.098 14.649-.281.668c-.758 1.656-2.008 2.484-3.75 2.484-.492 0-.992-.074-1.5-.223v-2.566l.516.012c.64 0 1.117-.098 1.429-.293.321-.196.571-.52.75-.973l.399-1.043-4.442-12.715h3.645zm6.832 2.063c.766-.813 1.286-1.618 1.559-2.415.274-.796.426-1.925.457-3.386l.094-4.149h9.328v9.95h1.828v6.539h-3.387v-3.809h-7.511v3.809h-3.457v-6.539zm3.997 0h4.066v-7.149h-2.637l-.023 1.524c-.07 2.328-.539 4.203-1.406 5.625zm10.464-3.727c0-1.258.243-2.379.727-3.363.484-.985 1.18-1.746 2.086-2.285.914-.54 1.973-.809 3.176-.809 1.711 0 3.105.523 4.183 1.57 1.086 1.047 1.692 2.469 1.817 4.266l.023.867c0 1.945-.543 3.508-1.629 4.688-1.086 1.171-2.543 1.757-4.371 1.757s-3.289-.586-4.383-1.757c-1.086-1.172-1.629-2.766-1.629-4.782zm3.387.246c0 1.203.227 2.125.68 2.766.453.633 1.101.949 1.945.949.82 0 1.461-.313 1.922-.938.461-.632.691-1.64.691-3.023 0-1.18-.23-2.094-.691-2.742-.461-.649-1.109-.973-1.945-.973-.828 0-1.469.324-1.922.973-.453.64-.68 1.637-.68 2.988zm10.934 6.211v-12.68h5.297c1.726 0 3.05.305 3.972.914.922.61 1.383 1.485 1.383 2.625 0 .586-.195 1.114-.586 1.582-.383.461-.945.817-1.687 1.067.906.172 1.617.512 2.132 1.019.524.5.786 1.118.786 1.852 0 1.18-.446 2.078-1.336 2.695-.883.617-2.168.926-3.856.926zm3.386-5.262v2.555h2.731c1.195 0 1.793-.418 1.793-1.254 0-.851-.57-1.285-1.711-1.301zm0-2.273h2.098c1.188-.016 1.781-.399 1.781-1.149 0-.461-.164-.789-.492-.984-.32-.195-.812-.293-1.476-.293h-1.911zm17.332 7.535c-.156-.305-.269-.684-.339-1.137-.821.914-1.887 1.371-3.2 1.371-1.242 0-2.273-.359-3.093-1.078-.813-.718-1.219-1.625-1.219-2.718 0-1.344.496-2.376 1.488-3.094 1-.719 2.442-1.082 4.324-1.09h1.559v-.727c0-.586-.152-1.054-.457-1.406-.297-.351-.77-.527-1.418-.527-.57 0-1.019.136-1.348.41-.32.273-.48.648-.48 1.125h-3.387c0-.734.227-1.414.68-2.039s1.094-1.113 1.922-1.465c.828-.359 1.758-.539 2.789-.539 1.562 0 2.801.394 3.715 1.184.922.781 1.382 1.882 1.382 3.304v5.496c.008 1.203.176 2.114.504 2.731v.199zm-2.8-2.355c.5 0 .961-.11 1.383-.329.421-.226.734-.527.937-.902v-2.18h-1.266c-1.695 0-2.597.586-2.707 1.758l-.011.199c0 .422.148.77.445 1.043.297.274.703.411 1.219.411zm19.312 2.355h-3.398v-4.875h-4.207v4.875h-3.387v-12.68h3.387v5.086h4.207v-5.086h3.398zm10.266-12.68h3.387v12.68h-3.387v-7.828l-4.242 7.828h-3.399v-12.68h3.399v7.817zm16.547 0v12.68h-3.375v-4.383h-2.145l-2.437 4.383h-3.434l2.766-4.957c-.758-.352-1.344-.828-1.758-1.43-.406-.601-.609-1.285-.609-2.051 0-1.226.472-2.23 1.417-3.011.954-.789 2.227-1.199 3.821-1.231zm-5.696 5.93h2.321v-3.211h-2.203c-.602 0-1.09.16-1.465.481-.375.312-.563.695-.563 1.148s.18.828.539 1.125c.36.297.817.449 1.371.457zm-234.492 27.812c0-1.789.239-3.492.715-5.109.477-1.617 1.18-3.047 2.109-4.289.93-1.25 1.938-2.117 3.024-2.602l.656 1.829c-1.141.843-2.031 2.148-2.672 3.914-.64 1.765-.961 3.828-.961 6.187v.363c0 2.368.317 4.438.95 6.211.632 1.774 1.527 3.098 2.683 3.973l-.656 1.793c-1.063-.477-2.055-1.32-2.977-2.531-.914-1.203-1.613-2.594-2.097-4.172-.485-1.578-.743-3.227-.774-4.945zm19.313 6.938h-3.399v-9.938h-4.242v9.938h-3.387v-12.68h11.028zm14.004-6.223c0 1.953-.446 3.52-1.336 4.7-.883 1.171-2.078 1.757-3.586 1.757-1.282 0-2.317-.445-3.106-1.336v5.977h-3.386v-17.555h3.14l.117 1.242c.821-.984 1.891-1.476 3.211-1.476 1.563 0 2.778.578 3.645 1.734.867 1.157 1.301 2.75 1.301 4.782zm-3.387-.246c0-1.179-.211-2.09-.633-2.73-.414-.641-1.019-.961-1.816-.961-1.063 0-1.793.406-2.192 1.219v5.191c.414.836 1.153 1.254 2.215 1.254 1.617 0 2.426-1.324 2.426-3.973zm11.332 6.703c-1.859 0-3.375-.57-4.547-1.711-1.164-1.14-1.746-2.66-1.746-4.558v-.328c0-1.274.246-2.41.738-3.41.492-1.008 1.188-1.782 2.086-2.321.906-.547 1.938-.82 3.094-.82 1.734 0 3.098.547 4.09 1.641 1 1.093 1.5 2.644 1.5 4.652v1.383h-8.074c.109.828.437 1.492.984 1.992.555.5 1.254.75 2.098.75 1.304 0 2.324-.473 3.058-1.418l1.664 1.863c-.508.719-1.195 1.281-2.062 1.688-.867.398-1.828.597-2.883.597zm-.387-10.406c-.672 0-1.219.227-1.64.68-.414.453-.68 1.101-.797 1.945h4.711v-.269c-.016-.75-.219-1.329-.61-1.735-.39-.414-.945-.621-1.664-.621zm7.711 7.442c.766-.813 1.285-1.618 1.559-2.415.273-.796.426-1.925.457-3.386l.094-4.149h9.328v9.95h1.828v6.539h-3.387v-3.809h-7.512v3.809h-3.457v-6.539zm3.996 0h4.067v-7.149h-2.637l-.023 1.524c-.071 2.328-.54 4.203-1.407 5.625zm18.504-1.266 3.317-8.684h4.242v12.68h-3.387v-7.781l-3.035 7.781h-2.274l-2.976-7.652v7.652h-3.387v-12.68h4.207zm16.348 4.23c-1.86 0-3.375-.57-4.547-1.711-1.164-1.14-1.746-2.66-1.746-4.558v-.328c0-1.274.246-2.41.738-3.41.492-1.008 1.188-1.782 2.086-2.321.906-.547 1.938-.82 3.094-.82 1.734 0 3.097.547 4.09 1.641 1 1.093 1.5 2.644 1.5 4.652v1.383h-8.075c.11.828.438 1.492.985 1.992.554.5 1.254.75 2.097.75 1.305 0 2.325-.473 3.059-1.418l1.664 1.863c-.508.719-1.195 1.281-2.062 1.688-.868.398-1.828.597-2.883.597zm-.387-10.406c-.672 0-1.219.227-1.641.68-.414.453-.679 1.101-.796 1.945h4.711v-.269c-.016-.75-.219-1.329-.61-1.735-.39-.414-.945-.621-1.664-.621zm17.918.211h-4.066v9.961h-3.399v-9.961h-3.996v-2.719h11.461zm18.715-2.719v12.68h-3.387v-9.938h-2.988l-.211 3.915c-.133 2.085-.543 3.605-1.231 4.558-.687.953-1.71 1.442-3.07 1.465h-1.148l-.035-2.754.421-.035c.61-.047 1.055-.406 1.336-1.078.282-.672.457-1.817.528-3.434l.234-5.379zm10.254 0h3.387v12.68h-3.387v-7.828l-4.242 7.828h-3.399v-12.68h3.399v7.817zm12.633 3.739c0-.446-.149-.789-.446-1.032-.289-.25-.703-.375-1.242-.375-.555 0-1.008.118-1.359.352-.344.226-.516.551-.516.973h-3.387c0-1.149.477-2.082 1.43-2.801s2.172-1.078 3.656-1.078c1.633 0 2.914.32 3.844.961.938.64 1.406 1.55 1.406 2.73 0 .563-.172 1.082-.515 1.559-.336.468-.813.843-1.43 1.125 1.445.507 2.168 1.488 2.168 2.941 0 1.164-.5 2.094-1.5 2.789-.992.688-2.316 1.031-3.973 1.031-1.539 0-2.804-.359-3.797-1.078-.992-.718-1.488-1.687-1.488-2.906h3.387c0 .43.191.777.574 1.043s.883.398 1.5.398c.602 0 1.07-.14 1.406-.421.336-.282.504-.649.504-1.102 0-.555-.16-.949-.48-1.184-.32-.242-.801-.363-1.442-.363h-1.839v-2.203h1.957c1.054-.031 1.582-.484 1.582-1.359zm13.312-3.739h3.387v12.68h-3.387v-7.828l-4.242 7.828h-3.398v-12.68h3.398v7.817zm16.969 12.68h-3.399v-4.875h-4.207v4.875h-3.386v-12.68h3.386v5.086h4.207v-5.086h3.399zm11.262-9.938h-5.25v9.938h-3.387v-12.68h8.637zm8.765 9.938c-.156-.305-.269-.684-.34-1.137-.82.914-1.886 1.371-3.199 1.371-1.242 0-2.273-.359-3.094-1.078-.812-.718-1.218-1.625-1.218-2.718 0-1.344.496-2.376 1.488-3.094 1-.719 2.441-1.082 4.324-1.09h1.559v-.727c0-.586-.153-1.054-.457-1.406-.297-.351-.77-.527-1.418-.527-.571 0-1.02.136-1.348.41-.32.273-.48.648-.48 1.125h-3.387c0-.734.226-1.414.68-2.039.453-.625 1.093-1.113 1.921-1.465.829-.359 1.758-.539 2.79-.539 1.562 0 2.8.394 3.714 1.184.922.781 1.383 1.882 1.383 3.304v5.496c.008 1.203.176 2.114.504 2.731v.199zm-2.801-2.355c.5 0 .961-.11 1.383-.329.422-.226.735-.527.938-.902v-2.18h-1.266c-1.695 0-2.598.586-2.707 1.758l-.012.199c0 .422.149.77.446 1.043.297.274.703.411 1.218.411zm14.157-4.313c0 1.766-.254 3.465-.762 5.098-.508 1.632-1.238 3.074-2.191 4.324-.954 1.25-1.973 2.109-3.059 2.578l-.656-1.793c1.109-.836 1.984-2.125 2.625-3.867.64-1.742.972-3.746.996-6.012v-.621c0-2.336-.321-4.394-.961-6.176-.633-1.781-1.52-3.117-2.66-4.008l.656-1.793c1.062.461 2.062 1.297 3 2.508.945 1.211 1.676 2.621 2.191 4.231.524 1.609.797 3.277.821 5.004z"/><path d="m829.285 293.027h-2.027v6.973h-3.516v-17.062h3.516v6.832h1.605l4.172-6.832h4.289l-5.262 8.074 5.813 8.988h-4.195zm20.754-5.707v12.68h-3.387v-9.938h-2.988l-.211 3.915c-.133 2.085-.543 3.605-1.23 4.558-.688.953-1.711 1.442-3.071 1.465h-1.148l-.035-2.754.422-.035c.609-.047 1.054-.406 1.336-1.078.281-.672.457-1.817.527-3.434l.234-5.379zm10.254 0h3.387v12.68h-3.387v-7.828l-4.242 7.828h-3.399v-12.68h3.399v7.817zm11.812 12.914c-1.859 0-3.375-.57-4.546-1.711-1.164-1.14-1.747-2.66-1.747-4.558v-.328c0-1.274.247-2.41.739-3.41.492-1.008 1.187-1.782 2.086-2.321.906-.547 1.937-.82 3.093-.82 1.735 0 3.098.547 4.09 1.641 1 1.093 1.5 2.644 1.5 4.652v1.383h-8.074c.109.828.438 1.492.984 1.992.555.5 1.254.75 2.098.75 1.305 0 2.324-.473 3.059-1.418l1.664 1.863c-.508.719-1.196 1.281-2.063 1.688-.867.398-1.828.597-2.883.597zm-.386-10.406c-.672 0-1.219.227-1.641.68-.414.453-.68 1.101-.797 1.945h4.711v-.269c-.015-.75-.219-1.329-.609-1.735-.391-.414-.945-.621-1.664-.621zm18.527 10.172h-3.398v-4.875h-4.207v4.875h-3.387v-12.68h3.387v5.086h4.207v-5.086h3.398zm13.149-9.961h-4.067v9.961h-3.398v-9.961h-3.996v-2.719h11.461zm-157.583 31.023c0-1.789.239-3.492.715-5.109.477-1.617 1.18-3.047 2.11-4.289.929-1.25 1.937-2.117 3.023-2.602l.656 1.829c-1.14.843-2.031 2.148-2.671 3.914-.641 1.765-.961 3.828-.961 6.187v.363c0 2.368.316 4.438.949 6.211.633 1.774 1.527 3.098 2.683 3.973l-.656 1.793c-1.062-.477-2.055-1.32-2.976-2.531-.914-1.203-1.614-2.594-2.098-4.172s-.742-3.227-.774-4.945zm19.313-5.742v12.68h-3.387v-9.938h-2.988l-.211 3.915c-.133 2.085-.543 3.605-1.23 4.558-.688.953-1.711 1.442-3.071 1.465h-1.148l-.035-2.754.422-.035c.609-.047 1.054-.406 1.335-1.078.282-.672.458-1.817.528-3.434l.234-5.379zm10.254 0h3.387v12.68h-3.387v-7.828l-4.242 7.828h-3.399v-12.68h3.399v7.817zm12.633 3.739c0-.446-.149-.789-.446-1.032-.289-.25-.703-.375-1.242-.375-.554 0-1.008.118-1.359.352-.344.226-.516.551-.516.973h-3.387c0-1.149.477-2.082 1.43-2.801s2.172-1.078 3.656-1.078c1.633 0 2.914.32 3.844.961.938.64 1.406 1.55 1.406 2.73 0 .563-.171 1.082-.515 1.559-.336.468-.813.843-1.43 1.125 1.445.507 2.168 1.488 2.168 2.941 0 1.164-.5 2.094-1.5 2.789-.992.688-2.316 1.031-3.973 1.031-1.539 0-2.804-.359-3.796-1.078-.993-.718-1.489-1.687-1.489-2.906h3.387c0 .43.191.777.574 1.043s.883.398 1.5.398c.602 0 1.071-.14 1.406-.421.336-.282.504-.649.504-1.102 0-.555-.16-.949-.48-1.184-.32-.242-.801-.363-1.442-.363h-1.839v-2.203h1.957c1.054-.031 1.582-.484 1.582-1.359zm13.312-3.739h3.387v12.68h-3.387v-7.828l-4.242 7.828h-3.398v-12.68h3.398v7.817zm16.969 12.68h-3.398v-4.875h-4.207v4.875h-3.387v-12.68h3.387v5.086h4.207v-5.086h3.398zm11.262-9.938h-5.25v9.938h-3.387v-12.68h8.637zm.656 3.481c0-1.258.242-2.379.727-3.363.484-.985 1.179-1.746 2.085-2.285.915-.54 1.973-.809 3.176-.809 1.711 0 3.106.523 4.184 1.57 1.086 1.047 1.691 2.469 1.816 4.266l.024.867c0 1.945-.543 3.508-1.629 4.688-1.086 1.171-2.543 1.757-4.371 1.757s-3.289-.586-4.383-1.757c-1.086-1.172-1.629-2.766-1.629-4.782zm3.387.246c0 1.203.226 2.125.679 2.766.453.633 1.102.949 1.946.949.82 0 1.461-.313 1.922-.938.46-.632.691-1.64.691-3.023 0-1.18-.231-2.094-.691-2.742-.461-.649-1.11-.973-1.946-.973-.828 0-1.469.324-1.922.973-.453.64-.679 1.637-.679 2.988zm21.738 6.211h-3.398v-9.938h-4.243v9.938h-3.386v-12.68h11.027zm2.062-6.457c0-1.258.243-2.379.727-3.363.484-.985 1.18-1.746 2.086-2.285.914-.54 1.973-.809 3.176-.809 1.711 0 3.105.523 4.183 1.57 1.086 1.047 1.692 2.469 1.817 4.266l.023.867c0 1.945-.543 3.508-1.629 4.688-1.086 1.171-2.543 1.757-4.371 1.757s-3.289-.586-4.383-1.757c-1.086-1.172-1.629-2.766-1.629-4.782zm3.387.246c0 1.203.227 2.125.68 2.766.453.633 1.101.949 1.945.949.82 0 1.461-.313 1.922-.938.461-.632.691-1.64.691-3.023 0-1.18-.23-2.094-.691-2.742-.461-.649-1.109-.973-1.945-.973-.828 0-1.469.324-1.922.973-.453.64-.68 1.637-.68 2.988zm21.551-6.469v12.68h-3.387v-9.938h-2.988l-.211 3.915c-.133 2.085-.543 3.605-1.23 4.558-.688.953-1.711 1.442-3.071 1.465h-1.148l-.035-2.754.422-.035c.609-.047 1.054-.406 1.335-1.078.282-.672.457-1.817.528-3.434l.234-5.379zm7.348 7.887 2.343-7.887h3.633l-5.098 14.649-.281.668c-.758 1.656-2.008 2.484-3.75 2.484-.492 0-.992-.074-1.5-.223v-2.566l.516.012c.641 0 1.117-.098 1.43-.293.32-.196.57-.52.75-.973l.398-1.043-4.441-12.715h3.644zm18 4.793h-3.387v-3.984c-.633.117-1.223.175-1.77.175-1.914 0-3.355-.406-4.324-1.218-.969-.813-1.461-2-1.476-3.563v-4.09h3.386v4.09c.008.735.188 1.262.539 1.582.352.313.977.469 1.875.469.563 0 1.153-.066 1.77-.199v-5.942h3.387zm9.949 0c-.156-.305-.27-.684-.34-1.137-.82.914-1.887 1.371-3.199 1.371-1.242 0-2.274-.359-3.094-1.078-.812-.718-1.219-1.625-1.219-2.718 0-1.344.496-2.376 1.489-3.094 1-.719 2.441-1.082 4.324-1.09h1.558v-.727c0-.586-.152-1.054-.457-1.406-.297-.351-.769-.527-1.418-.527-.57 0-1.019.136-1.347.41-.321.273-.481.648-.481 1.125h-3.387c0-.734.227-1.414.68-2.039s1.094-1.113 1.922-1.465c.828-.359 1.758-.539 2.789-.539 1.563 0 2.801.394 3.715 1.184.922.781 1.383 1.882 1.383 3.304v5.496c.008 1.203.176 2.114.504 2.731v.199zm-2.801-2.355c.5 0 .961-.11 1.383-.329.422-.226.734-.527.937-.902v-2.18h-1.265c-1.696 0-2.598.586-2.707 1.758l-.012.199c0 .422.148.77.445 1.043.297.274.703.411 1.219.411zm18.656-7.606h-4.066v9.961h-3.399v-9.961h-3.996v-2.719h11.461zm6.797 10.195c-1.859 0-3.375-.57-4.547-1.711-1.164-1.14-1.746-2.66-1.746-4.558v-.328c0-1.274.246-2.41.738-3.41.493-1.008 1.188-1.782 2.086-2.321.907-.547 1.938-.82 3.094-.82 1.735 0 3.098.547 4.09 1.641 1 1.093 1.5 2.644 1.5 4.652v1.383h-8.074c.109.828.437 1.492.984 1.992.555.5 1.254.75 2.098.75 1.304 0 2.324-.473 3.058-1.418l1.664 1.863c-.507.719-1.195 1.281-2.062 1.688-.867.398-1.828.597-2.883.597zm-.387-10.406c-.671 0-1.218.227-1.64.68-.414.453-.68 1.101-.797 1.945h4.711v-.269c-.016-.75-.219-1.329-.61-1.735-.39-.414-.945-.621-1.664-.621zm18.563-2.508v12.68h-3.387v-9.938h-2.988l-.211 3.915c-.133 2.085-.543 3.605-1.23 4.558-.688.953-1.711 1.442-3.071 1.465h-1.148l-.035-2.754.421-.035c.61-.047 1.055-.406 1.336-1.078.282-.672.457-1.817.528-3.434l.234-5.379zm6.234 3.715h2.426c1.094 0 2.055.184 2.883.551s1.461.894 1.898 1.582c.446.68.668 1.473.668 2.379 0 1.336-.496 2.414-1.488 3.234-.984.813-2.328 1.219-4.031 1.219h-5.754v-12.68h3.398zm0 2.719v3.539h2.403c.672 0 1.187-.156 1.547-.469.359-.312.539-.738.539-1.277 0-.547-.176-.981-.528-1.301-.351-.328-.871-.492-1.558-.492zm15.621-.422c0 1.766-.254 3.465-.761 5.098-.508 1.632-1.239 3.074-2.192 4.324s-1.972 2.109-3.058 2.578l-.657-1.793c1.11-.836 1.985-2.125 2.625-3.867.641-1.742.973-3.746.997-6.012v-.621c0-2.336-.321-4.394-.961-6.176-.633-1.781-1.52-3.117-2.661-4.008l.657-1.793c1.062.461 2.062 1.297 3 2.508.945 1.211 1.675 2.621 2.191 4.231.524 1.609.797 3.277.82 5.004z"/></g><path d="m440.741 78.8182c1.55 1.4963 4.007 1.4963 5.557 0l16.511-15.9401c2.588-2.4988.819-6.8778-2.778-6.8778h-33.023c-3.598 0-5.366 4.379-2.778 6.8778z" fill="#ffcd15"/><path d="m176.436 201.158c1.162 1.123 3.005 1.123 4.167 0l16.511-15.94c1.942-1.874.615-5.158-2.083-5.158h-33.023c-2.698 0-4.025 3.284-2.084 5.158z" stroke="#ffcd15" stroke-width="2"/><path d="m240.1 307.603c1.122-1.162 1.122-3.005 0-4.167l-15.94-16.511c-1.874-1.942-5.159-.615-5.159 2.083v33.023c0 2.698 3.285 4.025 5.159 2.084z" stroke="#ffcd15" stroke-width="2"/><path d="m678.819 308.298c1.496-1.55 1.496-4.007 0-5.557l-15.94-16.511c-2.499-2.588-6.878-.819-6.878 2.778v33.023c0 3.598 4.379 5.367 6.878 2.778z" fill="#ffcd15"/><path d="m665.436 201.158c1.162 1.123 3.005 1.123 4.167 0l16.511-15.94c1.942-1.874.615-5.158-2.083-5.158h-33.023c-2.698 0-4.025 3.284-2.084 5.158z" stroke="#ffcd15" stroke-width="2"/></svg>