<svg width="24" height="21" viewBox="0 0 24 21" fill="none" xmlns="http://www.w3.org/2000/svg">
<path d="M16.9239 0H6.97255C3.59313 0 0.84375 2.59921 0.84375 5.79388V15.2012C0.84375 18.396 3.59313 20.9951 6.97255 20.9951H16.9239C20.3035 20.9951 23.0529 18.3959 23.0529 15.2012V5.79388C23.053 2.59921 20.3035 0 16.9239 0ZM21.0825 15.2012C21.0825 17.3689 19.217 19.1323 16.924 19.1323H6.97255C4.67967 19.1324 2.81425 17.3689 2.81425 15.2012V5.79388C2.81425 3.62635 4.67967 1.86278 6.97255 1.86278H16.9239C19.2169 1.86278 21.0824 3.62635 21.0824 5.79388V15.2012H21.0825Z" fill="#FFCD15"/>
<path d="M11.9494 5.08789C8.79376 5.08789 6.22656 7.51473 6.22656 10.4978C6.22656 13.4807 8.79376 15.9074 11.9494 15.9074C15.1049 15.9074 17.6721 13.4807 17.6721 10.4978C17.6721 7.51473 15.1049 5.08789 11.9494 5.08789ZM11.9494 14.0445C9.88044 14.0445 8.19708 12.4535 8.19708 10.4977C8.19708 8.54174 9.88031 6.95055 11.9494 6.95055C14.0184 6.95055 15.7016 8.54174 15.7016 10.4977C15.7016 12.4535 14.0183 14.0445 11.9494 14.0445Z" fill="#FFCD15"/>
<path d="M17.9118 3.50781C17.5322 3.50781 17.1592 3.65311 16.8911 3.90769C16.6217 4.16103 16.4668 4.51372 16.4668 4.87386C16.4668 5.23288 16.6218 5.58544 16.8911 5.84002C17.1591 6.09336 17.5322 6.2399 17.9118 6.2399C18.2928 6.2399 18.6646 6.09336 18.9339 5.84002C19.2032 5.58544 19.3569 5.23275 19.3569 4.87386C19.3569 4.51372 19.2032 4.16103 18.9339 3.90769C18.6659 3.65311 18.2928 3.50781 17.9118 3.50781Z" fill="#FFCD15"/>
</svg>
