<svg width="23" height="13" viewBox="0 0 23 13" fill="none" xmlns="http://www.w3.org/2000/svg">
<path d="M22.8586 11.5238C22.8317 11.469 22.8067 11.4235 22.7834 11.3871C22.3979 10.7309 21.6614 9.92545 20.5742 8.97052L20.5512 8.94866L20.5397 8.93793L20.5281 8.92694H20.5164C20.023 8.48228 19.7106 8.1833 19.5797 8.03023C19.3403 7.73864 19.2866 7.44349 19.4175 7.14443C19.5099 6.91848 19.8572 6.44131 20.4585 5.71226C20.7747 5.32588 21.0252 5.01622 21.2102 4.78291C22.5443 3.10629 23.1227 2.03491 22.9452 1.56834L22.8763 1.45931C22.83 1.39367 22.7105 1.33362 22.5179 1.27886C22.3249 1.22421 22.0783 1.21517 21.7775 1.25159L18.4465 1.27335C18.3925 1.25527 18.3155 1.25695 18.2151 1.27886C18.1148 1.30077 18.0647 1.31176 18.0647 1.31176L18.0067 1.33914L17.9607 1.37204C17.9221 1.39379 17.8797 1.43205 17.8334 1.48673C17.7873 1.54123 17.7488 1.60518 17.718 1.67806C17.3553 2.56007 16.943 3.38011 16.4803 4.13815C16.1949 4.59017 15.9329 4.9819 15.6936 5.31359C15.4546 5.64516 15.2541 5.88945 15.0923 6.04605C14.9303 6.2028 14.7841 6.32837 14.6527 6.42323C14.5216 6.51813 14.4215 6.55823 14.3522 6.54356C14.2827 6.52889 14.2173 6.51434 14.1553 6.49979C14.0474 6.43414 13.9607 6.34488 13.8952 6.2319C13.8295 6.11893 13.7853 5.97673 13.7622 5.80543C13.7391 5.63402 13.7255 5.48658 13.7216 5.36261C13.718 5.2388 13.7197 5.06367 13.7275 4.83772C13.7355 4.61165 13.7391 4.4587 13.7391 4.3785C13.7391 4.10147 13.7449 3.8008 13.7563 3.47643C13.768 3.15206 13.7774 2.89505 13.7853 2.70571C13.7932 2.51618 13.7968 2.31566 13.7968 2.10427C13.7968 1.89287 13.7832 1.72708 13.7563 1.60675C13.7297 1.48658 13.689 1.36993 13.6352 1.25684C13.5811 1.14387 13.502 1.05647 13.3981 0.994432C13.294 0.932468 13.1646 0.883296 13.0106 0.846761C12.6019 0.75933 12.0815 0.712034 11.449 0.704681C10.0149 0.690128 9.09339 0.777674 8.68471 0.967203C8.52279 1.04728 8.37626 1.15669 8.24525 1.2951C8.10642 1.45552 8.08705 1.54307 8.18728 1.55747C8.65 1.62299 8.97757 1.77974 9.17036 2.02756L9.23984 2.15888C9.29388 2.25362 9.34784 2.42136 9.40184 2.66186C9.45577 2.90236 9.49057 3.16841 9.50588 3.45985C9.54436 3.99205 9.54436 4.44763 9.50588 4.82661C9.46727 5.20575 9.43081 5.5009 9.39601 5.71229C9.36121 5.92369 9.3092 6.09499 9.23984 6.22616C9.17036 6.35736 9.12414 6.43755 9.10097 6.46666C9.07784 6.49576 9.05855 6.51411 9.04324 6.52131C8.94302 6.55761 8.83878 6.57611 8.7309 6.57611C8.62285 6.57611 8.49184 6.52502 8.33765 6.42292C8.18351 6.32083 8.02353 6.18058 7.85772 6.00197C7.6919 5.82332 7.5049 5.57366 7.29664 5.25297C7.08853 4.93227 6.8726 4.55325 6.64898 4.1159L6.46397 3.79873C6.34831 3.59469 6.19031 3.29758 5.98982 2.90769C5.78921 2.51764 5.61189 2.14034 5.45775 1.77587C5.39613 1.6228 5.30356 1.50627 5.1802 1.42607L5.12231 1.39318C5.08383 1.36407 5.02205 1.33316 4.9373 1.30023C4.85243 1.26733 4.76387 1.24374 4.67126 1.22923L1.5021 1.25098C1.17826 1.25098 0.958523 1.32034 0.842822 1.45885L0.796518 1.52438C0.773386 1.56088 0.761719 1.61916 0.761719 1.69939C0.761719 1.77959 0.784851 1.87801 0.831155 1.99455C1.29379 3.02242 1.7969 4.01373 2.34048 4.96861C2.88406 5.9235 3.35643 6.69269 3.75729 7.27548C4.15823 7.8587 4.5669 8.40913 4.98332 8.92652C5.39973 9.4441 5.67537 9.77578 5.81024 9.9215C5.94526 10.0675 6.05132 10.1766 6.12841 10.2495L6.41762 10.5119C6.60268 10.6869 6.87443 10.8964 7.23299 11.1406C7.59164 11.3848 7.98869 11.6254 8.42435 11.8624C8.86009 12.0992 9.36701 12.2923 9.94539 12.4417C10.5237 12.5913 11.0865 12.6513 11.6341 12.6223H12.9642C13.234 12.6003 13.4383 12.5201 13.5773 12.3817L13.6233 12.3269C13.6542 12.2834 13.6832 12.2158 13.7099 12.1249C13.737 12.0337 13.7504 11.9334 13.7504 11.8242C13.7425 11.5108 13.7678 11.2284 13.8255 10.9769C13.8831 10.7255 13.9488 10.536 14.0223 10.4084C14.0958 10.2808 14.1787 10.1732 14.2709 10.086C14.3633 9.99856 14.4292 9.94559 14.4679 9.92736C14.5063 9.90902 14.5369 9.89657 14.5601 9.8891C14.7451 9.83082 14.9629 9.88727 15.2138 10.0587C15.4644 10.23 15.6995 10.4415 15.9194 10.6929C16.1392 10.9445 16.4032 11.2268 16.7116 11.5402C17.0202 11.8537 17.29 12.0867 17.5212 12.24L17.7524 12.3712C17.9069 12.4588 18.1074 12.539 18.3542 12.6118C18.6005 12.6847 18.8163 12.7029 19.0017 12.6665L21.9625 12.6228C22.2554 12.6228 22.4833 12.577 22.6449 12.486C22.8069 12.3949 22.9031 12.2945 22.9341 12.1854C22.9651 12.0761 22.9667 11.9521 22.94 11.8134C22.9126 11.6751 22.8855 11.5784 22.8586 11.5238Z" fill="#FFFFFF"/>
</svg>
