<svg fill="none" height="16" viewBox="0 0 26 16" width="26" xmlns="http://www.w3.org/2000/svg"><path d="m25.8622 13.9799c-.0315-.0679-.0609-.1241-.0881-.1692-.4511-.8125-1.3132-1.8097-2.5856-2.992l-.0269-.027-.0135-.0133-.0136-.0136h-.0136c-.5775-.5505-.9433-.92071-1.0964-1.11023-.2802-.36101-.343-.72643-.1898-1.09669.1082-.27974.5146-.87052 1.2183-1.77315.3702-.47836.6633-.86175.8798-1.1506 1.5614-2.0758 2.2384-3.40226 2.0307-3.97991l-.0807-.13499c-.0542-.08127-.194-.15561-.4194-.22341-.2259-.06766-.5146-.07885-.8666-.03376l-3.8986.02693c-.0632-.02238-.1534-.02029-.2708.00683s-.1761.04073-.1761.04073l-.0678.0339-.0539.04072c-.0452.02694-.0948.0743-.149.14201-.0539.06747-.099.14665-.135.23688-.4245 1.092-.9071 2.10728-1.4487 3.0458-.3339.55963-.6406 1.04463-.9207 1.45529-.2797.41051-.5143.71297-.7037.90684-.1896.19407-.3608.34954-.5145.46699-.1535.11749-.2707.16713-.3518.14897-.0813-.01816-.1579-.03618-.2304-.05419-.1262-.08127-.2278-.19179-.3044-.33167-.0769-.13987-.1287-.31592-.1557-.528-.027-.21223-.0429-.39477-.0474-.54825-.0043-.15329-.0023-.37012.0068-.64986.0094-.27989.0136-.46926.0136-.56855 0-.34299.0067-.71524.0201-1.11684.0137-.4016.0247-.7198.034-.95421.0092-.23466.0135-.48292.0135-.74464 0-.26173-.016-.46699-.0475-.61596-.0311-.14879-.0788-.29321-.1417-.43323-.0633-.13987-.156-.24807-.2775-.32488-.1219-.076716-.2733-.137596-.4535-.182829-.4784-.108247-1.0875-.166803-1.8277-.175907-1.6785-.018017-2.75704.090371-3.23535.325025-.18952.099141-.36102.234601-.51435.405961-.16249.19862-.18516.30701-.06785.32484.54156.08112.92496.27519 1.1506.58201l.08131.16258c.06326.1173.12644.32498.18964.62274.0631.29776.1038.62715.1217.98797.0451.65892.0451 1.22296 0 1.69217-.0452.4694-.0878.83482-.1286 1.09655-.0407.26172-.1016.47381-.18274.6362-.08131.16244-.13541.26173-.16253.29776-.02707.03604-.04964.05875-.06757.06766-.1173.04495-.2393.06785-.36556.06785-.12645 0-.27979-.06325-.46025-.18965-.18041-.12641-.36765-.30004-.56172-.52118-.19407-.22119-.41293-.53028-.65669-.92733-.24356-.39705-.49628-.86631-.75801-1.40778l-.21654-.39268c-.13537-.25263-.32028-.62047-.55494-1.10319-.23479-.48291-.44232-.95004-.62273-1.40128-.07212-.18952-.18046-.3338-.32484-.43308l-.06775-.04073c-.04505-.03604-.11736-.0743-.21655-.11508-.09933-.04073-.20298-.06993-.31137-.0879l-3.709167.02693c-.379029 0-.636204.08587-.7716196.25736l-.0541945.08113c-.0270736.04518-.0407289.11735-.0407289.21668 0 .09929.0270736.22114.0812681.36542.5414709 1.2726 1.1303119 2.49992 1.7665119 3.68215.63621 1.18223 1.18906 2.13454 1.65822 2.85609.46926.72207.94758 1.40357 1.43495 2.04417.48737.6408.80998 1.0514.96782 1.2318.15803.1808.28216.3159.37239.4061l.33849.3249c.21659.2166.53464.4761.95431.7783.41976.3025.88446.6002 1.39436.8938.50998.293 1.10328.5322 1.78018.7172.6769.1851 1.3356.2594 1.9764.2236h1.5568c.3158-.0273.555-.1266.7176-.2979l.0538-.0679c.0363-.0538.0702-.1375.1015-.2501.0316-.1128.0474-.2371.0474-.3723-.0093-.388.0203-.7377.0878-1.049.0674-.3112.1444-.5459.2304-.7039.0859-.1579.1829-.2911.2909-.3991.1082-.1083.1853-.1738.2305-.1964.045-.0227.0809-.0381.1079-.0474.2166-.0721.4715-.0023.7651.21.2934.2121.5685.474.8259.7852.2572.3115.5662.661.9272 1.049.3611.3881.6769.6766.9475.8664l.2707.1625c.1807.1084.4154.2077.7042.2979.2884.0902.541.1127.7579.0676l3.4654-.054c.3427 0 .6094-.0568.7986-.1694.1896-.1128.3022-.237.3385-.3722.0362-.1353.0382-.2889.0069-.4605-.0321-.1712-.0638-.2909-.0952-.3586z" fill="#9fa6ad"/></svg>