<svg fill="none" height="391" viewBox="0 0 736 391" width="736" xmlns="http://www.w3.org/2000/svg"><g fill="#232422"><path d="m503.32 196.316c-.132 1.836-.812 3.282-2.039 4.336-1.219 1.055-2.828 1.582-4.828 1.582-2.187 0-3.91-.734-5.168-2.203-1.25-1.476-1.875-3.5-1.875-6.07v-1.043c0-1.641.289-3.086.867-4.336s1.403-2.207 2.473-2.871c1.078-.672 2.328-1.008 3.75-1.008 1.969 0 3.555.527 4.758 1.582s1.898 2.535 2.086 4.442h-3.516c-.086-1.102-.394-1.899-.926-2.391-.523-.5-1.324-.75-2.402-.75-1.172 0-2.051.422-2.637 1.266-.578.836-.875 2.136-.89 3.902v1.289c0 1.844.277 3.191.832 4.043.562.852 1.445 1.277 2.648 1.277 1.086 0 1.895-.246 2.426-.738.539-.5.848-1.27.926-2.309zm2.262 2.954c.766-.813 1.285-1.618 1.559-2.415.273-.796.425-1.925.457-3.386l.093-4.149h9.329v9.95h1.828v6.539h-3.387v-3.809h-7.512v3.809h-3.457v-6.539zm3.996 0h4.067v-7.149h-2.637l-.024 1.524c-.07 2.328-.539 4.203-1.406 5.625zm18.34 2.73c-.156-.305-.27-.684-.34-1.137-.82.914-1.887 1.371-3.199 1.371-1.242 0-2.274-.359-3.094-1.078-.812-.718-1.219-1.625-1.219-2.718 0-1.344.496-2.376 1.489-3.094 1-.719 2.441-1.082 4.324-1.09h1.559v-.727c0-.586-.153-1.054-.458-1.406-.296-.351-.769-.527-1.418-.527-.57 0-1.019.136-1.347.41-.32.273-.481.648-.481 1.125h-3.386c0-.734.226-1.414.679-2.039s1.094-1.113 1.922-1.465c.828-.359 1.758-.539 2.789-.539 1.563 0 2.801.394 3.715 1.184.922.781 1.383 1.882 1.383 3.304v5.496c.008 1.203.176 2.114.504 2.731v.199zm-2.801-2.355c.5 0 .961-.11 1.383-.329.422-.226.734-.527.938-.902v-2.18h-1.266c-1.695 0-2.598.586-2.707 1.758l-.012.199c0 .422.149.77.445 1.043.297.274.704.411 1.219.411zm14.156 2.589c-1.859 0-3.375-.57-4.546-1.711-1.165-1.14-1.747-2.66-1.747-4.558v-.328c0-1.274.247-2.41.739-3.41.492-1.008 1.187-1.782 2.086-2.321.906-.547 1.937-.82 3.093-.82 1.735 0 3.098.547 4.09 1.641 1 1.093 1.5 2.644 1.5 4.652v1.383h-8.074c.109.828.438 1.492.984 1.992.555.5 1.254.75 2.098.75 1.305 0 2.324-.473 3.059-1.418l1.664 1.863c-.508.719-1.196 1.281-2.063 1.688-.867.398-1.828.597-2.883.597zm-.386-10.406c-.672 0-1.219.227-1.641.68-.414.453-.68 1.101-.797 1.945h4.711v-.269c-.015-.75-.219-1.329-.609-1.735-.391-.414-.946-.621-1.664-.621zm17.918.211h-4.067v9.961h-3.398v-9.961h-3.996v-2.719h11.461zm18.715 9.961h-3.399v-9.938h-4.242v9.938h-3.387v-12.68h11.028zm14.003-6.223c0 1.953-.445 3.52-1.335 4.7-.883 1.171-2.079 1.757-3.586 1.757-1.282 0-2.317-.445-3.106-1.336v5.977h-3.387v-17.555h3.141l.117 1.242c.821-.984 1.891-1.476 3.211-1.476 1.563 0 2.777.578 3.645 1.734.867 1.157 1.3 2.75 1.3 4.782zm-3.386-.246c0-1.179-.211-2.09-.633-2.73-.414-.641-1.02-.961-1.816-.961-1.063 0-1.793.406-2.192 1.219v5.191c.414.836 1.152 1.254 2.215 1.254 1.617 0 2.426-1.324 2.426-3.973zm13.136-6.211h3.387v12.68h-3.387v-7.828l-4.242 7.828h-3.398v-12.68h3.398v7.817zm5.45 6.223c0-1.258.242-2.379.726-3.363.485-.985 1.18-1.746 2.086-2.285.914-.54 1.973-.809 3.176-.809 1.711 0 3.105.523 4.184 1.57 1.085 1.047 1.691 2.469 1.816 4.266l.023.867c0 1.945-.543 3.508-1.629 4.688-1.085 1.171-2.543 1.757-4.371 1.757s-3.289-.586-4.382-1.757c-1.086-1.172-1.629-2.766-1.629-4.782zm3.386.246c0 1.203.227 2.125.68 2.766.453.633 1.102.949 1.945.949.821 0 1.461-.313 1.922-.938.461-.632.692-1.64.692-3.023 0-1.18-.231-2.094-.692-2.742-.461-.649-1.109-.973-1.945-.973-.828 0-1.469.324-1.922.973-.453.64-.68 1.637-.68 2.988zm17.004-5.766c1.625 0 2.922.539 3.891 1.618.969 1.078 1.453 2.543 1.453 4.394v.164c0 1.828-.539 3.293-1.617 4.395-1.078 1.101-2.528 1.652-4.348 1.652-1.828 0-3.285-.594-4.371-1.781-1.078-1.195-1.617-2.817-1.617-4.863v-.563c.016-2.851.496-5.082 1.441-6.691.953-1.618 2.383-2.637 4.289-3.059 1-.219 1.645-.434 1.934-.644.289-.219.434-.52.434-.903h2.742c0 1.227-.332 2.149-.996 2.766-.657.617-1.828 1.094-3.516 1.43-1 .203-1.789.597-2.367 1.183s-.969 1.41-1.172 2.473c1.078-1.047 2.352-1.571 3.82-1.571zm-.644 2.743c-.805 0-1.438.269-1.899.808-.453.539-.679 1.414-.679 2.625 0 1.078.222 1.903.668 2.473.445.562 1.089.844 1.933.844.82 0 1.453-.278 1.899-.832.445-.555.671-1.372.679-2.45v-.281c0-1.039-.23-1.828-.691-2.367-.453-.547-1.09-.82-1.91-.82zm19.219 3.011c0 1.953-.446 3.52-1.336 4.7-.883 1.171-2.079 1.757-3.586 1.757-1.282 0-2.317-.445-3.106-1.336v5.977h-3.387v-17.555h3.141l.117 1.242c.821-.984 1.891-1.476 3.211-1.476 1.563 0 2.778.578 3.645 1.734.867 1.157 1.301 2.75 1.301 4.782zm-3.387-.246c0-1.179-.211-2.09-.633-2.73-.414-.641-1.02-.961-1.816-.961-1.063 0-1.793.406-2.192 1.219v5.191c.414.836 1.152 1.254 2.215 1.254 1.617 0 2.426-1.324 2.426-3.973zm11.332 6.703c-1.86 0-3.375-.57-4.547-1.711-1.164-1.14-1.746-2.66-1.746-4.558v-.328c0-1.274.246-2.41.738-3.41.492-1.008 1.188-1.782 2.086-2.321.906-.547 1.938-.82 3.094-.82 1.734 0 3.097.547 4.09 1.641 1 1.093 1.5 2.644 1.5 4.652v1.383h-8.075c.11.828.438 1.492.985 1.992.554.5 1.254.75 2.097.75 1.305 0 2.325-.473 3.059-1.418l1.664 1.863c-.508.719-1.195 1.281-2.062 1.688-.868.398-1.828.597-2.883.597zm-.387-10.406c-.672 0-1.219.227-1.641.68-.414.453-.679 1.101-.796 1.945h4.711v-.269c-.016-.75-.219-1.329-.61-1.735-.39-.414-.945-.621-1.664-.621zm17.918.211h-4.066v9.961h-3.399v-9.961h-3.996v-2.719h11.461zm6.797 10.195c-1.859 0-3.375-.57-4.547-1.711-1.164-1.14-1.746-2.66-1.746-4.558v-.328c0-1.274.246-2.41.738-3.41.492-1.008 1.188-1.782 2.086-2.321.906-.547 1.938-.82 3.094-.82 1.734 0 3.098.547 4.09 1.641 1 1.093 1.5 2.644 1.5 4.652v1.383h-8.074c.109.828.437 1.492.984 1.992.555.5 1.254.75 2.098.75 1.304 0 2.324-.473 3.058-1.418l1.664 1.863c-.508.719-1.195 1.281-2.062 1.688-.867.398-1.828.597-2.883.597zm-.387-10.406c-.672 0-1.219.227-1.64.68-.414.453-.68 1.101-.797 1.945h4.711v-.269c-.016-.75-.219-1.329-.61-1.735-.39-.414-.945-.621-1.664-.621zm18.528 10.172h-3.399v-4.875h-4.207v4.875h-3.387v-12.68h3.387v5.086h4.207v-5.086h3.399zm13.617 0h-3.399v-4.875h-4.207v4.875h-3.386v-12.68h3.386v5.086h4.207v-5.086h3.399zm2.097-6.457c0-1.258.243-2.379.727-3.363.484-.985 1.18-1.746 2.086-2.285.914-.54 1.973-.809 3.176-.809 1.711 0 3.105.523 4.183 1.57 1.086 1.047 1.692 2.469 1.817 4.266l.023.867c0 1.945-.543 3.508-1.629 4.688-1.086 1.171-2.543 1.757-4.371 1.757s-3.289-.586-4.383-1.757c-1.086-1.172-1.629-2.766-1.629-4.782zm3.387.246c0 1.203.227 2.125.68 2.766.453.633 1.101.949 1.945.949.82 0 1.461-.313 1.922-.938.461-.632.691-1.64.691-3.023 0-1.18-.23-2.094-.691-2.742-.461-.649-1.109-.973-1.945-.973-.828 0-1.469.324-1.922.973-.453.64-.68 1.637-.68 2.988zm16.547 6.445c-1.859 0-3.375-.57-4.547-1.711-1.164-1.14-1.746-2.66-1.746-4.558v-.328c0-1.274.246-2.41.738-3.41.493-1.008 1.188-1.782 2.086-2.321.907-.547 1.938-.82 3.094-.82 1.734 0 3.098.547 4.09 1.641 1 1.093 1.5 2.644 1.5 4.652v1.383h-8.074c.109.828.437 1.492.984 1.992.555.5 1.254.75 2.098.75 1.304 0 2.324-.473 3.058-1.418l1.664 1.863c-.507.719-1.195 1.281-2.062 1.688-.867.398-1.828.597-2.883.597zm-.387-10.406c-.672 0-1.218.227-1.64.68-.414.453-.68 1.101-.797 1.945h4.711v-.269c-.016-.75-.219-1.329-.61-1.735-.39-.414-.945-.621-1.664-.621zm-224.73 25.492h3.387v12.68h-3.387v-7.828l-4.242 7.828h-3.399v-12.68h3.399v7.817zm13.699 8.684 3.316-8.684h4.243v12.68h-3.387v-7.781l-3.035 7.781h-2.274l-2.976-7.652v7.652h-3.387v-12.68h4.207zm15.246-.797 2.344-7.887h3.633l-5.098 14.649-.281.668c-.758 1.656-2.008 2.484-3.75 2.484-.492 0-.992-.074-1.5-.223v-2.566l.515.012c.641 0 1.118-.098 1.43-.293.32-.196.57-.52.75-.973l.399-1.043-4.442-12.715h3.645zm10.664-7.887v9.95h3.481v-9.95h3.398v9.95h3.469v-9.95h3.398v9.973h2.52l-.235 6.469h-3.152v-3.762h-16.266v-12.68zm23.883 12.914c-1.859 0-3.375-.57-4.547-1.711-1.164-1.14-1.746-2.66-1.746-4.558v-.328c0-1.274.246-2.41.738-3.41.492-1.008 1.188-1.782 2.086-2.321.906-.547 1.938-.82 3.094-.82 1.734 0 3.098.547 4.09 1.641 1 1.093 1.5 2.644 1.5 4.652v1.383h-8.074c.109.828.437 1.492.984 1.992.555.5 1.254.75 2.098.75 1.304 0 2.324-.473 3.058-1.418l1.664 1.863c-.508.719-1.195 1.281-2.062 1.688-.867.398-1.828.597-2.883.597zm-.387-10.406c-.672 0-1.218.227-1.64.68-.414.453-.68 1.101-.797 1.945h4.711v-.269c-.016-.75-.219-1.329-.61-1.735-.39-.414-.945-.621-1.664-.621zm12.809 7.676c.625 0 1.133-.172 1.523-.516.391-.343.594-.8.61-1.371h3.175c-.007.86-.242 1.649-.703 2.367-.461.711-1.093 1.266-1.898 1.664-.797.391-1.68.586-2.649.586-1.812 0-3.242-.574-4.289-1.722-1.046-1.157-1.57-2.75-1.57-4.782v-.222c0-1.953.52-3.512 1.559-4.676s2.465-1.746 4.277-1.746c1.586 0 2.856.453 3.809 1.359.961.899 1.449 2.098 1.464 3.598h-3.175c-.016-.656-.219-1.188-.61-1.594-.39-.414-.906-.621-1.547-.621-.789 0-1.386.289-1.793.867-.398.571-.597 1.5-.597 2.789v.352c0 1.305.199 2.242.597 2.812.399.571 1.004.856 1.817.856zm17.765-7.465h-4.066v9.961h-3.398v-9.961h-3.996v-2.719h11.46zm1.934 9.961v-12.68h5.297c1.727 0 3.051.305 3.973.914.922.61 1.382 1.485 1.382 2.625 0 .586-.195 1.114-.586 1.582-.382.461-.945.817-1.687 1.067.906.172 1.617.512 2.133 1.019.523.5.785 1.118.785 1.852 0 1.18-.445 2.078-1.336 2.695-.883.617-2.168.926-3.855.926zm3.387-5.262v2.555h2.73c1.196 0 1.793-.418 1.793-1.254 0-.851-.57-1.285-1.711-1.301zm0-2.273h2.097c1.188-.016 1.782-.399 1.782-1.149 0-.461-.164-.789-.492-.984-.321-.195-.813-.293-1.477-.293h-1.91zm9.457 1.078c0-1.258.242-2.379.726-3.363.485-.985 1.18-1.746 2.086-2.285.914-.54 1.973-.809 3.176-.809 1.711 0 3.106.523 4.184 1.57 1.086 1.047 1.691 2.469 1.816 4.266l.024.867c0 1.945-.543 3.508-1.629 4.688-1.086 1.171-2.543 1.757-4.371 1.757-1.829 0-3.29-.586-4.383-1.757-1.086-1.172-1.629-2.766-1.629-4.782zm3.387.246c0 1.203.226 2.125.679 2.766.453.633 1.102.949 1.946.949.82 0 1.46-.313 1.921-.938.461-.632.692-1.64.692-3.023 0-1.18-.231-2.094-.692-2.742-.461-.649-1.109-.973-1.945-.973-.828 0-1.469.324-1.922.973-.453.64-.679 1.637-.679 2.988zm16.91 6.211v-12.68h5.297c1.726 0 3.05.305 3.972.914.922.61 1.383 1.485 1.383 2.625 0 .586-.195 1.114-.586 1.582-.383.461-.945.817-1.687 1.067.906.172 1.617.512 2.132 1.019.524.5.786 1.118.786 1.852 0 1.18-.446 2.078-1.336 2.695-.883.617-2.168.926-3.856.926zm3.386-5.262v2.555h2.731c1.195 0 1.793-.418 1.793-1.254 0-.851-.57-1.285-1.711-1.301zm0-2.273h2.098c1.188-.016 1.781-.399 1.781-1.149 0-.461-.164-.789-.492-.984-.32-.195-.812-.293-1.476-.293h-1.911zm26.989-5.145v12.68h-3.387v-9.938h-2.988l-.211 3.915c-.133 2.085-.543 3.605-1.231 4.558-.687.953-1.711 1.442-3.07 1.465h-1.148l-.036-2.754.422-.035c.61-.047 1.055-.406 1.336-1.078s.457-1.817.528-3.434l.234-5.379zm10.254 0h3.386v12.68h-3.386v-7.828l-4.243 7.828h-3.398v-12.68h3.398v7.817zm12.632 3.739c0-.446-.148-.789-.445-1.032-.289-.25-.703-.375-1.242-.375-.555 0-1.008.118-1.359.352-.344.226-.516.551-.516.973h-3.387c0-1.149.477-2.082 1.43-2.801s2.172-1.078 3.656-1.078c1.633 0 2.914.32 3.844.961.937.64 1.406 1.55 1.406 2.73 0 .563-.172 1.082-.515 1.559-.336.468-.813.843-1.43 1.125 1.445.507 2.168 1.488 2.168 2.941 0 1.164-.5 2.094-1.5 2.789-.992.688-2.317 1.031-3.973 1.031-1.539 0-2.805-.359-3.797-1.078-.992-.718-1.488-1.687-1.488-2.906h3.387c0 .43.191.777.574 1.043s.883.398 1.5.398c.601 0 1.07-.14 1.406-.421.336-.282.504-.649.504-1.102 0-.555-.16-.949-.48-1.184-.321-.242-.801-.363-1.442-.363h-1.84v-2.203h1.957c1.055-.031 1.582-.484 1.582-1.359zm13.313-3.739h3.387v12.68h-3.387v-7.828l-4.242 7.828h-3.399v-12.68h3.399v7.817zm16.969 12.68h-3.399v-4.875h-4.207v4.875h-3.386v-12.68h3.386v5.086h4.207v-5.086h3.399zm11.261-9.938h-5.25v9.938h-3.386v-12.68h8.636z"/><path d="m326.285 15.0273h-2.027v6.9727h-3.516v-17.0625h3.516v6.832h1.605l4.172-6.832h4.289l-5.262 8.0742 5.813 8.9883h-4.195zm20.754-5.70699v12.67969h-3.387v-9.9375h-2.988l-.211 3.9141c-.133 2.0859-.543 3.6054-1.23 4.5586-.688.9531-1.711 1.4414-3.071 1.4648h-1.148l-.035-2.7539.422-.0352c.609-.0468 1.054-.4062 1.336-1.0781.281-.6719.457-1.8164.527-3.4336l.234-5.37889zm10.254 0h3.387v12.67969h-3.387v-7.8281l-4.242 7.8281h-3.399v-12.67969h3.399v7.81639zm11.812 12.91409c-1.859 0-3.375-.5703-4.546-1.711-1.164-1.1406-1.747-2.6601-1.747-4.5586v-.3281c0-1.2734.247-2.4101.739-3.4101.492-1.0078 1.187-1.7813 2.086-2.32035.906-.54687 1.937-.82031 3.093-.82031 1.735 0 3.098.54687 4.09 1.64066 1 1.0937 1.5 2.6445 1.5 4.6523v1.3828h-8.074c.109.8281.438 1.4922.984 1.9922.555.5 1.254.75 2.098.75 1.305 0 2.324-.4727 3.059-1.418l1.664 1.8633c-.508.7188-1.196 1.2813-2.063 1.6875-.867.3985-1.828.5977-2.883.5977zm-.386-10.4063c-.672 0-1.219.2266-1.641.6797-.414.4531-.68 1.1016-.797 1.9453h4.711v-.2695c-.015-.75-.219-1.3281-.609-1.7344-.391-.414-.945-.6211-1.664-.6211zm18.527 10.1719h-3.398v-4.875h-4.207v4.875h-3.387v-12.67969h3.387v5.08589h4.207v-5.08589h3.398zm13.149-9.9609h-4.067v9.9609h-3.398v-9.9609h-3.996v-2.71879h11.461zm-157.583 31.0234c0-1.7891.239-3.4922.715-5.1094.477-1.6172 1.18-3.0469 2.11-4.289.929-1.25 1.937-2.1172 3.023-2.6016l.656 1.8281c-1.14.8438-2.031 2.1485-2.671 3.9141-.641 1.7656-.961 3.8281-.961 6.1875v.3633c0 2.3672.316 4.4375.949 6.2109s1.527 3.0977 2.683 3.9727l-.656 1.7929c-1.062-.4765-2.055-1.3203-2.976-2.5312-.914-1.2031-1.614-2.5938-2.098-4.1719s-.742-3.2266-.774-4.9453zm19.313-5.7422v12.6797h-3.387v-9.9375h-2.988l-.211 3.9141c-.133 2.0859-.543 3.6054-1.23 4.5586-.688.9531-1.711 1.4414-3.071 1.4648h-1.148l-.035-2.7539.422-.0352c.609-.0468 1.054-.4062 1.335-1.0781.282-.6719.458-1.8164.528-3.4336l.234-5.3789zm10.254 0h3.387v12.6797h-3.387v-7.8281l-4.242 7.8281h-3.399v-12.6797h3.399v7.8164zm12.633 3.7383c0-.4453-.149-.7891-.446-1.0313-.289-.25-.703-.375-1.242-.375-.554 0-1.008.1172-1.359.3516-.344.2266-.516.5508-.516.9727h-3.387c0-1.1485.477-2.0821 1.43-2.8008.953-.7188 2.172-1.0781 3.656-1.0781 1.633 0 2.914.3203 3.844.9609.938.6406 1.406 1.5508 1.406 2.7305 0 .5625-.171 1.082-.515 1.5586-.336.4687-.813.8437-1.43 1.125 1.445.5078 2.168 1.4882 2.168 2.9414 0 1.164-.5 2.0937-1.5 2.789-.992.6875-2.316 1.0313-3.973 1.0313-1.539 0-2.804-.3594-3.796-1.0782-.993-.7187-1.489-1.6874-1.489-2.9062h3.387c0 .4297.191.7773.574 1.043.383.2656.883.3984 1.5.3984.602 0 1.071-.1406 1.406-.4219.336-.2812.504-.6484.504-1.1015 0-.5547-.16-.9492-.48-1.1836-.32-.2422-.801-.3633-1.442-.3633h-1.839v-2.2031h1.957c1.054-.0313 1.582-.4844 1.582-1.3594zm13.312-3.7383h3.387v12.6797h-3.387v-7.8281l-4.242 7.8281h-3.398v-12.6797h3.398v7.8164zm16.969 12.6797h-3.398v-4.875h-4.207v4.875h-3.387v-12.6797h3.387v5.0859h4.207v-5.0859h3.398zm11.262-9.9375h-5.25v9.9375h-3.387v-12.6797h8.637zm.656 3.4805c0-1.2578.242-2.3789.727-3.3633.484-.9844 1.179-1.7461 2.085-2.2852.915-.539 1.973-.8086 3.176-.8086 1.711 0 3.106.5235 4.184 1.5703 1.086 1.0469 1.691 2.4688 1.816 4.2657l.024.8672c0 1.9453-.543 3.5078-1.629 4.6875-1.086 1.1718-2.543 1.7578-4.371 1.7578s-3.289-.586-4.383-1.7578c-1.086-1.1719-1.629-2.7657-1.629-4.7813zm3.387.2461c0 1.2031.226 2.125.679 2.7656.453.6328 1.102.9492 1.946.9492.82 0 1.461-.3125 1.922-.9375.46-.6328.691-1.6406.691-3.0234 0-1.1797-.231-2.0938-.691-2.7422-.461-.6485-1.11-.9727-1.946-.9727-.828 0-1.469.3242-1.922.9727-.453.6406-.679 1.6367-.679 2.9883zm21.738 6.2109h-3.398v-9.9375h-4.243v9.9375h-3.386v-12.6797h11.027zm2.062-6.457c0-1.2578.243-2.3789.727-3.3633s1.18-1.7461 2.086-2.2852c.914-.539 1.973-.8086 3.176-.8086 1.711 0 3.105.5235 4.183 1.5703 1.086 1.0469 1.692 2.4688 1.817 4.2657l.023.8672c0 1.9453-.543 3.5078-1.629 4.6875-1.086 1.1718-2.543 1.7578-4.371 1.7578s-3.289-.586-4.383-1.7578c-1.086-1.1719-1.629-2.7657-1.629-4.7813zm3.387.2461c0 1.2031.227 2.125.68 2.7656.453.6328 1.101.9492 1.945.9492.82 0 1.461-.3125 1.922-.9375.461-.6328.691-1.6406.691-3.0234 0-1.1797-.23-2.0938-.691-2.7422-.461-.6485-1.109-.9727-1.945-.9727-.828 0-1.469.3242-1.922.9727-.453.6406-.68 1.6367-.68 2.9883zm21.551-6.4688v12.6797h-3.387v-9.9375h-2.988l-.211 3.9141c-.133 2.0859-.543 3.6054-1.23 4.5586-.688.9531-1.711 1.4414-3.071 1.4648h-1.148l-.035-2.7539.422-.0352c.609-.0468 1.054-.4062 1.335-1.0781.282-.6719.457-1.8164.528-3.4336l.234-5.3789zm7.348 7.8867 2.343-7.8867h3.633l-5.098 14.6485-.281.6679c-.758 1.6563-2.008 2.4844-3.75 2.4844-.492 0-.992-.0742-1.5-.2227v-2.5664l.516.0118c.641 0 1.117-.0977 1.43-.293.32-.1953.57-.5196.75-.9727l.398-1.0429-4.441-12.7149h3.644zm18 4.793h-3.387v-3.9844c-.633.1172-1.223.1758-1.77.1758-1.914 0-3.355-.4062-4.324-1.2187s-1.461-2-1.476-3.5625v-4.0899h3.386v4.0899c.008.7343.188 1.2617.539 1.582.352.3125.977.4687 1.875.4687.563 0 1.153-.0664 1.77-.1992v-5.9414h3.387zm9.949 0c-.156-.3047-.27-.6836-.34-1.1367-.82.914-1.887 1.3711-3.199 1.3711-1.242 0-2.274-.3594-3.094-1.0782-.812-.7187-1.219-1.625-1.219-2.7187 0-1.3437.496-2.375 1.489-3.0937 1-.7188 2.441-1.0821 4.324-1.0899h1.558v-.7266c0-.5859-.152-1.0546-.457-1.4062-.297-.3516-.769-.5273-1.418-.5273-.57 0-1.019.1367-1.347.4101-.321.2734-.481.6484-.481 1.125h-3.387c0-.7344.227-1.4141.68-2.0391s1.094-1.1132 1.922-1.4648c.828-.3594 1.758-.5391 2.789-.5391 1.563 0 2.801.3946 3.715 1.1836.922.7813 1.383 1.8828 1.383 3.3047v5.4961c.008 1.2031.176 2.1133.504 2.7305v.1992zm-2.801-2.3555c.5 0 .961-.1093 1.383-.3281.422-.2266.734-.5273.937-.9023v-2.1797h-1.265c-1.696 0-2.598.5859-2.707 1.7578l-.012.1992c0 .4219.148.7695.445 1.043.297.2734.703.4101 1.219.4101zm18.656-7.6054h-4.066v9.9609h-3.399v-9.9609h-3.996v-2.7188h11.461zm6.797 10.1953c-1.859 0-3.375-.5703-4.547-1.711-1.164-1.1406-1.746-2.6601-1.746-4.5586v-.3281c0-1.2734.246-2.4101.738-3.4101.493-1.0078 1.188-1.7813 2.086-2.3204.907-.5468 1.938-.8203 3.094-.8203 1.735 0 3.098.5469 4.09 1.6407 1 1.0937 1.5 2.6445 1.5 4.6523v1.3828h-8.074c.109.8281.437 1.4922.984 1.9922.555.5 1.254.75 2.098.75 1.304 0 2.324-.4727 3.058-1.418l1.664 1.8633c-.507.7188-1.195 1.2813-2.062 1.6875-.867.3985-1.828.5977-2.883.5977zm-.387-10.4063c-.671 0-1.218.2266-1.64.6797-.414.4531-.68 1.1016-.797 1.9453h4.711v-.2695c-.016-.75-.219-1.3281-.61-1.7344-.39-.414-.945-.6211-1.664-.6211zm18.563-2.5078v12.6797h-3.387v-9.9375h-2.988l-.211 3.9141c-.133 2.0859-.543 3.6054-1.23 4.5586-.688.9531-1.711 1.4414-3.071 1.4648h-1.148l-.035-2.7539.421-.0352c.61-.0468 1.055-.4062 1.336-1.0781.282-.6719.457-1.8164.528-3.4336l.234-5.3789zm6.234 3.7149h2.426c1.094 0 2.055.1836 2.883.5507.828.3672 1.461.8946 1.898 1.5821.446.6797.668 1.4726.668 2.3789 0 1.3359-.496 2.414-1.488 3.2343-.984.8126-2.328 1.2188-4.031 1.2188h-5.754v-12.6797h3.398zm0 2.7187v3.5391h2.403c.672 0 1.187-.1563 1.547-.4688.359-.3125.539-.7383.539-1.2773 0-.5469-.176-.9805-.528-1.3008-.351-.3281-.871-.4922-1.558-.4922zm15.621-.4219c0 1.7657-.254 3.4649-.761 5.0977-.508 1.6328-1.239 3.0742-2.192 4.3242s-1.972 2.1094-3.058 2.5781l-.657-1.7929c1.11-.836 1.985-2.125 2.625-3.8672.641-1.7422.973-3.7461.997-6.0117v-.6211c0-2.336-.321-4.3946-.961-6.1758-.633-1.7813-1.52-3.1172-2.661-4.0078l.657-1.793c1.062.4609 2.062 1.2969 3 2.5078.945 1.2109 1.675 2.6211 2.191 4.2305.524 1.6094.797 3.2773.82 5.0039z"/><path d="m15.4219 216h-3.5274v-14.215h-6.832v14.215h-3.51562v-17.062h13.87502zm14.2851-6.223c0 1.953-.4453 3.52-1.3359 4.7-.8828 1.171-2.0781 1.757-3.5859 1.757-1.2813 0-2.3164-.445-3.1055-1.336v5.977h-3.3867v-17.555h3.1406l.1172 1.242c.8203-.984 1.8906-1.476 3.2109-1.476 1.5625 0 2.7774.578 3.6445 1.734.8672 1.157 1.3008 2.75 1.3008 4.782zm-3.3867-.246c0-1.179-.2109-2.09-.6328-2.73-.4141-.641-1.0195-.961-1.8164-.961-1.0625 0-1.793.406-2.1914 1.219v5.191c.4141.836 1.1523 1.254 2.2148 1.254 1.6172 0 2.4258-1.324 2.4258-3.973zm4.9688.012c0-1.258.2421-2.379.7265-3.363.4844-.985 1.1797-1.746 2.086-2.285.914-.54 1.9726-.809 3.1757-.809 1.711 0 3.1055.523 4.1836 1.57 1.086 1.047 1.6914 2.469 1.8164 4.266l.0235.867c0 1.945-.543 3.508-1.6289 4.688-1.086 1.171-2.543 1.757-4.3711 1.757s-3.2891-.586-4.3828-1.757c-1.086-1.172-1.6289-2.766-1.6289-4.782zm3.3867.246c0 1.203.2265 2.125.6797 2.766.4531.633 1.1015.949 1.9453.949.8203 0 1.4609-.313 1.9219-.938.4609-.632.6914-1.64.6914-3.023 0-1.18-.2305-2.094-.6914-2.742-.461-.649-1.1094-.973-1.9454-.973-.8281 0-1.4687.324-1.9218.973-.4532.64-.6797 1.637-.6797 2.988zm10.043 3.481c.7656-.813 1.2851-1.618 1.5585-2.415.2735-.796.4258-1.925.4571-3.386l.0937-4.149h9.3281v9.95h1.8282v6.539h-3.3867v-3.809h-7.5118v3.809h-3.457v-6.539zm3.996 0h4.0664v-7.149h-2.6367l-.0234 1.524c-.0703 2.328-.5391 4.203-1.4063 5.625zm18.3399 2.73c-.1563-.305-.2695-.684-.3399-1.137-.8203.914-1.8867 1.371-3.1992 1.371-1.2422 0-2.2734-.359-3.0937-1.078-.8125-.718-1.2188-1.625-1.2188-2.718 0-1.344.4961-2.376 1.4883-3.094 1-.719 2.4414-1.082 4.3242-1.09h1.5586v-.727c0-.586-.1523-1.054-.457-1.406-.2969-.351-.7695-.527-1.418-.527-.5703 0-1.0195.136-1.3476.41-.3204.273-.4805.648-.4805 1.125h-3.3867c0-.734.2265-1.414.6797-2.039.4531-.625 1.0937-1.113 1.9218-1.465.8282-.359 1.7579-.539 2.7891-.539 1.5625 0 2.8008.394 3.7148 1.184.9219.781 1.3829 1.882 1.3829 3.304v5.496c.0078 1.203.1757 2.114.5039 2.731v.199zm-2.8008-2.355c.5 0 .9609-.11 1.3828-.329.4219-.226.7344-.527.9375-.902v-2.18h-1.2656c-1.6953 0-2.5977.586-2.707 1.758l-.0118.199c0 .422.1485.77.4454 1.043.2968.274.7031.411 1.2187.411zm14.1563 2.589c-1.8594 0-3.375-.57-4.5469-1.711-1.1641-1.14-1.7461-2.66-1.7461-4.558v-.328c0-1.274.2461-2.41.7383-3.41.4922-1.008 1.1875-1.782 2.0859-2.321.9063-.547 1.9375-.82 3.0938-.82 1.7343 0 3.0976.547 4.0898 1.641 1 1.093 1.5 2.644 1.5 4.652v1.383h-8.0742c.1094.828.4375 1.492.9844 1.992.5546.5 1.2539.75 2.0976.75 1.3047 0 2.3242-.473 3.0586-1.418l1.6641 1.863c-.5078.719-1.1953 1.281-2.0625 1.688-.8672.398-1.8282.597-2.8828.597zm-.3868-10.406c-.6718 0-1.2187.227-1.6406.68-.414.453-.6797 1.101-.7969 1.945h4.711v-.269c-.0157-.75-.2188-1.329-.6094-1.735-.3906-.414-.9453-.621-1.6641-.621zm17.918.211h-4.0664v9.961h-3.3984v-9.961h-3.9961v-2.719h11.4609zm15.3286-2.719h3.386v12.68h-3.386v-7.828l-4.243 7.828h-3.398v-12.68h3.398v7.817zm13.699 8.684 3.316-8.684h4.242v12.68h-3.386v-7.781l-3.036 7.781h-2.273l-2.977-7.652v7.652h-3.386v-12.68h4.207zm15.246-.797 2.344-7.887h3.632l-5.097 14.649-.282.668c-.757 1.656-2.007 2.484-3.75 2.484-.492 0-.992-.074-1.5-.223v-2.566l.516.012c.641 0 1.117-.098 1.43-.293.32-.196.57-.52.75-.973l.398-1.043-4.441-12.715h3.644zm10.664-7.887v9.95h3.48v-9.95h3.399v9.95h3.469v-9.95h3.398v9.973h2.52l-.235 6.469h-3.152v-3.762h-16.266v-12.68zm23.883 12.914c-1.86 0-3.375-.57-4.547-1.711-1.164-1.14-1.746-2.66-1.746-4.558v-.328c0-1.274.246-2.41.738-3.41.492-1.008 1.188-1.782 2.086-2.321.906-.547 1.937-.82 3.094-.82 1.734 0 3.097.547 4.09 1.641 1 1.093 1.5 2.644 1.5 4.652v1.383h-8.075c.11.828.438 1.492.985 1.992.554.5 1.254.75 2.097.75 1.305 0 2.325-.473 3.059-1.418l1.664 1.863c-.508.719-1.195 1.281-2.062 1.688-.868.398-1.829.597-2.883.597zm-.387-10.406c-.672 0-1.219.227-1.641.68-.414.453-.679 1.101-.796 1.945h4.71v-.269c-.015-.75-.218-1.329-.609-1.735-.391-.414-.945-.621-1.664-.621zm12.809 7.676c.625 0 1.132-.172 1.523-.516.391-.343.594-.8.609-1.371h3.176c-.008.86-.242 1.649-.703 2.367-.461.711-1.094 1.266-1.898 1.664-.797.391-1.68.586-2.649.586-1.812 0-3.242-.574-4.289-1.722-1.047-1.157-1.57-2.75-1.57-4.782v-.222c0-1.953.519-3.512 1.558-4.676s2.465-1.746 4.278-1.746c1.586 0 2.855.453 3.808 1.359.961.899 1.45 2.098 1.465 3.598h-3.176c-.015-.656-.218-1.188-.609-1.594-.391-.414-.906-.621-1.547-.621-.789 0-1.387.289-1.793.867-.398.571-.597 1.5-.597 2.789v.352c0 1.305.199 2.242.597 2.812.399.571 1.004.856 1.817.856zm17.765-7.465h-4.066v9.961h-3.399v-9.961h-3.996v-2.719h11.461zm1.934 9.961v-12.68h5.297c1.726 0 3.05.305 3.972.914.922.61 1.383 1.485 1.383 2.625 0 .586-.195 1.114-.586 1.582-.383.461-.945.817-1.687 1.067.906.172 1.617.512 2.133 1.019.523.5.785 1.118.785 1.852 0 1.18-.446 2.078-1.336 2.695-.883.617-2.168.926-3.856.926zm3.387-5.262v2.555h2.73c1.195 0 1.793-.418 1.793-1.254 0-.851-.57-1.285-1.711-1.301zm0-2.273h2.097c1.188-.016 1.781-.399 1.781-1.149 0-.461-.164-.789-.492-.984-.32-.195-.812-.293-1.476-.293h-1.91zm9.457 1.078c0-1.258.242-2.379.726-3.363.485-.985 1.18-1.746 2.086-2.285.914-.54 1.973-.809 3.176-.809 1.711 0 3.105.523 4.183 1.57 1.086 1.047 1.692 2.469 1.817 4.266l.023.867c0 1.945-.543 3.508-1.629 4.688-1.086 1.171-2.543 1.757-4.371 1.757s-3.289-.586-4.383-1.757c-1.085-1.172-1.628-2.766-1.628-4.782zm3.386.246c0 1.203.227 2.125.68 2.766.453.633 1.102.949 1.945.949.821 0 1.461-.313 1.922-.938.461-.632.692-1.64.692-3.023 0-1.18-.231-2.094-.692-2.742-.461-.649-1.109-.973-1.945-.973-.828 0-1.469.324-1.922.973-.453.64-.68 1.637-.68 2.988z"/><path d="m289.883 367.938v17.062h-3.528v-14.215h-4.546l-.282 6.024c-.117 2.031-.375 3.632-.773 4.804-.399 1.164-.981 2.02-1.746 2.567-.766.539-1.813.812-3.141.82h-.914v-2.824l.586-.059c.883-.117 1.512-.625 1.887-1.523.383-.906.625-2.516.726-4.828l.293-7.828zm10.488 4.382h3.387v12.68h-3.387v-7.828l-4.242 7.828h-3.399v-12.68h3.399v7.817zm12.633 3.739c0-.446-.149-.789-.445-1.032-.289-.25-.704-.375-1.243-.375-.554 0-1.007.118-1.359.352-.344.226-.516.551-.516.973h-3.386c0-1.149.476-2.082 1.429-2.801.954-.719 2.172-1.078 3.657-1.078 1.632 0 2.914.32 3.843.961.938.64 1.407 1.55 1.407 2.73 0 .563-.172 1.082-.516 1.559-.336.468-.813.843-1.43 1.125 1.446.507 2.168 1.488 2.168 2.941 0 1.164-.5 2.094-1.5 2.789-.992.688-2.316 1.031-3.972 1.031-1.539 0-2.805-.359-3.797-1.078-.992-.718-1.489-1.687-1.489-2.906h3.387c0 .43.192.777.574 1.043.383.266.883.398 1.5.398.602 0 1.071-.14 1.407-.421.336-.282.504-.649.504-1.102 0-.555-.161-.949-.481-1.184-.32-.242-.801-.363-1.441-.363h-1.84v-2.203h1.957c1.055-.031 1.582-.484 1.582-1.359zm13.312-3.739h3.387v12.68h-3.387v-7.828l-4.242 7.828h-3.398v-12.68h3.398v7.817zm16.969 12.68h-3.398v-4.875h-4.207v4.875h-3.387v-12.68h3.387v5.086h4.207v-5.086h3.398zm11.262-9.938h-5.25v9.938h-3.387v-12.68h8.637zm.656 3.481c0-1.258.242-2.379.727-3.363.484-.985 1.179-1.746 2.086-2.285.914-.54 1.972-.809 3.175-.809 1.711 0 3.106.523 4.184 1.57 1.086 1.047 1.691 2.469 1.816 4.266l.024.867c0 1.945-.543 3.508-1.629 4.688-1.086 1.171-2.543 1.757-4.371 1.757s-3.289-.586-4.383-1.757c-1.086-1.172-1.629-2.766-1.629-4.782zm3.387.246c0 1.203.226 2.125.68 2.766.453.633 1.101.949 1.945.949.82 0 1.461-.313 1.922-.938.461-.632.691-1.64.691-3.023 0-1.18-.23-2.094-.691-2.742-.461-.649-1.11-.973-1.946-.973-.828 0-1.468.324-1.921.973-.454.64-.68 1.637-.68 2.988zm10.043 3.481c.765-.813 1.285-1.618 1.558-2.415.274-.796.426-1.925.457-3.386l.094-4.149h9.328v9.95h1.828v6.539h-3.386v-3.809h-7.512v3.809h-3.457v-6.539zm3.996 0h4.066v-7.149h-2.636l-.024 1.524c-.07 2.328-.539 4.203-1.406 5.625zm18.34 2.73c-.157-.305-.27-.684-.34-1.137-.82.914-1.887 1.371-3.199 1.371-1.242 0-2.274-.359-3.094-1.078-.813-.718-1.219-1.625-1.219-2.718 0-1.344.496-2.376 1.488-3.094 1-.719 2.442-1.082 4.325-1.09h1.558v-.727c0-.586-.152-1.054-.457-1.406-.297-.351-.769-.527-1.418-.527-.57 0-1.019.136-1.347.41-.321.273-.481.648-.481 1.125h-3.387c0-.734.227-1.414.68-2.039s1.094-1.113 1.922-1.465c.828-.359 1.758-.539 2.789-.539 1.563 0 2.801.394 3.715 1.184.922.781 1.383 1.882 1.383 3.304v5.496c.008 1.203.175 2.114.504 2.731v.199zm-2.801-2.355c.5 0 .961-.11 1.383-.329.422-.226.734-.527.937-.902v-2.18h-1.265c-1.696 0-2.598.586-2.707 1.758l-.012.199c0 .422.148.77.445 1.043.297.274.703.411 1.219.411zm18.656-7.606h-4.066v9.961h-3.399v-9.961h-3.996v-2.719h11.461zm6.797 10.195c-1.859 0-3.375-.57-4.547-1.711-1.164-1.14-1.746-2.66-1.746-4.558v-.328c0-1.274.246-2.41.738-3.41.493-1.008 1.188-1.782 2.086-2.321.907-.547 1.938-.82 3.094-.82 1.734 0 3.098.547 4.09 1.641 1 1.093 1.5 2.644 1.5 4.652v1.383h-8.074c.109.828.437 1.492.984 1.992.555.5 1.254.75 2.098.75 1.304 0 2.324-.473 3.058-1.418l1.664 1.863c-.507.719-1.195 1.281-2.062 1.688-.867.398-1.828.597-2.883.597zm-.387-10.406c-.672 0-1.218.227-1.64.68-.414.453-.68 1.101-.797 1.945h4.711v-.269c-.016-.75-.219-1.329-.61-1.735-.39-.414-.945-.621-1.664-.621zm18.563-2.508v12.68h-3.387v-9.938h-2.988l-.211 3.915c-.133 2.085-.543 3.605-1.231 4.558-.687.953-1.71 1.442-3.07 1.465h-1.148l-.035-2.754.421-.035c.61-.047 1.055-.406 1.336-1.078.282-.672.457-1.817.528-3.434l.234-5.379zm6.234 3.715h2.426c1.094 0 2.055.184 2.883.551s1.461.894 1.898 1.582c.446.68.668 1.473.668 2.379 0 1.336-.496 2.414-1.488 3.234-.984.813-2.328 1.219-4.031 1.219h-5.754v-12.68h3.398zm0 2.719v3.539h2.403c.671 0 1.187-.156 1.546-.469.36-.312.54-.738.54-1.277 0-.547-.176-.981-.528-1.301-.351-.328-.871-.492-1.558-.492z"/></g><path d="m356.741 101.818c1.55 1.497 4.007 1.497 5.557 0l16.511-15.9399c2.588-2.4988.819-6.8778-2.778-6.8778h-33.023c-3.598 0-5.366 4.379-2.778 6.8778z" fill="#ffcd15"/><path d="m108.436 265.099c1.162 1.122 3.005 1.122 4.167 0l16.511-15.94c1.942-1.874.615-5.159-2.083-5.159h-33.023c-2.6982 0-4.0248 3.285-2.0836 5.159z" stroke="#ffcd15" stroke-width="2"/><path d="m362.298 323.122c-1.55-1.496-4.007-1.496-5.557 0l-16.511 15.94c-2.588 2.499-.819 6.878 2.778 6.878h33.023c3.598 0 5.367-4.379 2.778-6.878z" fill="#ffcd15"/><path d="m634.603 142.842c-1.162-1.123-3.005-1.123-4.167 0l-16.511 15.94c-1.942 1.874-.615 5.158 2.083 5.158h33.023c2.698 0 4.025-3.284 2.084-5.158z" stroke="#ffcd15" stroke-width="2"/></svg>