<svg fill="none" height="346" viewBox="0 0 300 346" width="300" xmlns="http://www.w3.org/2000/svg"><path d="m123.714 11.7705h-1.521v5.2295h-2.636v-12.79688h2.636v5.12403h1.204l3.129-5.12403h3.217l-3.946 6.05568 4.359 6.7412h-3.146zm15.565-4.28027v9.50977h-2.54v-7.45312h-2.241l-.158 2.93552c-.1 1.5645-.407 2.7041-.923 3.419-.516.7148-1.283 1.081-2.303 1.0986h-.861l-.026-2.0654.316-.0264c.457-.0352.791-.3047 1.002-.8086s.343-1.3623.395-2.5752l.176-4.03417zm7.691 0h2.54v9.50977h-2.54v-5.8711l-3.182 5.8711h-2.549v-9.50977h2.549v5.86227zm8.859 9.68557c-1.394 0-2.531-.4278-3.41-1.2832-.873-.8555-1.31-1.9951-1.31-3.419v-.2461c0-.955.185-1.8076.554-2.55758.369-.75586.891-1.33594 1.565-1.74023.679-.41016 1.453-.61524 2.32-.61524 1.301 0 2.323.41016 3.067 1.23047.75.82031 1.125 1.98338 1.125 3.48928v1.0371h-6.055c.082.6211.328 1.1191.738 1.4941.416.375.94.5625 1.573.5625.979 0 1.743-.3545 2.294-1.0634l1.248 1.3974c-.381.5391-.896.961-1.547 1.2656-.65.2989-1.371.4483-2.162.4483zm-.29-7.80471c-.504 0-.914.16993-1.23.50977-.311.33984-.51.82614-.598 1.45894h3.533v-.2021c-.012-.5625-.164-.9961-.457-1.30079-.293-.31054-.709-.46582-1.248-.46582zm13.896 7.62891h-2.549v-3.6562h-3.156v3.6562h-2.54v-9.50977h2.54v3.81447h3.156v-3.81447h2.549zm9.861-7.4707h-3.05v7.4707h-2.549v-7.4707h-2.997v-2.03907h8.596zm-118.1866 23.2676c0-1.3418.1787-2.6192.5361-3.8321.3574-1.2128.8848-2.2851 1.582-3.2168.6973-.9375 1.4532-1.5878 2.2676-1.9511l.4922 1.3711c-.8555.6328-1.5234 1.6113-2.0039 2.9355s-.7207 2.8711-.7207 4.6406v.2725c0 1.7754.2373 3.3281.7119 4.6582s1.1455 2.3232 2.0127 2.9795l-.4922 1.3447c-.7969-.3574-1.541-.9902-2.2324-1.8984-.6856-.9024-1.21-1.9453-1.5732-3.1289-.3633-1.1836-.5567-2.4199-.5801-3.709zm14.4844-4.3067v9.5098h-2.5401v-7.4531h-2.2412l-.1582 2.9355c-.0996 1.5645-.4072 2.7041-.9229 3.419-.5156.7148-1.2832 1.081-2.3027 1.0986h-.8613l-.0264-2.0654.3164-.0264c.4571-.0352.791-.3047 1.002-.8086.2109-.5039.3427-1.3623.3955-2.5752l.1758-4.0342zm7.6904 0h2.54v9.5098h-2.54v-5.8711l-3.1817 5.8711h-2.5488v-9.5098h2.5488v5.8623zm9.4746 2.8037c0-.3339-.1113-.5918-.334-.7734-.2168-.1875-.5273-.2812-.9316-.2812-.4161 0-.7559.0878-1.0196.2636-.2578.17-.3867.4131-.3867.7295h-2.54c0-.8613.3574-1.5615 1.0722-2.1006.7149-.539 1.6289-.8086 2.7422-.8086 1.2246 0 2.1856.2403 2.8828.7207.7032.4805 1.0547 1.1631 1.0547 2.0479 0 .4219-.1289.8115-.3867 1.1689-.2519.3516-.6094.6329-1.0723.8438 1.084.3809 1.626 1.1162 1.626 2.206 0 .8731-.375 1.5704-1.125 2.0918-.7441.5157-1.7373.7735-2.9795.7735-1.1543 0-2.1035-.2696-2.8476-.8086-.7442-.5391-1.1162-1.2656-1.1162-2.1797h2.54c0 .3223.1436.583.4307.7822s.6621.2989 1.125.2989c.4511 0 .8027-.1055 1.0547-.3165.2519-.2109.3779-.4863.3779-.8261 0-.416-.1201-.7119-.3604-.8877-.2402-.1817-.6006-.2725-1.081-.2725h-1.3799v-1.6523h1.4678c.791-.0235 1.1865-.3633 1.1865-1.0196zm9.9842-2.8037h2.54v9.5098h-2.54v-5.8711l-3.1815 5.8711h-2.5488v-9.5098h2.5488v5.8623zm12.727 9.5098h-2.549v-3.6562h-3.155v3.6562h-2.54v-9.5098h2.54v3.8145h3.155v-3.8145h2.549zm8.446-7.4531h-3.937v7.4531h-2.541v-9.5098h6.478zm.492 2.6103c0-.9433.182-1.7842.545-2.5224.363-.7383.885-1.3096 1.565-1.7139.685-.4043 1.479-.6064 2.381-.6064 1.284 0 2.33.3925 3.138 1.1777.815.7851 1.269 1.8516 1.362 3.1992l.018.6504c0 1.459-.407 2.6309-1.222 3.5156-.814.8789-1.907 1.3184-3.278 1.3184s-2.467-.4395-3.287-1.3184c-.815-.8789-1.222-2.0742-1.222-3.5859zm2.54.1846c0 .9023.17 1.5937.51 2.0742.34.4746.826.7119 1.459.7119.615 0 1.096-.2343 1.441-.7031.346-.4746.519-1.2305.519-2.2676 0-.8847-.173-1.5703-.519-2.0566-.345-.4863-.832-.7295-1.459-.7295-.621 0-1.101.2432-1.441.7295-.34.4805-.51 1.2275-.51 2.2412zm16.304 4.6582h-2.549v-7.4531h-3.182v7.4531h-2.54v-9.5098h8.271zm1.547-4.8428c0-.9433.181-1.7842.545-2.5224.363-.7383.885-1.3096 1.564-1.7139.686-.4043 1.48-.6064 2.382-.6064 1.283 0 2.329.3925 3.138 1.1777.814.7851 1.268 1.8516 1.362 3.1992l.018.6504c0 1.459-.408 2.6309-1.222 3.5156-.815.8789-1.907 1.3184-3.278 1.3184s-2.467-.4395-3.287-1.3184c-.815-.8789-1.222-2.0742-1.222-3.5859zm2.54.1846c0 .9023.17 1.5937.51 2.0742.339.4746.826.7119 1.459.7119.615 0 1.095-.2343 1.441-.7031.346-.4746.519-1.2305.519-2.2676 0-.8847-.173-1.5703-.519-2.0566s-.832-.7295-1.459-.7295c-.621 0-1.102.2432-1.441.7295-.34.4805-.51 1.2275-.51 2.2412zm16.163-4.8516v9.5098h-2.54v-7.4531h-2.241l-.159 2.9355c-.099 1.5645-.407 2.7041-.922 3.419-.516.7148-1.284 1.081-2.303 1.0986h-.861l-.027-2.0654.317-.0264c.457-.0352.791-.3047 1.002-.8086s.342-1.3623.395-2.5752l.176-4.0342zm5.511 5.9151 1.758-5.9151h2.724l-3.823 10.9864-.211.5009c-.568 1.2422-1.506 1.8633-2.813 1.8633-.369 0-.744-.0556-1.125-.167v-1.9248l.387.0088c.481 0 .838-.0732 1.072-.2197.241-.1465.428-.3897.563-.7295l.299-.7822-3.331-9.5362h2.733zm13.5 3.5947h-2.54v-2.9883c-.475.0879-.917.1319-1.327.1319-1.436 0-2.517-.3047-3.244-.9141-.726-.6094-1.095-1.5-1.107-2.6719v-3.0674h2.54v3.0674c.006.5508.141.9463.404 1.1865.264.2344.733.3516 1.407.3516.421 0 .864-.0498 1.327-.1494v-4.4561h2.54zm7.462 0c-.118-.2285-.203-.5127-.255-.8525-.616.6855-1.415 1.0283-2.4 1.0283-.931 0-1.705-.2696-2.32-.8086-.609-.5391-.914-1.2188-.914-2.0391 0-1.0078.372-1.7812 1.116-2.3203.75-.539 1.831-.8115 3.243-.8174h1.169v-.5449c0-.4394-.114-.791-.343-1.0547-.222-.2637-.577-.3955-1.063-.3955-.428 0-.765.1026-1.011.3076-.24.2051-.36.4864-.36.8438h-2.54c0-.5508.17-1.0606.51-1.5293.339-.4688.82-.835 1.441-1.0986.621-.2696 1.318-.4043 2.092-.4043 1.172 0 2.1.2959 2.786.8876.691.586 1.037 1.4122 1.037 2.4786v4.122c.006.9024.132 1.585.378 2.0479v.1494zm-2.101-1.7666c.375 0 .721-.082 1.037-.2461.317-.1699.551-.3955.703-.6768v-1.6347h-.949c-1.271 0-1.948.4394-2.03 1.3183l-.009.1495c0 .3164.111.5771.334.7822s.527.3076.914.3076zm13.992-5.7041h-3.05v7.4707h-2.548v-7.4707h-2.997v-2.0391h8.595zm5.098 7.6465c-1.395 0-2.531-.4278-3.41-1.2832-.873-.8555-1.31-1.9951-1.31-3.419v-.2461c0-.955.185-1.8076.554-2.5576.369-.7558.89-1.3359 1.564-1.7402.68-.4102 1.453-.6152 2.321-.6152 1.3 0 2.323.4101 3.067 1.2304.75.8203 1.125 1.9834 1.125 3.4893v1.0371h-6.056c.082.6211.328 1.1191.739 1.4941.416.375.94.5625 1.573.5625.978 0 1.743-.3545 2.294-1.0634l1.248 1.3974c-.381.5391-.897.961-1.547 1.2656-.65.2989-1.371.4483-2.162.4483zm-.29-7.8047c-.504 0-.914.1699-1.231.5098-.31.3398-.509.8261-.597 1.4589h3.533v-.2021c-.012-.5625-.164-.9961-.457-1.3008-.293-.3105-.709-.4658-1.248-.4658zm13.922-1.8809v9.5098h-2.54v-7.4531h-2.242l-.158 2.9355c-.099 1.5645-.407 2.7041-.923 3.419-.515.7148-1.283 1.081-2.302 1.0986h-.862l-.026-2.0654.316-.0264c.457-.0352.791-.3047 1.002-.8086s.343-1.3623.396-2.5752l.176-4.0342zm4.675 2.7862h1.82c.82 0 1.541.1377 2.162.4131.621.2753 1.096.6709 1.424 1.1865.334.5097.501 1.1045.501 1.7842 0 1.0019-.372 1.8105-1.116 2.4257-.739.6094-1.747.9141-3.024.9141h-4.315v-9.5098h2.548zm0 2.039v2.6543h1.802c.504 0 .891-.1172 1.16-.3515.27-.2344.405-.5537.405-.958 0-.4102-.132-.7354-.396-.9756-.263-.2461-.653-.3692-1.169-.3692zm11.716-.3164c0 1.3242-.19 2.5987-.571 3.8233s-.929 2.3056-1.644 3.2431c-.714.9375-1.479 1.5821-2.293 1.9336l-.493-1.3447c.832-.627 1.489-1.5938 1.969-2.9004.481-1.3066.73-2.8096.747-4.5088v-.4658c0-1.752-.24-3.2959-.721-4.6318-.474-1.336-1.139-2.3379-1.995-3.0059l.493-1.3447c.796.3457 1.546.9726 2.25 1.8808.709.9082 1.256 1.9659 1.643 3.1729.393 1.207.598 2.458.615 3.7529z" fill="#232422"/><path d="m145.741 88.8182c1.55 1.4963 4.007 1.4963 5.557 0l16.511-15.9401c2.588-2.4988.819-6.8778-2.778-6.8778h-33.023c-3.598 0-5.366 4.379-2.778 6.8778z" fill="#ffcd15"/><path d="m45.4346 160h-2.6455v-10.661h-5.1241v10.661h-2.6367v-12.797h10.4063zm10.7138-4.667c0 1.465-.3339 2.64-1.0019 3.524-.6621.879-1.5586 1.319-2.6895 1.319-.9609 0-1.7373-.334-2.3291-1.002v4.482h-2.54v-13.166h2.3555l.0878.932c.6153-.738 1.418-1.108 2.4083-1.108 1.1718 0 2.083.434 2.7334 1.301.6503.867.9755 2.063.9755 3.586zm-2.54-.185c0-.884-.1582-1.567-.4746-2.047-.3106-.481-.7647-.721-1.3623-.721-.7969 0-1.3447.305-1.6436.914v3.894c.3106.626.8643.94 1.6612.94 1.2129 0 1.8193-.993 1.8193-2.98zm3.7266.009c0-.943.1816-1.784.5449-2.522.3633-.739.8847-1.31 1.5644-1.714.6856-.404 1.4795-.607 2.3819-.607 1.2832 0 2.3291.393 3.1377 1.178.8144.785 1.2685 1.852 1.3623 3.199l.0176.651c0 1.459-.4073 2.631-1.2217 3.515-.8145.879-1.9073 1.319-3.2783 1.319-1.3711 0-2.4668-.44-3.2872-1.319-.8144-.878-1.2216-2.074-1.2216-3.586zm2.54.185c0 .902.1699 1.594.5098 2.074.3398.475.8261.712 1.459.712.6152 0 1.0957-.234 1.4414-.703.3457-.475.5185-1.231.5185-2.268 0-.885-.1728-1.57-.5185-2.056-.3457-.487-.8321-.73-1.459-.73-.6211 0-1.1016.243-1.4414.73-.3399.48-.5098 1.227-.5098 2.241zm7.5322 2.61c.5742-.609.9639-1.213 1.169-1.81.205-.598.3193-1.445.3427-2.54l.0704-3.112h6.9961v7.462h1.371v4.904h-2.54v-2.856h-5.6338v2.856h-2.5928v-4.904zm2.9971 0h3.0498v-5.361h-1.9775l-.0176 1.142c-.0528 1.746-.4043 3.153-1.0547 4.219zm13.7549 2.048c-.1172-.229-.2022-.513-.2549-.853-.6152.686-1.415 1.029-2.3994 1.029-.9317 0-1.7051-.27-2.3203-.809-.6094-.539-.9141-1.219-.9141-2.039 0-1.008.3721-1.781 1.1162-2.32.75-.539 1.8311-.812 3.2432-.818h1.1689v-.544c0-.44-.1142-.792-.3427-1.055-.2227-.264-.5772-.396-1.0635-.396-.4278 0-.7647.103-1.0108.308-.2402.205-.3603.486-.3603.844h-2.5401c0-.551.17-1.061.5098-1.53.3399-.468.8203-.835 1.4414-1.098.6211-.27 1.3184-.405 2.0918-.405 1.1719 0 2.1006.296 2.7861.888.6915.586 1.0372 1.412 1.0372 2.479v4.122c.0058.902.1318 1.585.3779 2.048v.149zm-2.1006-1.767c.375 0 .7207-.082 1.0371-.246.3164-.17.5508-.395.7031-.676v-1.635h-.9492c-1.2715 0-1.9482.439-2.0303 1.318l-.0088.15c0 .316.1114.577.334.782.2227.205.5274.307.9141.307zm10.6172 1.943c-1.3946 0-2.5313-.428-3.4102-1.283-.873-.856-1.3095-1.996-1.3095-3.419v-.246c0-.956.1845-1.808.5537-2.558.3691-.756.8906-1.336 1.5644-1.74.6797-.41 1.4531-.616 2.3203-.616 1.3008 0 2.3233.411 3.0674 1.231.75.82 1.125 1.983 1.125 3.489v1.037h-6.0557c.0821.621.3282 1.119.7383 1.494.416.375.9405.563 1.5733.563.9785 0 1.7431-.355 2.2939-1.064l1.2481 1.398c-.3809.539-.8965.961-1.5469 1.266-.6504.298-1.3711.448-2.1621.448zm-.2901-7.805c-.5039 0-.914.17-1.2304.51-.3106.34-.5098.826-.5977 1.459h3.5332v-.202c-.0117-.563-.164-.996-.457-1.301-.293-.311-.709-.466-1.2481-.466zm13.4383.158h-3.05v7.471h-2.548v-7.471h-2.9975v-2.039h8.5955zm-77.9412 18.961h2.5401v9.51h-2.5401v-5.871l-3.1816 5.871h-2.5489v-9.51h2.5489v5.863zm10.2744 6.513 2.4873-6.513h3.1817v9.51h-2.5401v-5.836l-2.2763 5.836h-1.7051l-2.2324-5.739v5.739h-2.5401v-9.51h3.1553zm11.4346-.598 1.7578-5.915h2.7246l-3.8232 10.987-.211.501c-.5683 1.242-1.5058 1.863-2.8125 1.863-.3691 0-.7441-.056-1.125-.167v-1.925l.3868.009c.4804 0 .8378-.073 1.0722-.22.2403-.146.4278-.39.5625-.729l.2989-.783-3.3311-9.536h2.7334zm7.998-5.915v7.462h2.6104v-7.462h2.5488v7.462h2.6016v-7.462h2.5488v7.48h1.8897l-.1758 4.851h-2.3643v-2.821h-12.1992v-9.51zm17.9122 9.686c-1.3946 0-2.5313-.428-3.4102-1.283-.873-.856-1.3096-1.996-1.3096-3.419v-.246c0-.956.1846-1.808.5537-2.558.3692-.756.8907-1.336 1.5645-1.74.6797-.41 1.4531-.616 2.3203-.616 1.3008 0 2.3232.411 3.0674 1.231.75.82 1.125 1.983 1.125 3.489v1.037h-6.0557c.0821.621.3281 1.119.7383 1.494.416.375.9404.563 1.5732.563.9786 0 1.7432-.355 2.294-1.064l1.248 1.398c-.3808.539-.8964.961-1.5468 1.266-.6504.298-1.3711.448-2.1621.448zm-.2901-7.805c-.5039 0-.914.17-1.2305.51-.3105.34-.5097.826-.5976 1.459h3.5332v-.202c-.0117-.563-.1641-.996-.457-1.301-.293-.311-.709-.466-1.2481-.466zm9.6065 5.757c.4687 0 .8496-.129 1.1425-.387.293-.258.4453-.6.4571-1.028h2.3818c-.0059.644-.1816 1.236-.5273 1.775-.3457.533-.8204.95-1.4239 1.248-.5976.293-1.2597.44-1.9863.44-1.3594 0-2.4316-.431-3.2168-1.292-.7851-.867-1.1777-2.063-1.1777-3.586v-.167c0-1.465.3896-2.634 1.1689-3.507s1.8487-1.31 3.208-1.31c1.1895 0 2.1416.34 2.8565 1.02.7207.674 1.0869 1.573 1.0986 2.698h-2.3818c-.0118-.492-.1641-.89-.4571-1.195-.2929-.311-.6797-.466-1.1601-.466-.5918 0-1.0401.217-1.3447.65-.2989.428-.4483 1.125-.4483 2.092v.264c0 .978.1494 1.682.4483 2.109.2988.428.7529.642 1.3623.642zm13.3242-5.599h-3.0498v7.471h-2.5489v-7.471h-2.997v-2.039h8.5957zm1.4502 7.471v-9.51h3.9722c1.295 0 2.289.229 2.98.686s1.037 1.113 1.037 1.969c0 .439-.146.834-.439 1.186-.288.346-.709.612-1.266.8.68.129 1.213.384 1.6.765.392.375.588.837.588 1.388 0 .885-.334 1.559-1.002 2.022-.662.463-1.625.694-2.891.694zm2.5402-3.946v1.916h2.048c.896 0 1.344-.314 1.344-.941 0-.638-.427-.964-1.283-.975zm0-1.705h1.573c.891-.012 1.336-.299 1.336-.862 0-.345-.123-.591-.369-.738-.24-.146-.61-.22-1.108-.22h-1.432zm7.093.808c0-.943.181-1.784.545-2.522.363-.739.884-1.31 1.564-1.714.686-.404 1.479-.607 2.382-.607 1.283 0 2.329.393 3.137 1.178.815.785 1.269 1.852 1.363 3.199l.017.651c0 1.459-.407 2.631-1.221 3.515-.815.879-1.908 1.319-3.279 1.319s-2.466-.44-3.287-1.319c-.814-.878-1.221-2.074-1.221-3.586zm2.54.185c0 .902.17 1.594.509 2.074.34.475.827.712 1.459.712.616 0 1.096-.234 1.442-.703.345-.475.518-1.231.518-2.268 0-.885-.173-1.57-.518-2.056-.346-.487-.832-.73-1.459-.73-.621 0-1.102.243-1.442.73-.339.48-.509 1.227-.509 2.241z" fill="#232422"/><path d="m67.4357 229.099c1.1625 1.122 3.0049 1.122 4.1673 0l16.5114-15.94c1.9412-1.874.6146-5.159-2.0837-5.159h-33.0227c-2.6982 0-4.0248 3.285-2.0836 5.159z" stroke="#ffcd15" stroke-width="2"/><path d="m217.384 177.737c-.1 1.377-.61 2.461-1.53 3.252-.914.791-2.121 1.187-3.621 1.187-1.64 0-2.932-.551-3.876-1.653-.937-1.107-1.406-2.625-1.406-4.552v-.783c0-1.23.217-2.314.651-3.251.433-.938 1.051-1.656 1.854-2.154.809-.504 1.746-.756 2.813-.756 1.476 0 2.666.396 3.568 1.187s1.424 1.901 1.564 3.331h-2.636c-.065-.826-.296-1.424-.695-1.793-.392-.375-.993-.563-1.801-.563-.879 0-1.539.317-1.978.95-.434.627-.656 1.602-.668 2.926v.967c0 1.383.208 2.394.624 3.032.422.639 1.084.958 1.986.958.815 0 1.421-.184 1.82-.553.404-.375.635-.952.694-1.732zm1.696 2.215c.574-.609.964-1.213 1.169-1.81.205-.598.319-1.445.343-2.54l.07-3.112h6.996v7.462h1.371v4.904h-2.54v-2.856h-5.634v2.856h-2.592v-4.904zm2.997 0h3.05v-5.361h-1.978l-.017 1.142c-.053 1.746-.404 3.153-1.055 4.219zm13.755 2.048c-.117-.229-.202-.513-.255-.853-.615.686-1.415 1.029-2.399 1.029-.932 0-1.705-.27-2.321-.809-.609-.539-.914-1.219-.914-2.039 0-1.008.372-1.781 1.117-2.32.75-.539 1.831-.812 3.243-.818h1.169v-.544c0-.44-.115-.792-.343-1.055-.223-.264-.577-.396-1.064-.396-.427 0-.764.103-1.01.308-.241.205-.361.486-.361.844h-2.54c0-.551.17-1.061.51-1.53.34-.468.82-.835 1.441-1.098.622-.27 1.319-.405 2.092-.405 1.172 0 2.101.296 2.786.888.692.586 1.038 1.412 1.038 2.479v4.122c.005.902.131 1.585.377 2.048v.149zm-2.101-1.767c.375 0 .721-.082 1.038-.246.316-.17.55-.395.703-.676v-1.635h-.95c-1.271 0-1.948.439-2.03 1.318l-.009.15c0 .316.112.577.334.782.223.205.528.307.914.307zm10.618 1.943c-1.395 0-2.532-.428-3.411-1.283-.873-.856-1.309-1.996-1.309-3.419v-.246c0-.956.184-1.808.554-2.558.369-.756.89-1.336 1.564-1.74.68-.41 1.453-.616 2.32-.616 1.301 0 2.324.411 3.068 1.231.75.82 1.125 1.983 1.125 3.489v1.037h-6.056c.082.621.328 1.119.738 1.494.416.375.941.563 1.574.563.978 0 1.743-.355 2.294-1.064l1.248 1.398c-.381.539-.897.961-1.547 1.266-.651.298-1.371.448-2.162.448zm-.29-7.805c-.504 0-.914.17-1.231.51-.31.34-.51.826-.598 1.459h3.534v-.202c-.012-.563-.164-.996-.457-1.301-.293-.311-.709-.466-1.248-.466zm13.438.158h-3.05v7.471h-2.549v-7.471h-2.997v-2.039h8.596zm-80.903 28.471h-2.549v-7.453h-3.182v7.453h-2.54v-9.51h8.271zm10.503-4.667c0 1.465-.334 2.64-1.002 3.524-.662.879-1.559 1.319-2.69 1.319-.961 0-1.737-.334-2.329-1.002v4.482h-2.54v-13.166h2.356l.087.932c.616-.738 1.418-1.108 2.409-1.108 1.172 0 2.083.434 2.733 1.301s.976 2.063.976 3.586zm-2.54-.185c0-.884-.159-1.567-.475-2.047-.311-.481-.765-.721-1.362-.721-.797 0-1.345.305-1.644.914v3.894c.311.626.864.94 1.661.94 1.213 0 1.82-.993 1.82-2.98zm9.852-4.658h2.54v9.51h-2.54v-5.871l-3.181 5.871h-2.549v-9.51h2.549v5.863zm4.087 4.667c0-.943.182-1.784.545-2.522.363-.739.885-1.31 1.564-1.714.686-.404 1.48-.607 2.382-.607 1.284 0 2.329.393 3.138 1.178.814.785 1.269 1.852 1.362 3.199l.018.651c0 1.459-.407 2.631-1.222 3.515-.814.879-1.907 1.319-3.278 1.319s-2.467-.44-3.287-1.319c-.815-.878-1.222-2.074-1.222-3.586zm2.54.185c0 .902.17 1.594.51 2.074.34.475.826.712 1.459.712.615 0 1.096-.234 1.441-.703.346-.475.519-1.231.519-2.268 0-.885-.173-1.57-.519-2.056-.345-.487-.832-.73-1.459-.73-.621 0-1.101.243-1.441.73-.34.48-.51 1.227-.51 2.241zm12.753-4.324c1.219 0 2.191.404 2.918 1.212.727.809 1.09 1.908 1.09 3.296v.123c0 1.372-.404 2.47-1.213 3.296s-1.896 1.24-3.261 1.24c-1.371 0-2.464-.446-3.278-1.336-.809-.897-1.213-2.113-1.213-3.648v-.422c.012-2.138.372-3.811 1.081-5.018.715-1.213 1.787-1.978 3.217-2.294.75-.164 1.233-.325 1.45-.484.217-.164.325-.389.325-.676h2.057c0 .92-.249 1.611-.747 2.074-.492.463-1.371.82-2.637 1.072-.75.152-1.342.448-1.775.888-.434.439-.727 1.057-.879 1.854.808-.785 1.764-1.177 2.865-1.177zm-.483 2.056c-.604 0-1.078.202-1.424.607-.34.404-.51 1.06-.51 1.968 0 .809.167 1.427.501 1.855.334.422.817.633 1.45.633.615 0 1.09-.208 1.424-.624s.504-1.029.51-1.837v-.211c0-.779-.173-1.371-.519-1.776-.34-.41-.817-.615-1.432-.615zm14.414 2.259c0 1.465-.334 2.64-1.002 3.524-.662.879-1.559 1.319-2.69 1.319-.961 0-1.737-.334-2.329-1.002v4.482h-2.54v-13.166h2.356l.088.932c.615-.738 1.418-1.108 2.408-1.108 1.172 0 2.083.434 2.733 1.301.651.867.976 2.063.976 3.586zm-2.54-.185c0-.884-.159-1.567-.475-2.047-.31-.481-.765-.721-1.362-.721-.797 0-1.345.305-1.644.914v3.894c.311.626.864.94 1.661.94 1.213 0 1.82-.993 1.82-2.98zm8.499 5.028c-1.395 0-2.532-.428-3.41-1.283-.873-.856-1.31-1.996-1.31-3.419v-.246c0-.956.185-1.808.554-2.558.369-.756.89-1.336 1.564-1.74.68-.41 1.453-.616 2.32-.616 1.301 0 2.324.411 3.068 1.231.75.82 1.125 1.983 1.125 3.489v1.037h-6.056c.082.621.328 1.119.738 1.494.416.375.941.563 1.574.563.978 0 1.743-.355 2.294-1.064l1.248 1.398c-.381.539-.897.961-1.547 1.266-.651.298-1.371.448-2.162.448zm-.29-7.805c-.504 0-.914.17-1.231.51-.31.34-.51.826-.597 1.459h3.533v-.202c-.012-.563-.164-.996-.457-1.301-.293-.311-.709-.466-1.248-.466zm13.438.158h-3.05v7.471h-2.548v-7.471h-2.998v-2.039h8.596zm5.098 7.647c-1.395 0-2.531-.428-3.41-1.283-.873-.856-1.31-1.996-1.31-3.419v-.246c0-.956.185-1.808.554-2.558.369-.756.89-1.336 1.564-1.74.68-.41 1.453-.616 2.321-.616 1.3 0 2.323.411 3.067 1.231.75.82 1.125 1.983 1.125 3.489v1.037h-6.056c.082.621.328 1.119.739 1.494.416.375.94.563 1.573.563.978 0 1.743-.355 2.294-1.064l1.248 1.398c-.381.539-.897.961-1.547 1.266-.65.298-1.371.448-2.162.448zm-.29-7.805c-.504 0-.914.17-1.231.51-.31.34-.509.826-.597 1.459h3.533v-.202c-.012-.563-.164-.996-.457-1.301-.293-.311-.709-.466-1.248-.466zm13.895 7.629h-2.549v-3.656h-3.155v3.656h-2.54v-9.51h2.54v3.815h3.155v-3.815h2.549zm10.213 0h-2.549v-3.656h-3.155v3.656h-2.54v-9.51h2.54v3.815h3.155v-3.815h2.549zm1.573-4.843c0-.943.182-1.784.545-2.522.364-.739.885-1.31 1.565-1.714.685-.404 1.479-.607 2.382-.607 1.283 0 2.329.393 3.137 1.178.815.785 1.269 1.852 1.363 3.199l.017.651c0 1.459-.407 2.631-1.221 3.515-.815.879-1.908 1.319-3.279 1.319s-2.467-.44-3.287-1.319c-.814-.878-1.222-2.074-1.222-3.586zm2.54.185c0 .902.17 1.594.51 2.074.34.475.826.712 1.459.712.615 0 1.096-.234 1.442-.703.345-.475.518-1.231.518-2.268 0-.885-.173-1.57-.518-2.056-.346-.487-.832-.73-1.459-.73-.621 0-1.102.243-1.442.73-.34.48-.51 1.227-.51 2.241zm12.411 4.834c-1.395 0-2.532-.428-3.411-1.283-.873-.856-1.309-1.996-1.309-3.419v-.246c0-.956.184-1.808.554-2.558.369-.756.89-1.336 1.564-1.74.68-.41 1.453-.616 2.32-.616 1.301 0 2.324.411 3.068 1.231.75.82 1.125 1.983 1.125 3.489v1.037h-6.056c.082.621.328 1.119.738 1.494.416.375.941.563 1.574.563.978 0 1.743-.355 2.294-1.064l1.248 1.398c-.381.539-.897.961-1.547 1.266-.651.298-1.371.448-2.162.448zm-.29-7.805c-.504 0-.915.17-1.231.51-.31.34-.51.826-.598 1.459h3.534v-.202c-.012-.563-.164-.996-.457-1.301-.293-.311-.709-.466-1.248-.466zm-109.433 19.119h2.54v9.51h-2.54v-5.871l-3.182 5.871h-2.549v-9.51h2.549v5.863zm10.274 6.513 2.488-6.513h3.181v9.51h-2.54v-5.836l-2.276 5.836h-1.705l-2.233-5.739v5.739h-2.54v-9.51h3.156zm11.435-.598 1.758-5.915h2.724l-3.823 10.987-.211.501c-.568 1.242-1.506 1.863-2.812 1.863-.369 0-.744-.056-1.125-.167v-1.925l.386.009c.481 0 .838-.073 1.073-.22.24-.146.427-.39.562-.729l.299-.783-3.331-9.536h2.733zm7.998-5.915v7.462h2.61v-7.462h2.549v7.462h2.602v-7.462h2.549v7.48h1.889l-.176 4.851h-2.364v-2.821h-12.199v-9.51zm17.912 9.686c-1.394 0-2.531-.428-3.41-1.283-.873-.856-1.31-1.996-1.31-3.419v-.246c0-.956.185-1.808.554-2.558.369-.756.891-1.336 1.565-1.74.679-.41 1.453-.616 2.32-.616 1.301 0 2.323.411 3.067 1.231.75.82 1.125 1.983 1.125 3.489v1.037h-6.055c.082.621.328 1.119.738 1.494.416.375.94.563 1.573.563.979 0 1.743-.355 2.294-1.064l1.248 1.398c-.381.539-.896.961-1.547 1.266-.65.298-1.371.448-2.162.448zm-.29-7.805c-.504 0-.914.17-1.23.51-.311.34-.51.826-.598 1.459h3.533v-.202c-.012-.563-.164-.996-.457-1.301-.293-.311-.709-.466-1.248-.466zm9.606 5.757c.469 0 .85-.129 1.143-.387s.445-.6.457-1.028h2.382c-.006.644-.182 1.236-.527 1.775-.346.533-.821.95-1.424 1.248-.598.293-1.26.44-1.987.44-1.359 0-2.431-.431-3.216-1.292-.786-.867-1.178-2.063-1.178-3.586v-.167c0-1.465.39-2.634 1.169-3.507s1.848-1.31 3.208-1.31c1.189 0 2.141.34 2.856 1.02.721.674 1.087 1.573 1.099 2.698h-2.382c-.012-.492-.164-.89-.457-1.195-.293-.311-.68-.466-1.16-.466-.592 0-1.04.217-1.345.65-.299.428-.448 1.125-.448 2.092v.264c0 .978.149 1.682.448 2.109.299.428.753.642 1.362.642zm13.325-5.599h-3.05v7.471h-2.549v-7.471h-2.997v-2.039h8.596zm1.45 7.471v-9.51h3.973c1.294 0 2.288.229 2.979.686s1.037 1.113 1.037 1.969c0 .439-.146.834-.439 1.186-.287.346-.709.612-1.266.8.68.129 1.213.384 1.6.765.392.375.589.837.589 1.388 0 .885-.334 1.559-1.002 2.022-.663.463-1.626.694-2.892.694zm2.54-3.946v1.916h2.048c.896 0 1.345-.314 1.345-.941 0-.638-.428-.964-1.284-.975zm0-1.705h1.573c.891-.012 1.336-.299 1.336-.862 0-.345-.123-.591-.369-.738-.24-.146-.609-.22-1.107-.22h-1.433zm7.093.808c0-.943.181-1.784.545-2.522.363-.739.884-1.31 1.564-1.714.686-.404 1.48-.607 2.382-.607 1.283 0 2.329.393 3.138 1.178.814.785 1.268 1.852 1.362 3.199l.018.651c0 1.459-.408 2.631-1.222 3.515-.815.879-1.907 1.319-3.278 1.319-1.372 0-2.467-.44-3.288-1.319-.814-.878-1.221-2.074-1.221-3.586zm2.54.185c0 .902.17 1.594.51 2.074.339.475.826.712 1.459.712.615 0 1.095-.234 1.441-.703.346-.475.518-1.231.518-2.268 0-.885-.172-1.57-.518-2.056-.346-.487-.832-.73-1.459-.73-.621 0-1.102.243-1.441.73-.34.48-.51 1.227-.51 2.241zm12.682 4.658v-9.51h3.973c1.295 0 2.288.229 2.98.686.691.457 1.037 1.113 1.037 1.969 0 .439-.147.834-.44 1.186-.287.346-.709.612-1.265.8.679.129 1.212.384 1.599.765.393.375.589.837.589 1.388 0 .885-.334 1.559-1.002 2.022-.662.463-1.626.694-2.892.694zm2.54-3.946v1.916h2.048c.897 0 1.345-.314 1.345-.941 0-.638-.428-.964-1.283-.975zm0-1.705h1.574c.89-.012 1.336-.299 1.336-.862 0-.345-.123-.591-.37-.738-.24-.146-.609-.22-1.107-.22h-1.433zm-69.231 17.141v9.51h-2.54v-7.453h-2.241l-.158 2.935c-.1 1.565-.408 2.705-.923 3.419-.516.715-1.284 1.081-2.303 1.099h-.861l-.027-2.065.317-.027c.457-.035.791-.304 1.002-.808s.342-1.363.395-2.576l.176-4.034zm7.69 0h2.54v9.51h-2.54v-5.871l-3.181 5.871h-2.549v-9.51h2.549v5.863zm9.475 2.804c0-.334-.111-.592-.334-.773-.217-.188-.527-.282-.932-.282-.416 0-.755.088-1.019.264-.258.17-.387.413-.387.729h-2.54c0-.861.358-1.561 1.072-2.1.715-.539 1.629-.809 2.743-.809 1.224 0 2.185.24 2.882.721.703.48 1.055 1.163 1.055 2.048 0 .422-.129.811-.387 1.169-.252.351-.609.633-1.072.843 1.084.381 1.626 1.117 1.626 2.207 0 .873-.375 1.57-1.125 2.091-.744.516-1.737.774-2.979.774-1.155 0-2.104-.27-2.848-.809s-1.116-1.265-1.116-2.179h2.54c0 .322.143.583.43.782s.662.299 1.125.299c.452 0 .803-.106 1.055-.317s.378-.486.378-.826c0-.416-.12-.712-.36-.888-.241-.181-.601-.272-1.081-.272h-1.38v-1.653h1.467c.792-.023 1.187-.363 1.187-1.019zm9.984-2.804h2.54v9.51h-2.54v-5.871l-3.181 5.871h-2.549v-9.51h2.549v5.863zm12.727 9.51h-2.549v-3.656h-3.155v3.656h-2.54v-9.51h2.54v3.815h3.155v-3.815h2.549zm8.446-7.453h-3.937v7.453h-2.54v-9.51h6.477z" fill="#232422"/><path d="m233.603 127.842c-1.162-1.123-3.005-1.123-4.167 0l-16.511 15.94c-1.942 1.874-.615 5.158 2.083 5.158h33.023c2.698 0 4.025-3.284 2.084-5.158z" stroke="#ffcd15" stroke-width="2"/><path d="m96.0371 329.203v12.797h-2.6455v-10.661h-3.4102l-.2109 4.517c-.0879 1.524-.2812 2.725-.5801 3.604-.2988.873-.7353 1.515-1.3095 1.925-.5743.404-1.3594.609-2.3555.615h-.6856v-2.118l.4395-.044c.6621-.088 1.1338-.469 1.415-1.143.2871-.679.4688-1.886.545-3.621l.2197-5.871zm7.8659 3.287h2.54v9.51h-2.54v-5.871l-3.181 5.871h-2.5491v-9.51h2.5491v5.863zm9.475 2.804c0-.334-.111-.592-.334-.773-.217-.188-.527-.282-.932-.282-.416 0-.756.088-1.019.264-.258.17-.387.413-.387.729h-2.54c0-.861.357-1.561 1.072-2.1s1.629-.809 2.742-.809c1.225 0 2.186.24 2.883.721.703.48 1.055 1.163 1.055 2.048 0 .422-.129.811-.387 1.169-.252.351-.609.633-1.072.843 1.084.381 1.626 1.117 1.626 2.207 0 .873-.375 1.57-1.125 2.091-.744.516-1.737.774-2.98.774-1.154 0-2.103-.27-2.847-.809s-1.116-1.265-1.116-2.179h2.54c0 .322.143.583.43.782s.662.299 1.125.299c.451 0 .803-.106 1.055-.317s.378-.486.378-.826c0-.416-.12-.712-.36-.888-.241-.181-.601-.272-1.081-.272h-1.38v-1.653h1.467c.791-.023 1.187-.363 1.187-1.019zm9.984-2.804h2.54v9.51h-2.54v-5.871l-3.181 5.871h-2.549v-9.51h2.549v5.863zm12.727 9.51h-2.549v-3.656h-3.155v3.656h-2.54v-9.51h2.54v3.815h3.155v-3.815h2.549zm8.446-7.453h-3.937v7.453h-2.54v-9.51h6.477zm.492 2.61c0-.943.182-1.784.545-2.522.364-.739.885-1.31 1.565-1.714.685-.404 1.479-.607 2.382-.607 1.283 0 2.329.393 3.137 1.178.815.785 1.269 1.852 1.363 3.199l.017.651c0 1.459-.407 2.631-1.222 3.515-.814.879-1.907 1.319-3.278 1.319s-2.467-.44-3.287-1.319c-.814-.878-1.222-2.074-1.222-3.586zm2.54.185c0 .902.17 1.594.51 2.074.34.475.826.712 1.459.712.615 0 1.096-.234 1.442-.703.345-.475.518-1.231.518-2.268 0-.885-.173-1.57-.518-2.056-.346-.487-.832-.73-1.459-.73-.622 0-1.102.243-1.442.73-.34.48-.51 1.227-.51 2.241zm7.533 2.61c.574-.609.963-1.213 1.169-1.81.205-.598.319-1.445.342-2.54l.071-3.112h6.996v7.462h1.371v4.904h-2.54v-2.856h-5.634v2.856h-2.593v-4.904zm2.997 0h3.049v-5.361h-1.977l-.018 1.142c-.052 1.746-.404 3.153-1.054 4.219zm13.755 2.048c-.118-.229-.203-.513-.255-.853-.616.686-1.415 1.029-2.4 1.029-.931 0-1.705-.27-2.32-.809-.609-.539-.914-1.219-.914-2.039 0-1.008.372-1.781 1.116-2.32.75-.539 1.831-.812 3.243-.818h1.169v-.544c0-.44-.114-.792-.343-1.055-.222-.264-.577-.396-1.063-.396-.428 0-.765.103-1.011.308-.24.205-.36.486-.36.844h-2.54c0-.551.17-1.061.51-1.53.339-.468.82-.835 1.441-1.098.621-.27 1.318-.405 2.092-.405 1.172 0 2.1.296 2.786.888.691.586 1.037 1.412 1.037 2.479v4.122c.006.902.132 1.585.378 2.048v.149zm-2.101-1.767c.375 0 .721-.082 1.037-.246.316-.17.551-.395.703-.676v-1.635h-.949c-1.271 0-1.948.439-2.03 1.318l-.009.15c0 .316.111.577.334.782s.527.307.914.307zm13.992-5.704h-3.05v7.471h-2.548v-7.471h-2.998v-2.039h8.596zm5.098 7.647c-1.395 0-2.531-.428-3.41-1.283-.873-.856-1.31-1.996-1.31-3.419v-.246c0-.956.185-1.808.554-2.558.369-.756.89-1.336 1.564-1.74.68-.41 1.453-.616 2.321-.616 1.3 0 2.323.411 3.067 1.231.75.82 1.125 1.983 1.125 3.489v1.037h-6.056c.082.621.328 1.119.739 1.494.416.375.94.563 1.573.563.978 0 1.743-.355 2.294-1.064l1.248 1.398c-.381.539-.897.961-1.547 1.266-.65.298-1.371.448-2.162.448zm-.29-7.805c-.504 0-.914.17-1.231.51-.31.34-.509.826-.597 1.459h3.533v-.202c-.012-.563-.164-.996-.457-1.301-.293-.311-.709-.466-1.248-.466zm13.922-1.881v9.51h-2.54v-7.453h-2.242l-.158 2.935c-.099 1.565-.407 2.705-.923 3.419-.515.715-1.283 1.081-2.302 1.099h-.862l-.026-2.065.316-.027c.457-.035.791-.304 1.002-.808s.343-1.363.396-2.576l.176-4.034zm4.675 2.786h1.82c.82 0 1.541.138 2.162.413.621.276 1.096.671 1.424 1.187.334.51.501 1.104.501 1.784 0 1.002-.372 1.811-1.117 2.426-.738.609-1.746.914-3.023.914h-4.315v-9.51h2.548zm0 2.039v2.655h1.802c.504 0 .891-.117 1.16-.352.27-.234.405-.554.405-.958 0-.41-.132-.735-.396-.975-.264-.247-.653-.37-1.169-.37z" fill="#232422"/><path d="m151.259 285.122c-1.55-1.496-4.007-1.496-5.557 0l-16.511 15.94c-2.588 2.499-.819 6.878 2.778 6.878h33.023c3.598 0 5.366-4.379 2.778-6.878z" fill="#ffcd15"/></svg>